<svg width="22" height="22" viewBox="0 0 340 300" fill="none" xmlns="http://www.w3.org/2000/svg">
<path fill-rule="evenodd"
clip-rule="evenodd"
d="M335.045 134.75L265.636 15.2496C260.155 5.8131 250.026 0 239.064 0H100.247C89.2852 0 79.1561 5.8131 73.6752 15.2496L4.26644 134.75C-1.21446 144.187 -1.21446 155.813 4.26644 165.25L73.6752 284.75C79.1561 294.187 89.2852 300 100.247 300H239.064C250.026 300 260.155 294.187 265.636 284.75L335.045 165.25C340.526 155.813 340.526 144.187 335.045 134.75ZM102.549 229.623C101.129 228.402 99.743 227.143 98.3912 225.849C96.6766 224.231 95.2002 222.734 93.9622 221.36C93.8058 221.186 93.6499 221.012 93.4945 220.838C91.6737 218.847 89.9286 216.785 88.2637 214.658C88.1118 214.469 87.9605 214.279 87.8097 214.089L87.8165 214.083C74.1371 196.352 66 174.126 66 150C66 92.0101 113.01 45 171 45C228.99 45 276 92.0101 276 150C276 207.99 228.99 255 171 255V234C217.392 234 255 196.392 255 150C255 103.608 217.392 66 171 66C124.608 66 87 103.608 87 150C87 168.369 92.915 185.752 103.474 199.984L119.182 185.841C112.131 175.667 108 163.316 108 150C108 115.206 136.206 87 171 87C205.794 87 234 115.206 234 150C234 184.794 205.794 213 171 213V192C194.196 192 213 173.196 213 150C213 126.804 194.196 108 171 108C147.804 108 129 126.804 129 150C129 157.793 131.129 165.218 134.977 171.619L151.199 157.013C150.423 154.82 150 152.459 150 150C150 138.402 159.402 129 171 129C182.598 129 192 138.402 192 150C192 161.598 182.598 171 171 171C169.949 171 168.916 170.923 167.906 170.774L102.558 229.613L102.549 229.623Z"
fill="#009DB2"
/>
</svg>
