<svg id="Layer_1" data-name="Layer 1" xmlns="http://www.w3.org/2000/svg" viewBox="0 0 50 50">
  <defs>
    <style>
      .cls-1 {
        fill: #fff;
      }
    </style>
  </defs>
  <path class="cls-1" d="M34.08,39.51C35.36,41.14,36.9,43,36.9,43A15.66,15.66,0,0,0,50,36.47a57.47,57.47,0,0,0-6.16-25A21.13,21.13,0,0,0,31.81,7l-.6.68a28.48,28.48,0,0,1,10.66,5.44,36.37,36.37,0,0,0-32-1.24c-1.58.73-2.53,1.24-2.53,1.24A28.9,28.9,0,0,1,18.62,7.52L18.2,7a21.1,21.1,0,0,0-12,4.49A57.34,57.34,0,0,0,0,36.47,15.51,15.51,0,0,0,13.06,43s1.58-1.93,2.86-3.56a13.35,13.35,0,0,1-7.49-5.05c.63.44,1.67,1,1.76,1.07a31.17,31.17,0,0,0,26.71,1.5,24.57,24.57,0,0,0,4.92-2.52A13.53,13.53,0,0,1,34.08,39.51ZM17,32.49A4.77,4.77,0,0,1,17,23h.06a4.55,4.55,0,0,1,4.31,4.76h0A4.56,4.56,0,0,1,17,32.49Zm20-4.75A4.38,4.38,0,1,1,32.62,23,4.56,4.56,0,0,1,37,27.73Z"/>
</svg>
