<?xml version="1.0" encoding="utf-8"?>
<!-- Generator: Adobe Illustrator 23.1.1, SVG Export Plug-In . SVG Version: 6.00 Build 0)  -->
<svg version="1.1" id="Layer_1" xmlns="http://www.w3.org/2000/svg" xmlns:xlink="http://www.w3.org/1999/xlink" x="0px" y="0px"
	 viewBox="0 0 50 50" style="enable-background:new 0 0 50 50;" xml:space="preserve">
<style type="text/css">
	.st0{fill:#E8E8E8;}
</style>
<g id="C0iA5F.tif_1_">
	<path class="st0" d="M24.821,0.543C11.23,0.543,0.213,11.56,0.213,25.151c0,13.591,11.017,24.608,24.608,24.608
		c13.591,0,24.608-11.017,24.608-24.608C49.429,11.56,38.411,0.543,24.821,0.543z M16.989,37.336
		c-1.58-0.03-3.161-0.023-4.741-0.003c-0.405,0.005-0.523-0.138-0.523-0.523c0.007-5.827,0.007-11.653,0-17.48
		c-0.001-0.385,0.123-0.541,0.523-0.537c1.596,0.014,3.193,0.016,4.789-0.001c0.436-0.005,0.574,0.149,0.571,0.586
		c-0.016,2.905-0.009,5.811-0.008,8.716c0,2.873-0.01,5.747,0.01,8.62C17.614,37.196,17.478,37.345,16.989,37.336z M14.643,16.429
		c-1.862-0.017-3.338-1.53-3.335-3.42c0.003-1.846,1.503-3.345,3.349-3.346c1.855-0.001,3.394,1.541,3.377,3.384
		C18.016,14.911,16.478,16.446,14.643,16.429z M38.394,37.335c-1.516-0.027-3.033-0.01-4.55-0.01c-0.686,0-0.687-0.001-0.688-0.668
		c-0.001-3.113,0.018-6.226-0.019-9.339c-0.008-0.706-0.135-1.433-0.342-2.108c-0.345-1.121-1.173-1.634-2.339-1.691
		c-2.382-0.115-3.283,1.319-3.461,3.05c-0.062,0.601-0.091,1.207-0.093,1.811c-0.01,2.778-0.015,5.556,0.006,8.333
		c0.004,0.48-0.126,0.632-0.618,0.623c-1.564-0.03-3.129-0.027-4.693-0.001c-0.432,0.007-0.531-0.133-0.53-0.545
		c0.012-5.811,0.012-11.622,0-17.433c-0.001-0.406,0.095-0.571,0.525-0.565c1.516,0.018,3.033,0.013,4.55,0.003
		c0.36-0.002,0.514,0.108,0.494,0.498c-0.031,0.614-0.008,1.231-0.008,1.944c0.329-0.403,0.563-0.743,0.85-1.031
		c1.191-1.199,2.647-1.823,4.332-1.815c0.886,0.005,1.793,0.054,2.653,0.249c2.323,0.527,3.611,2.129,4.105,4.37
		c0.245,1.111,0.376,2.267,0.393,3.405c0.05,3.448,0.009,6.896,0.03,10.344C38.992,37.234,38.843,37.343,38.394,37.335z"/>
</g>
</svg>
