<?xml version="1.0" encoding="utf-8"?>
<!-- Generator: Adobe Illustrator 23.1.1, SVG Export Plug-In . SVG Version: 6.00 Build 0)  -->
<svg version="1.1" id="Layer_1" xmlns="http://www.w3.org/2000/svg" xmlns:xlink="http://www.w3.org/1999/xlink" x="0px" y="0px"
	 viewBox="0 0 50 50" style="enable-background:new 0 0 50 50;" xml:space="preserve">
<style type="text/css">
	.st0{fill:#E8E8E8;}
</style>
<g id="dDIn7Y.tif_1_">
	<g>
		<path class="st0" d="M24.388,8.591c0.368,0,0.736,0,1.104,0c0.078,0.013,0.156,0.031,0.235,0.039
			c0.702,0.079,1.41,0.118,2.104,0.242c2.439,0.433,4.659,1.393,6.655,2.859c2.149,1.579,3.815,3.566,4.988,5.961
			c0.991,2.025,1.523,4.165,1.622,6.419c0.052,1.196-0.023,2.382-0.235,3.554c-0.507,2.794-1.655,5.301-3.486,7.476
			c-2.728,3.239-6.199,5.15-10.4,5.717c-1.572,0.212-3.145,0.174-4.708-0.085c-1.747-0.29-3.408-0.85-4.967-1.697
			c-0.144-0.078-0.266-0.089-0.422-0.039c-2.843,0.916-5.687,1.826-8.531,2.738c-0.051,0.016-0.103,0.028-0.177,0.047
			c0.023-0.08,0.035-0.13,0.051-0.178c0.93-2.772,1.859-5.544,2.794-8.314c0.041-0.122,0.028-0.211-0.036-0.32
			c-1.313-2.228-2.036-4.64-2.21-7.215c-0.072-1.063-0.021-2.123,0.123-3.181c0.178-1.31,0.5-2.583,0.996-3.807
			c1.356-3.344,3.57-5.969,6.647-7.853c2.174-1.332,4.539-2.091,7.083-2.29C23.876,8.644,24.132,8.615,24.388,8.591z M12.308,37.739
			c0.147-0.043,0.252-0.072,0.355-0.105c1.548-0.495,3.096-0.99,4.643-1.49c0.137-0.044,0.243-0.036,0.369,0.044
			c2.035,1.301,4.265,2.001,6.674,2.115c1.64,0.077,3.246-0.146,4.803-0.669c2.737-0.918,4.967-2.544,6.679-4.868
			c1.505-2.044,2.348-4.344,2.569-6.869c0.114-1.302,0.026-2.595-0.247-3.873c-0.569-2.666-1.826-4.96-3.769-6.867
			c-2.096-2.057-4.608-3.302-7.512-3.737c-1.683-0.252-3.359-0.181-5.015,0.217c-3.037,0.729-5.543,2.31-7.485,4.753
			c-2.241,2.819-3.189,6.047-2.891,9.63c0.2,2.407,1.031,4.594,2.424,6.567c0.068,0.097,0.072,0.175,0.035,0.282
			c-0.527,1.556-1.05,3.113-1.574,4.669C12.347,37.591,12.334,37.645,12.308,37.739z"/>
		<path class="st0" d="M33.335,29.263c-0.044,0.695-0.171,1.264-0.426,1.8c-0.059,0.123-0.139,0.24-0.231,0.341
			c-0.618,0.678-1.384,1.117-2.267,1.34c-0.872,0.221-1.741,0.198-2.587-0.139c-0.95-0.377-1.914-0.723-2.845-1.142
			c-1.542-0.694-2.829-1.75-3.989-2.967c-0.907-0.952-1.697-1.996-2.407-3.102c-0.495-0.77-0.985-1.54-1.305-2.404
			c-0.253-0.683-0.437-1.383-0.429-2.115c0.017-1.469,0.597-2.683,1.71-3.641c0.404-0.348,0.879-0.388,1.381-0.32
			c0.165,0.022,0.333,0.035,0.498,0.03c0.279-0.008,0.483,0.111,0.601,0.354c0.123,0.252,0.23,0.513,0.329,0.776
			c0.349,0.924,0.69,1.852,1.039,2.776c0.092,0.243,0.068,0.461-0.049,0.693c-0.265,0.524-0.68,0.924-1.079,1.335
			c-0.338,0.348-0.376,0.519-0.141,0.945c1.198,2.172,2.865,3.855,5.134,4.907c0.141,0.065,0.277,0.14,0.42,0.202
			c0.318,0.139,0.532,0.107,0.761-0.149c0.468-0.522,0.93-1.05,1.384-1.585c0.221-0.26,0.389-0.343,0.707-0.223
			c0.311,0.117,0.612,0.263,0.906,0.418c0.839,0.441,1.671,0.896,2.51,1.339C33.221,28.872,33.377,29.055,33.335,29.263z"/>
	</g>
</g>
</svg>
