<svg xmlns="http://www.w3.org/2000/svg" width="1880.2" height="566.76" viewBox="0 0 1880.2 566.76">
  <defs>
    <style>
      .cls-1 {
        isolation: isolate;
      }

      .cls-2 {
        fill: #290062;
      }

      .cls-3 {
        fill: #1b003d;
      }

      .cls-4 {
        fill: #fff;
      }

      .cls-4, .cls-5 {
        mix-blend-mode: overlay;
      }

      .cls-5 {
        fill: #f119dc;
        opacity: 0.83;
      }
    </style>
  </defs>
  <g class="cls-1">
    <g id="Layer_1" data-name="Layer 1">
      <g>
        <rect class="cls-2" x="-1.72" y="-0.06" width="1883" height="140.44"/>
        <path class="cls-3" d="M1881.28,86.46s-41.06-22.07-110.48-8-136.87-10-196.51,2-124.16,8.69-152.52-1.34-70.39-1.32-106.56,12c-68.73,25.38-147.63,13.37-212.16-8S965.2,63.72,893.83,85.79s-145.68,22.07-223.89-10.7-245.4,30.76-305,11.37-118.3,8.69-139.81-1.34-75.28,12-110.48.67-68.43-2.68-82.12,2S-1.72,86.46-1.72,86.46V567.15h1883Z"/>
        <path class="cls-4" d="M1232.08,96.65c-46.72,0-91.73-8.12-126.64-16.87C1042.25,64,970,64.65,896.59,81.8c-76.83,18-150.11,15.3-224-8.08C629.26,60,557.32,68.83,493.84,76.62c-51.16,6.28-99.49,12.21-126.06,5.69-35.3-8.68-69.73-4.8-97.39-1.69-18.73,2.11-33.53,3.78-42.37.66-10.05-3.54-27.73-1.67-46.45.3-21.22,2.24-45.26,4.77-63.91.22-35.26-8.6-69-1.81-81.83,1.52-13.63,3.52-34.22-1-34.43-1l.22-1c.2,0,20.56,4.48,34,1C48.51,79,82.42,72.17,117.9,80.83c18.48,4.51,42.43,2,63.56-.24,19.66-2.07,36.63-3.86,46.89-.25,8.62,3,23.32,1.38,41.93-.71,27.74-3.12,62.26-7,97.74,1.71,26.39,6.48,74.63.56,125.7-5.71C557.3,67.83,629.35,59,672.89,72.76c73.72,23.33,146.82,26,223.47,8.07,73.6-17.19,146-17.89,209.32-2,56.12,14.06,138.41,26.52,211.76,6.06,25.73-7.17,73.8-17.89,106.76-9.09,28.35,7.58,93,10,152.21,1,28.71-4.37,58.9-2.46,90.85-.43,34.21,2.17,69.58,4.42,105.53-1.08,68.72-10.5,110.27,5.92,110.68,6.09l-.38.92c-.41-.16-41.73-16.47-110.15-6-36.06,5.51-71.48,3.26-105.74,1.09-31.9-2-62-3.94-90.64.42-59.3,9-124.17,6.59-152.62-1-32.73-8.75-80.6,1.94-106.23,9.09C1289.81,93.62,1260.63,96.65,1232.08,96.65Z"/>
        <path class="cls-4" d="M1232.08,110.22c-46.7,0-91.69-4-126.58-8.23-63.23-7.74-135.49-7.4-209,1-76.79,8.75-150,7.46-223.87-4-43.38-6.7-115.35-2.39-178.85,1.41-51.14,3.07-99.44,6-126,2.78-35.34-4.24-69.79-2.35-97.47-.82-18.71,1-33.48,1.84-42.27.32-10.1-1.73-27.81-.82-46.56.14-21.19,1.09-45.21,2.33-63.82.11-35.31-4.2-69.07-.88-81.95.74-13.58,1.71-34.11-.47-34.31-.49l.11-1c.2,0,20.61,2.19,34.08.49,12.91-1.63,46.77-5,82.19-.74,18.52,2.21,42.5,1,63.65-.11,19.62-1,36.57-1.89,46.78-.13,8.67,1.49,23.4.68,42-.34C298,99.87,332.53,98,368,102.23c26.44,3.17,74.7.28,125.79-2.78C557.3,95.64,629.33,91.32,672.81,98c73.77,11.4,146.91,12.69,223.61,3.94,73.55-8.39,145.89-8.73,209.2-1,56.15,6.86,138.49,13,211.89,3,25.7-3.5,73.72-8.72,106.62-4.43,28.38,3.7,93.11,4.9,152.32.49,28.69-2.14,58.85-1.2,90.79-.21,34.22,1.06,69.6,2.15,105.59-.53,68.65-5.12,110.13,2.88,110.55,3l-.2,1c-.41-.09-41.78-8.06-110.27-3-36.05,2.68-71.45,1.59-105.7.53-31.91-1-62-1.93-90.68.2-59.27,4.42-124.1,3.22-152.53-.49-32.78-4.28-80.71.94-106.35,4.44C1289.77,108.74,1260.6,110.22,1232.08,110.22Z"/>
        <path class="cls-4" d="M1232.08,117.62c-46.68,0-91.67-2.14-126.55-4.44-63.26-4.17-135.54-4-209,.54a1535.79,1535.79,0,0,1-223.82-2.13c-43.4-3.61-115.38-1.29-178.89.76-51.13,1.65-99.42,3.21-125.93,1.5-35.37-2.29-69.83-1.27-97.52-.45-18.69.56-33.45,1-42.21.18-10.12-.94-27.85-.44-46.62.08-21.18.58-45.19,1.25-63.77.06a659.46,659.46,0,0,0-82,.4c-13.55.92-34.05-.26-34.26-.27l.06-1c.21,0,20.65,1.18,34.14.27a661.33,661.33,0,0,1,82.13-.4c18.54,1.19,42.52.52,63.69-.06,19.61-.55,36.55-1,46.73-.07,8.7.8,23.44.37,42.09-.19,27.71-.82,62.2-1.84,97.61.45,26.46,1.71,74.73.15,125.84-1.5,63.53-2,135.55-4.38,179-.76a1533.59,1533.59,0,0,0,223.66,2.13c73.53-4.52,145.86-4.7,209.15-.53,56.16,3.7,138.53,7,212,1.59,25.69-1.88,73.69-4.7,106.56-2.39,28.39,2,93.15,2.64,152.37.26,28.67-1.15,58.83-.64,90.76-.11,34.23.57,69.62,1.16,105.62-.29,68.61-2.75,110.07,1.56,110.48,1.6l-.1,1c-.41,0-41.81-4.35-110.34-1.6-36,1.45-71.44.86-105.68.29-31.91-.53-62.06-1-90.7.11-59.26,2.38-124.06,1.73-152.48-.26-32.81-2.31-80.76.5-106.41,2.39C1289.75,116.82,1260.6,117.62,1232.08,117.62Z"/>
        <path class="cls-4" d="M652.71,149.69c-28.53,0-57.69-1.66-85.57-5.94-25.65-3.93-73.57-9.81-106.35-5-28.42,4.17-93.25,5.52-152.53.56-28.63-2.4-58.77-1.35-90.68-.24-34.25,1.2-69.66,2.43-105.7-.6C43.39,132.73,2,141.71,1.62,141.8l-.22-1c.41-.09,41.91-9.11,110.56-3.34,36,3,71.37,1.79,105.59.59,31.94-1.11,62.11-2.16,90.79.24,59.21,5,123.94,3.62,152.31-.55,32.91-4.84,80.94,1,106.64,5,73.39,11.26,155.73,4.4,211.87-3.33,63.32-8.71,135.67-8.33,209.22,1.11,76.69,9.85,149.83,8.4,223.59-4.43,43.49-7.57,115.52-2.71,179.07,1.58,51.09,3.44,99.35,6.7,125.78,3.13,35.44-4.78,69.94-2.65,97.66-.94,18.64,1.16,33.36,2.07,42,.39,10.21-2,27.17-1,46.8.14,21.15,1.23,45.12,2.62,63.63.13,35.45-4.75,69.3-1,82.21.84,13.46,1.9,33.86-.54,34.07-.56l.12,1c-.21,0-20.74,2.48-34.33.56-12.87-1.83-46.61-5.57-81.93-.84-18.61,2.5-42.64,1.11-63.83-.12-18.75-1.08-36.46-2.11-46.55-.16-8.79,1.7-23.57.79-42.28-.37-27.68-1.71-62.12-3.84-97.46.93-26.54,3.58-74.85.32-126-3.13-63.49-4.28-135.46-9.13-178.82-1.59-73.87,12.85-147.1,14.3-223.9,4.44-73.46-9.43-145.72-9.81-209-1.11C744.41,145.23,699.4,149.69,652.71,149.69Z"/>
        <path class="cls-4" d="M652.72,200.27c-28.52,0-57.67-1-85.55-3.51-25.66-2.32-73.61-5.79-106.41-2.95-28.41,2.47-93.22,3.26-152.48.33-28.64-1.41-58.79-.8-90.7-.14-34.25.71-69.65,1.44-105.69-.35-68.52-3.4-109.9,1.91-110.31,2l-.13-1c.41-.05,41.87-5.37,110.49-2,36,1.79,71.39,1.06,105.62.35,31.93-.65,62.09-1.28,90.77.14,59.22,2.94,124,2.14,152.35-.32,32.87-2.85,80.89.62,106.58,3,73.44,6.64,155.78,2.6,211.93-2,63.31-5.15,135.63-4.92,209.16.65A1244.78,1244.78,0,0,0,1212,191.84c43.46-4.47,115.48-1.6,179,.93,51.1,2,99.37,4,125.82,1.85,35.42-2.82,69.91-1.56,97.62-.55,18.65.68,33.39,1.22,42.08.22,10.19-1.16,27.13-.58,46.74.09,21.16.72,45.15,1.54,63.68.08,35.42-2.81,69.25-.59,82.15.49,13.48,1.13,33.92-.32,34.12-.33l.07,1c-.2,0-20.71,1.46-34.27.32-12.88-1.08-46.64-3.28-82-.49-18.59,1.48-42.61.65-63.79-.07-18.76-.64-36.48-1.25-46.59-.09-8.78,1-23.54.46-42.24-.22-27.68-1-62.14-2.27-97.5.55-26.52,2.11-74.81.19-125.94-1.85-63.51-2.53-135.49-5.39-178.88-.94a1245.75,1245.75,0,0,1-223.83,2.62c-73.48-5.57-145.75-5.8-209-.65C744.4,197.63,699.41,200.27,652.72,200.27Z"/>
        <polygon class="cls-4" points="720.31 566.43 719.39 566.02 888.31 190.61 909.98 134.39 909.98 112.13 917.82 99.76 921.66 76.22 922.64 76.38 918.72 100.21 910.98 112.42 910.95 134.66 889.24 190.99 720.31 566.43"/>
        <polygon class="cls-4" points="437.3 567.19 436.59 566.48 813.33 192.02 836.05 134.39 835.72 115.76 846.17 106.48 848.25 89.74 849.24 89.86 847.12 106.97 836.73 116.2 837.05 134.57 837.02 134.66 814.18 192.59 814.11 192.66 437.3 567.19"/>
        <polygon class="cls-4" points="26.19 566.65 25.69 565.79 659.46 198.81 729.75 145.19 763.03 114.93 777.26 106.97 787.07 92.67 787.89 93.23 777.95 107.72 777.85 107.78 763.57 115.77 730.39 145.95 660.01 199.64 26.19 566.65"/>
        <polygon class="cls-4" points="0.69 357.61 0.38 356.66 507.79 192.6 634.08 148.22 690.7 111.86 710.23 102.61 727.21 86.63 727.9 87.35 710.73 103.48 691.19 112.73 634.47 149.14 508.11 193.55 0.69 357.61"/>
        <polygon class="cls-4" points="-0.67 260.79 -0.86 259.81 335.89 193.82 565.7 142.53 642.03 108.84 662.5 96.59 677.31 74.48 678.14 75.04 663.21 97.33 642.49 109.72 566 143.47 336.09 194.8 -0.67 260.79"/>
        <polygon class="cls-4" points="-0.92 231.4 -1.05 230.41 279.68 192.17 528.25 137.9 595.68 108.94 617.61 94.27 627.97 66.05 628.91 66.4 618.43 94.92 618.3 95.01 596.15 109.81 528.55 138.85 279.86 193.15 -0.92 231.4"/>
        <polygon class="cls-4" points="-1.15 212.49 -1.25 211.49 168.75 193.6 465.29 137.28 537.08 110.17 564.91 95.65 583.73 66.57 584.57 67.11 565.61 96.42 565.49 96.48 537.48 111.08 465.56 138.24 168.9 194.59 -1.15 212.49"/>
        <polygon class="cls-4" points="-0.92 193.57 -1.05 192.58 366.53 141.18 489.54 111.6 517.36 98.12 533.79 70.9 534.64 71.42 518.06 98.89 517.93 98.95 489.82 112.56 366.71 142.16 -0.92 193.57"/>
        <polygon class="cls-4" points="-0.71 173.01 -0.82 172.02 303.36 137.89 414.26 113.43 469.43 100.94 486.47 76.42 487.29 77 470.03 101.83 414.47 114.41 303.52 138.88 -0.71 173.01"/>
        <polygon class="cls-4" points="1121.38 567.62 995.01 195.09 984.57 141.05 979.01 109.47 983.24 96.21 978.54 68.98 979.53 68.81 984.27 96.28 980.04 109.54 985.55 140.87 995.97 194.83 1122.32 567.29 1121.38 567.62"/>
        <polygon class="cls-4" points="1476.81 567.51 1090.16 198.92 1090.12 198.82 1067.65 147.01 1049.34 110.17 1052.94 96.81 1051.27 70.37 1052.27 70.31 1053.95 96.91 1050.4 110.07 1068.56 146.59 1091 198.33 1477.5 566.78 1476.81 567.51"/>
        <polygon class="cls-4" points="1798.34 567.88 1181.13 195.01 1181.09 194.97 1132.51 146.19 1132.48 146.13 1115.15 113.31 1115.81 102.74 1112.56 81.2 1113.54 81.06 1116.81 102.69 1116.17 113.09 1133.33 145.59 1181.75 194.22 1798.86 567.03 1798.34 567.88"/>
        <polygon class="cls-4" points="1882.11 443.02 1254.79 190.11 1254.72 190.06 1195.31 138.76 1190.77 116.88 1179.73 108.28 1172.84 92.43 1173.76 92.03 1180.55 107.64 1191.67 116.31 1196.22 138.22 1255.31 189.25 1882.49 442.1 1882.11 443.02"/>
        <polygon class="cls-4" points="1882.19 310.13 1331.06 191.38 1330.98 191.33 1246.34 133.43 1246.29 133.3 1238.96 117.42 1234.43 110.07 1222.97 96.72 1223.73 96.07 1235.24 109.48 1239.85 116.95 1247.13 132.76 1331.46 190.45 1882.4 309.15 1882.19 310.13"/>
        <polygon class="cls-4" points="1882.56 253.71 1474.1 196.34 1474.05 196.32 1307.84 133.36 1292.17 116.05 1280.68 107.92 1272 94.25 1272.84 93.71 1281.47 107.3 1292.87 115.33 1308.42 132.51 1474.35 195.36 1882.7 252.72 1882.56 253.71"/>
        <polygon class="cls-4" points="1882.9 225.03 1558.14 193.57 1558.09 193.55 1396.5 138.33 1356.71 112.08 1335.81 102.48 1316.76 86.03 1317.42 85.27 1336.41 101.68 1357.2 111.21 1396.94 137.42 1558.36 192.58 1883 224.03 1882.9 225.03"/>
        <polygon class="cls-4" points="1882.59 210.23 1666.94 194.49 1666.88 194.48 1498.18 142.98 1423.89 112.35 1390.58 98.52 1366.09 75.33 1366.77 74.6 1391.14 97.67 1424.27 111.43 1498.52 142.04 1667.12 193.51 1882.66 209.23 1882.59 210.23"/>
        <polygon class="cls-4" points="1882.48 202.41 1778.26 194.39 1555.79 138.65 1555.73 138.62 1511.29 114.19 1446.76 102.26 1446.66 102.18 1413.44 74.63 1414.08 73.86 1447.2 101.33 1511.63 113.24 1511.7 113.28 1556.15 137.71 1778.42 193.41 1882.56 201.42 1882.48 202.41"/>
        <polygon class="cls-4" points="1882.65 190.28 1614.45 140.51 1614.39 140.49 1553.6 113.35 1518.49 103.51 1458.75 82.32 1459.09 81.38 1518.8 102.55 1553.93 112.41 1614.75 139.55 1882.83 189.29 1882.65 190.28"/>
        <polygon class="cls-4" points="1882.45 168.69 1678.94 140.11 1678.88 140.08 1613.37 112.14 1554.81 102.29 1501.09 83.56 1501.42 82.61 1555.05 101.32 1613.7 111.2 1679.21 139.14 1882.59 167.7 1882.45 168.69"/>
        <polygon class="cls-4" points="1882.23 155.95 1773.46 140.53 1667.23 112.14 1627.26 99.6 1540.68 81.72 1540.88 80.74 1627.51 98.63 1667.51 111.18 1773.66 139.55 1882.37 154.96 1882.23 155.95"/>
        <polygon class="cls-4" points="1882.87 131.27 1767.8 112.15 1687.91 101.26 1585.82 76.37 1586.06 75.4 1688.1 100.28 1767.95 111.17 1883.03 130.29 1882.87 131.27"/>
        <polygon class="cls-4" points="1882.86 120.99 1825.55 111.13 1743.29 101.47 1626.86 75.14 1627.08 74.17 1743.46 100.48 1825.7 110.14 1883.03 120.01 1882.86 120.99"/>
        <polygon class="cls-4" points="1882.47 108.46 1782.6 99.41 1667.26 77.2 1667.45 76.22 1782.74 98.42 1882.56 107.46 1882.47 108.46"/>
        <rect class="cls-4" x="1774.11" y="19.54" width="1" height="138.2" transform="translate(1433.45 1832.39) rotate(-81.79)"/>
        <rect class="cls-4" x="1812.54" y="16.66" width="1" height="140.86" transform="translate(1506.96 1876.23) rotate(-83.04)"/>
        <rect class="cls-4" x="1828.93" y="28.75" width="1" height="107.23" transform="translate(1491.82 1882.26) rotate(-81.95)"/>
        <rect class="cls-4" x="1845.11" y="41.32" width="1" height="75.09" transform="translate(1429.52 1878.69) rotate(-79.43)"/>
        <polygon class="cls-4" points="-1.81 156.98 -1.9 155.98 199.59 138.51 321.76 111.17 367.73 102.25 399.35 84.29 399.85 85.16 368 103.22 321.97 112.15 199.74 139.49 -1.81 156.98"/>
        <polygon class="cls-4" points="-0.94 149.16 -1.03 148.17 117.52 137.89 257.73 112.81 324.3 99.47 360.06 79.36 360.55 80.23 324.65 100.42 324.57 100.43 257.92 113.8 117.65 138.88 -0.94 149.16"/>
        <polygon class="cls-4" points="-1.14 139.09 -1.26 138.1 203.26 111.99 257.45 101.93 315.59 75.84 316 76.75 257.69 102.9 203.42 112.97 -1.14 139.09"/>
        <polygon class="cls-4" points="-1.59 128.19 -1.68 127.2 141.4 113.42 221.65 100.9 275.18 79.06 275.56 79.99 221.86 101.88 141.52 114.42 -1.59 128.19"/>
        <polygon class="cls-4" points="-0.94 121.41 -1.03 120.42 90.59 111.57 171.52 102.13 233.78 81.38 234.1 82.33 171.68 103.11 90.7 112.57 -0.94 121.41"/>
        <polygon class="cls-4" points="-0.08 111.13 -0.15 110.14 118.99 101.91 194.49 78.9 194.79 79.86 119.17 102.9 -0.08 111.13"/>
        <polygon class="cls-4" points="-0.72 108.66 -0.82 107.67 76.48 99.86 157.41 82.59 157.62 83.57 76.63 100.84 -0.72 108.66"/>
        <rect class="cls-4" x="-1.23" y="91.01" width="125.99" height="1" transform="translate(-12.79 10.08) rotate(-8.46)"/>
        <rect class="cls-4" x="-3.27" y="85.36" width="95.76" height="1" transform="translate(-14.58 9.32) rotate(-10.26)"/>
        <polygon class="cls-4" points="1698.67 368.75 1698.56 368.74 1415.93 337.29 1255.68 357.64 1255.6 357.63 1034.88 312 816.02 352.1 815.92 352.07 683.79 321.87 371.78 365.66 371.69 365.64 145.75 310.15 -2.03 321.25 -2.11 320.25 145.83 309.14 145.91 309.16 371.83 364.64 683.83 320.86 816.04 351.07 1034.89 310.99 1034.99 311.01 1255.72 356.63 1415.92 336.28 1415.98 336.29 1698.56 367.73 1876.28 308.55 1876.6 309.5 1698.67 368.75"/>
        <polygon class="cls-4" points="1316.92 276.85 1316.84 276.83 1140.38 246.62 1014.73 255.25 860.33 255.25 761.97 243.54 542.47 267.59 542.41 267.58 341.8 247.23 94.97 241.68 -2.69 247.85 -2.75 246.85 94.95 240.68 341.86 246.23 542.46 266.58 761.97 242.53 762.03 242.54 860.38 254.26 1014.7 254.25 1140.43 245.61 1140.49 245.62 1316.94 275.83 1428.24 260.42 1586.55 246.85 1679.66 224.65 1679.72 224.65 1844.51 220.33 1844.53 221.33 1679.79 225.64 1586.7 247.84 1428.35 261.42 1316.92 276.85"/>
        <path class="cls-4" d="M25.13,86.07a2,2,0,1,0-2.12-2A2.07,2.07,0,0,0,25.13,86.07Z"/>
        <path class="cls-4" d="M57.14,80a1.29,1.29,0,1,0-1.36-1.29A1.33,1.33,0,0,0,57.14,80Z"/>
        <path class="cls-4" d="M92.06,78.84a1.48,1.48,0,1,0-1.55-1.47A1.52,1.52,0,0,0,92.06,78.84Z"/>
        <path class="cls-4" d="M122.37,83.47A1.26,1.26,0,1,0,121,82.21,1.3,1.3,0,0,0,122.37,83.47Z"/>
        <path class="cls-4" d="M157.62,84.69a1.33,1.33,0,1,0-1.4-1.33A1.37,1.37,0,0,0,157.62,84.69Z"/>
        <path class="cls-4" d="M194,81a1.16,1.16,0,1,0-1.22-1.16A1.19,1.19,0,0,0,194,81Z"/>
        <path class="cls-4" d="M234,83.42a1.35,1.35,0,1,0-1.42-1.34A1.39,1.39,0,0,0,234,83.42Z"/>
        <path class="cls-4" d="M275.37,80.73a1.21,1.21,0,1,0-1.28-1.2A1.24,1.24,0,0,0,275.37,80.73Z"/>
        <path class="cls-4" d="M316.1,77.75a1.2,1.2,0,1,0,0-2.39,1.2,1.2,0,1,0,0,2.39Z"/>
        <path class="cls-4" d="M360.44,82.11a2,2,0,1,0-2.12-2A2.07,2.07,0,0,0,360.44,82.11Z"/>
        <path class="cls-4" d="M399.48,86.25a1.58,1.58,0,1,0-1.66-1.57A1.62,1.62,0,0,0,399.48,86.25Z"/>
        <path class="cls-4" d="M442.29,83.88a1.66,1.66,0,1,0-1.75-1.65A1.7,1.7,0,0,0,442.29,83.88Z"/>
        <path class="cls-4" d="M487.18,78.8a2,2,0,1,0-2.12-2A2.07,2.07,0,0,0,487.18,78.8Z"/>
        <path class="cls-4" d="M534.08,72.9a1.39,1.39,0,1,0-1.47-1.39A1.43,1.43,0,0,0,534.08,72.9Z"/>
        <path class="cls-4" d="M584.14,68.16a1.27,1.27,0,1,0-1.33-1.27A1.31,1.31,0,0,0,584.14,68.16Z"/>
        <path class="cls-4" d="M628.72,68.53a2,2,0,1,0-2.12-2A2.07,2.07,0,0,0,628.72,68.53Z"/>
        <path class="cls-4" d="M617.51,97.15a2,2,0,1,0-2.11-2A2.07,2.07,0,0,0,617.51,97.15Z"/>
        <path class="cls-4" d="M662.19,99a2,2,0,1,0-2.12-2A2.06,2.06,0,0,0,662.19,99Z"/>
        <path class="cls-4" d="M565.07,98A2,2,0,1,0,563,96,2.07,2.07,0,0,0,565.07,98Z"/>
        <path class="cls-4" d="M489.85,114.79a2.77,2.77,0,1,0-2.93-2.77A2.85,2.85,0,0,0,489.85,114.79Z"/>
        <path class="cls-4" d="M469.07,102.64a1.57,1.57,0,1,0-1.65-1.57A1.61,1.61,0,0,0,469.07,102.64Z"/>
        <path class="cls-4" d="M414,115.43a1.56,1.56,0,1,0-1.65-1.56A1.61,1.61,0,0,0,414,115.43Z"/>
        <path class="cls-4" d="M368,104.75a1.93,1.93,0,1,0-2-1.93A2,2,0,0,0,368,104.75Z"/>
        <path class="cls-4" d="M257.93,115.13a1.93,1.93,0,1,0-2-1.93A2,2,0,0,0,257.93,115.13Z"/>
        <path class="cls-4" d="M256.52,104.25a1.43,1.43,0,1,0-1.51-1.43A1.47,1.47,0,0,0,256.52,104.25Z"/>
        <path class="cls-4" d="M323.43,101.56a1.43,1.43,0,1,0-1.51-1.43A1.47,1.47,0,0,0,323.43,101.56Z"/>
        <path class="cls-4" d="M221.11,103.48a2,2,0,1,0-2.06-2A2,2,0,0,0,221.11,103.48Z"/>
        <path class="cls-4" d="M142.07,115.75a2,2,0,1,0-2.06-2A2,2,0,0,0,142.07,115.75Z"/>
        <path class="cls-4" d="M118.42,104.38a2,2,0,1,0-2.06-1.95A2,2,0,0,0,118.42,104.38Z"/>
        <path class="cls-4" d="M517.76,100.11a1.57,1.57,0,1,0-1.65-1.57A1.61,1.61,0,0,0,517.76,100.11Z"/>
        <path class="cls-4" d="M677.86,76a1.3,1.3,0,1,0-1.37-1.3A1.33,1.33,0,0,0,677.86,76Z"/>
        <path class="cls-4" d="M727.48,88a1.16,1.16,0,1,0-1.21-1.15A1.19,1.19,0,0,0,727.48,88Z"/>
        <path class="cls-4" d="M787.7,94.33a1.45,1.45,0,1,0-1.53-1.45A1.49,1.49,0,0,0,787.7,94.33Z"/>
        <path class="cls-4" d="M849.41,91.76a2,2,0,1,0-2.12-2A2.05,2.05,0,0,0,849.41,91.76Z"/>
        <path class="cls-4" d="M922.13,77.87a2,2,0,1,0-2.12-2A2.05,2.05,0,0,0,922.13,77.87Z"/>
        <path class="cls-4" d="M918,102.13a2,2,0,1,0-2.12-2A2.06,2.06,0,0,0,918,102.13Z"/>
        <path class="cls-4" d="M776.83,109.45a2,2,0,1,0-2.11-2A2.07,2.07,0,0,0,776.83,109.45Z"/>
        <path class="cls-4" d="M710.29,105.2a2,2,0,1,0-2.12-2A2.06,2.06,0,0,0,710.29,105.2Z"/>
        <path class="cls-4" d="M979.58,112.43a2.63,2.63,0,1,0-2.78-2.63A2.71,2.71,0,0,0,979.58,112.43Z"/>
        <path class="cls-4" d="M910.3,116a2.64,2.64,0,1,0-2.78-2.64A2.71,2.71,0,0,0,910.3,116Z"/>
        <path class="cls-4" d="M985.4,143a2.64,2.64,0,1,0-2.78-2.63A2.71,2.71,0,0,0,985.4,143Z"/>
        <path class="cls-4" d="M889.15,195.57a5.13,5.13,0,1,0-5.41-5.12A5.27,5.27,0,0,0,889.15,195.57Z"/>
        <path class="cls-4" d="M1016.09,260.48a5.13,5.13,0,1,0-5.41-5.13A5.28,5.28,0,0,0,1016.09,260.48Z"/>
        <path class="cls-4" d="M1182.4,201a5.13,5.13,0,1,0-5.41-5.13A5.28,5.28,0,0,0,1182.4,201Z"/>
        <path class="cls-4" d="M1432.09,265.28a5.13,5.13,0,1,0-5.41-5.13A5.28,5.28,0,0,0,1432.09,265.28Z"/>
        <path class="cls-4" d="M1474.53,199a3.54,3.54,0,1,0-3.73-3.53A3.63,3.63,0,0,0,1474.53,199Z"/>
        <path class="cls-4" d="M1666.05,197.58a3.54,3.54,0,1,0-3.73-3.53A3.63,3.63,0,0,0,1666.05,197.58Z"/>
        <path class="cls-4" d="M1499,145.12a2.38,2.38,0,1,0-2.51-2.37A2.44,2.44,0,0,0,1499,145.12Z"/>
        <path class="cls-4" d="M1616.33,144.1a3.26,3.26,0,1,0-3.44-3.25A3.35,3.35,0,0,0,1616.33,144.1Z"/>
        <path class="cls-4" d="M1774.53,141.69a1.78,1.78,0,1,0-1.88-1.78A1.83,1.83,0,0,0,1774.53,141.69Z"/>
        <path class="cls-4" d="M658.49,205.59a5.13,5.13,0,1,0-5.41-5.13A5.28,5.28,0,0,0,658.49,205.59Z"/>
        <path class="cls-4" d="M509.19,198.7a5.13,5.13,0,1,0-5.41-5.12A5.27,5.27,0,0,0,509.19,198.7Z"/>
        <path class="cls-4" d="M334.93,198.51a4,4,0,1,0-4.2-4A4.09,4.09,0,0,0,334.93,198.51Z"/>
        <path class="cls-4" d="M372.33,369a4,4,0,1,0-4.2-4A4.09,4.09,0,0,0,372.33,369Z"/>
        <path class="cls-4" d="M684.22,328a5.69,5.69,0,1,0-6-5.68A5.85,5.85,0,0,0,684.22,328Z"/>
        <path class="cls-4" d="M1257.29,360.85a3.8,3.8,0,1,0-4-3.79A3.9,3.9,0,0,0,1257.29,360.85Z"/>
        <path class="cls-4" d="M1316.54,279.34a2.85,2.85,0,1,0-3-2.85A2.93,2.93,0,0,0,1316.54,279.34Z"/>
        <path class="cls-4" d="M1698.68,374a6.44,6.44,0,1,0-6.78-6.43A6.62,6.62,0,0,0,1698.68,374Z"/>
        <path class="cls-4" d="M365.3,145.42a4,4,0,1,0-4.19-4A4.09,4.09,0,0,0,365.3,145.42Z"/>
        <path class="cls-4" d="M197.49,141.44a2.72,2.72,0,1,0-2.87-2.72A2.8,2.8,0,0,0,197.49,141.44Z"/>
        <path class="cls-4" d="M168.84,198.44a3.69,3.69,0,1,0-3.89-3.68A3.79,3.79,0,0,0,168.84,198.44Z"/>
        <path class="cls-4" d="M730,148.35a2.84,2.84,0,1,0-3-2.84A2.93,2.93,0,0,0,730,148.35Z"/>
        <path class="cls-4" d="M813.77,194a2.13,2.13,0,1,0-2.24-2.12A2.18,2.18,0,0,0,813.77,194Z"/>
        <path class="cls-4" d="M836.39,119.51a3.36,3.36,0,1,0-3.55-3.35A3.45,3.45,0,0,0,836.39,119.51Z"/>
        <path class="cls-4" d="M762.68,118a2.33,2.33,0,1,0-2.45-2.32A2.39,2.39,0,0,0,762.68,118Z"/>
        <path class="cls-4" d="M690.45,115.48a2.72,2.72,0,1,0-2.86-2.72A2.8,2.8,0,0,0,690.45,115.48Z"/>
        <path class="cls-4" d="M642.06,112a2.53,2.53,0,1,0-2.67-2.53A2.6,2.6,0,0,0,642.06,112Z"/>
        <path class="cls-4" d="M595.76,112.2a2.81,2.81,0,1,0-3-2.81A2.89,2.89,0,0,0,595.76,112.2Z"/>
        <path class="cls-4" d="M1115.64,115.88a2.64,2.64,0,1,0-2.78-2.63A2.71,2.71,0,0,0,1115.64,115.88Z"/>
        <path class="cls-4" d="M1876,81a1.48,1.48,0,1,0-1.56-1.48A1.53,1.53,0,0,0,1876,81Z"/>
        <path class="cls-4" d="M1844,75.58a2,2,0,1,0-2.12-2A2.06,2.06,0,0,0,1844,75.58Z"/>
        <path class="cls-4" d="M1809,74.06a1.63,1.63,0,1,0-1.72-1.63A1.68,1.68,0,0,0,1809,74.06Z"/>
        <path class="cls-4" d="M1776.9,76.38a1.32,1.32,0,1,0-1.39-1.31A1.35,1.35,0,0,0,1776.9,76.38Z"/>
        <path class="cls-4" d="M1743.48,80a1.24,1.24,0,1,0-1.31-1.24A1.28,1.28,0,0,0,1743.48,80Z"/>
        <path class="cls-4" d="M1706.66,80.5a1.42,1.42,0,1,0,0-2.84,1.42,1.42,0,1,0,0,2.84Z"/>
        <path class="cls-4" d="M1667.29,78.94a2,2,0,1,0-2.12-2A2.06,2.06,0,0,0,1667.29,78.94Z"/>
        <path class="cls-4" d="M1628.42,76.59a1.46,1.46,0,1,0-1.55-1.46A1.5,1.5,0,0,0,1628.42,76.59Z"/>
        <path class="cls-4" d="M1587.24,77.69a2,2,0,1,0-2.12-2A2.07,2.07,0,0,0,1587.24,77.69Z"/>
        <path class="cls-4" d="M1541.32,82.74a1.51,1.51,0,1,0-1.59-1.51A1.55,1.55,0,0,0,1541.32,82.74Z"/>
        <path class="cls-4" d="M1501.62,85.24a2,2,0,1,0-2.11-2A2.07,2.07,0,0,0,1501.62,85.24Z"/>
        <path class="cls-4" d="M1459.3,83.13a1.37,1.37,0,1,0-1.44-1.37A1.4,1.4,0,0,0,1459.3,83.13Z"/>
        <path class="cls-4" d="M1413.92,76.44a2,2,0,1,0-2.11-2A2.07,2.07,0,0,0,1413.92,76.44Z"/>
        <path class="cls-4" d="M1366.59,76.32a1.42,1.42,0,1,0-1.49-1.42A1.46,1.46,0,0,0,1366.59,76.32Z"/>
        <path class="cls-4" d="M1317,87.07a1.67,1.67,0,1,0-1.76-1.67A1.72,1.72,0,0,0,1317,87.07Z"/>
        <path class="cls-4" d="M1272.39,95.31a1.44,1.44,0,1,0-1.53-1.44A1.48,1.48,0,0,0,1272.39,95.31Z"/>
        <path class="cls-4" d="M1223.24,97.52a1.49,1.49,0,1,0-1.56-1.48A1.52,1.52,0,0,0,1223.24,97.52Z"/>
        <path class="cls-4" d="M1173.62,93.72a1.5,1.5,0,1,0-1.58-1.5A1.54,1.54,0,0,0,1173.62,93.72Z"/>
        <path class="cls-4" d="M1113.41,83.07a2,2,0,1,0-2.12-2A2.06,2.06,0,0,0,1113.41,83.07Z"/>
        <path class="cls-4" d="M1051.7,71.63A1.61,1.61,0,1,0,1050,70,1.66,1.66,0,0,0,1051.7,71.63Z"/>
        <path class="cls-4" d="M1053.3,99.11a2,2,0,1,0-2.12-2A2.07,2.07,0,0,0,1053.3,99.11Z"/>
        <path class="cls-4" d="M1133.31,147.33a1.42,1.42,0,1,0-1.5-1.42A1.47,1.47,0,0,0,1133.31,147.33Z"/>
        <path class="cls-4" d="M1068.42,149.63a2.55,2.55,0,1,0-2.69-2.54A2.62,2.62,0,0,0,1068.42,149.63Z"/>
        <path class="cls-4" d="M1116,104.87a2,2,0,1,0-2.12-2A2.06,2.06,0,0,0,1116,104.87Z"/>
        <path class="cls-4" d="M1234.52,111.73a2,2,0,1,0-2.11-2A2.06,2.06,0,0,0,1234.52,111.73Z"/>
        <path class="cls-4" d="M1336.3,104.26a2,2,0,1,0-2.12-2A2.07,2.07,0,0,0,1336.3,104.26Z"/>
        <path class="cls-4" d="M1391.32,100.23a2,2,0,1,0-2.12-2A2.07,2.07,0,0,0,1391.32,100.23Z"/>
        <path class="cls-4" d="M1518.55,104.85a2,2,0,1,0-2.12-2A2.07,2.07,0,0,0,1518.55,104.85Z"/>
        <path class="cls-4" d="M1555.59,104a2,2,0,1,0-2.11-2A2.07,2.07,0,0,0,1555.59,104Z"/>
        <path class="cls-4" d="M1627.87,101.37a2,2,0,1,0-2.11-2A2.06,2.06,0,0,0,1627.87,101.37Z"/>
        <path class="cls-4" d="M1689.8,102.19a1.34,1.34,0,1,0-1.41-1.33A1.37,1.37,0,0,0,1689.8,102.19Z"/>
        <path class="cls-4" d="M1613.28,114.32a2.84,2.84,0,1,0-3-2.84A2.92,2.92,0,0,0,1613.28,114.32Z"/>
        <path class="cls-4" d="M1770.05,114.52a2.84,2.84,0,1,0-3-2.84A2.92,2.92,0,0,0,1770.05,114.52Z"/>
        <path class="cls-4" d="M1827.37,114.21a2.84,2.84,0,1,0-3-2.84A2.92,2.92,0,0,0,1827.37,114.21Z"/>
        <path class="cls-4" d="M1782.65,101a1.77,1.77,0,1,0-1.87-1.77A1.82,1.82,0,0,0,1782.65,101Z"/>
        <path class="cls-4" d="M1843.65,100a1.77,1.77,0,1,0-1.87-1.77A1.82,1.82,0,0,0,1843.65,100Z"/>
        <path class="cls-4" d="M1423.94,114.42a2.48,2.48,0,1,0-2.61-2.48A2.55,2.55,0,0,0,1423.94,114.42Z"/>
        <path class="cls-4" d="M1511.25,116a2.47,2.47,0,1,0-2.61-2.47A2.54,2.54,0,0,0,1511.25,116Z"/>
        <path class="cls-4" d="M1553.78,114.36a1.7,1.7,0,1,0-1.79-1.7A1.74,1.74,0,0,0,1553.78,114.36Z"/>
        <path class="cls-4" d="M1282,109.54a1.51,1.51,0,1,0-1.59-1.51A1.56,1.56,0,0,0,1282,109.54Z"/>
        <path class="cls-4" d="M1292.67,117.19a1.51,1.51,0,1,0-1.6-1.51A1.55,1.55,0,0,0,1292.67,117.19Z"/>
        <path class="cls-4" d="M1357.23,113.79a2.07,2.07,0,1,0-2.19-2.07A2.13,2.13,0,0,0,1357.23,113.79Z"/>
        <path class="cls-4" d="M1191,119.05a2.51,2.51,0,1,0-2.65-2.51A2.59,2.59,0,0,0,1191,119.05Z"/>
        <path class="cls-4" d="M979,70.35a1.58,1.58,0,1,0-1.67-1.57A1.62,1.62,0,0,0,979,70.35Z"/>
        <path class="cls-5" d="M1.51,31.82s20.52,4.54,34.2,1,46.9-10.1,82.07-1.51,88.91-8.08,110.4-.51,80.12-13.63,139.72,1S594.57-1.5,672.73,23.24,825.15,48,896.48,31.32s144.6-18.18,209.08-2,143.34,25.21,212,6.05c36.15-10.08,78.16-16.65,106.49-9.08s92.82,10.09,152.42,1,127,9.08,196.38-1.52,110.41,6.06,110.41,6.06"/>
        <path class="cls-5" d="M1.51,52.72s20.52,2.22,34.2.5,46.9-4.93,82.07-.74,88.91-3.95,110.4-.25,80.12-6.65,139.72.49,226.67-16.26,304.83-4.19,152.42,12.08,223.74,3.95,144.61-8.87,209.09-1,143.34,12.31,212,3c36.15-4.92,78.16-8.13,106.49-4.44s92.82,4.93,152.42.5,127,4.43,196.38-.74,110.41,2.95,110.41,2.95"/>
        <path class="cls-5" d="M1.51,63.35s20.52,1.2,34.2.27a655.89,655.89,0,0,1,82.07-.4c35.17,2.25,88.91-2.13,110.4-.14s80.12-3.58,139.72.27,226.67-8.77,304.83-2.26a1542.91,1542.91,0,0,0,223.74,2.13c71.33-4.39,144.61-4.78,209.09-.53s143.34,6.63,212,1.59c36.15-2.65,78.16-4.38,106.49-2.39s92.82,2.65,152.42.26,127,2.39,196.38-.39,110.41,1.59,110.41,1.59"/>
        <path class="cls-5" d="M1883.28,91.32s-20.52,2.49-34.2.55S1802.19,86.32,1767,91s-88.91-4.44-110.4-.28-80.12-7.49-139.72.56S1290.22,73,1212.06,86.6,1059.64,100.2,988.32,91s-144.6-10-209.09-1.11-143.34,13.86-212,3.33c-36.15-5.54-78.16-9.16-106.49-5s-92.82,5.55-152.42.56-127,5-196.38-.83S1.51,91.32,1.51,91.32"/>
        <path class="cls-5" d="M1883.28,145.12s-20.52,1.47-34.2.33-46.89-3.28-82.07-.5-88.91-2.62-110.4-.16-80.12-4.42-139.72.33-226.67-10.81-304.83-2.79A1251.08,1251.08,0,0,1,988.32,145c-71.33-5.4-144.6-5.89-209.09-.65s-143.33,8.18-212,2c-36.15-3.27-78.17-5.4-106.5-2.95s-92.82,3.28-152.42.33-127,3-196.38-.49-110.41,2-110.41,2"/>
        <polyline class="cls-5" points="922.15 26.3 918.3 49.94 910.48 62.28 910.48 84.48 888.77 140.81 719.85 516.22"/>
        <polyline class="cls-5" points="848.74 39.8 846.65 56.73 836.23 65.98 836.55 84.48 813.75 142.3 436.94 516.84"/>
        <polyline class="cls-5" points="787.48 42.95 777.6 57.34 763.27 65.36 730.05 95.58 659.71 149.24 25.94 516.22"/>
        <polyline class="cls-5" points="727.56 36.99 710.51 53.03 690.97 62.28 634.3 98.67 507.94 143.07 0.54 307.14"/>
        <polyline class="cls-5" points="677.73 24.76 662.86 46.96 642.23 59.3 565.8 93.01 335.98 144.31 -0.77 210.3"/>
        <polyline class="cls-5" points="628.44 16.23 618.02 44.6 595.88 59.4 528.35 88.39 279.75 142.66 -0.98 180.9"/>
        <polyline class="cls-5" points="584.15 16.84 565.26 46.04 537.25 60.63 465.39 87.77 168.8 144.1 -1.2 161.99"/>
        <polyline class="cls-5" points="534.21 21.16 517.71 48.5 489.7 62.07 366.6 91.68 -0.98 143.07"/>
        <polyline class="cls-5" points="486.88 26.71 469.73 51.38 414.36 63.92 303.42 88.39 -0.77 122.52"/>
        <polyline class="cls-5" points="979.03 18.9 983.76 46.24 979.52 59.5 985.06 90.96 995.48 144.93 1121.85 517.46"/>
        <polyline class="cls-5" points="1051.77 20.34 1053.45 46.86 1049.87 60.12 1068.11 96.82 1090.58 148.63 1477.16 517.15"/>
        <polyline class="cls-5" points="1113.05 31.13 1116.31 52.72 1115.66 63.2 1132.92 95.89 1181.44 144.62 1798.6 517.46"/>
        <polyline class="cls-5" points="1173.3 42.23 1180.14 57.96 1191.22 66.59 1195.77 88.49 1255.05 139.68 1882.3 392.56"/>
        <polyline class="cls-5" points="1223.35 46.4 1234.86 59.81 1239.42 67.21 1246.74 83.09 1331.26 140.92 1882.3 259.64"/>
        <polyline class="cls-5" points="1272.42 43.98 1281.1 57.65 1292.5 65.67 1308.13 82.94 1474.23 145.85 1882.63 203.21"/>
        <polyline class="cls-5" points="1317.09 35.65 1336.14 52.1 1356.99 61.66 1396.72 87.87 1558.25 143.07 1882.95 174.53"/>
        <polyline class="cls-5" points="1366.43 24.96 1390.86 48.09 1424.08 61.89 1498.33 92.5 1667.03 144 1882.63 159.73"/>
        <polyline class="cls-5" points="1413.76 24.24 1446.98 51.79 1511.46 63.72 1555.97 88.18 1778.3 143.9 1882.52 151.91"/>
        <polyline class="cls-5" points="1458.92 31.85 1518.63 53.03 1553.8 62.9 1614.6 90.03 1882.74 139.78"/>
        <polyline class="cls-5" points="1501.26 33.08 1554.89 51.79 1613.51 61.66 1679.08 89.62 1882.52 118.2"/>
        <polyline class="cls-5" points="1540.78 31.23 1627.41 49.12 1667.36 61.66 1773.53 90.03 1882.3 105.45"/>
        <polyline class="cls-5" points="1585.94 25.89 1687.98 50.77 1767.88 61.66 1882.95 80.78"/>
        <polyline class="cls-5" points="1626.97 24.65 1743.35 50.97 1825.64 60.63 1882.95 70.5"/>
        <polyline class="cls-5" points="1667.36 26.71 1782.65 48.91 1882.52 57.96"/>
        <polyline class="cls-5" points="399.6 34.73 367.9 52.72 321.87 61.66 199.63 89 -1.85 106.48"/>
        <polyline class="cls-5" points="360.3 29.8 324.48 49.94 257.82 63.31 117.56 88.39 -0.98 98.67"/>
        <polyline class="cls-5" points="315.79 26.3 257.6 52.41 203.32 62.48 -1.2 88.59"/>
        <polyline class="cls-5" points="275.37 29.52 221.78 51.38 141.45 63.92 -1.64 77.7"/>
        <polyline class="cls-5" points="233.94 31.85 171.63 52.62 90.64 62.07 -0.98 70.91"/>
        <polyline class="cls-5" points="194.64 29.38 119.08 52.41 -0.12 60.63"/>
        <polyline class="cls-5" points="157.51 33.08 76.53 50.35 -0.77 58.17"/>
        <polyline class="cls-5" points="-2.07 270.75 145.79 259.64 371.81 315.15 683.81 271.36 816.03 301.58 1034.89 261.5 1255.7 307.14 1415.93 286.78 1698.62 318.24 1876.44 259.03"/>
        <polyline class="cls-5" points="-2.72 197.35 94.98 191.18 341.85 196.73 542.46 217.09 761.97 193.03 860.33 204.75 1014.7 204.75 1140.41 196.12 1316.93 226.34 1428.31 210.92 1586.59 197.35 1679.73 175.15 1844.52 170.83"/>
        <path class="cls-5" d="M25.13,36.07a2,2,0,1,0-2.12-2A2.07,2.07,0,0,0,25.13,36.07Z"/>
        <ellipse class="cls-5" cx="57.14" cy="28.72" rx="1.36" ry="1.29"/>
        <path class="cls-5" d="M92.06,28.84a1.48,1.48,0,1,0-1.55-1.47A1.52,1.52,0,0,0,92.06,28.84Z"/>
        <ellipse class="cls-5" cx="122.37" cy="32.21" rx="1.33" ry="1.26"/>
        <path class="cls-5" d="M157.62,34.69a1.33,1.33,0,1,0-1.4-1.33A1.37,1.37,0,0,0,157.62,34.69Z"/>
        <path class="cls-5" d="M194,31a1.16,1.16,0,1,0-1.22-1.16A1.19,1.19,0,0,0,194,31Z"/>
        <path class="cls-5" d="M234,33.42a1.35,1.35,0,1,0-1.42-1.34A1.39,1.39,0,0,0,234,33.42Z"/>
        <path class="cls-5" d="M275.37,30.73a1.21,1.21,0,1,0-1.28-1.2A1.24,1.24,0,0,0,275.37,30.73Z"/>
        <path class="cls-5" d="M316.1,27.75a1.2,1.2,0,1,0,0-2.39,1.2,1.2,0,1,0,0,2.39Z"/>
        <path class="cls-5" d="M360.44,32.11a2,2,0,1,0-2.12-2A2.07,2.07,0,0,0,360.44,32.11Z"/>
        <path class="cls-5" d="M399.48,36.25a1.58,1.58,0,1,0-1.66-1.57A1.62,1.62,0,0,0,399.48,36.25Z"/>
        <path class="cls-5" d="M442.29,33.88a1.66,1.66,0,1,0-1.75-1.65A1.7,1.7,0,0,0,442.29,33.88Z"/>
        <path class="cls-5" d="M487.18,28.8a2,2,0,1,0-2.12-2A2.07,2.07,0,0,0,487.18,28.8Z"/>
        <path class="cls-5" d="M534.08,22.9a1.39,1.39,0,1,0-1.47-1.39A1.43,1.43,0,0,0,534.08,22.9Z"/>
        <ellipse class="cls-5" cx="584.14" cy="16.89" rx="1.33" ry="1.26"/>
        <path class="cls-5" d="M628.72,18.53a2,2,0,1,0-2.12-2A2.07,2.07,0,0,0,628.72,18.53Z"/>
        <path class="cls-5" d="M617.51,47.15a2,2,0,1,0-2.11-2A2.07,2.07,0,0,0,617.51,47.15Z"/>
        <ellipse class="cls-5" cx="662.19" cy="47.02" rx="2.12" ry="2"/>
        <path class="cls-5" d="M565.07,48A2,2,0,1,0,563,46,2.07,2.07,0,0,0,565.07,48Z"/>
        <path class="cls-5" d="M489.85,64.79A2.77,2.77,0,1,0,486.92,62,2.85,2.85,0,0,0,489.85,64.79Z"/>
        <path class="cls-5" d="M469.07,52.64a1.57,1.57,0,1,0-1.65-1.57A1.61,1.61,0,0,0,469.07,52.64Z"/>
        <path class="cls-5" d="M414,65.43a1.56,1.56,0,1,0-1.65-1.56A1.61,1.61,0,0,0,414,65.43Z"/>
        <path class="cls-5" d="M368,54.75a1.93,1.93,0,1,0-2-1.93A2,2,0,0,0,368,54.75Z"/>
        <path class="cls-5" d="M257.93,65.13a1.93,1.93,0,1,0-2-1.93A2,2,0,0,0,257.93,65.13Z"/>
        <path class="cls-5" d="M256.52,54.25A1.43,1.43,0,1,0,255,52.82,1.47,1.47,0,0,0,256.52,54.25Z"/>
        <ellipse class="cls-5" cx="323.43" cy="50.13" rx="1.51" ry="1.43"/>
        <path class="cls-5" d="M221.11,53.48a2,2,0,1,0-2.06-1.95A2,2,0,0,0,221.11,53.48Z"/>
        <path class="cls-5" d="M142.07,65.75a2,2,0,1,0-2.06-2A2,2,0,0,0,142.07,65.75Z"/>
        <path class="cls-5" d="M118.42,54.38a2,2,0,1,0-2.06-2A2,2,0,0,0,118.42,54.38Z"/>
        <path class="cls-5" d="M517.76,50.11a1.57,1.57,0,1,0-1.65-1.57A1.61,1.61,0,0,0,517.76,50.11Z"/>
        <path class="cls-5" d="M677.86,26a1.3,1.3,0,1,0-1.37-1.3A1.33,1.33,0,0,0,677.86,26Z"/>
        <path class="cls-5" d="M727.48,38a1.16,1.16,0,1,0-1.21-1.15A1.19,1.19,0,0,0,727.48,38Z"/>
        <path class="cls-5" d="M787.7,44.33a1.45,1.45,0,1,0-1.53-1.45A1.49,1.49,0,0,0,787.7,44.33Z"/>
        <path class="cls-5" d="M849.41,41.76a2,2,0,1,0-2.12-2A2.05,2.05,0,0,0,849.41,41.76Z"/>
        <path class="cls-5" d="M922.13,27.87a2,2,0,1,0-2.12-2A2.05,2.05,0,0,0,922.13,27.87Z"/>
        <path class="cls-5" d="M918,52.13a2,2,0,1,0-2.12-2A2.06,2.06,0,0,0,918,52.13Z"/>
        <path class="cls-5" d="M776.83,59.45a2,2,0,1,0-2.11-2A2.07,2.07,0,0,0,776.83,59.45Z"/>
        <ellipse class="cls-5" cx="710.29" cy="53.2" rx="2.12" ry="2"/>
        <path class="cls-5" d="M979.58,62.43a2.63,2.63,0,1,0-2.78-2.63A2.71,2.71,0,0,0,979.58,62.43Z"/>
        <path class="cls-5" d="M910.3,66a2.64,2.64,0,1,0-2.78-2.64A2.71,2.71,0,0,0,910.3,66Z"/>
        <path class="cls-5" d="M985.4,93a2.64,2.64,0,1,0-2.78-2.63A2.71,2.71,0,0,0,985.4,93Z"/>
        <ellipse class="cls-5" cx="889.15" cy="140.45" rx="5.41" ry="5.12"/>
        <ellipse class="cls-5" cx="1016.09" cy="205.35" rx="5.41" ry="5.12"/>
        <path class="cls-5" d="M1182.4,151a5.13,5.13,0,1,0-5.41-5.13A5.28,5.28,0,0,0,1182.4,151Z"/>
        <path class="cls-5" d="M1432.09,215.28a5.13,5.13,0,1,0-5.41-5.13A5.28,5.28,0,0,0,1432.09,215.28Z"/>
        <path class="cls-5" d="M1474.53,149a3.54,3.54,0,1,0-3.73-3.53A3.63,3.63,0,0,0,1474.53,149Z"/>
        <path class="cls-5" d="M1666.05,147.58a3.54,3.54,0,1,0-3.73-3.53A3.63,3.63,0,0,0,1666.05,147.58Z"/>
        <path class="cls-5" d="M1499,95.12a2.38,2.38,0,1,0-2.51-2.37A2.44,2.44,0,0,0,1499,95.12Z"/>
        <path class="cls-5" d="M1616.33,94.1a3.26,3.26,0,1,0-3.44-3.25A3.35,3.35,0,0,0,1616.33,94.1Z"/>
        <path class="cls-5" d="M1774.53,91.69a1.78,1.78,0,1,0-1.88-1.78A1.83,1.83,0,0,0,1774.53,91.69Z"/>
        <path class="cls-5" d="M658.49,155.59a5.13,5.13,0,1,0-5.41-5.13A5.28,5.28,0,0,0,658.49,155.59Z"/>
        <path class="cls-5" d="M509.19,148.7a5.13,5.13,0,1,0-5.41-5.12A5.27,5.27,0,0,0,509.19,148.7Z"/>
        <path class="cls-5" d="M334.93,148.51a4,4,0,1,0-4.2-4A4.09,4.09,0,0,0,334.93,148.51Z"/>
        <path class="cls-5" d="M372.33,319a4,4,0,1,0-4.2-4A4.09,4.09,0,0,0,372.33,319Z"/>
        <path class="cls-5" d="M684.22,278a5.69,5.69,0,1,0-6-5.68A5.85,5.85,0,0,0,684.22,278Z"/>
        <path class="cls-5" d="M1257.29,310.85a3.8,3.8,0,1,0-4-3.79A3.9,3.9,0,0,0,1257.29,310.85Z"/>
        <path class="cls-5" d="M1316.54,229.34a2.85,2.85,0,1,0-3-2.85A2.93,2.93,0,0,0,1316.54,229.34Z"/>
        <path class="cls-5" d="M1698.68,324a6.44,6.44,0,1,0-6.78-6.43A6.62,6.62,0,0,0,1698.68,324Z"/>
        <path class="cls-5" d="M365.3,95.42a4,4,0,1,0-4.19-4A4.09,4.09,0,0,0,365.3,95.42Z"/>
        <path class="cls-5" d="M197.49,91.44a2.72,2.72,0,1,0-2.87-2.72A2.8,2.8,0,0,0,197.49,91.44Z"/>
        <path class="cls-5" d="M168.84,148.44a3.69,3.69,0,1,0-3.89-3.68A3.79,3.79,0,0,0,168.84,148.44Z"/>
        <ellipse class="cls-5" cx="729.99" cy="95.51" rx="2.99" ry="2.84"/>
        <path class="cls-5" d="M813.77,144a2.13,2.13,0,1,0-2.24-2.12A2.18,2.18,0,0,0,813.77,144Z"/>
        <path class="cls-5" d="M836.39,69.51a3.36,3.36,0,1,0-3.55-3.35A3.45,3.45,0,0,0,836.39,69.51Z"/>
        <path class="cls-5" d="M762.68,68a2.33,2.33,0,1,0-2.45-2.32A2.39,2.39,0,0,0,762.68,68Z"/>
        <path class="cls-5" d="M690.45,65.48a2.72,2.72,0,1,0-2.86-2.72A2.8,2.8,0,0,0,690.45,65.48Z"/>
        <path class="cls-5" d="M642.06,62a2.53,2.53,0,1,0-2.67-2.53A2.6,2.6,0,0,0,642.06,62Z"/>
        <path class="cls-5" d="M595.76,62.2a2.81,2.81,0,1,0-3-2.81A2.89,2.89,0,0,0,595.76,62.2Z"/>
        <ellipse class="cls-5" cx="1115.64" cy="63.25" rx="2.78" ry="2.63"/>
        <path class="cls-5" d="M1876,31a1.48,1.48,0,1,0-1.56-1.48A1.53,1.53,0,0,0,1876,31Z"/>
        <path class="cls-5" d="M1844,25.58a2,2,0,1,0-2.12-2A2.06,2.06,0,0,0,1844,25.58Z"/>
        <ellipse class="cls-5" cx="1809.04" cy="22.43" rx="1.72" ry="1.63"/>
        <path class="cls-5" d="M1776.9,26.38a1.32,1.32,0,1,0-1.39-1.31A1.35,1.35,0,0,0,1776.9,26.38Z"/>
        <path class="cls-5" d="M1743.48,30a1.24,1.24,0,1,0-1.31-1.24A1.28,1.28,0,0,0,1743.48,30Z"/>
        <path class="cls-5" d="M1706.66,30.5a1.42,1.42,0,1,0,0-2.84,1.42,1.42,0,1,0,0,2.84Z"/>
        <ellipse class="cls-5" cx="1667.29" cy="26.94" rx="2.12" ry="2.01"/>
        <path class="cls-5" d="M1628.42,26.59a1.46,1.46,0,1,0-1.55-1.46A1.5,1.5,0,0,0,1628.42,26.59Z"/>
        <ellipse class="cls-5" cx="1587.24" cy="25.68" rx="2.12" ry="2"/>
        <path class="cls-5" d="M1541.32,32.74a1.51,1.51,0,1,0-1.59-1.51A1.55,1.55,0,0,0,1541.32,32.74Z"/>
        <path class="cls-5" d="M1501.62,35.24a2,2,0,1,0-2.11-2A2.07,2.07,0,0,0,1501.62,35.24Z"/>
        <path class="cls-5" d="M1459.3,33.13a1.37,1.37,0,1,0-1.44-1.37A1.4,1.4,0,0,0,1459.3,33.13Z"/>
        <path class="cls-5" d="M1413.92,26.44a2,2,0,1,0-2.11-2A2.07,2.07,0,0,0,1413.92,26.44Z"/>
        <path class="cls-5" d="M1366.59,26.32a1.42,1.42,0,1,0-1.49-1.42A1.46,1.46,0,0,0,1366.59,26.32Z"/>
        <path class="cls-5" d="M1317,37.07a1.67,1.67,0,1,0-1.76-1.67A1.72,1.72,0,0,0,1317,37.07Z"/>
        <path class="cls-5" d="M1272.39,45.31a1.44,1.44,0,1,0-1.53-1.44A1.48,1.48,0,0,0,1272.39,45.31Z"/>
        <path class="cls-5" d="M1223.24,47.52a1.49,1.49,0,1,0-1.56-1.48A1.52,1.52,0,0,0,1223.24,47.52Z"/>
        <path class="cls-5" d="M1173.62,43.72a1.5,1.5,0,1,0-1.58-1.5A1.54,1.54,0,0,0,1173.62,43.72Z"/>
        <path class="cls-5" d="M1113.41,33.07a2,2,0,1,0-2.12-2A2.06,2.06,0,0,0,1113.41,33.07Z"/>
        <path class="cls-5" d="M1051.7,21.63A1.61,1.61,0,1,0,1050,20,1.66,1.66,0,0,0,1051.7,21.63Z"/>
        <ellipse class="cls-5" cx="1053.3" cy="47.1" rx="2.12" ry="2.01"/>
        <path class="cls-5" d="M1133.31,97.33a1.42,1.42,0,1,0-1.5-1.42A1.47,1.47,0,0,0,1133.31,97.33Z"/>
        <path class="cls-5" d="M1068.42,99.63a2.55,2.55,0,1,0-2.69-2.54A2.61,2.61,0,0,0,1068.42,99.63Z"/>
        <path class="cls-5" d="M1116,54.87a2,2,0,1,0-2.12-2A2.06,2.06,0,0,0,1116,54.87Z"/>
        <path class="cls-5" d="M1234.52,61.73a2,2,0,1,0-2.11-2A2.06,2.06,0,0,0,1234.52,61.73Z"/>
        <ellipse class="cls-5" cx="1336.3" cy="52.25" rx="2.12" ry="2.01"/>
        <ellipse class="cls-5" cx="1391.32" cy="48.22" rx="2.12" ry="2"/>
        <path class="cls-5" d="M1518.55,54.85a2,2,0,1,0-2.12-2A2.07,2.07,0,0,0,1518.55,54.85Z"/>
        <path class="cls-5" d="M1555.59,54a2,2,0,1,0-2.11-2A2.07,2.07,0,0,0,1555.59,54Z"/>
        <path class="cls-5" d="M1627.87,51.37a2,2,0,1,0-2.11-2A2.06,2.06,0,0,0,1627.87,51.37Z"/>
        <ellipse class="cls-5" cx="1689.8" cy="50.86" rx="1.41" ry="1.33"/>
        <path class="cls-5" d="M1613.28,64.32a2.84,2.84,0,1,0-3-2.84A2.92,2.92,0,0,0,1613.28,64.32Z"/>
        <path class="cls-5" d="M1770.05,64.52a2.84,2.84,0,1,0-3-2.84A2.92,2.92,0,0,0,1770.05,64.52Z"/>
        <ellipse class="cls-5" cx="1827.37" cy="61.37" rx="3" ry="2.84"/>
        <path class="cls-5" d="M1782.65,51a1.77,1.77,0,1,0-1.87-1.77A1.82,1.82,0,0,0,1782.65,51Z"/>
        <ellipse class="cls-5" cx="1843.65" cy="48.18" rx="1.87" ry="1.77"/>
        <ellipse class="cls-5" cx="1423.94" cy="61.94" rx="2.61" ry="2.47"/>
        <ellipse class="cls-5" cx="1511.25" cy="63.51" rx="2.61" ry="2.47"/>
        <path class="cls-5" d="M1553.78,64.36a1.7,1.7,0,1,0-1.79-1.7A1.74,1.74,0,0,0,1553.78,64.36Z"/>
        <path class="cls-5" d="M1282,59.54A1.51,1.51,0,1,0,1280.4,58,1.56,1.56,0,0,0,1282,59.54Z"/>
        <path class="cls-5" d="M1292.67,67.19a1.51,1.51,0,1,0-1.6-1.51A1.55,1.55,0,0,0,1292.67,67.19Z"/>
        <path class="cls-5" d="M1357.23,63.79a2.07,2.07,0,1,0-2.19-2.07A2.13,2.13,0,0,0,1357.23,63.79Z"/>
        <path class="cls-5" d="M1191,69.05a2.51,2.51,0,1,0-2.65-2.51A2.59,2.59,0,0,0,1191,69.05Z"/>
        <ellipse class="cls-5" cx="978.98" cy="18.78" rx="1.66" ry="1.58"/>
      </g>
    </g>
  </g>
</svg>
