<svg id="Layer_1" data-name="Layer 1" xmlns="http://www.w3.org/2000/svg" xmlns:xlink="http://www.w3.org/1999/xlink" width="144" height="144" viewBox="0 0 144 144">
  <defs>
    <style>
      .cls-1 {
        fill: #8e4d13;
      }

      .cls-2 {
        fill: #a8621d;
      }

      .cls-3 {
        fill: #cc7b2b;
      }

      .cls-4 {
        fill: #a8621b;
      }

      .cls-5 {
        fill: #bc731f;
      }

      .cls-6 {
        fill: #d68732;
      }

      .cls-7 {
        fill: #e89449;
      }

      .cls-8 {
        fill: #8c500a;
      }

      .cls-25, .cls-9 {
        fill: #858585;
      }

      .cls-10 {
        fill: #b77023;
      }

      .cls-11 {
        fill: #6b2613;
      }

      .cls-12 {
        fill: #96520f;
      }

      .cls-13 {
        fill: #9e600f;
      }

      .cls-14 {
        fill: #cc9113;
      }

      .cls-15 {
        fill: #8e4a00;
      }

      .cls-15, .cls-16, .cls-25, .cls-26 {
        isolation: isolate;
      }

      .cls-15, .cls-26 {
        opacity: 0.3;
      }

      .cls-16, .cls-25 {
        opacity: 0.2;
      }

      .cls-17 {
        fill: #f0b71d;
      }

      .cls-18 {
        fill: #f0a41d;
      }

      .cls-19 {
        fill: #fac413;
      }

      .cls-20 {
        fill: url(#linear-gradient);
      }

      .cls-21 {
        fill: url(#linear-gradient-2);
      }

      .cls-22 {
        fill: #5b4c38;
      }

      .cls-23 {
        fill: #cbbeac;
      }

      .cls-24 {
        fill: #b4a98f;
      }

      .cls-27 {
        fill: #fff4ab;
      }

      .cls-28 {
        fill: #fcbc56;
      }

      .cls-29 {
        fill: #fff;
      }

      .cls-30 {
        fill: url(#linear-gradient-3);
      }

      .cls-31 {
        fill: #c48802;
      }

      .cls-32 {
        fill: url(#linear-gradient-4);
      }

      .cls-33 {
        fill: url(#linear-gradient-5);
      }

      .cls-34 {
        fill: url(#linear-gradient-6);
      }

      .cls-35 {
        fill: url(#linear-gradient-7);
      }

      .cls-36 {
        fill: #703908;
      }

      .cls-37 {
        fill: #422208;
      }
    </style>
    <linearGradient id="linear-gradient" x1="26.7" y1="-2764.75" x2="116.27" y2="-2764.75" gradientTransform="matrix(1, 0, 0, -1, 0, -2695.29)" gradientUnits="userSpaceOnUse">
      <stop offset="0.08" stop-color="#ffe52c"/>
      <stop offset="0.14" stop-color="#ffe530"/>
      <stop offset="0.2" stop-color="#ffe73c"/>
      <stop offset="0.26" stop-color="#ffe950"/>
      <stop offset="0.32" stop-color="#ffed6c"/>
      <stop offset="0.34" stop-color="#ffee79"/>
      <stop offset="0.37" stop-color="#ffed71"/>
      <stop offset="0.43" stop-color="#ffe95b"/>
      <stop offset="0.49" stop-color="#ffe338"/>
      <stop offset="0.57" stop-color="#ffda07"/>
      <stop offset="0.58" stop-color="#ffd900"/>
      <stop offset="0.83" stop-color="#ffd422"/>
      <stop offset="1" stop-color="#ffd03b"/>
    </linearGradient>
    <linearGradient id="linear-gradient-2" x1="53.98" y1="-2767.24" x2="55.96" y2="-2798.18" gradientTransform="matrix(1, 0, 0, -1, 0, -2695.29)" gradientUnits="userSpaceOnUse">
      <stop offset="0" stop-color="#dbad00"/>
      <stop offset="1" stop-color="#dbad00"/>
    </linearGradient>
    <linearGradient id="linear-gradient-3" x1="34.04" y1="-2794.32" x2="76.49" y2="-2794.32" xlink:href="#linear-gradient-2"/>
    <linearGradient id="linear-gradient-4" x1="26.7" y1="-2764.54" x2="82.31" y2="-2764.54" xlink:href="#linear-gradient-2"/>
    <linearGradient id="linear-gradient-5" x1="74.07" y1="-2755.97" x2="101.68" y2="-2755.97" xlink:href="#linear-gradient-2"/>
    <linearGradient id="linear-gradient-6" x1="26.7" y1="-2742.51" x2="57.02" y2="-2742.51" xlink:href="#linear-gradient-2"/>
    <linearGradient id="linear-gradient-7" x1="31.48" y1="-2761.13" x2="74.56" y2="-2761.13" xlink:href="#linear-gradient"/>
  </defs>
  <g>
    <path class="cls-1" d="M113.85,66.56l-1.22,27.29-3.83,2.47,1.26-28.12Z"/>
    <path class="cls-2" d="M108.17,68.41l-1.39,29.46,1.68.58,1.6-30.25Z"/>
    <path class="cls-3" d="M115.29,87.59,113,86.74l-4,2.87,2.7.81Z"/>
    <path class="cls-4" d="M116.5,95.77l-1.21-8.18-3.58,2.83-1,10.43Z"/>
    <path class="cls-5" d="M107.5,99.82l1.42-10.21,2.79.81-1,10.43Z"/>
    <path class="cls-6" d="M108.63,90.42a8.24,8.24,0,0,0,.17-2.24c0-1.34.47-5.14.52-6s.09-1.77.18-3.36a31.61,31.61,0,0,0-.32-4.06,9.77,9.77,0,0,1,.66-2.06s-.13,1-.13,1.71,0,.35,0,1.62a17.23,17.23,0,0,1,.13,2.58c-.12,1.05-.17,3.36-.19,4.05a12.34,12.34,0,0,1-.06,1.34,50,50,0,0,0-.41,5.2,1.76,1.76,0,0,1,.07.93A5.08,5.08,0,0,0,108.63,90.42Z"/>
    <path class="cls-7" d="M109.11,89.35a4.8,4.8,0,0,1,1.4.26c.49.22.68.39,1.2.22s1-1,1.36-1.18,2.22-1.06,2.22-1.06l.3,2,.3,2a7.24,7.24,0,0,0-.6-2.54c-.44-.58-.83-.45-1.12-.07a11,11,0,0,1-1.46,1.2,8.32,8.32,0,0,1-.74.52s-.1,2.26-.26,3.29a8.1,8.1,0,0,0-.23,2.06,15.38,15.38,0,0,1-.55,3.61c-.18.34-.07,1.19-.26,1.13s-.29.17-.29-.45.16-1.61.29-2.61.21-1.75.28-2.86.08-2.59.08-3a2,2,0,0,0-.36-1.17c-.19-.24-.74-.26-.9-.3s-.62-.56-.68-.25a4.8,4.8,0,0,0-.17,1.72,14.22,14.22,0,0,1-.29,3.34c-.16.47-.59,1-.6,1.47s-.53,3.12-.53,3.12a9.88,9.88,0,0,1,.08-2.47,18.55,18.55,0,0,0,.45-2.12c.09-.53,0-1.45.11-1.9a5.26,5.26,0,0,0,.28-1.44,8,8,0,0,1,.15-1.75A3.35,3.35,0,0,1,109.11,89.35Z"/>
    <path class="cls-8" d="M108.11,96.25c-4.86,4.42-12.6,9.09-21.75,13.94l-1.8-15V87.06l26.65-13.23Z"/>
    <path class="cls-9" d="M90.41,108.3a125.42,125.42,0,0,0,18-12v-.37A135.32,135.32,0,0,1,90.29,108Z"/>
    <path class="cls-10" d="M108.53,87.4l.06-1.3s-2.32,1.57-2.81,1.78-1.24.94-1.73,1a3.8,3.8,0,0,0-1.92.72c-.69.57-.59,1-1.87,1.59a17.22,17.22,0,0,0-2.61,1.35c-.89.54-1,.56-2.12,1.19a11,11,0,0,1-2,1,40.33,40.33,0,0,0-4.44,1.92,25.23,25.23,0,0,1-2.71,1.43l0,1.68s2-.55,3.06-.94,1.77-.82,2.66-1.1,3.45-1.27,4-1.56,1.4-1.47,2.11-1.82,1.63-.75,2.32-1.19,2.22-1.18,2.86-1.58.79-.8,1.43-1.26l1.77-1.25C107,88.88,108.53,87.4,108.53,87.4Z"/>
    <path class="cls-8" d="M86.37,98.89s-.3,0,2.11-.79,4.19-1.73,6.16-2.47A24.85,24.85,0,0,0,99.91,93c.84-.68,2.71-2.6,3.8-2.8s4.85-3.44,4.85-3.44l.45-8.93L86.17,90Z"/>
    <path class="cls-11" d="M86.39,98.74a1,1,0,0,0,0,.26c0,.2,0,.07.68-.13s1.12-.29,1.94-.57a19,19,0,0,0,1.8-.62,10.68,10.68,0,0,0,1.51-.7A10.7,10.7,0,0,1,94,96.22c.63-.22,1.52-.55,1.72-.64s1.46-.89,1.79-1,.49-.61,1.33-.91a12.52,12.52,0,0,0,2.48-1.53,12.57,12.57,0,0,1,1.44-.89,4.46,4.46,0,0,0,1-.7,7.52,7.52,0,0,1,1.53-1.09,10.86,10.86,0,0,0,1.38-1c.32-.24,1.68-1.2,1.68-1.28s.22-.29.22-.29l0-.87a4.71,4.71,0,0,0-.46.64.69.69,0,0,1-.4.43c-.26.13-.39.48-.63.66a2.7,2.7,0,0,1-.94.32c-.06,0-.28-.24-.28-.24s-.09.35-.17.63.21.14-.22.49-1,.49-1.14.72-.54.32-1.26.62a2.72,2.72,0,0,0-1.2.7c-.31.31-.35.31-.61.57a2,2,0,0,1-.78.57,5.43,5.43,0,0,1-.86.28,1.41,1.41,0,0,0-.84.58,3.52,3.52,0,0,1-.53.55c-.11,0-.8.39-1,.48a2.75,2.75,0,0,1-1-.08s.12-.08,0,.24a1.16,1.16,0,0,1-.46.52,5.71,5.71,0,0,1-1.29.91c-.46.16-1.15.29-1.61.48a4.73,4.73,0,0,0-1.33.74,5.88,5.88,0,0,1-1.31.53,12.51,12.51,0,0,1-1.35.45c-.2.07-1.87.42-1.92.48a5.22,5.22,0,0,1-.61.22Z"/>
    <path class="cls-12" d="M86.43,100.77c1.24-.41,2.76-.92,3.9-1.26A17.69,17.69,0,0,0,93,98.44c1.48-.63,2.47-1.07,3.51-1.48s.59-.44,1.74-1.36.7-.89,2.06-1.41A8.51,8.51,0,0,0,103,93a16.91,16.91,0,0,1,2.48-1.73c.74-.36,3.13-3.24,3.15-2.89a9,9,0,0,1-.19,1.31c0,.3-.93.55-1.15,1.14a3.09,3.09,0,0,1-.89,1.59c-.59.52-.92.37-1.33.89s0,1.07-1.33,1.66-.55,0-2.14.67-1.29.4-2.18,1.36a4.22,4.22,0,0,1-2.37,1.48,10,10,0,0,0-2.84.66c-1,.52-1.29,1-2,1.45a16.38,16.38,0,0,1-2.26.55,7.09,7.09,0,0,0-2.21,1.26c-.6.59-1.7.78-1.78.63A17,17,0,0,1,86.43,100.77Z"/>
    <path class="cls-12" d="M86.11,105.24a11.72,11.72,0,0,0,1.63-1.73,2,2,0,0,1,1.85-1.11,18.24,18.24,0,0,0,3.62-.52c1.11-.41.7-.78,2.18-1.22a13.35,13.35,0,0,0,3.42-1.29,20.49,20.49,0,0,0,2.83-1.89,20.86,20.86,0,0,0,2.14-1.55c.7-.59,2-1.78,1.7-1.11s-1.29,1.28-1.81,1.9a5.27,5.27,0,0,1-1.55,1.5c-1.07.74-2,1.14-2.77,1.61s-1.92,1.09-2.63,1.57-1.92.81-2.55,1.22-.91.85-1.6,1-2.09-.44-2.68.11-1.15,2-2.33,2.55S86.11,105.24,86.11,105.24Z"/>
    <path class="cls-12" d="M88.26,107.48c.52-.43,1-2,1.81-2.24a27.31,27.31,0,0,0,3-1,20.23,20.23,0,0,0,2.79-1.48c1.46-.85,2-.85,3.29-1.7a19,19,0,0,0,2.49-1.73c.67-.59.33-.74,1.59-1.48a7,7,0,0,0,2-1.55,16,16,0,0,0,1.33-1.48c.41-.56.71-1.8,1.22-2.14s.86-.5.89-.14.12,1.49-.27,1.83a26.83,26.83,0,0,0-2.06,2A10.17,10.17,0,0,1,104.45,98c-1.41,1.11-1.85,1.54-2.44,2s-1.15.54-2.33,1.36-1.29.91-2.4,1.75A19.87,19.87,0,0,1,94.65,105c-1,.51-2.8.88-3.32,1.18s-1.11.49-1.26.8S88.26,107.48,88.26,107.48Z"/>
    <path class="cls-12" d="M85.19,92.38c.63-.55,1.79-1.55,2.86-2.4a10.61,10.61,0,0,1,3.51-1.85c1.65-.59,2.56-.66,4.74-1.48S98.51,86,99.84,85a20.45,20.45,0,0,0,3.28-2.92c1-1,3.3-1.81,3.64-2a5.17,5.17,0,0,1,2.24-.37,5,5,0,0,1-.12,1.48,22.33,22.33,0,0,1-2,1.66,10.93,10.93,0,0,1-3.69,1.78,12.1,12.1,0,0,0-2.63,1c-.74.4-.18.18-1.49,1s-1.46,1.18-2.76,1.51-2.25.41-3.25.67a6.06,6.06,0,0,0-2.47,1c-.78.59-1.1.58-2.21,1.4a13.92,13.92,0,0,1-3.23,1.49Z"/>
    <path class="cls-12" d="M86.11,95.93a13,13,0,0,0,3.11-1c.78-.53,2.75-1.47,3.35-2.33s.57-1.27,1.94-2,1.72-.7,3.08-1.4a12.91,12.91,0,0,0,3.12-2.07,5.41,5.41,0,0,1,2.74-1.37,16.27,16.27,0,0,0,3.88-1.48c.48-.4,1.71-1.84,1.71-1.84A4.23,4.23,0,0,1,109,84c-.2.45-.79.45-2.34,1.37A48.6,48.6,0,0,1,102,87.61c-.73.34-1,.15-1.92.93a11.45,11.45,0,0,1-2.84,2.07c-1.07.4-1.3.11-2,.92A25.54,25.54,0,0,1,92.57,94a8.62,8.62,0,0,1-2,1.48,12.92,12.92,0,0,1-2.58.88c-.79.23-2,.63-2,.63Z"/>
    <path class="cls-12" d="M95.82,92.38c.28-.18,1.59-.89,3-1.55a5.84,5.84,0,0,0,2.24-1.5c.55-.61.07-.64,2.33-1.53a26.87,26.87,0,0,0,4-1.94c.56-.32,1.61-1,1.61-1s.2.46,0,.58l-1.2.7c-.37.22-1.26,1-1.85,1.33s-1.74.49-2.88,1.17a8,8,0,0,0-2,1.3,5.32,5.32,0,0,1-2,1.63A13.79,13.79,0,0,1,95.82,92.38Z"/>
    <path class="cls-9" d="M68.53,60.65,69,84.51,36.45,75.67l-5-10.48,13.18-5.63Z"/>
    <path class="cls-1" d="M69,55.72l-.44,4.93L39,68l-5-2.33.69-3,33.13-7.41Z"/>
    <path class="cls-13" d="M34.16,89.61c10.28,7.33,25.89,13.77,42.35,20l3.6-12.43L78.85,85.88,29.9,67.11V77.89Z"/>
    <path class="cls-13" d="M78,97.41A221.36,221.36,0,0,1,30.25,77.89l4.08,11.72c10.73,7.3,25.42,13.87,42.27,20Z"/>
    <path class="cls-14" d="M29.9,76.88,78.7,97.11l-1.61,1.78L59.67,92.6,37.84,83.17l-7.94-3.7Z"/>
    <path class="cls-13" d="M30.1,67.59l0,9.61s1.27.64,1.61.89,1.31.76,1.78,1a17.54,17.54,0,0,0,1.65,1,12,12,0,0,0,1.42.56,3.65,3.65,0,0,1,1.34.86c.37.28,4,1.8,4.26,1.9L48,85.88s3.71,1.36,3.79,1.46,2.1,1.26,2.1,1.26,2,.63,2.11.68l3.08,1.6,2.81.94,2.83.73,4.34,1.38,6.62,2.67,2.64,1.05a31.17,31.17,0,0,1,.17-4.06c.22-1.26.27-7.77.27-7.77Z"/>
    <path class="cls-11" d="M30.25,76.88s2.36,1.6,3.32,2.12a20.38,20.38,0,0,0,2.86,1.48c.62.15,1.59-.36,1.73-.31s-.59.68,0,1.2A24.3,24.3,0,0,0,41.56,83c1,.52,1.7.59,3.32,1.26s1.4.44,3.77,1.48,2.76.85,3.74,1.6,2.1,1.56,2.76,1,.33-1,.9-.44.58,1.34,1.54,1.93a20.15,20.15,0,0,0,5.32,2,52.75,52.75,0,0,1,5.62,1.55c2.14.74,4.36,1.93,6.13,2.52s3.79,1.49,3.79,1.49L79.69,97l-.57.83a12.27,12.27,0,0,1-1.68-.16c-.36-.11-3.83-1.6-4.62-1.95s-3-1.08-4-1.58-3-.83-4.19-1.23S61.39,92,60.5,91.69a29.49,29.49,0,0,1-3.6-1.53c-.44-.29-1.78-1-1.78-1s-2.63-1.19-3.59-1.59-4.06-1.55-5.24-2S43.37,84.43,42.52,84s-3.29-1.33-4-1.81-.81-.66-1.66-1.14-2.4-.85-2.7-1l-3-1.81C31,78,30,77.56,30,77.56Z"/>
    <path class="cls-15" d="M31.73,82.13s.81.05,5.54,2,6.8,2.65,9.46,4.28a44.9,44.9,0,0,0,7.39,3.34c.66.22,4.73,2,4.73,2s-.37.09,1.7,1.27,4.65,1.33,5.76,1.85,9.5,3.65,10.42,3.55,2.24.81,2.07,1.41-.52,1.49-1.48,1.44a16.75,16.75,0,0,1-4.87-1.67c-2.07-1-4.14-1.62-6.65-2.73s-7.25-1.63-8.5-2.81-3.92-3.63-5.84-4.36-5.4-1.87-8.65-3.34a54.56,54.56,0,0,1-5.24-2.87,9.07,9.07,0,0,0-3.11-.82,4.15,4.15,0,0,1-2.39-1.57Z"/>
    <path class="cls-15" d="M32.88,85.45a5.85,5.85,0,0,1,3.95.8c2.21,1,3.62,1.76,3.77,2.13s-.37,0-1.78-.5A27.21,27.21,0,0,0,34.61,87a10.92,10.92,0,0,0-1.29,0Z"/>
    <path class="cls-15" d="M74.59,103.62c-1.33-.74-3-.59-4.66-1A14.61,14.61,0,0,1,66,100.66a11.52,11.52,0,0,0-4.44-1.77c-2.14-.45-3.32-.37-4.87-.74s-1.33-1.41-1.86-2.07a11.1,11.1,0,0,0-3.17-2.31c-1-.46-3.4-1.76-5.32-2.72s-2.14-.52-4.58-.89-2.37-.81-3.84-1.62a6.42,6.42,0,0,0-4.12-.16l.51,1.23s3.31.63,3.75,1.14a11.74,11.74,0,0,0,2.54,1.7,35.64,35.64,0,0,1,3.45,2.3,9.47,9.47,0,0,0,4,1.33,8.54,8.54,0,0,1,4.43,1.67,6.09,6.09,0,0,0,2.78,1.65c1.38.45,2.62.52,4.91,1.19a34.46,34.46,0,0,1,6,2.36,27.64,27.64,0,0,1,3.91,2.29c1,.74,6.77,2.15,6.77,2.15l.84-1.66A31.19,31.19,0,0,0,74.59,103.62ZM49.24,94.38c-.74.29-2.44.74-3.32,0s-2.66-2.66-2.66-2.66c.22,0,1.84.66,2.8,1S50,94.08,49.24,94.38Z"/>
    <path class="cls-15" d="M30.13,75.45s3.73,2.15,5.1,2.81,4.11,1,4.48,1.26-.62.66.91,1.73,5.22,1.45,6.85,2.11,1.92.89,3.77,1.56,4.06.29,6.06,1.33a14.8,14.8,0,0,1,3.54,3.1c.3.15,0-2.14-1.25-3s-3-1.11-5.14-1.85a36,36,0,0,1-6-2.34c-1.77-1-3-1.28-4.73-2.17s-2.07-1.33-3.54-2.07-3.93-.44-5-1.33A44.51,44.51,0,0,0,30,73.68Z"/>
    <path class="cls-15" d="M79.69,95.63c-1.29-.72-.37-1.66-5.25-2.38s-8-1.76-9.23-2.72S62.4,89.09,62,88.11a4.3,4.3,0,0,0-2.88-3c-2.22-.81-6.13-1.55-7.46-2.44S48.13,80.7,47,79.74s-6.33-3-6.33-3,4.6,1,5.69,1.7a15.77,15.77,0,0,0,4.48,1.77c2.89.89,5.4,2.3,7.54,3.11s3.77.15,5.25,2.44,2.36,3.69,4.06,4.43,3.92.89,6.66,1.55,5.09,1,5.09,1Z"/>
    <path class="cls-15" d="M30.25,71.17c.59.14,6.8,2.51,8.65,3.32A60.45,60.45,0,0,0,47,77.23c4.73,1.4,5.76,1.48,9.16,3.1s5.18,1.55,7.17,2.66,1,1.11,4,3.18,4.07,4,7,4.36a43.06,43.06,0,0,0,5,.37s-1.85-2.23-2-2.52-5.32-1.42-7.47-3S65.2,82.77,61.58,81s-9.23-3.51-11.08-4.32-3-1.18-8.43-2.66-6.83-2.76-6.83-2.76l-4-.86Z"/>
    <path class="cls-16" d="M33.67,75.38l9.2,4.19,2.9,2.68,2,1.85,7,2.86L57.65,86s6.59,2,7.47,2.52,10.13,3.92,12,4.17,4.49-4.6,4.49-4.6S41.64,72.24,40.43,72s-6.76-1-6.76-1Z"/>
    <path class="cls-11" d="M35.54,90.46c-.56.19,12.75,7.68,16.28,9,3,1.1,8,3.76,10.33,4.74s14.45,5.47,14.45,5.47.49-.72.09-.79-12.89-4.18-14.59-5.34S54.34,100.36,52,98.89a42.6,42.6,0,0,0-6.69-3.26,75.28,75.28,0,0,1-7.8-4.28c-.66-.57-2-1.49-2-1.49Z"/>
    <path class="cls-16" d="M35.91,76l.84,14.64-1.21-.15S34,86.62,34,86.17s-.1-10.79-.1-10.79Z"/>
    <path class="cls-2" d="M86.66,110.22l-3.25,2.66-.79-23.55,3.55.67Z"/>
    <path class="cls-17" d="M86.54,105.24l2.68,1.23-5.92,3.26-.09-2.82Z"/>
    <path class="cls-5" d="M92.57,112.49l-3.35-6-5.92,3.26.13,8.77Z"/>
    <path class="cls-18" d="M28.92,69.47l1.77,19L34,90.9l-.88-19.5Z"/>
    <path class="cls-4" d="M34.63,72.72l.91,17.74-1.6.59L33.16,71.4Z"/>
    <path class="cls-19" d="M28.43,84l1.81-.34,3.55,1.82L31.48,86Z"/>
    <path class="cls-5" d="M34.93,92.58l-1.14-7.15L31.48,86l1.68,7Z"/>
    <path class="cls-17" d="M28.43,84,28,89.87,33.16,93l-1.68-7Z"/>
    <path class="cls-20" d="M67,55,26.7,63.26C40.09,70.82,59.26,77.61,81.83,84l34.44-15.67-5.91-.44c-8.06,4.1-17.59,7.8-27.94,12a9.29,9.29,0,0,1-5.32-.3A308.16,308.16,0,0,1,36.16,65c-.9-.36-.76-.79.74-1.33,6.08-1.88,19.35-5,32.07-8Z"/>
    <path class="cls-5" d="M115.63,74.25l.64-6L81.83,84l-.49,8.63Z"/>
    <path class="cls-21" d="M26.76,63.41V70.5c12.57,7.64,32.62,14.91,54.61,22.08L81.88,84C60,77.91,41.84,71.09,26.76,63.41Z"/>
    <path class="cls-22" d="M58.62,73.82,56.73,72l-5.27,2.35L51.8,84l2.82,1.48,2.29-1.19-3.13-1.08V75.23Z"/>
    <path class="cls-23" d="M46.41,68.48,56.83,72l-5.32,2.35L42,70.62Z"/>
    <path class="cls-9" d="M51.82,84l-8.76-3.4,2.81,1.7,8.76,3.18Z"/>
    <path class="cls-24" d="M42,70.62l1,9.93L51.82,84l-.31-9.64Z"/>
    <path class="cls-22" d="M45.6,80.36l1.89.74v-2c1.26-.23,1.61-2,1.26-2.69-.57-1.6-2-2.72-3.38-2.08-1.28.82-.82,2.58.28,3.68Z"/>
    <path class="cls-9" d="M47.57,77l-1.85,1-.12,2.37,1.89-1v-.27a1.81,1.81,0,0,0,1.26-2.69Z"/>
    <path class="cls-9" d="M41.79,67.34l27.06-6.69v1l-26.4,6Z"/>
    <path class="cls-25" d="M77.16,91.23l4.17,1.36,1.35-.7v2.27l-4.17-1.58Z"/>
    <path class="cls-26" d="M82.65,94.19,86.18,92l1-1.09,21.49-11.89h1.58l3.05-1.76.13-1.85L82.72,91.89Z"/>
    <path class="cls-27" d="M42.86,59.93,26.7,63.26l-.15.15s-.22.08.24.37a13.75,13.75,0,0,0,1.72.76c.75.32,1.11.63,1.69.85s4.78,2.83,6.26,3.3,2.73,1.44,3.47,1.55a14.26,14.26,0,0,1,2.11.63l.39-.44A9.15,9.15,0,0,0,41,69.76c-.73-.26-3.07-1.56-3.73-1.76s-3-1.79-3.7-2S32,65.35,31.25,65s-2.63-.68-2.78-.91a4.59,4.59,0,0,0-.85-.71s1.52-.12,1.7-.19,1.59-.41,2.89-.7S42.86,59.93,42.86,59.93Z"/>
    <path class="cls-27" d="M55.28,74.82l2.5,1s-.48-.38,2.85,1.07a35.62,35.62,0,0,0,5.46,1.82A31.58,31.58,0,0,0,69.86,80c1,.22,3.48.3,4,.7s4.36,1.45,5.32,2a18,18,0,0,0,2.89.82c.46.2,6.79-3,7.61-3.4a74.44,74.44,0,0,1,8.61-3.92,75.78,75.78,0,0,0,7.45-3l4.85-2.21-6,3.28A59.85,59.85,0,0,0,98.28,77a53.74,53.74,0,0,1-5.85,2.61c-1.48.69-4,2.1-4.88,2.31s-5,2.27-5.17,2.32-.15,1.08-.25,1.87a23.63,23.63,0,0,0-.41,2.75c.06.45-.12,3.43-.12,3.43H81a31.49,31.49,0,0,0,.39-4.67,28.08,28.08,0,0,1-.2-3.1c0-.36.45-.37-.88-1s-3.07-.85-5-1.41-5-1.25-5.69-1.46-4.19-1-5.56-1.62-5.47-1.48-6-1.76A13.82,13.82,0,0,1,56,76.16a9,9,0,0,0-2-.93Z"/>
    <path class="cls-28" d="M82.69,92.72a13.59,13.59,0,0,0-.19,1.44c0,.71.12.91.09,2.06s0,1.75,0,3.26a19.2,19.2,0,0,0,.13,3.2,20.53,20.53,0,0,1,.22,3.52c-.1.45,0,.69,0,.62s0,.1.09.11.79-.23.77-.45c0-.39.07-1.93-.1-3.7s-.17-2.54-.32-4.26-.4-3.23-.35-3.8A14,14,0,0,0,83,93Z"/>
    <path class="cls-27" d="M83,109.38c.15-.27.34-.41.2-.76a6.38,6.38,0,0,1,0-1.71s.13,1.31.22,1.79a2.32,2.32,0,0,1-.13,1Z"/>
    <path class="cls-27" d="M82.74,109.73a11.32,11.32,0,0,1,.22,1.6c0,.71-.08.89,0,2s.12,1.6.2,2.24.27,2.79.27,2.79.23-3,.18-3.58-.2-1.33-.2-1.92.28-2,.2-2.24-.08-.88-.16-1-.49-.15-.49-.15Z"/>
    <path class="cls-27" d="M75.13,106.82a1.54,1.54,0,0,0-.24.66c-.08.45,0,1-.12,1.34s-.57,1.87-.65,2.26-.22.77-.27,1.23-.34,1.65,0,1.56.47-.47.47-1.21a6.28,6.28,0,0,1,.37-2,12.56,12.56,0,0,0,.39-1.87c.08-.5.4-1.58.42-1.66S75.13,106.82,75.13,106.82Z"/>
    <path class="cls-29" d="M46.41,68.48s-4.1,1.76-4.24,2a.88.88,0,0,0-.13.44s.67,6.33.67,6.26-.14-3.75-.14-4.44-.42-1.31.07-1.29.32.47,1.43.56a6.37,6.37,0,0,1,2.14.56,22.12,22.12,0,0,1,2.39.94c.64.32,2.39.91,2.51,1s.66,7.77.65,7.69-.26-7.24,0-7.54a13.23,13.23,0,0,1,1.77-.91c.64-.37,3.31-1.72,3.31-1.72s-4.2,1.62-4.67,1.72-.41.3-1.23,0-4.75-1.77-5.2-2-1.89-.64-2.14-.84-.59-.27-.54-.44A38.4,38.4,0,0,1,46.41,68.48Z"/>
    <path class="cls-29" d="M47.54,81.1a8.53,8.53,0,0,1,0-2c.17,0,1-.21,1-.38a3.08,3.08,0,0,0,.32-.63,3.54,3.54,0,0,0,.1-.79,3.17,3.17,0,0,0-.3-1.08,8.05,8.05,0,0,0-.56-1c-.14-.17-.52-.48-.46-.49a.89.89,0,0,1,.55.34,2.41,2.41,0,0,1,.62.8,4.86,4.86,0,0,1,.32,1,7.08,7.08,0,0,1,0,1.22c0,.33,0,.75-.32.94a4.44,4.44,0,0,1-1.05.48s0,.52-.07.78Z"/>
    <path class="cls-18" d="M61.79,57.42s-2.13.27-3.51.42A40.53,40.53,0,0,0,53.6,59c-1.23.3-3.18.55-4.4,1s-2.68.86-3.72,1.11-3.36,1-4.86,1.38-2.83.89-3.42,1a5.19,5.19,0,0,0-1.66.72.53.53,0,0,0,0,.57c.1.19.83.43.83.43s-.43-.48-.31-.71.37-.37,1.26-.76,2-.49,2.88-.79,3.23-.91,3.72-1a22.64,22.64,0,0,0,2.61-.58c.59-.23,2.24-.74,2.91-.89s4.11-.64,4.61-.82,1.84-.57,2.48-.74,2.17-.61,2.42-.71S61.79,57.42,61.79,57.42Z"/>
    <path class="cls-19" d="M32.88,74a5,5,0,0,1,.33,2.2,3.46,3.46,0,0,0-.14,1.7,14.16,14.16,0,0,0,.09,1.57c.07.38,0,.76.05,1.47s.14,1.67.19,2.06,0,2.24,0,2.24l.39.2s.2.08.15-.44a8.19,8.19,0,0,1-.12-1.58,6.41,6.41,0,0,0,.12-1.53c0-.59-.32-1.92-.36-2.46a21.36,21.36,0,0,1-.16-2.54c.06-.39-.29-1.18-.08-1.5a2.22,2.22,0,0,0,.12-1.09Z"/>
    <path class="cls-16" d="M29.08,72l4.42,2.32,1.43.64v.63l-1.54-.18-4.08-2.15Z"/>
    <path class="cls-27" d="M28,89.87s0-1.59,0-1.91.25-1.83.27-2.14-.25-.85-.14-1.31.19-.61.39-.7a15.22,15.22,0,0,1,1.68-.3l-.17-1.79s.32,1.59.37,1.7a3,3,0,0,0,1.2.74,12.06,12.06,0,0,1,2,1.17s-1.46-.71-1.86-.82A10.57,10.57,0,0,1,30.49,84c-.17,0-.48,0-.8,0a1.75,1.75,0,0,0-.66.1l1.29,1c.3.2,1.16,1,1.16,1s.54,1.93.71,2.52.13.87.29,1.33a12,12,0,0,1,.33,1.66c0-.07-.58-1.74-.77-2.33s-.22-1.9-.31-2a3.5,3.5,0,0,1-.41-.85c0-.12.59.24-.33-.36s-1.15-.81-1.57-1.1a2.32,2.32,0,0,0-.78-.41c-.11,0-.16.35-.05.63a2.7,2.7,0,0,1-.08,1.29,15.21,15.21,0,0,0-.22,2A10.79,10.79,0,0,1,28,89.87Z"/>
    <path class="cls-12" d="M85.68,94.16c.51-.34,2.21-.83,2.77-1.58a4.75,4.75,0,0,1,2.1-2,27.83,27.83,0,0,1,5.27-1.24s-3.53,1.08-4,1.9A14.45,14.45,0,0,1,89,93.86c-.4.26-2.52,1-2.59,1a1.59,1.59,0,0,1-.44,0Z"/>
    <path class="cls-19" d="M34,86.17c9.53,6.54,24.82,13.36,42.74,20.3l.84-1.23C60.5,99,45.78,92.56,35.35,85.64Z"/>
    <path class="cls-30" d="M34.93,92.58,34,86.17c12.09,7.5,27,13.71,42.45,20.19l-1.36,5.53C59.24,105.91,44.9,99.64,34.93,92.58Z"/>
    <path class="cls-18" d="M77.16,91.23l.63,19.29,5.62,2.36L82.31,92Z"/>
    <path class="cls-19" d="M77.62,105.24l-2.49,1.58,8.17,2.91-.09-2.82Z"/>
    <path class="cls-17" d="M75.13,106.82l-1.28,7.05,9.58,4.63-.13-8.77Z"/>
    <path class="cls-27" d="M75.52,106.57l1.32.45a3.54,3.54,0,0,1,1.15.46,2.85,2.85,0,0,0,1.23.45c.67.17.52.15,1.43.44a14.91,14.91,0,0,1,2.52.94.9.9,0,0,1,.13.42s0,.17-.56,0-1.11-.42-1.94-.67-.91-.29-2-.56a19.07,19.07,0,0,1-2.58-.82,4.34,4.34,0,0,1-1.16-.56l0-.3Z"/>
    <path class="cls-5" d="M108.63,97.7l1.09-7.32-21.78,15.5,2.13,4.31A81.21,81.21,0,0,0,108.63,97.7Z"/>
    <path class="cls-31" d="M86.11,105.24C95.94,100,103.75,95,108.38,90.38l1.48-.19c-5,5.4-12.11,10.65-21.92,15.69Z"/>
    <path class="cls-1" d="M96.59,51.13s4.16-1.83,4.78-1.71,4.89,2.15,6.73,5.11,4.16,10.92,4.16,10.92L84.48,76s1.12-9.45,3.19-14.18S96.59,51.13,96.59,51.13Z"/>
    <path class="cls-13" d="M53.19,34.93S97.32,45.46,99.28,45.4,81.59,74.13,81.59,74.13C60.83,71.8,43.38,66,28.43,57.42,32.75,45,39.82,36.05,53.19,34.93Z"/>
    <path class="cls-32" d="M26.75,62.11C41.12,70.2,60.9,76.85,82.31,82.37l-.72-8.24c-20.5-4.21-38.75-10.23-54.89-18Z"/>
    <path class="cls-5" d="M96.91,46C85,50.54,81.63,74.13,81.63,74.13l.78,8.23,32.93-14V61.54S108.87,41.46,96.91,46Zm.68,7c8.36-5.39,12.47,10.49,12.47,10.49L87.67,71.85C88.68,66.9,91.41,56.94,97.59,53Z"/>
    <path class="cls-33" d="M101.68,45.37l-8.76-1.83C80.28,48.06,75.86,59.45,74.07,73L80,77.82l1.64-3.69C84,58.81,90.18,46.81,101.68,45.37Z"/>
    <path class="cls-34" d="M52.93,34.5C42.25,34.43,33.59,42,26.7,56.23l2,3.72,2.84-1.45C37.17,45.22,46,36.2,57,34.93Z"/>
    <path class="cls-35" d="M31.48,59h2.94A307.48,307.48,0,0,0,74.56,71.24l-.49,1.5A228.88,228.88,0,0,1,31.48,59Z"/>
    <path class="cls-36" d="M57.4,36.11C46.63,37.6,39.34,45.75,34.42,59H31.48C38.1,43.24,46.85,36.52,57,35.19Z"/>
    <path class="cls-36" d="M110.06,63.46l-3.8-.39L88.12,69.84l-.45,2Z"/>
    <path class="cls-27" d="M31.48,58.6C42.93,64.37,57,69.1,74.56,73.47a43.22,43.22,0,0,1,9.92-24.95c-5.9,5.17-8.9,13.7-10.41,24A319,319,0,0,1,31.48,58.6Z"/>
    <path class="cls-14" d="M38.45,50a10.26,10.26,0,0,0,2.34,1.22,38.87,38.87,0,0,0,4.32,1.56c2,.65,3.59.92,4.73,1.72a21.5,21.5,0,0,0,4.67,2c1.61.57,3.33,1.22,6.1,2S68,60.7,69.5,61s6.76,1.44,6.76,1.44l.27-.86S74.7,59.93,74.07,60a10.84,10.84,0,0,1-4.34-.72c-1.59-.67-9.85-2.9-10.83-3a30.64,30.64,0,0,1-4.39-1.7c-1.49-.58-2.73-1-4.8-1.62a24.28,24.28,0,0,1-4.2-1.9c-.44-.18-4.85-1-5.15-1.29s-1.29-.79-1.29-.79Z"/>
    <path class="cls-11" d="M38.82,49.41s1,.46,3,1.27,2.43.38,4.47,1.17.66.55,2.61,1.36,1.37.88,2.94,1.32c1.73.49,1.35-.06,3.47.92s1,1.27,4.34,1.68,1.76-.14,4.78,1.16a33.53,33.53,0,0,0,6,2A37,37,0,0,0,75,61l1.47.86.28-.86s-1.3-1.11-2.16-1.05a5.3,5.3,0,0,1-2.66-.33c-.67-.37-3.09-1-4.07-1.32a35.71,35.71,0,0,0-4.16-1.41c-1-.18-3-.55-4.1-.73a13.72,13.72,0,0,1-3.3-1.1A16.79,16.79,0,0,0,53,54c-.91-.19-.61-.19-1.89-.92a17.63,17.63,0,0,0-3.67-1.29c-1.11-.36-2.39-.92-2.39-.92l-5-1.71-.67-.59Z"/>
    <path class="cls-14" d="M47.33,39.9s.31.34,2,.58a49.2,49.2,0,0,1,5.16,1.29c1.88.49.66-.37,3.9.92s5.32,2.54,6.85,2.64a60.71,60.71,0,0,1,9.67,2.37c1.29.62,5.63,2.33,5.63,2.33l1.94.47,1-1.09a3.91,3.91,0,0,1-1.45-.48,22.75,22.75,0,0,0-3.24-1.23c-1.23-.36-3.61-1.28-4.78-1.65s-5.26-1.16-6.18-1.28a15.86,15.86,0,0,1-4.71-1.23A20.77,20.77,0,0,0,59,41.83c-1.53-.43-3.43-.92-4.16-1.23s-3.86-.91-4.22-1l-2.34-.34Z"/>
    <path class="cls-11" d="M48.58,39.07a.87.87,0,0,1-.33.21c-.16,0-.32.08-.26.1l2.18.47c1,.22,3.06.49,3.69.75s1.53.53,1.86.66,2.89.73,3.24.87,2.18.74,2.79,1a16.37,16.37,0,0,0,2.49,1c.9.25,2.61.53,2.92.64s1.53.24,1.67.34,3.35.68,3.53.8,2,.53,2.9.9,1.83.61,2.85,1,3.59,1.35,3.59,1.35l1.58.52.54-.56a6.73,6.73,0,0,1-1.36-.49c-.59-.3-2.9-1-4-1.35s-2.08-.95-3-1.2-2-.68-2.45-.76a15,15,0,0,1-2.42-.44,19.35,19.35,0,0,0-3.19-.74,8.46,8.46,0,0,1-2.93-.61c-1.14-.52-2.21-.92-2.82-1.13s-2-.58-2.66-.8-2.54-.73-2.72-.79-2.6-.71-2.91-.86a23.82,23.82,0,0,0-3.12-.68C49.81,39.26,48.58,39.07,48.58,39.07Z"/>
    <path class="cls-37" d="M106.26,63.07l3.8.39Q105.83,51,100.57,51.85C103.31,52.29,105.24,55.9,106.26,63.07Z"/>
    <path class="cls-27" d="M96.13,47.06c-8.06,3-13,12.22-14.92,27.45l1.1,7.85L82,74.43C83.83,60.82,88.11,51,96.13,47.06Z"/>
  </g>
</svg>
