<svg xmlns="http://www.w3.org/2000/svg" width="1886" height="260" viewBox="0 0 1886 260">
  <defs>
    <style>
      .cls-1 {
        fill: #4900a9;
      }

      .cls-2 {
        fill: #290062;
      }
    </style>
  </defs>
  <g id="Layer_2" data-name="Layer 2">
    <g id="Layer_1-2" data-name="Layer 1">
      <g>
        <path class="cls-1" d="M1863.88,129.76a47.26,47.26,0,0,0-44.56,31.52,46.39,46.39,0,0,0-12.81-7,63,63,0,0,0-92.66-55.16,63,63,0,1,0-29.57,77.31,63.06,63.06,0,0,0,59.2,41.3c1.72,0,3.41-.09,5.09-.22a46.56,46.56,0,0,0,86-3.42,47.22,47.22,0,0,0,51.42,4.69V135.27A47,47,0,0,0,1863.88,129.76Z"/>
        <path class="cls-1" d="M507.89,119a54.71,54.71,0,0,0-45.42,24.15,54.75,54.75,0,0,0-99.13.7,37.09,37.09,0,0,0-43.22-6.17,73.54,73.54,0,0,0-131.59,13.68A40.29,40.29,0,0,0,144.41,139a71.4,71.4,0,0,0-132.95,4.74A47.51,47.51,0,0,0,0,135.27v83.49a47.45,47.45,0,0,0,17.21-15.57,71.39,71.39,0,0,0,118.22,7.53,40.27,40.27,0,0,0,53.47-8.34,73.54,73.54,0,0,0,136.31,3,37.05,37.05,0,0,0,40.6-11,54.76,54.76,0,0,0,92.67,3A54.73,54.73,0,1,0,507.89,119Z"/>
        <path class="cls-1" d="M971.64,111.79a62.32,62.32,0,0,0-62.06,56.49,43.84,43.84,0,0,0-40.93-4.17A43.77,43.77,0,0,0,803,113.38a54.73,54.73,0,1,0-18.47,45.56,43.8,43.8,0,0,0,59.34,31.3A43.77,43.77,0,1,0,927,217.56a62.31,62.31,0,1,0,44.62-105.77Z"/>
        <path class="cls-1" d="M1256.11,137.29a54.57,54.57,0,0,0-36.7,14.11,54.74,54.74,0,1,0,11.53,89.26,54.76,54.76,0,1,0,25.17-103.37Z"/>
        <path class="cls-1" d="M1393.71,47.83A36.63,36.63,0,0,0,1364,106a36.67,36.67,0,1,0,39.37,13.81,36.64,36.64,0,0,0-9.7-72Z"/>
        <path class="cls-2" d="M1825.11,198.13a22.69,22.69,0,0,0-41.17,11.37h0a34.29,34.29,0,0,0-7.23-8.19,33.94,33.94,0,0,0-16.79-7.39,52.14,52.14,0,1,0-78.54-68.42,52.16,52.16,0,0,0-72.89-42.81c.09-1.06.14-2.12.14-3.2a39.17,39.17,0,0,0-49-37.84c.06-.84.1-1.69.1-2.55a39.12,39.12,0,1,0-77.11,9.31,39.12,39.12,0,0,0-46.84,28.48,52.23,52.23,0,0,0-60.06,51.54A52.11,52.11,0,0,0,1377,140a39.13,39.13,0,0,0-53.69,36.29c0,.6,0,1.19.05,1.78A52.16,52.16,0,0,0,1227.63,198a22.69,22.69,0,0,0-24.32,2.36,34.11,34.11,0,0,0-52.65-17.11,34.1,34.1,0,0,0-65.23-8,34.09,34.09,0,0,0-64.45,15.5c0,.17,0,.34,0,.51a45.34,45.34,0,0,0-53.62,8.68,45.37,45.37,0,0,0-85.44,2.7A22.7,22.7,0,0,0,860.07,186a22.46,22.46,0,0,0-7.23,1.19c0-.4,0-.79,0-1.19a51.94,51.94,0,0,0-65.38-50.13,52.93,52.93,0,0,0-51.39-65.6c-1.52,0-3,.07-4.5.2a52.16,52.16,0,0,0-100.35-27.6q-.59,0-1.17,0a32.23,32.23,0,0,0-32.24,32.22c0,.41,0,.82,0,1.23a52.84,52.84,0,0,0-10.21-1,52.11,52.11,0,0,0-37.81,88A22.74,22.74,0,0,0,533.8,174a45.36,45.36,0,0,0-89.38,5.7,22.7,22.7,0,0,0-36.85,2.78,45.37,45.37,0,0,0-87.65,23.45,45.36,45.36,0,0,0-43.13,9.6A45.53,45.53,0,0,0,247,211.43a45.36,45.36,0,1,0-87-25.89,22.7,22.7,0,0,0-28.42-12.73A48.7,48.7,0,0,0,44,176.48a71.79,71.79,0,0,0-42.68-14l-1.32,0V260H1886V162.51A72,72,0,0,0,1825.11,198.13Z"/>
      </g>
    </g>
  </g>
</svg>
