<svg width="83" height="85" viewBox="0 0 83 85" fill="none" xmlns="http://www.w3.org/2000/svg">
<g filter="url(#filter0_d_21_1182)">
<circle cx="41.3154" cy="39.6846" r="37.3154" fill="#7323D1"/>
</g>
<circle cx="41.3154" cy="37.3154" r="37.3154" fill="#9446EF"/>
<path d="M41.221 43.1019C44.3641 43.1019 46.9121 40.5539 46.9121 37.4108C46.9121 34.2677 44.3641 31.7197 41.221 31.7197C38.0779 31.7197 35.53 34.2677 35.53 37.4108C35.53 40.5539 38.0779 43.1019 41.221 43.1019Z" fill="white"/>
<path d="M60.9298 51.6183C60.6824 51.595 60.4397 51.5903 60.2001 51.6012C59.0068 51.6603 57.8431 51.2309 56.9983 50.3861L56.9952 50.383C55.6868 49.073 55.4145 47.0676 56.2858 45.434C57.1368 43.8409 57.7435 42.0969 58.0516 40.2533H52.2423C50.9214 45.3905 46.1031 49.1259 40.4774 48.7696C34.8423 48.4134 30.2652 43.8736 29.8654 38.2416C29.3924 31.5797 34.6572 26.0287 41.2179 26.0287C46.5201 26.0287 50.9758 29.6552 52.2407 34.5622H58.05C57.742 32.7279 57.1399 30.9932 56.2951 29.4079C55.4254 27.7727 55.6992 25.7673 57.0092 24.4573L57.0745 24.392C57.9084 23.5596 59.0535 23.1271 60.2297 23.1785C60.5751 23.194 60.9298 23.1722 61.2923 23.1116C63.4704 22.7397 65.1849 20.9319 65.4213 18.7351C65.7652 15.5271 63.0737 12.848 59.8625 13.2121C57.6657 13.461 55.8672 15.1864 55.511 17.3692C55.4534 17.7254 55.4347 18.0755 55.4503 18.4162C55.5063 19.6033 55.0754 20.7592 54.2352 21.5993L54.1979 21.6367C52.8988 22.9342 50.9012 23.2329 49.2831 22.3632C46.881 21.0719 44.135 20.3392 41.2179 20.3392C38.3102 20.3392 35.5735 21.0688 33.1776 22.3508C31.5612 23.2174 29.5651 22.9171 28.266 21.618L28.2427 21.5931C27.4057 20.7546 26.9747 19.6002 27.0307 18.4162C27.0463 18.0739 27.0276 17.7239 26.97 17.366C26.6138 15.1833 24.8137 13.4595 22.6169 13.2105C19.4058 12.8465 16.7143 15.5271 17.0612 18.7367C17.2977 20.935 19.0137 22.7413 21.1918 23.1116C21.5528 23.1722 21.9059 23.1925 22.2482 23.1785C23.4291 23.1271 24.5757 23.5596 25.4111 24.3951L25.4469 24.4309C26.7444 25.73 27.0432 27.7276 26.1735 29.3456C24.8822 31.7462 24.1478 34.4922 24.1478 37.4093C24.1478 40.3186 24.8775 43.0568 26.1626 45.4543C27.0307 47.0738 26.7304 49.0715 25.4314 50.369L25.4142 50.3861C24.5803 51.22 23.4322 51.6525 22.2544 51.5996C21.9106 51.5841 21.5559 51.6043 21.1949 51.6665C19.0153 52.0352 17.2993 53.8415 17.0612 56.0398C16.7127 59.2494 19.4042 61.9316 22.6154 61.5691C24.8122 61.3217 26.6122 59.5964 26.97 57.4152C27.0276 57.0589 27.0478 56.7088 27.0307 56.3681C26.9747 55.1826 27.4072 54.0267 28.2473 53.1881C29.5464 51.8906 31.5441 51.5918 33.1605 52.4615C35.5611 53.7513 38.304 54.4841 41.2211 54.4841C44.1304 54.4841 46.8701 53.7559 49.2676 52.4709C50.8872 51.6027 52.8832 51.903 54.1823 53.2036L54.2383 53.2612C55.066 54.0904 55.5001 55.2277 55.4519 56.3992C55.4379 56.7462 55.4596 57.104 55.525 57.4681C55.9093 59.6446 57.7217 61.3497 59.9201 61.5753C63.0208 61.8943 65.6205 59.3801 65.4447 56.3059C65.3062 53.868 63.3584 51.8485 60.9298 51.6183Z" fill="white"/>
<defs>
<filter id="filter0_d_21_1182" x="0" y="2.36923" width="82.6307" height="82.6308" filterUnits="userSpaceOnUse" color-interpolation-filters="sRGB">
<feFlood flood-opacity="0" result="BackgroundImageFix"/>
<feColorMatrix in="SourceAlpha" type="matrix" values="0 0 0 0 0 0 0 0 0 0 0 0 0 0 0 0 0 0 127 0" result="hardAlpha"/>
<feOffset dy="4"/>
<feGaussianBlur stdDeviation="2"/>
<feComposite in2="hardAlpha" operator="out"/>
<feColorMatrix type="matrix" values="0 0 0 0 0 0 0 0 0 0 0 0 0 0 0 0 0 0 0.25 0"/>
<feBlend mode="normal" in2="BackgroundImageFix" result="effect1_dropShadow_21_1182"/>
<feBlend mode="normal" in="SourceGraphic" in2="effect1_dropShadow_21_1182" result="shape"/>
</filter>
</defs>
</svg>
