<?xml version="1.0" encoding="utf-8"?>
<!-- Generator: Adobe Illustrator 25.0.0, SVG Export Plug-In . SVG Version: 6.00 Build 0)  -->
<svg version="1.1" id="Layer_1" xmlns="http://www.w3.org/2000/svg" xmlns:xlink="http://www.w3.org/1999/xlink" x="0px" y="0px"
	 viewBox="0 0 276 276" style="enable-background:new 0 0 276 276;" xml:space="preserve">
<style type="text/css">
	.st0{clip-path:url(#SVGID_2_);}
	.st1{fill:#FFFFFF;}
	.st2{fill:none;stroke:#FFFFFF;stroke-width:4;stroke-miterlimit:10;}
</style>
<g id="Capa_2_1_">
	<g id="Capa_1-2">
		<g>
			<defs>
				<circle id="SVGID_1_" cx="138" cy="138" r="128.6"/>
			</defs>
			<clipPath id="SVGID_2_">
				<use xlink:href="#SVGID_1_"  style="overflow:visible;"/>
			</clipPath>
			<g class="st0">
				<circle class="st1" cx="117.6" cy="107" r="13.2"/>
				<path class="st1" d="M138.9,71.7c-67.2-16.3-94.4,29.6-92,59.7c4.1,51-16.6,81.9-16.6,81.9s3.3,30,3.3,32.5
					c0,2.5,7.9,19.1,10.5,27.3c2.6,8.3,19.5,22.4,20.7,23.2c1.3,0.8,80.8-1.7,92.8-34.1c-13.1-48,42.4-91.4,69.9-120.5
					c-39.5,39.8-80.9,23.6-90.2,16.2c48.4,18.2,90-16.1,90.2-16.3c1-1,1.9-2,2.8-3C258.6,102.7,179.3,81.4,138.9,71.7z M117.6,130.8
					c-13.2,0-23.8-10.7-23.8-23.8c0-13.2,10.7-23.8,23.8-23.8s23.8,10.7,23.8,23.8c0,0,0,0,0,0C141.4,120.2,130.7,130.8,117.6,130.8
					z M204.6,137.1c-2.9,0-5.2-2.3-5.2-5.2s2.3-5.2,5.2-5.2c2.9,0,5.2,2.3,5.2,5.2S207.5,137.1,204.6,137.1z"/>
				<ellipse class="st1" cx="154.8" cy="83.7" rx="20.2" ry="17.5"/>
			</g>
		</g>
		<path class="st1" d="M145.2,23.8c0,0,95.7,8.6,104.9,104.5c-1.6-32.4-7.2-73.6-62.5-98.3C172.6,23.3,145.2,23.8,145.2,23.8z"/>
		<circle class="st2" cx="138" cy="138" r="131.1"/>
	</g>
</g>
</svg>
