<svg xmlns="http://www.w3.org/2000/svg" width="1888.35" height="565.55" viewBox="0 0 1888.35 565.55">

  <g id="Layer_2" data-name="Layer 2">
    <g id="Layer_1-2" data-name="Layer 1">
      <g>
        <path class="cls-1" stroke-width= "5px" stroke-opacity="0.27"  fill= "none" stroke= "#fff"  stroke-miterlimit= "10" d="M34.46,286.84,19,271.43,3.54,286.84,19,302.26Z"/>
        <path class="cls-1" stroke-width= "5px" stroke-opacity="0.27"  fill= "none" stroke= "#fff"  stroke-miterlimit= "10" d="M375.4,464.16l12.43-17.71,12.43,17.71Z"/>
        <path class="cls-2" stroke-opacity= "0.08"   stroke-width= "5px" fill= "none" stroke= "#fff"  stroke-miterlimit= "10" d="M214.46,22.07,226.88,4.35l12.43,17.72Z"/>
        <path class="cls-2" stroke-opacity= "0.08"   stroke-width= "5px" fill= "none" stroke= "#fff"  stroke-miterlimit= "10" d="M712.38,266.93l12.43-17.71,12.43,17.71Z"/>
        <path class="cls-1" stroke-width= "5px" stroke-opacity="0.27"  fill= "none" stroke= "#fff"  stroke-miterlimit= "10" d="M220.6,361.64v25.08"/>
        <path class="cls-1" stroke-width= "5px" stroke-opacity="0.27"  fill= "none" stroke= "#fff"  stroke-miterlimit= "10" d="M233.17,374.18H208"/>
        <path class="cls-1" stroke-width= "5px" stroke-opacity="0.27"  fill= "none" stroke= "#fff"  stroke-miterlimit= "10" d="M436.87,226.26v25.07"/>
        <path class="cls-1" stroke-width= "5px" stroke-opacity="0.27"  fill= "none" stroke= "#fff"  stroke-miterlimit= "10" d="M449.44,238.79H424.29"/>
        <path class="cls-1" stroke-width= "5px" stroke-opacity="0.27"  fill= "none" stroke= "#fff"  stroke-miterlimit= "10" d="M932.27,393.4v25.07"/>
        <path class="cls-1" stroke-width= "5px" stroke-opacity="0.27"  fill= "none" stroke= "#fff"  stroke-miterlimit= "10" d="M944.85,405.94H919.7"/>
        <path class="cls-1" stroke-width= "5px" stroke-opacity="0.27"  fill= "none" stroke= "#fff"  stroke-miterlimit= "10" d="M153.54,522.1a14.21,14.21,0,1,0-14.25-14.2A14.23,14.23,0,0,0,153.54,522.1Z"/>
        <path class="cls-1" stroke-width= "5px" stroke-opacity="0.27"  fill= "none" stroke= "#fff"  stroke-miterlimit= "10" d="M590.27,107.58A14.21,14.21,0,1,0,576,93.38,14.23,14.23,0,0,0,590.27,107.58Z"/>
        <path class="cls-1" stroke-width= "5px" stroke-opacity="0.27"  fill= "none" stroke= "#fff"  stroke-miterlimit= "10" d="M716.84,563.05a14.21,14.21,0,1,0-14.25-14.2A14.23,14.23,0,0,0,716.84,563.05Z"/>
        <path class="cls-3" stroke-width= "2px"  stroke-opacity="0.27"  fill= "none" stroke= "#fff"  stroke-miterlimit= "10" d="M978,286.84,962.5,271.43,947,286.84l15.46,15.42Z"/>
        <path class="cls-3" stroke-width= "2px"  stroke-opacity="0.27"  fill= "none" stroke= "#fff"  stroke-miterlimit= "10" d="M1318.9,464.16l12.43-17.71,12.43,17.71Z"/>
        <path class="cls-3" stroke-width= "2px"  stroke-opacity="0.27"  fill= "none" stroke= "#fff"  stroke-miterlimit= "10" d="M1158,22.07l12.42-17.72,12.43,17.72Z"/>
        <path class="cls-3" stroke-width= "2px"  stroke-opacity="0.27"  fill= "none" stroke= "#fff"  stroke-miterlimit= "10" d="M1655.88,266.93l12.43-17.71,12.43,17.71Z"/>
        <path class="cls-3" stroke-width= "2px"  stroke-opacity="0.27"  fill= "none" stroke= "#fff"  stroke-miterlimit= "10" d="M1164.1,361.64v25.08"/>
        <path class="cls-3" stroke-width= "2px"  stroke-opacity="0.27"  fill= "none" stroke= "#fff"  stroke-miterlimit= "10" d="M1176.67,374.18h-25.15"/>
        <path class="cls-3" stroke-width= "2px"  stroke-opacity="0.27"  fill= "none" stroke= "#fff"  stroke-miterlimit= "10" d="M1380.37,226.26v25.07"/>
        <path class="cls-3" stroke-width= "2px"  stroke-opacity="0.27"  fill= "none" stroke= "#fff"  stroke-miterlimit= "10" d="M1392.94,238.79h-25.15"/>
        <path class="cls-3" stroke-width= "2px"  stroke-opacity="0.27"  fill= "none" stroke= "#fff"  stroke-miterlimit= "10" d="M1875.78,393.4v25.07"/>
        <path class="cls-3" stroke-width= "2px"  stroke-opacity="0.27"  fill= "none" stroke= "#fff"  stroke-miterlimit= "10" d="M1888.35,405.94H1863.2"/>
        <path class="cls-3" stroke-width= "2px"  stroke-opacity="0.27"  fill= "none" stroke= "#fff"  stroke-miterlimit= "10" d="M1097,522.1a14.21,14.21,0,1,0-14.25-14.2A14.23,14.23,0,0,0,1097,522.1Z"/>
        <path class="cls-3" stroke-width= "2px"  stroke-opacity="0.27"  fill= "none" stroke= "#fff"  stroke-miterlimit= "10" d="M1533.77,107.58a14.21,14.21,0,1,0-14.25-14.2A14.23,14.23,0,0,0,1533.77,107.58Z"/>
        <path class="cls-3" stroke-width= "2px"  stroke-opacity="0.27"  fill= "none" stroke= "#fff"  stroke-miterlimit= "10" d="M1660.34,563.05a14.21,14.21,0,1,0-14.25-14.2A14.24,14.24,0,0,0,1660.34,563.05Z"/>
      </g>
    </g>
  </g>
</svg>
