<svg xmlns="http://www.w3.org/2000/svg" width="1462.47" height="459.46" viewBox="0 0 1462.47 459.46">
  <defs>
    <style>
      .cls-1, .cls-2, .cls-3, .cls-4, .cls-5, .cls-6, .cls-7, .cls-8 {
        fill: #fff;
      }

      .cls-2 {
        opacity: 0.95;
      }

      .cls-3 {
        opacity: 0.8;
      }

      .cls-4 {
        opacity: 0.7;
      }

      .cls-5 {
        opacity: 0.6;
      }

      .cls-6 {
        opacity: 0.4;
      }

      .cls-7 {
        opacity: 0.5;
      }

      .cls-8 {
        opacity: 0.3;
      }
    </style>
  </defs>
  <g id="Layer_2" data-name="Layer 2">
    <g id="Layer_1-2" data-name="Layer 1">
      <g>
        <path class="cls-1" d="M481.64,46.4a5.44,5.44,0,0,0,2.53-.69,5.3,5.3,0,0,0,1.68-.46c.13,0,.25.08.39.08a5.38,5.38,0,0,0,2.6-.74,5.77,5.77,0,0,0,1.17.23,5.36,5.36,0,0,0,2.81-.88,5.44,5.44,0,0,0,1.93.39,5.37,5.37,0,0,0,3.2-1.14,5.3,5.3,0,0,0,2.5.67,5.44,5.44,0,0,0,3.65-1.44,5.32,5.32,0,0,0,3,1,5.5,5.5,0,0,0,4-1.78,5.26,5.26,0,0,0,7.86-.91,5.37,5.37,0,0,0,8.83-1,5.4,5.4,0,0,0,9.62-1,5.46,5.46,0,0,0,10.41-2,5.47,5.47,0,0,0,5.4,4.9,5.52,5.52,0,1,0-5.46-5.82A5.38,5.38,0,0,0,543.15,31c.12-.06.21-.16.33-.22a5.55,5.55,0,0,0,1.95.39,5.34,5.34,0,0,0,3-1,5.09,5.09,0,0,0,5.71-.6,5.3,5.3,0,0,0,2.78.86A5.46,5.46,0,0,0,560.5,29a5.28,5.28,0,0,0,7.09-.56,5.29,5.29,0,0,0,7.67-.62,5.37,5.37,0,0,0,8.41-.72,5.41,5.41,0,0,0,4.27,2.17,5.47,5.47,0,0,0,4.73-2.84,5.4,5.4,0,0,0,4.57,2.61,5.5,5.5,0,0,0,5-3.22,5.4,5.4,0,0,0,10-.86,5.43,5.43,0,0,0,10.57-1.29,5.45,5.45,0,0,0,5.39,4.87,5.45,5.45,0,0,0,4.12-9.1,5.57,5.57,0,0,0,1.54-1,5.73,5.73,0,0,0,1.42,1A5.42,5.42,0,0,0,633.92,23a5.52,5.52,0,1,0,11,0,5.46,5.46,0,0,0-1.4-3.58,5.3,5.3,0,0,0,1.69.34,5.35,5.35,0,0,0,1.6-.32,5.39,5.39,0,0,0-1.34,3.48,5.52,5.52,0,1,0,11,0,5.44,5.44,0,0,0-1.42-3.62,5.39,5.39,0,0,0,2.48-1.77,5.28,5.28,0,0,0,1.61,1.32,5.45,5.45,0,0,0-1.79,4,5.52,5.52,0,1,0,8.08-4.8,5.13,5.13,0,0,0,.65-.81,5.43,5.43,0,0,0,4.33,2.25c.15,0,.27-.07.42-.08a5.37,5.37,0,0,0-1.3,3.43,5.52,5.52,0,1,0,11,0,5.41,5.41,0,0,0-1.28-3.4l.06,0A5.43,5.43,0,0,0,684,16.81a5.15,5.15,0,0,0,1,1.2,5.44,5.44,0,0,0-3,4.81,5.52,5.52,0,1,0,11,0,5.45,5.45,0,0,0-1.92-4.11,5.46,5.46,0,0,0,2.1-2,5.37,5.37,0,0,0,2.91,2.39,5.54,5.54,0,1,0,5.72-1.37,5.3,5.3,0,0,0,.74-1.08,5.46,5.46,0,0,0,4.73,2.84,5.07,5.07,0,0,0,1.5-.31,5.51,5.51,0,1,0,9.49,3.8A5.43,5.43,0,0,0,717,19.49a5.44,5.44,0,0,0,4.6-2.86,5.69,5.69,0,0,0,1.36,1.65A5.45,5.45,0,0,0,720,23.05a5.52,5.52,0,1,0,11,0A5.41,5.41,0,0,0,729,18.86a5.46,5.46,0,0,0,2.15-2.14,5.5,5.5,0,0,0,3.2,2.66,5.44,5.44,0,0,0-1.56,3.81,5.52,5.52,0,1,0,11,0A5.45,5.45,0,0,0,739.92,18a5.7,5.7,0,0,0,.77-1.16,5.47,5.47,0,0,0,4.82,3,5.34,5.34,0,0,0,1.56-.31,5.56,5.56,0,1,0,8.16.41,5.38,5.38,0,0,0,4.39-2.65,5.83,5.83,0,0,0,1.31,1.57,5.43,5.43,0,0,0-2.81,4.7,5.52,5.52,0,1,0,11,0,5.42,5.42,0,0,0-2.08-4.21,5.23,5.23,0,0,0,1.85-1.77A5.39,5.39,0,0,0,772.11,20a5.5,5.5,0,1,0,9.53,3.74,5.46,5.46,0,0,0-4-5.22,5.7,5.7,0,0,0,.44-.65,5.43,5.43,0,0,0,4.59,2.65,5.52,5.52,0,0,0,1.82-.37,5.57,5.57,0,1,0,8.14.38,5.37,5.37,0,0,0,3.08-1.85,5.54,5.54,0,0,0,1.4,1.33,5.41,5.41,0,0,0-2.16,4.26,5.52,5.52,0,1,0,11,0,5.41,5.41,0,0,0-2.54-4.52,4.38,4.38,0,0,0,.69-.59,5.44,5.44,0,0,0,3.83,2,5.35,5.35,0,0,0-1.27,3.39,5.52,5.52,0,0,0,11,0,5.39,5.39,0,0,0-1.07-3.09A5.49,5.49,0,0,0,820,20.15a4.42,4.42,0,0,0,.47.39,5.39,5.39,0,0,0-2.34,4.39,5.52,5.52,0,1,0,11,0,5.44,5.44,0,0,0-2-4.16c.07-.06.16-.1.21-.15a5.67,5.67,0,0,0,3,1.4,5.43,5.43,0,0,0-1.18,3.26,5.51,5.51,0,0,0,5.52,5.52,5.45,5.45,0,0,0,5.25-4.22,5.44,5.44,0,0,0,5.32,4.59,5.5,5.5,0,0,0,5-3.22,5.41,5.41,0,0,0,9.8.86A5.5,5.5,0,0,0,864.91,32a5.4,5.4,0,0,0,4.38-2.33A5.45,5.45,0,0,0,874,32.38,5.39,5.39,0,0,0,878,30.5a5.4,5.4,0,0,0,4.37,2.32,5.49,5.49,0,0,0,3.73-1.49,5.26,5.26,0,0,0,7.39.75,5.48,5.48,0,0,0,3.9,1.64,5.32,5.32,0,0,0,2.92-.95,5.18,5.18,0,0,0,6.15.71,5.33,5.33,0,0,0,2.23,1A5.46,5.46,0,0,0,904,39.79a5.52,5.52,0,0,0,5.52,5.52,5.46,5.46,0,0,0,5.19-3.88,5.36,5.36,0,0,0,10,1.66,5.53,5.53,0,0,0,5,3.29A5.4,5.4,0,0,0,934,44.23a5.41,5.41,0,0,0,4.63,2.7,5.49,5.49,0,0,0,3.8-1.55,5.21,5.21,0,0,0,7.44,1,5.22,5.22,0,0,0,6.67.91,5.46,5.46,0,0,0,3.56,1.38,5.32,5.32,0,0,0,2.23-.5,4.65,4.65,0,0,0,4.68.76,5.33,5.33,0,0,0,2.82.9,4.31,4.31,0,0,0,.84-.17,5.33,5.33,0,0,0,2.62.75l.11,0a5.41,5.41,0,0,0,2.38.6,5.52,5.52,0,0,0,0-11h-.1a5.48,5.48,0,0,0-2.39-.59,5.21,5.21,0,0,0-.84.17,5.31,5.31,0,0,0-2.6-.75,5.48,5.48,0,0,0-1.57.32,5.37,5.37,0,0,0-2.84-.9,5.63,5.63,0,0,0-2.24.49,5.41,5.41,0,0,0-3.09-1.07,5.28,5.28,0,0,0-2.7.81A5.5,5.5,0,0,0,953.84,37a5.35,5.35,0,0,0-3.2,1.14,5.44,5.44,0,0,0-7.77-.17,5.31,5.31,0,0,0-8.5,0,5.4,5.4,0,0,0-3.14-2.39,5.42,5.42,0,0,0,1.92-4.11,5.49,5.49,0,0,0-5.27-5.47,5.56,5.56,0,0,0-2.29-.52c-.17,0-.31.08-.47.09a4.11,4.11,0,0,0-3.42-.36,5.32,5.32,0,0,0-2.53-.69,5.38,5.38,0,0,0-1.64.33,5.35,5.35,0,0,0-2.71-.81,5.42,5.42,0,0,0-2.18.46,5,5,0,0,0-5.46-.23,5,5,0,0,0-6.15-.23,5.21,5.21,0,0,0-6.87-.23,5.44,5.44,0,0,0-7.63-.15,5.43,5.43,0,0,0-4.13-1.94h0a5.4,5.4,0,0,0,.31-1.56,5.52,5.52,0,0,0-5.52-5.51l-.16,0a5.57,5.57,0,0,0-2-.4,4.15,4.15,0,0,0-.53.1,5.52,5.52,0,0,0-2.21-.48,6.16,6.16,0,0,0-1,.19,5.46,5.46,0,0,0-2.35-.56,5.36,5.36,0,0,0-1.39.28,5.39,5.39,0,0,0-2.46-.65,5.23,5.23,0,0,0-1.82.37,5.31,5.31,0,0,0-2.6-.73,5.38,5.38,0,0,0-2.19.47,5.34,5.34,0,0,0-2.73-.83,5.27,5.27,0,0,0-2.46.65,5.35,5.35,0,0,0-3-1,5.25,5.25,0,0,0-2.69.81,5,5,0,0,0-6.18-.18,5.08,5.08,0,0,0-6.6-.18,5.46,5.46,0,0,0-2.74-1.26,5.45,5.45,0,0,0-5.35-4.69,2.84,2.84,0,0,0-.31.06,5.49,5.49,0,0,0-1.55-.32c-.19,0-.33.09-.5.1a5.55,5.55,0,0,0-1.74-.35,4.54,4.54,0,0,0-.68.14A5.37,5.37,0,0,0,820,5.91a5.17,5.17,0,0,0-.87.18,5.42,5.42,0,0,0-2.09-.43,5.18,5.18,0,0,0-1.12.23,5.55,5.55,0,0,0-2.19-.47,5.36,5.36,0,0,0-1.39.28,5.32,5.32,0,0,0-2.26-.52,5.26,5.26,0,0,0-1.63.33,5,5,0,0,0-4.22-.18,5.36,5.36,0,0,0-2.39-.61,5.57,5.57,0,0,0-2.12.43,5.39,5.39,0,0,0-2.45-.65A5.59,5.59,0,0,0,795,5a5,5,0,0,0-5-.12,5.43,5.43,0,0,0-2.7-.8,5.35,5.35,0,0,0-2.52.68,5,5,0,0,0-5.27-.23,5.47,5.47,0,0,0-4.76-2.89c-.16,0-.29.08-.44.09a5.39,5.39,0,0,0-1.06-.22c-.18,0-.34.09-.53.11a4.81,4.81,0,0,0-1.14-.23,3.87,3.87,0,0,0-.61.12,5.61,5.61,0,0,0-1.22-.24,5.25,5.25,0,0,0-.71.14,5.47,5.47,0,0,0-1.29-.26,6.91,6.91,0,0,0-.79.16,5.66,5.66,0,0,0-1.36-.27,5.15,5.15,0,0,0-.87.17,5.68,5.68,0,0,0-1.42-.28,5,5,0,0,0-1,.19,5.26,5.26,0,0,0-1.48-.3,5,5,0,0,0-1,.21,5.21,5.21,0,0,0-1.53-.31A5.14,5.14,0,0,0,757.3,1a5.23,5.23,0,0,0-1.58-.32,4.9,4.9,0,0,0-1.15.24,6.49,6.49,0,0,0-1.66-.32,5.59,5.59,0,0,0-1.23.25A5.26,5.26,0,0,0,750,.47a5,5,0,0,0-1.28.26,5.52,5.52,0,0,0-1.67-.34,5.4,5.4,0,0,0-1.34.27,5.52,5.52,0,0,0-1.69-.34,5.3,5.3,0,0,0-1.37.28A5.42,5.42,0,0,0,741,.25a5.12,5.12,0,0,0-1.42.29,13.5,13.5,0,0,1-4.86-.39,5.19,5.19,0,0,0-1.48.3A5.3,5.3,0,0,0,731.54.1,5.07,5.07,0,0,0,730,.41a5.29,5.29,0,0,0-1.68-.34,5.62,5.62,0,0,0-1.53.31A5.39,5.39,0,0,0,725.17,0a5.21,5.21,0,0,0-1.53.31A5.49,5.49,0,0,0,722,0a5.27,5.27,0,0,0-1.54.31A5.17,5.17,0,0,0,718.88,0a5.62,5.62,0,0,0-1.54.31A5.69,5.69,0,0,0,715.79,0a5.55,5.55,0,0,0-1.53.31,5.4,5.4,0,0,0-1.51-.3,5.54,5.54,0,0,0-1.52.3A5.33,5.33,0,0,0,709.78,0a5.4,5.4,0,0,0-1.5.3A5.45,5.45,0,0,0,706.89,0a5.06,5.06,0,0,0-1.47.3,5.51,5.51,0,0,0-1.33-.27,5.26,5.26,0,0,0-1.44.29A5.41,5.41,0,0,0,701.38.1a5.13,5.13,0,0,0-1.4.29A5.15,5.15,0,0,0,698.8.15a5.66,5.66,0,0,0-1.36.27A5.9,5.9,0,0,0,696.33.2,5.16,5.16,0,0,0,695,.46a5.75,5.75,0,0,0-1-.2,5.31,5.31,0,0,0-1.26.25,5.78,5.78,0,0,0-.94-.18,4.91,4.91,0,0,0-1.2.24,4.81,4.81,0,0,0-.84-.17,5.62,5.62,0,0,0-1.14.23,4.53,4.53,0,0,0-.75-.15,5.24,5.24,0,0,0-1.06.21c-.23,0-.42-.13-.66-.13a4.71,4.71,0,0,0-1,.21,3.47,3.47,0,0,0-.56-.11,5.75,5.75,0,0,0-.92.18c-.15,0-.28-.08-.44-.08A5.43,5.43,0,0,0,679,2.83c-.13,0-.23-.07-.37-.07a5.4,5.4,0,0,0-2.76.85,5.33,5.33,0,0,0-2.65-.78,5.4,5.4,0,0,0-2.66.78,5.4,5.4,0,0,0-2.52-.69,5.52,5.52,0,0,0-2.55.7,5.45,5.45,0,0,0-2.39-.6,5.36,5.36,0,0,0-2.42.62,5.45,5.45,0,0,0-2.25-.5,5.35,5.35,0,0,0-2.32.55,5.46,5.46,0,0,0-2.07-.42,5.54,5.54,0,0,0-2.26.51A5.45,5.45,0,0,0,650,3.42a5.52,5.52,0,0,0-2.2.47,5.48,5.48,0,0,0-1.56-.32A5.59,5.59,0,0,0,644.1,4a5.66,5.66,0,0,0-1.3-.26,5.28,5.28,0,0,0-2,.41,4.9,4.9,0,0,0-1.09-.22,5.39,5.39,0,0,0-1.84.37,5.2,5.2,0,0,0-.89-.18,5.58,5.58,0,0,0-1.68.34,5,5,0,0,0-.67-.14,5.4,5.4,0,0,0-1.5.3c-.16,0-.31-.09-.47-.09a5.4,5.4,0,0,0-1.34.27,2,2,0,0,0-.24,0,5.47,5.47,0,0,0-5.44,5.14A5.42,5.42,0,0,0,623,9.15a5.35,5.35,0,0,0-3.42,1.3,5,5,0,0,0-6.35,0,4.94,4.94,0,0,0-5.88.06,4.9,4.9,0,0,0-5.38.07,5.42,5.42,0,0,0-2.37-.58,5.35,5.35,0,0,0-2.52.68,5.2,5.2,0,0,0-4.49.19,5.56,5.56,0,0,0-1.64-.33,5.44,5.44,0,0,0-2.31.54,5.71,5.71,0,0,0-1.19-.24,5.49,5.49,0,0,0-2.18.46,6.06,6.06,0,0,0-.74-.15,5.37,5.37,0,0,0-2,.4c-.13,0-.24-.07-.37-.07A5.51,5.51,0,0,0,576.72,17a5.36,5.36,0,0,0,.39,1.93,5.48,5.48,0,0,0-2.06,1.56,5.52,5.52,0,0,0-4-1.7,5.46,5.46,0,0,0-3.93,1.67,5.41,5.41,0,0,0-3.52-1.36A5.5,5.5,0,0,0,560,20.56a5.07,5.07,0,0,0-6.45.1,4.93,4.93,0,0,0-5.73.12,5,5,0,0,0-5.07.17,5.51,5.51,0,0,0-2-.39,5.28,5.28,0,0,0-2.5.68A5.06,5.06,0,0,0,537,21a5.46,5.46,0,0,0-2.35.57,4.29,4.29,0,0,0-.73-.15,5.32,5.32,0,0,0-2.18.46s-.07,0-.1,0a5.49,5.49,0,0,0-2.38,10.45,5.33,5.33,0,0,0-1.69,1.84,5.29,5.29,0,0,0-8.85-.25A5.43,5.43,0,0,0,514.6,32a5.48,5.48,0,0,0-4,1.78,5.39,5.39,0,0,0-3.52-1.36,5.47,5.47,0,0,0-3.65,1.44,5,5,0,0,0-6.18.15,4.91,4.91,0,0,0-5.31.21,4.89,4.89,0,0,0-4.54.35,5,5,0,0,0-1.16-.24,5.27,5.27,0,0,0-2.4.61c-.14,0-.25-.08-.39-.08a5.4,5.4,0,0,0-2.52.69,5.46,5.46,0,0,0-4.8,5.37A5.53,5.53,0,0,0,481.64,46.4ZM914.8,38.68a5.36,5.36,0,0,0-4.27-4.2,5.39,5.39,0,0,0,1.36-.29,4.64,4.64,0,0,0,4.52.61,5.35,5.35,0,0,0,1.31.52A5.48,5.48,0,0,0,914.8,38.68ZM925,38.09a5.59,5.59,0,0,0-1.51-1.93,5.28,5.28,0,0,0,1.79.36,5,5,0,0,0,.8.23A5,5,0,0,0,925,38.09ZM602.58,20.33a5.06,5.06,0,0,0-.5.74c-.08-.16-.21-.29-.31-.45a5.35,5.35,0,0,0,.64-.41A1.25,1.25,0,0,0,602.58,20.33Zm10.69-.68a5.21,5.21,0,0,0-1,1.92,5.63,5.63,0,0,0-.67-1.23A5.4,5.4,0,0,0,613.27,19.65ZM712,16.59a5.72,5.72,0,0,0,.58.87,5.06,5.06,0,0,0-1.35.27A6,6,0,0,0,712,16.59Zm38.17.45a5.48,5.48,0,0,0,.57.85,5.34,5.34,0,0,0-1.32.27A6.08,6.08,0,0,0,750.17,17ZM787,18.29a3.2,3.2,0,0,0,.3.45,5.42,5.42,0,0,0-.7.14C786.73,18.71,786.82,18.48,787,18.29Zm-112.3-.92c.09-.12.17-.26.26-.39l.21.32h-.06C674.93,17.29,674.81,17.36,674.67,17.37Zm166.24,4.17c.11.09.24.15.35.23a5.43,5.43,0,0,0-1.34,2.58,5.57,5.57,0,0,0-.81-2.07A5.11,5.11,0,0,0,840.91,21.54Zm9.83,1.56a5.47,5.47,0,0,0-.44.63,2.88,2.88,0,0,0-.28-.59c.09,0,.16.05.26.05S850.57,23.11,850.74,23.1ZM623.72,20a5.28,5.28,0,0,0-.93,2.53,5.33,5.33,0,0,0-1.09-2.67,5.47,5.47,0,0,0,1.36.27C623.29,20.16,623.49,20.05,623.72,20ZM537.25,34.39a5.52,5.52,0,0,0-2.06-2.25,5.3,5.3,0,0,0,1-.31A4.18,4.18,0,0,0,537,32a5.46,5.46,0,0,0,2.51-.67l.57.11A5.49,5.49,0,0,0,537.25,34.39Z"/>
        <path class="cls-1" d="M564.79,41.31a5.52,5.52,0,1,0-5.52-5.52A5.52,5.52,0,0,0,564.79,41.31Z"/>
        <path class="cls-1" d="M577,41.07a5.52,5.52,0,1,0-5.51-5.52A5.52,5.52,0,0,0,577,41.07Z"/>
        <path class="cls-1" d="M589.92,40.86a5.52,5.52,0,1,0-5.51-5.51A5.52,5.52,0,0,0,589.92,40.86Z"/>
        <path class="cls-1" d="M603.38,40.7a5.52,5.52,0,1,0-5.51-5.52A5.52,5.52,0,0,0,603.38,40.7Z"/>
        <path class="cls-1" d="M617.37,40.56A5.52,5.52,0,1,0,611.85,35,5.52,5.52,0,0,0,617.37,40.56Z"/>
        <path class="cls-1" d="M631.81,40.47A5.52,5.52,0,1,0,626.3,35,5.52,5.52,0,0,0,631.81,40.47Z"/>
        <path class="cls-1" d="M646.66,40.41a5.52,5.52,0,1,0-5.52-5.51A5.52,5.52,0,0,0,646.66,40.41Z"/>
        <path class="cls-1" d="M661.85,40.39a5.52,5.52,0,1,0-5.51-5.52A5.52,5.52,0,0,0,661.85,40.39Z"/>
        <path class="cls-1" d="M677.32,40.41a5.52,5.52,0,1,0-5.52-5.52A5.52,5.52,0,0,0,677.32,40.41Z"/>
        <path class="cls-1" d="M693,40.46A5.52,5.52,0,1,0,687.48,35,5.51,5.51,0,0,0,693,40.46Z"/>
        <path class="cls-1" d="M708.82,40.55A5.52,5.52,0,1,0,703.31,35,5.51,5.51,0,0,0,708.82,40.55Z"/>
        <path class="cls-1" d="M724.73,40.69a5.52,5.52,0,1,0-5.51-5.52A5.52,5.52,0,0,0,724.73,40.69Z"/>
        <path class="cls-1" d="M740.65,40.85a5.52,5.52,0,1,0-5.52-5.51A5.52,5.52,0,0,0,740.65,40.85Z"/>
        <path class="cls-1" d="M756.52,41.06A5.52,5.52,0,1,0,751,35.54,5.52,5.52,0,0,0,756.52,41.06Z"/>
        <path class="cls-1" d="M772.27,41.29a5.52,5.52,0,1,0-5.52-5.51A5.51,5.51,0,0,0,772.27,41.29Z"/>
        <path class="cls-1" d="M787.83,41.57a5.52,5.52,0,1,0-5.51-5.52A5.52,5.52,0,0,0,787.83,41.57Z"/>
        <path class="cls-1" d="M803.14,41.87a5.52,5.52,0,1,0-5.52-5.51A5.52,5.52,0,0,0,803.14,41.87Z"/>
        <path class="cls-1" d="M818.15,42.21a5.52,5.52,0,1,0-5.53-5.52A5.51,5.51,0,0,0,818.15,42.21Z"/>
        <path class="cls-1" d="M832.78,42.57a5.52,5.52,0,1,0-5.52-5.51A5.51,5.51,0,0,0,832.78,42.57Z"/>
        <path class="cls-1" d="M847,43a5.52,5.52,0,1,0-5.53-5.52A5.52,5.52,0,0,0,847,43Z"/>
        <path class="cls-1" d="M860.66,43.39a5.52,5.52,0,1,0-5.51-5.52A5.51,5.51,0,0,0,860.66,43.39Z"/>
        <path class="cls-1" d="M873.82,43.84a5.52,5.52,0,1,0-5.51-5.52A5.52,5.52,0,0,0,873.82,43.84Z"/>
        <path class="cls-1" d="M886.39,44.31a5.52,5.52,0,1,0-5.51-5.52A5.52,5.52,0,0,0,886.39,44.31Z"/>
        <path class="cls-1" d="M898.29,44.8a5.52,5.52,0,1,0-5.51-5.52A5.51,5.51,0,0,0,898.29,44.8Z"/>
        <path class="cls-1" d="M434.13,62.53a5.4,5.4,0,0,0,2.58-.72,5.41,5.41,0,0,0,2.11-.64,4.81,4.81,0,0,0,.66.13,5.3,5.3,0,0,0,2.85-.91,5.29,5.29,0,0,0,1.59.32,5.44,5.44,0,0,0,3.22-1.15,5.31,5.31,0,0,0,6.16-.94,5.19,5.19,0,0,0,7.13-1,5.34,5.34,0,0,0,8.35-1.23,5.41,5.41,0,0,0,4.31,2.23,5.48,5.48,0,0,0,5.12-3.55,5.48,5.48,0,1,0-.23-4.4,5.47,5.47,0,0,0-4.89-3.09,5.42,5.42,0,0,0-4.64,2.72,5.31,5.31,0,0,0-8.47-.22,5.39,5.39,0,0,0-7.48,0,5.45,5.45,0,0,0-3-1,5.38,5.38,0,0,0-3.22,1.16,5.44,5.44,0,0,0-2.38-.59,5.3,5.3,0,0,0-2.85.91,5.69,5.69,0,0,0-1.59-.32,5.42,5.42,0,0,0-2.61.74,4.81,4.81,0,0,0-.66-.13,5.36,5.36,0,0,0-2.57.72,5.47,5.47,0,0,0,.49,10.93Z"/>
        <path class="cls-1" d="M494.13,57.72a5.52,5.52,0,1,0-5.51-5.51A5.52,5.52,0,0,0,494.13,57.72Z"/>
        <path class="cls-1" d="M506.14,57.33a5.52,5.52,0,1,0-5.51-5.51A5.52,5.52,0,0,0,506.14,57.33Z"/>
        <path class="cls-1" d="M519.08,57a5.52,5.52,0,1,0-5.52-5.52A5.52,5.52,0,0,0,519.08,57Z"/>
        <path class="cls-1" d="M532.89,56.66a5.52,5.52,0,1,0-5.52-5.52A5.52,5.52,0,0,0,532.89,56.66Z"/>
        <path class="cls-1" d="M547.51,56.38A5.52,5.52,0,1,0,542,50.87,5.52,5.52,0,0,0,547.51,56.38Z"/>
        <path class="cls-1" d="M562.9,56.15a5.52,5.52,0,1,0-5.51-5.52A5.52,5.52,0,0,0,562.9,56.15Z"/>
        <path class="cls-1" d="M579,56a5.52,5.52,0,1,0-5.52-5.51A5.51,5.51,0,0,0,579,56Z"/>
        <path class="cls-1" d="M595.7,55.8a5.52,5.52,0,1,0-5.52-5.52A5.52,5.52,0,0,0,595.7,55.8Z"/>
        <path class="cls-1" d="M613,55.69a5.52,5.52,0,1,0-5.52-5.52A5.52,5.52,0,0,0,613,55.69Z"/>
        <path class="cls-1" d="M630.72,55.62a5.52,5.52,0,1,0-5.52-5.51A5.52,5.52,0,0,0,630.72,55.62Z"/>
        <path class="cls-1" d="M648.88,55.6a5.52,5.52,0,1,0-5.51-5.51A5.52,5.52,0,0,0,648.88,55.6Z"/>
        <path class="cls-1" d="M667.38,55.62a5.52,5.52,0,1,0-5.51-5.52A5.52,5.52,0,0,0,667.38,55.62Z"/>
        <path class="cls-1" d="M686.14,55.68a5.52,5.52,0,1,0-5.52-5.51A5.51,5.51,0,0,0,686.14,55.68Z"/>
        <path class="cls-1" d="M705.06,55.79a5.52,5.52,0,1,0-5.51-5.51A5.52,5.52,0,0,0,705.06,55.79Z"/>
        <path class="cls-1" d="M724.09,55.94a5.52,5.52,0,1,0-5.52-5.51A5.51,5.51,0,0,0,724.09,55.94Z"/>
        <path class="cls-1" d="M743.12,56.14a5.52,5.52,0,1,0-5.51-5.52A5.52,5.52,0,0,0,743.12,56.14Z"/>
        <path class="cls-1" d="M762.09,56.37a5.52,5.52,0,1,0-5.52-5.51A5.52,5.52,0,0,0,762.09,56.37Z"/>
        <path class="cls-1" d="M780.91,56.64a5.52,5.52,0,1,0-5.52-5.51A5.52,5.52,0,0,0,780.91,56.64Z"/>
        <path class="cls-1" d="M799.5,57A5.52,5.52,0,1,0,794,51.44,5.51,5.51,0,0,0,799.5,57Z"/>
        <path class="cls-1" d="M817.79,57.31a5.52,5.52,0,1,0-5.5-5.52A5.51,5.51,0,0,0,817.79,57.31Z"/>
        <path class="cls-1" d="M835.7,57.7a5.52,5.52,0,1,0-5.51-5.51A5.52,5.52,0,0,0,835.7,57.7Z"/>
        <path class="cls-1" d="M853.17,58.13a5.52,5.52,0,1,0-5.52-5.52A5.51,5.51,0,0,0,853.17,58.13Z"/>
        <path class="cls-1" d="M870.11,58.58a5.52,5.52,0,1,0-5.52-5.52A5.52,5.52,0,0,0,870.11,58.58Z"/>
        <path class="cls-1" d="M886.44,59.06a5.52,5.52,0,1,0-5.51-5.51A5.52,5.52,0,0,0,886.44,59.06Z"/>
        <path class="cls-1" d="M902.13,59.58a5.52,5.52,0,1,0-5.51-5.52A5.52,5.52,0,0,0,902.13,59.58Z"/>
        <path class="cls-1" d="M917.09,60.12a5.52,5.52,0,1,0-5.52-5.52A5.52,5.52,0,0,0,917.09,60.12Z"/>
        <path class="cls-1" d="M931.27,60.69a5.52,5.52,0,1,0-5.52-5.52A5.52,5.52,0,0,0,931.27,60.69Z"/>
        <path class="cls-1" d="M944.61,61.27a5.52,5.52,0,1,0-5.52-5.51A5.52,5.52,0,0,0,944.61,61.27Z"/>
        <path class="cls-1" d="M957.06,61.88a5.52,5.52,0,1,0-5.52-5.52A5.51,5.51,0,0,0,957.06,61.88Z"/>
        <path class="cls-1" d="M979.13,52.1a5.46,5.46,0,0,0-5.22,4,5.43,5.43,0,0,0-5.32-4.62,5.52,5.52,0,1,0,0,11,5.41,5.41,0,0,0,5.19-4,5.46,5.46,0,0,0,5.35,4.62,5.38,5.38,0,0,0,4.53-2.57,5.5,5.5,0,0,0,5,3.23,5.42,5.42,0,0,0,4-1.8,5.21,5.21,0,0,0,7.78,1.22,5.47,5.47,0,0,0,4.09,1.89,5.3,5.3,0,0,0,2.65-.78,5.44,5.44,0,0,0,3.64,1.44,5.7,5.7,0,0,0,2.07-.41,5.41,5.41,0,0,0,3.11,1.08,5.15,5.15,0,0,0,1.18-.24,5.43,5.43,0,0,0,2.85.9,3,3,0,0,0,.32-.06,4.7,4.7,0,0,0,1.52.51,5.34,5.34,0,0,0,2.78.87,5.52,5.52,0,0,0,5.51-5.52,5.42,5.42,0,0,0-4.46-5.3,5.34,5.34,0,0,0-2.79-.86c-.11,0-.19.05-.3.06a5.34,5.34,0,0,0-2.58-.73,4.68,4.68,0,0,0-1.18.25,5.35,5.35,0,0,0-2.85-.91,5.5,5.5,0,0,0-2.07.42,5.36,5.36,0,0,0-3.11-1.08,5.46,5.46,0,0,0-2.66.78,5.42,5.42,0,0,0-3.63-1.44,5.48,5.48,0,0,0-3.33,1.22,5.37,5.37,0,0,0-8.08-.09,5.3,5.3,0,0,0-9,.12A5.48,5.48,0,0,0,979.13,52.1Z"/>
        <path class="cls-1" d="M387.79,81.62a5.35,5.35,0,0,0,2.6-.74,5.4,5.4,0,0,0,2.51-.81,4.79,4.79,0,0,0,.93.19,5.34,5.34,0,0,0,3.07-1.06,5.58,5.58,0,0,0,2,.4,5.47,5.47,0,0,0,3.67-1.46A5.2,5.2,0,0,0,409.5,77a5.33,5.33,0,0,0,8.31-1.43,5.35,5.35,0,0,0,9.56-1.79,5.62,5.62,0,1,0-.11-3.47,5.5,5.5,0,0,0-5.12-3.51,5.45,5.45,0,0,0-4.72,2.83,5.3,5.3,0,0,0-8.5-.25,5.31,5.31,0,0,0-7.27.06,5,5,0,0,0-5.82.22,5.53,5.53,0,0,0-2-.4,5.27,5.27,0,0,0-2.77.86,5.05,5.05,0,0,0-.94-.19,5.43,5.43,0,0,0-2.61.75,5.49,5.49,0,0,0,.28,11Z"/>
        <path class="cls-1" d="M444,76.75a5.52,5.52,0,1,0-5.52-5.51A5.52,5.52,0,0,0,444,76.75Z"/>
        <path class="cls-1" d="M456.8,76.28a5.52,5.52,0,1,0-5.52-5.51A5.51,5.51,0,0,0,456.8,76.28Z"/>
        <path class="cls-1" d="M470.69,75.85a5.52,5.52,0,1,0-5.52-5.52A5.52,5.52,0,0,0,470.69,75.85Z"/>
        <path class="cls-1" d="M485.67,75.46a5.52,5.52,0,1,0-5.52-5.52A5.52,5.52,0,0,0,485.67,75.46Z"/>
        <path class="cls-1" d="M501.66,75.1a5.52,5.52,0,1,0-5.51-5.51A5.52,5.52,0,0,0,501.66,75.1Z"/>
        <path class="cls-1" d="M518.62,74.79a5.52,5.52,0,1,0-5.52-5.51A5.51,5.51,0,0,0,518.62,74.79Z"/>
        <path class="cls-1" d="M536.47,74.53A5.52,5.52,0,1,0,531,69,5.52,5.52,0,0,0,536.47,74.53Z"/>
        <path class="cls-1" d="M555.12,74.31a5.52,5.52,0,1,0-5.51-5.51A5.52,5.52,0,0,0,555.12,74.31Z"/>
        <path class="cls-1" d="M574.51,74.14A5.52,5.52,0,1,0,569,68.63,5.52,5.52,0,0,0,574.51,74.14Z"/>
        <path class="cls-1" d="M594.55,74A5.52,5.52,0,1,0,589,68.5,5.52,5.52,0,0,0,594.55,74Z"/>
        <path class="cls-1" d="M615.17,73.94a5.52,5.52,0,1,0-5.52-5.51A5.51,5.51,0,0,0,615.17,73.94Z"/>
        <path class="cls-1" d="M636.25,73.92a5.52,5.52,0,1,0-5.52-5.52A5.52,5.52,0,0,0,636.25,73.92Z"/>
        <path class="cls-1" d="M657.73,73.94a5.52,5.52,0,1,0-5.52-5.52A5.52,5.52,0,0,0,657.73,73.94Z"/>
        <path class="cls-1" d="M679.5,74A5.52,5.52,0,1,0,674,68.5,5.52,5.52,0,0,0,679.5,74Z"/>
        <path class="cls-1" d="M701.47,74.13A5.52,5.52,0,1,0,696,68.62,5.52,5.52,0,0,0,701.47,74.13Z"/>
        <path class="cls-1" d="M723.55,74.3A5.52,5.52,0,1,0,718,68.79,5.52,5.52,0,0,0,723.55,74.3Z"/>
        <path class="cls-1" d="M745.65,74.52A5.52,5.52,0,1,0,740.13,69,5.52,5.52,0,0,0,745.65,74.52Z"/>
        <path class="cls-1" d="M767.66,74.78a5.52,5.52,0,1,0-5.52-5.52A5.52,5.52,0,0,0,767.66,74.78Z"/>
        <path class="cls-1" d="M789.5,75.09A5.52,5.52,0,1,0,784,69.57,5.51,5.51,0,0,0,789.5,75.09Z"/>
        <path class="cls-1" d="M811.06,75.43a5.52,5.52,0,1,0-5.5-5.51A5.52,5.52,0,0,0,811.06,75.43Z"/>
        <path class="cls-1" d="M832.28,75.83a5.52,5.52,0,1,0-5.51-5.52A5.52,5.52,0,0,0,832.28,75.83Z"/>
        <path class="cls-1" d="M853,76.26a5.52,5.52,0,1,0-5.51-5.52A5.51,5.51,0,0,0,853,76.26Z"/>
        <path class="cls-1" d="M873.28,76.72a5.52,5.52,0,1,0-5.51-5.51A5.51,5.51,0,0,0,873.28,76.72Z"/>
        <path class="cls-1" d="M892.9,77.23a5.52,5.52,0,1,0-5.52-5.51A5.51,5.51,0,0,0,892.9,77.23Z"/>
        <path class="cls-1" d="M911.81,77.77a5.52,5.52,0,1,0-5.52-5.51A5.52,5.52,0,0,0,911.81,77.77Z"/>
        <path class="cls-1" d="M930,78.35a5.52,5.52,0,1,0-5.52-5.52A5.52,5.52,0,0,0,930,78.35Z"/>
        <path class="cls-1" d="M947.26,78.94a5.52,5.52,0,1,0-5.51-5.51A5.52,5.52,0,0,0,947.26,78.94Z"/>
        <path class="cls-1" d="M963.65,79.57a5.52,5.52,0,1,0-5.52-5.52A5.51,5.51,0,0,0,963.65,79.57Z"/>
        <path class="cls-1" d="M979.05,80.22a5.52,5.52,0,1,0-5.52-5.51A5.51,5.51,0,0,0,979.05,80.22Z"/>
        <path class="cls-1" d="M993.41,80.89a5.52,5.52,0,1,0-5.51-5.51A5.51,5.51,0,0,0,993.41,80.89Z"/>
        <path class="cls-1" d="M1006.7,81.58a5.52,5.52,0,1,0-5.52-5.51A5.52,5.52,0,0,0,1006.7,81.58Z"/>
        <path class="cls-1" d="M1018.85,82.28a5.52,5.52,0,1,0-5.53-5.51A5.51,5.51,0,0,0,1018.85,82.28Z"/>
        <path class="cls-1" d="M1029.8,72a5.52,5.52,0,1,0,0,11,5.4,5.4,0,0,0,4.64-2.72,5.54,5.54,0,0,0,5.1,3.44,5.47,5.47,0,0,0,4-1.76,5.41,5.41,0,0,0,4.49,2.49,5.35,5.35,0,0,0,3.15-1.11,5.25,5.25,0,0,0,6.46,1.24,5.39,5.39,0,0,0,3.5,1.34,5.61,5.61,0,0,0,1.53-.3,5.39,5.39,0,0,0,3.06,1c.17,0,.32-.09.51-.11a59,59,0,0,0,4.66,1.55,5.51,5.51,0,0,0,5.5-5.51,5.44,5.44,0,0,0-4.58-5.33,5.41,5.41,0,0,0-2.84-.91,5,5,0,0,0-.53.11,4.54,4.54,0,0,0-4.27-.52,16.08,16.08,0,0,1-8.94-1.79,5.42,5.42,0,0,0-3.15,1.11,5.42,5.42,0,0,0-8.06-.09,5.31,5.31,0,0,0-9.13.24A5.5,5.5,0,0,0,1029.8,72Z"/>
        <path class="cls-1" d="M342.79,103.59a70.36,70.36,0,0,0,5.49-1.7,5.35,5.35,0,0,0,1.19.24,5.4,5.4,0,0,0,3.36-1.25,5.33,5.33,0,0,0,6.35-1.25,5.19,5.19,0,0,0,7.75-1.5,5.38,5.38,0,0,0,9.34-1.91,5.51,5.51,0,1,0,5-7.75,5.45,5.45,0,0,0-5.19,3.89,5.51,5.51,0,0,0-5-3.28,5.42,5.42,0,0,0-4.58,2.62,5.37,5.37,0,0,0-8.17-.17,5.39,5.39,0,0,0-3.18-1.13,5.46,5.46,0,0,0-3.36,1.25,5,5,0,0,0-5.25.41,5.13,5.13,0,0,0-1.19-.24,5.36,5.36,0,0,0-2.62.75,5.51,5.51,0,0,0,.06,11Z"/>
        <path class="cls-1" d="M393,98.91a5.52,5.52,0,1,0-5.51-5.52A5.52,5.52,0,0,0,393,98.91Z"/>
        <path class="cls-1" d="M406,98.36a5.52,5.52,0,1,0-5.52-5.51A5.51,5.51,0,0,0,406,98.36Z"/>
        <path class="cls-1" d="M420.44,97.85a5.52,5.52,0,1,0-5.51-5.51A5.52,5.52,0,0,0,420.44,97.85Z"/>
        <path class="cls-1" d="M436.17,97.39a5.52,5.52,0,1,0-5.52-5.51A5.51,5.51,0,0,0,436.17,97.39Z"/>
        <path class="cls-1" d="M453.13,97a5.52,5.52,0,1,0-5.51-5.51A5.52,5.52,0,0,0,453.13,97Z"/>
        <path class="cls-1" d="M471.27,96.58a5.52,5.52,0,1,0-5.52-5.51A5.51,5.51,0,0,0,471.27,96.58Z"/>
        <path class="cls-1" d="M490.49,96.25A5.52,5.52,0,1,0,485,90.73,5.52,5.52,0,0,0,490.49,96.25Z"/>
        <path class="cls-1" d="M510.73,96a5.52,5.52,0,1,0-5.52-5.52A5.52,5.52,0,0,0,510.73,96Z"/>
        <path class="cls-1" d="M531.89,95.73a5.52,5.52,0,1,0-5.51-5.51A5.52,5.52,0,0,0,531.89,95.73Z"/>
        <path class="cls-1" d="M553.9,95.55A5.52,5.52,0,1,0,548.39,90,5.52,5.52,0,0,0,553.9,95.55Z"/>
        <path class="cls-1" d="M576.66,95.42a5.52,5.52,0,1,0-5.52-5.52A5.52,5.52,0,0,0,576.66,95.42Z"/>
        <path class="cls-1" d="M600.05,95.33a5.52,5.52,0,1,0-5.51-5.51A5.52,5.52,0,0,0,600.05,95.33Z"/>
        <path class="cls-1" d="M624,95.31a5.52,5.52,0,1,0-5.52-5.52A5.52,5.52,0,0,0,624,95.31Z"/>
        <path class="cls-1" d="M648.39,95.33a5.52,5.52,0,1,0-5.52-5.51A5.51,5.51,0,0,0,648.39,95.33Z"/>
        <path class="cls-1" d="M673.11,95.41a5.52,5.52,0,1,0-5.52-5.51A5.51,5.51,0,0,0,673.11,95.41Z"/>
        <path class="cls-1" d="M698.06,95.54A5.52,5.52,0,1,0,692.55,90,5.52,5.52,0,0,0,698.06,95.54Z"/>
        <path class="cls-1" d="M723.14,95.72a5.52,5.52,0,1,0-5.52-5.52A5.52,5.52,0,0,0,723.14,95.72Z"/>
        <path class="cls-1" d="M748.22,96a5.52,5.52,0,1,0-5.52-5.51A5.51,5.51,0,0,0,748.22,96Z"/>
        <path class="cls-1" d="M773.21,96.23a5.52,5.52,0,1,0-5.52-5.51A5.52,5.52,0,0,0,773.21,96.23Z"/>
        <path class="cls-1" d="M798,96.56a5.52,5.52,0,1,0-5.52-5.51A5.51,5.51,0,0,0,798,96.56Z"/>
        <path class="cls-1" d="M822.48,96.94A5.52,5.52,0,1,0,817,91.42,5.52,5.52,0,0,0,822.48,96.94Z"/>
        <path class="cls-1" d="M846.53,97.36A5.52,5.52,0,1,0,841,91.85,5.51,5.51,0,0,0,846.53,97.36Z"/>
        <path class="cls-1" d="M870.07,97.83a5.52,5.52,0,1,0-5.51-5.52A5.52,5.52,0,0,0,870.07,97.83Z"/>
        <path class="cls-1" d="M893,98.33a5.52,5.52,0,1,0-5.52-5.51A5.52,5.52,0,0,0,893,98.33Z"/>
        <path class="cls-1" d="M915.24,98.88a5.52,5.52,0,1,0-5.52-5.52A5.52,5.52,0,0,0,915.24,98.88Z"/>
        <path class="cls-1" d="M936.65,99.46a5.52,5.52,0,1,0-5.5-5.52A5.52,5.52,0,0,0,936.65,99.46Z"/>
        <path class="cls-1" d="M957.19,100.07a5.52,5.52,0,1,0-5.51-5.51A5.52,5.52,0,0,0,957.19,100.07Z"/>
        <path class="cls-1" d="M976.77,100.72a5.52,5.52,0,1,0-5.51-5.52A5.52,5.52,0,0,0,976.77,100.72Z"/>
        <path class="cls-1" d="M995.28,101.39a5.52,5.52,0,1,0-5.5-5.52A5.51,5.51,0,0,0,995.28,101.39Z"/>
        <path class="cls-1" d="M1012.69,102.09a5.52,5.52,0,1,0-5.52-5.52A5.51,5.51,0,0,0,1012.69,102.09Z"/>
        <path class="cls-1" d="M1028.91,102.81a5.52,5.52,0,1,0-5.51-5.51A5.5,5.5,0,0,0,1028.91,102.81Z"/>
        <path class="cls-1" d="M1043.9,103.55a5.52,5.52,0,1,0-5.52-5.51A5.51,5.51,0,0,0,1043.9,103.55Z"/>
        <path class="cls-1" d="M1057.57,104.31a5.52,5.52,0,1,0-5.52-5.52A5.52,5.52,0,0,0,1057.57,104.31Z"/>
        <path class="cls-1" d="M1069.91,105.07a5.52,5.52,0,1,0-5.51-5.51A5.51,5.51,0,0,0,1069.91,105.07Z"/>
        <path class="cls-1" d="M1080.86,105.85a5.42,5.42,0,0,0,4.5-2.5,5.45,5.45,0,0,0,8.74,1.79,5.15,5.15,0,0,0,7.05,1.47,5.27,5.27,0,0,0,5.75,1.22,4,4,0,0,0,3.95,1,5.22,5.22,0,0,0,2.06.76,5.39,5.39,0,0,0,2.88.93,5.51,5.51,0,0,0,5.52-5.51,9.6,9.6,0,0,0-7.59-6.28,5.57,5.57,0,0,0-.71.14,5.38,5.38,0,0,0-2.88-.92,5.56,5.56,0,0,0-1.87.37,5.42,5.42,0,0,0-3.23-1.15,5.28,5.28,0,0,1-6.6-.79,5.3,5.3,0,0,1-8-.78,5.39,5.39,0,0,0-4.49,2.5,5.51,5.51,0,1,0-5,7.74Z"/>
        <path class="cls-1" d="M299.35,128.37a5.31,5.31,0,0,0,2.67-.79l.09,0a5.32,5.32,0,0,0,3.05-1,5.49,5.49,0,0,0,1.45.29,5.43,5.43,0,0,0,3.66-1.45,5.18,5.18,0,0,0,6.85-1.45,5.45,5.45,0,0,0,8.73-1.86,5.45,5.45,0,0,0,4.6,2.64,5.52,5.52,0,1,0-5.05-7.7,5.3,5.3,0,0,0-8.87-.48,5.37,5.37,0,0,0-7.35,0,5,5,0,0,0-5.63.33,5.26,5.26,0,0,0-1.44-.29,5.38,5.38,0,0,0-2.68.79l-.08,0a5.52,5.52,0,1,0,0,11Z"/>
        <path class="cls-1" d="M341.77,124.08a5.52,5.52,0,1,0-5.52-5.51A5.51,5.51,0,0,0,341.77,124.08Z"/>
        <path class="cls-1" d="M354.7,123.47a5.52,5.52,0,1,0-5.51-5.51A5.52,5.52,0,0,0,354.7,123.47Z"/>
        <path class="cls-1" d="M369.22,122.9a5.52,5.52,0,1,0-5.52-5.51A5.52,5.52,0,0,0,369.22,122.9Z"/>
        <path class="cls-1" d="M385.25,122.37a5.52,5.52,0,1,0-5.51-5.52A5.52,5.52,0,0,0,385.25,122.37Z"/>
        <path class="cls-1" d="M402.75,121.88a5.52,5.52,0,1,0-5.52-5.52A5.51,5.51,0,0,0,402.75,121.88Z"/>
        <path class="cls-1" d="M421.63,121.44a5.52,5.52,0,1,0-5.52-5.52A5.51,5.51,0,0,0,421.63,121.44Z"/>
        <path class="cls-1" d="M441.82,121a5.52,5.52,0,1,0-5.51-5.51A5.52,5.52,0,0,0,441.82,121Z"/>
        <path class="cls-1" d="M463.25,120.69a5.52,5.52,0,1,0-5.51-5.51A5.52,5.52,0,0,0,463.25,120.69Z"/>
        <path class="cls-1" d="M485.81,120.39a5.52,5.52,0,1,0-5.51-5.52A5.52,5.52,0,0,0,485.81,120.39Z"/>
        <path class="cls-1" d="M509.42,120.15a5.52,5.52,0,1,0-5.52-5.52A5.52,5.52,0,0,0,509.42,120.15Z"/>
        <path class="cls-1" d="M534,120a5.52,5.52,0,1,0-5.52-5.51A5.52,5.52,0,0,0,534,120Z"/>
        <path class="cls-1" d="M559.36,119.82a5.52,5.52,0,1,0-5.52-5.52A5.52,5.52,0,0,0,559.36,119.82Z"/>
        <path class="cls-1" d="M585.47,119.73a5.52,5.52,0,1,0-5.52-5.52A5.52,5.52,0,0,0,585.47,119.73Z"/>
        <path class="cls-1" d="M612.19,119.7a5.52,5.52,0,1,0-5.52-5.52A5.52,5.52,0,0,0,612.19,119.7Z"/>
        <path class="cls-1" d="M639.41,119.73a5.52,5.52,0,1,0-5.52-5.52A5.52,5.52,0,0,0,639.41,119.73Z"/>
        <path class="cls-1" d="M667,119.81a5.52,5.52,0,1,0-5.51-5.52A5.52,5.52,0,0,0,667,119.81Z"/>
        <path class="cls-1" d="M694.85,119.94a5.52,5.52,0,1,0-5.51-5.51A5.52,5.52,0,0,0,694.85,119.94Z"/>
        <path class="cls-1" d="M722.84,120.13a5.52,5.52,0,1,0-5.52-5.52A5.52,5.52,0,0,0,722.84,120.13Z"/>
        <path class="cls-1" d="M750.83,120.38a5.52,5.52,0,1,0-5.51-5.52A5.52,5.52,0,0,0,750.83,120.38Z"/>
        <path class="cls-1" d="M778.71,120.67a5.52,5.52,0,1,0-5.52-5.51A5.51,5.51,0,0,0,778.71,120.67Z"/>
        <path class="cls-1" d="M806.36,121a5.52,5.52,0,1,0-5.51-5.52A5.51,5.51,0,0,0,806.36,121Z"/>
        <path class="cls-1" d="M833.65,121.42a5.52,5.52,0,1,0-5.5-5.52A5.52,5.52,0,0,0,833.65,121.42Z"/>
        <path class="cls-1" d="M860.49,121.86a5.52,5.52,0,1,0-5.52-5.52A5.52,5.52,0,0,0,860.49,121.86Z"/>
        <path class="cls-1" d="M886.73,122.34a5.52,5.52,0,1,0-5.51-5.51A5.52,5.52,0,0,0,886.73,122.34Z"/>
        <path class="cls-1" d="M912.28,122.87a5.52,5.52,0,1,0-5.51-5.51A5.51,5.51,0,0,0,912.28,122.87Z"/>
        <path class="cls-1" d="M937,123.44a5.52,5.52,0,1,0-5.51-5.52A5.52,5.52,0,0,0,937,123.44Z"/>
        <path class="cls-1" d="M960.88,124.05a5.52,5.52,0,1,0-5.52-5.52A5.52,5.52,0,0,0,960.88,124.05Z"/>
        <path class="cls-1" d="M983.73,124.69a5.52,5.52,0,1,0-5.53-5.51A5.51,5.51,0,0,0,983.73,124.69Z"/>
        <path class="cls-1" d="M1005.49,125.36a5.52,5.52,0,1,0-5.52-5.51A5.51,5.51,0,0,0,1005.49,125.36Z"/>
        <path class="cls-1" d="M1026.06,126.07a5.52,5.52,0,1,0-5.51-5.51A5.52,5.52,0,0,0,1026.06,126.07Z"/>
        <path class="cls-1" d="M1045.4,126.8a5.52,5.52,0,1,0-5.52-5.52A5.52,5.52,0,0,0,1045.4,126.8Z"/>
        <path class="cls-1" d="M1063.4,127.55a5.52,5.52,0,1,0-5.51-5.51A5.51,5.51,0,0,0,1063.4,127.55Z"/>
        <path class="cls-1" d="M1080,128.33a5.52,5.52,0,1,0-5.51-5.52A5.52,5.52,0,0,0,1080,128.33Z"/>
        <path class="cls-1" d="M1095.15,129.12a5.52,5.52,0,1,0-5.5-5.52A5.52,5.52,0,0,0,1095.15,129.12Z"/>
        <path class="cls-1" d="M1108.8,129.91a5.52,5.52,0,1,0-5.52-5.51A5.5,5.5,0,0,0,1108.8,129.91Z"/>
        <path class="cls-1" d="M1120.9,119.69a5.52,5.52,0,0,0,0,11,5.4,5.4,0,0,1,10.5.81,5.41,5.41,0,0,0,4.16-2,5.47,5.47,0,0,0,4.72,2.83,5.32,5.32,0,0,0,3.13-1.1,5.46,5.46,0,0,0,4.11,1.91,5.4,5.4,0,0,0,2.17-.45,5.48,5.48,0,0,0,3.4,1.27,5.3,5.3,0,0,0,.93-.19,5.22,5.22,0,0,0,2.29.86,5.4,5.4,0,0,0,2.89.94,5.53,5.53,0,0,0,5.53-5.52,5.46,5.46,0,0,0-4.85-5.38,5.37,5.37,0,0,0-2.89-.94,5.68,5.68,0,0,0-.93.19,5.41,5.41,0,0,0-3-1,5.22,5.22,0,0,1-5.57-.82,5.32,5.32,0,0,0-3.13,1.1,12.68,12.68,0,0,1-13-2.74,5.4,5.4,0,0,1-10.5-.81Z"/>
        <path class="cls-1" d="M257.63,155.85a5.36,5.36,0,0,0,2.73-.82c.07,0,.13,0,.2,0a5.35,5.35,0,0,0,3.15-1.11,5.16,5.16,0,0,0,5.63-1.31,5.3,5.3,0,0,0,2.85.91,5.44,5.44,0,0,0,4.57-2.61,5.38,5.38,0,0,0,9.42-2.72,5.44,5.44,0,0,0,5.2,3.93,5.52,5.52,0,0,0,0-11,5.45,5.45,0,0,0-5.34,4.61,5.36,5.36,0,0,0-9.77-1.31,5.4,5.4,0,0,0-4.08-1.9,5.52,5.52,0,0,0-3.93,1.65,5,5,0,0,0-6,.21,5.43,5.43,0,0,0-1.71-.35,5.37,5.37,0,0,0-2.73.83c-.07,0-.13,0-.2,0a5.51,5.51,0,1,0,0,11Z"/>
        <path class="cls-1" d="M303.74,151.5a5.52,5.52,0,1,0-5.51-5.52A5.52,5.52,0,0,0,303.74,151.5Z"/>
        <path class="cls-1" d="M317.89,150.87a5.52,5.52,0,1,0-5.51-5.51A5.52,5.52,0,0,0,317.89,150.87Z"/>
        <path class="cls-1" d="M333.8,150.29a5.52,5.52,0,1,0-5.52-5.52A5.52,5.52,0,0,0,333.8,150.29Z"/>
        <path class="cls-1" d="M351.37,149.75a5.52,5.52,0,1,0-5.51-5.52A5.52,5.52,0,0,0,351.37,149.75Z"/>
        <path class="cls-1" d="M370.57,149.25a5.52,5.52,0,1,0-5.52-5.52A5.52,5.52,0,0,0,370.57,149.25Z"/>
        <path class="cls-1" d="M391.3,148.79a5.52,5.52,0,1,0-5.51-5.51A5.52,5.52,0,0,0,391.3,148.79Z"/>
        <path class="cls-1" d="M413.49,148.39a5.52,5.52,0,1,0-5.52-5.52A5.52,5.52,0,0,0,413.49,148.39Z"/>
        <path class="cls-1" d="M437,148a5.52,5.52,0,1,0-5.52-5.51A5.51,5.51,0,0,0,437,148Z"/>
        <path class="cls-1" d="M461.84,147.73a5.52,5.52,0,1,0-5.52-5.52A5.52,5.52,0,0,0,461.84,147.73Z"/>
        <path class="cls-1" d="M487.8,147.48a5.52,5.52,0,1,0-5.51-5.52A5.52,5.52,0,0,0,487.8,147.48Z"/>
        <path class="cls-1" d="M514.81,147.28a5.52,5.52,0,1,0-5.52-5.51A5.51,5.51,0,0,0,514.81,147.28Z"/>
        <path class="cls-1" d="M542.74,147.14a5.52,5.52,0,1,0-5.52-5.52A5.51,5.51,0,0,0,542.74,147.14Z"/>
        <path class="cls-1" d="M571.47,147.05a5.52,5.52,0,1,0-5.52-5.51A5.52,5.52,0,0,0,571.47,147.05Z"/>
        <path class="cls-1" d="M600.89,147a5.52,5.52,0,1,0-5.52-5.51A5.51,5.51,0,0,0,600.89,147Z"/>
        <path class="cls-1" d="M630.84,147.05a5.52,5.52,0,1,0-5.51-5.51A5.52,5.52,0,0,0,630.84,147.05Z"/>
        <path class="cls-1" d="M661.21,147.13a5.52,5.52,0,1,0-5.51-5.51A5.52,5.52,0,0,0,661.21,147.13Z"/>
        <path class="cls-1" d="M691.87,147.27a5.52,5.52,0,1,0-5.52-5.51A5.51,5.51,0,0,0,691.87,147.27Z"/>
        <path class="cls-1" d="M722.66,147.46a5.52,5.52,0,1,0-5.51-5.51A5.52,5.52,0,0,0,722.66,147.46Z"/>
        <path class="cls-1" d="M753.47,147.71A5.52,5.52,0,1,0,748,142.2,5.51,5.51,0,0,0,753.47,147.71Z"/>
        <path class="cls-1" d="M784.14,148a5.52,5.52,0,1,0-5.51-5.52A5.52,5.52,0,0,0,784.14,148Z"/>
        <path class="cls-1" d="M814.55,148.37a5.52,5.52,0,1,0-5.51-5.52A5.51,5.51,0,0,0,814.55,148.37Z"/>
        <path class="cls-1" d="M844.57,148.77a5.52,5.52,0,1,0-5.51-5.51A5.52,5.52,0,0,0,844.57,148.77Z"/>
        <path class="cls-1" d="M874.07,149.22a5.52,5.52,0,1,0-5.52-5.51A5.52,5.52,0,0,0,874.07,149.22Z"/>
        <path class="cls-1" d="M902.91,149.72a5.52,5.52,0,1,0-5.51-5.51A5.51,5.51,0,0,0,902.91,149.72Z"/>
        <path class="cls-1" d="M931,150.26a5.52,5.52,0,1,0-5.51-5.52A5.52,5.52,0,0,0,931,150.26Z"/>
        <path class="cls-1" d="M958.16,150.84a5.52,5.52,0,1,0-5.51-5.52A5.51,5.51,0,0,0,958.16,150.84Z"/>
        <path class="cls-1" d="M984.36,151.46a5.52,5.52,0,1,0-5.52-5.52A5.52,5.52,0,0,0,984.36,151.46Z"/>
        <path class="cls-1" d="M1009.42,152.11a5.52,5.52,0,1,0-5.52-5.51A5.51,5.51,0,0,0,1009.42,152.11Z"/>
        <path class="cls-1" d="M1033.28,152.8a5.52,5.52,0,1,0-5.51-5.51A5.51,5.51,0,0,0,1033.28,152.8Z"/>
        <path class="cls-1" d="M1055.85,153.52a5.52,5.52,0,1,0-5.53-5.51A5.51,5.51,0,0,0,1055.85,153.52Z"/>
        <path class="cls-1" d="M1077,154.26a5.52,5.52,0,1,0-5.52-5.52A5.52,5.52,0,0,0,1077,154.26Z"/>
        <path class="cls-1" d="M1096.72,155a5.52,5.52,0,1,0-5.53-5.52A5.52,5.52,0,0,0,1096.72,155Z"/>
        <path class="cls-1" d="M1114.88,155.82a5.52,5.52,0,1,0-5.52-5.52A5.52,5.52,0,0,0,1114.88,155.82Z"/>
        <path class="cls-1" d="M1131.42,156.61a5.52,5.52,0,1,0-5.52-5.51A5.49,5.49,0,0,0,1131.42,156.61Z"/>
        <path class="cls-1" d="M1146.31,157.43a5.52,5.52,0,1,0-5.51-5.52A5.52,5.52,0,0,0,1146.31,157.43Z"/>
        <path class="cls-1" d="M1159.51,158.25a5.52,5.52,0,1,0-5.52-5.51A5.52,5.52,0,0,0,1159.51,158.25Z"/>
        <path class="cls-1" d="M1170.93,159.08a5.41,5.41,0,0,0,4.56-2.59,5.42,5.42,0,0,0,8.64,2,5.4,5.4,0,0,0,4.28,2.2,5.56,5.56,0,0,0,2.4-.59,5.44,5.44,0,0,0,3.62,1.42,5.2,5.2,0,0,0,1.11-.22,69.46,69.46,0,0,0,5.39,1.85,5.48,5.48,0,0,0,.54-10.93,5.39,5.39,0,0,0-2.86-.91,5.05,5.05,0,0,0-1.12.22,5.44,5.44,0,0,0-3.06-1,5.59,5.59,0,0,0-2.4.59,13,13,0,0,1-11.44-2.25,5.42,5.42,0,0,0-4.56,2.58,5.52,5.52,0,1,0-5.1,7.62Z"/>
        <path class="cls-2" d="M179.15,219.29A5.46,5.46,0,0,0,183,217.7c.12,0,.22.07.35.07a5.43,5.43,0,0,0,3.28-1.19,5.5,5.5,0,0,0,2.19.46A5.41,5.41,0,0,0,193,215a5.38,5.38,0,0,0,8.65-2.28,5.45,5.45,0,0,0,4.8,3,5.52,5.52,0,1,0-5.14-7.4,5.34,5.34,0,0,0-9-.88,5.18,5.18,0,0,0-6.79-.16,5.5,5.5,0,0,0-2.19-.46,5.42,5.42,0,0,0-2.75.84c-.16,0-.3-.09-.47-.09a7.53,7.53,0,0,0-6.49,6.28A5.5,5.5,0,0,0,179.15,219.29Z"/>
        <path class="cls-1" d="M216.82,186.74a5.46,5.46,0,0,0,3.9-1.61c.07,0,.14,0,.21,0a5.38,5.38,0,0,0,3.22-1.16,5.53,5.53,0,0,0,2,.4,5.44,5.44,0,0,0,4.07-1.87,5.39,5.39,0,0,0,3.18,1.13,5.47,5.47,0,0,0,4.9-3.1,5.43,5.43,0,0,0,4.42,2.38,5.52,5.52,0,1,0-4.9-7.93,5.32,5.32,0,0,0-8.49-.52,5,5,0,0,0-6.4,0,5.62,5.62,0,0,0-2-.4,5.34,5.34,0,0,0-2.76.85c-.12,0-.22-.07-.33-.07a7.59,7.59,0,0,0-6.53,6.31A5.52,5.52,0,0,0,216.82,186.74Z"/>
        <path class="cls-1" d="M254,182.28a5.52,5.52,0,1,0-5.51-5.52A5.52,5.52,0,0,0,254,182.28Z"/>
        <path class="cls-1" d="M267.39,181.62a5.52,5.52,0,1,0-5.51-5.51A5.52,5.52,0,0,0,267.39,181.62Z"/>
        <path class="cls-1" d="M282.7,181a5.52,5.52,0,1,0-5.51-5.51A5.52,5.52,0,0,0,282.7,181Z"/>
        <path class="cls-1" d="M299.92,180.42a5.52,5.52,0,1,0-5.51-5.51A5.51,5.51,0,0,0,299.92,180.42Z"/>
        <path class="cls-1" d="M319,179.89a5.52,5.52,0,1,0-5.51-5.52A5.52,5.52,0,0,0,319,179.89Z"/>
        <path class="cls-1" d="M339.8,179.39a5.52,5.52,0,1,0-5.52-5.51A5.51,5.51,0,0,0,339.8,179.39Z"/>
        <path class="cls-1" d="M362.3,178.94a5.52,5.52,0,1,0-5.52-5.51A5.51,5.51,0,0,0,362.3,178.94Z"/>
        <path class="cls-1" d="M386.38,178.54a5.52,5.52,0,1,0-5.51-5.52A5.52,5.52,0,0,0,386.38,178.54Z"/>
        <path class="cls-1" d="M412,178.18a5.52,5.52,0,1,0-5.52-5.51A5.51,5.51,0,0,0,412,178.18Z"/>
        <path class="cls-1" d="M438.92,177.88a5.52,5.52,0,1,0-5.51-5.51A5.52,5.52,0,0,0,438.92,177.88Z"/>
        <path class="cls-1" d="M467.14,177.63a5.52,5.52,0,1,0-5.51-5.51A5.52,5.52,0,0,0,467.14,177.63Z"/>
        <path class="cls-1" d="M496.51,177.43a5.52,5.52,0,1,0-5.52-5.51A5.51,5.51,0,0,0,496.51,177.43Z"/>
        <path class="cls-1" d="M526.88,177.29a5.52,5.52,0,1,0-5.51-5.51A5.52,5.52,0,0,0,526.88,177.29Z"/>
        <path class="cls-1" d="M558.14,177.21a5.52,5.52,0,1,0-5.52-5.52A5.52,5.52,0,0,0,558.14,177.21Z"/>
        <path class="cls-1" d="M590.13,177.18a5.52,5.52,0,1,0-5.52-5.52A5.52,5.52,0,0,0,590.13,177.18Z"/>
        <path class="cls-1" d="M622.72,177.2a5.52,5.52,0,1,0-5.51-5.51A5.52,5.52,0,0,0,622.72,177.2Z"/>
        <path class="cls-1" d="M655.77,177.29a5.52,5.52,0,1,0-5.52-5.52A5.52,5.52,0,0,0,655.77,177.29Z"/>
        <path class="cls-1" d="M689.11,177.42a5.52,5.52,0,1,0-5.51-5.51A5.52,5.52,0,0,0,689.11,177.42Z"/>
        <path class="cls-1" d="M722.61,177.62a5.52,5.52,0,1,0-5.51-5.52A5.52,5.52,0,0,0,722.61,177.62Z"/>
        <path class="cls-1" d="M756.12,177.87a5.52,5.52,0,1,0-5.52-5.52A5.52,5.52,0,0,0,756.12,177.87Z"/>
        <path class="cls-1" d="M789.48,178.16a5.52,5.52,0,1,0-5.52-5.51A5.52,5.52,0,0,0,789.48,178.16Z"/>
        <path class="cls-1" d="M822.54,178.52A5.52,5.52,0,1,0,817,173,5.51,5.51,0,0,0,822.54,178.52Z"/>
        <path class="cls-1" d="M855.17,178.92a5.52,5.52,0,1,0-5.51-5.52A5.51,5.51,0,0,0,855.17,178.92Z"/>
        <path class="cls-1" d="M887.24,179.37a5.52,5.52,0,1,0-5.52-5.52A5.52,5.52,0,0,0,887.24,179.37Z"/>
        <path class="cls-1" d="M918.57,179.86a5.52,5.52,0,1,0-5.52-5.52A5.52,5.52,0,0,0,918.57,179.86Z"/>
        <path class="cls-1" d="M949.05,180.4a5.52,5.52,0,1,0-5.51-5.52A5.51,5.51,0,0,0,949.05,180.4Z"/>
        <path class="cls-1" d="M978.57,181a5.52,5.52,0,1,0-5.52-5.52A5.52,5.52,0,0,0,978.57,181Z"/>
        <path class="cls-1" d="M1007,181.59a5.52,5.52,0,1,0-5.51-5.52A5.52,5.52,0,0,0,1007,181.59Z"/>
        <path class="cls-1" d="M1034.17,182.24a5.52,5.52,0,1,0-5.52-5.52A5.51,5.51,0,0,0,1034.17,182.24Z"/>
        <path class="cls-1" d="M1060,182.92a5.52,5.52,0,1,0-5.5-5.51A5.51,5.51,0,0,0,1060,182.92Z"/>
        <path class="cls-1" d="M1084.48,183.63a5.52,5.52,0,1,0-5.51-5.52A5.52,5.52,0,0,0,1084.48,183.63Z"/>
        <path class="cls-1" d="M1107.4,184.37a5.52,5.52,0,1,0-5.51-5.52A5.52,5.52,0,0,0,1107.4,184.37Z"/>
        <path class="cls-1" d="M1128.72,185.12a5.52,5.52,0,1,0-5.53-5.51A5.52,5.52,0,0,0,1128.72,185.12Z"/>
        <path class="cls-1" d="M1148.35,185.91a5.52,5.52,0,1,0-5.51-5.52A5.52,5.52,0,0,0,1148.35,185.91Z"/>
        <path class="cls-1" d="M1166.23,186.7a5.52,5.52,0,1,0-5.51-5.52A5.52,5.52,0,0,0,1166.23,186.7Z"/>
        <path class="cls-1" d="M1182.3,187.51a5.52,5.52,0,1,0-5.52-5.52A5.51,5.51,0,0,0,1182.3,187.51Z"/>
        <path class="cls-1" d="M1196.51,188.32a5.52,5.52,0,1,0-5.51-5.52A5.52,5.52,0,0,0,1196.51,188.32Z"/>
        <path class="cls-1" d="M1203.29,183.62a5.51,5.51,0,0,0,10.61,2.08,5.44,5.44,0,0,0,5.26,4.26,5.56,5.56,0,0,0,3.94-1.64,5.39,5.39,0,0,0,4.46,2.46,5.32,5.32,0,0,0,2.6-.74,5.47,5.47,0,0,0,3.82,1.56,5.26,5.26,0,0,0,1.31-.27,5.36,5.36,0,0,0,2.73,1,5.29,5.29,0,0,0,2.79.88,5.48,5.48,0,0,0,.38-11,20.24,20.24,0,0,1-7.21-1.69,5.32,5.32,0,0,0-2.6.74,12.65,12.65,0,0,1-12.22-2.38,5.52,5.52,0,0,0-5.09,3.44,5.43,5.43,0,0,0-5.27-4.26A5.52,5.52,0,0,0,1203.29,183.62Z"/>
        <path class="cls-2" d="M218.59,215a5.52,5.52,0,1,0-5.52-5.51A5.52,5.52,0,0,0,218.59,215Z"/>
        <path class="cls-2" d="M232.89,214.35a5.52,5.52,0,1,0-5.52-5.51A5.51,5.51,0,0,0,232.89,214.35Z"/>
        <path class="cls-2" d="M249.29,213.76a5.52,5.52,0,1,0-5.51-5.52A5.52,5.52,0,0,0,249.29,213.76Z"/>
        <path class="cls-2" d="M267.76,213.2a5.52,5.52,0,1,0-5.51-5.51A5.52,5.52,0,0,0,267.76,213.2Z"/>
        <path class="cls-2" d="M288.21,212.68a5.52,5.52,0,1,0-5.52-5.52A5.52,5.52,0,0,0,288.21,212.68Z"/>
        <path class="cls-2" d="M310.57,212.2a5.52,5.52,0,1,0-5.51-5.52A5.52,5.52,0,0,0,310.57,212.2Z"/>
        <path class="cls-2" d="M334.76,211.76a5.52,5.52,0,1,0-5.52-5.51A5.51,5.51,0,0,0,334.76,211.76Z"/>
        <path class="cls-2" d="M360.65,211.38a5.52,5.52,0,1,0-5.51-5.52A5.52,5.52,0,0,0,360.65,211.38Z"/>
        <path class="cls-2" d="M388.17,211a5.52,5.52,0,1,0-5.52-5.52A5.52,5.52,0,0,0,388.17,211Z"/>
        <path class="cls-2" d="M417.17,210.74a5.52,5.52,0,1,0-5.51-5.51A5.52,5.52,0,0,0,417.17,210.74Z"/>
        <path class="cls-2" d="M447.55,210.5A5.52,5.52,0,1,0,442,205,5.52,5.52,0,0,0,447.55,210.5Z"/>
        <path class="cls-2" d="M479.16,210.31a5.52,5.52,0,1,0-5.51-5.52A5.52,5.52,0,0,0,479.16,210.31Z"/>
        <path class="cls-2" d="M511.87,210.17a5.52,5.52,0,1,0-5.51-5.52A5.52,5.52,0,0,0,511.87,210.17Z"/>
        <path class="cls-2" d="M545.54,210.09a5.52,5.52,0,1,0-5.52-5.52A5.52,5.52,0,0,0,545.54,210.09Z"/>
        <path class="cls-2" d="M580,210.06a5.52,5.52,0,1,0-5.51-5.52A5.52,5.52,0,0,0,580,210.06Z"/>
        <path class="cls-2" d="M615.1,210.09a5.52,5.52,0,1,0-5.52-5.52A5.52,5.52,0,0,0,615.1,210.09Z"/>
        <path class="cls-2" d="M650.69,210.16a5.52,5.52,0,1,0-5.52-5.51A5.51,5.51,0,0,0,650.69,210.16Z"/>
        <path class="cls-2" d="M686.61,210.3a5.52,5.52,0,1,0-5.52-5.51A5.51,5.51,0,0,0,686.61,210.3Z"/>
        <path class="cls-2" d="M722.68,210.49a5.52,5.52,0,1,0-5.51-5.52A5.52,5.52,0,0,0,722.68,210.49Z"/>
        <path class="cls-2" d="M758.77,210.73a5.52,5.52,0,1,0-5.52-5.52A5.52,5.52,0,0,0,758.77,210.73Z"/>
        <path class="cls-2" d="M794.68,211a5.52,5.52,0,1,0-5.5-5.51A5.51,5.51,0,0,0,794.68,211Z"/>
        <path class="cls-2" d="M830.29,211.35a5.52,5.52,0,1,0-5.51-5.51A5.51,5.51,0,0,0,830.29,211.35Z"/>
        <path class="cls-2" d="M865.41,211.74a5.52,5.52,0,1,0-5.51-5.51A5.51,5.51,0,0,0,865.41,211.74Z"/>
        <path class="cls-2" d="M899.9,212.18a5.52,5.52,0,1,0-5.5-5.52A5.52,5.52,0,0,0,899.9,212.18Z"/>
        <path class="cls-2" d="M933.62,212.65a5.52,5.52,0,1,0-5.51-5.52A5.52,5.52,0,0,0,933.62,212.65Z"/>
        <path class="cls-2" d="M966.4,213.17a5.52,5.52,0,1,0-5.51-5.52A5.51,5.51,0,0,0,966.4,213.17Z"/>
        <path class="cls-2" d="M998.13,213.73a5.52,5.52,0,1,0-5.52-5.52A5.52,5.52,0,0,0,998.13,213.73Z"/>
        <path class="cls-2" d="M1028.65,214.32a5.52,5.52,0,1,0-5.51-5.51A5.52,5.52,0,0,0,1028.65,214.32Z"/>
        <path class="cls-2" d="M1057.87,215a5.52,5.52,0,1,0-5.52-5.52A5.52,5.52,0,0,0,1057.87,215Z"/>
        <path class="cls-2" d="M1085.64,215.61a5.52,5.52,0,1,0-5.52-5.52A5.52,5.52,0,0,0,1085.64,215.61Z"/>
        <path class="cls-2" d="M1111.86,216.29a5.52,5.52,0,1,0-5.52-5.52A5.52,5.52,0,0,0,1111.86,216.29Z"/>
        <path class="cls-2" d="M1136.43,217a5.52,5.52,0,1,0-5.52-5.51A5.51,5.51,0,0,0,1136.43,217Z"/>
        <path class="cls-2" d="M1159.28,217.74a5.52,5.52,0,1,0-5.52-5.52A5.51,5.51,0,0,0,1159.28,217.74Z"/>
        <path class="cls-2" d="M1180.29,218.48a5.52,5.52,0,1,0-5.51-5.52A5.51,5.51,0,0,0,1180.29,218.48Z"/>
        <path class="cls-2" d="M1199.42,219.25a5.52,5.52,0,1,0-5.52-5.52A5.51,5.51,0,0,0,1199.42,219.25Z"/>
        <path class="cls-2" d="M1216.6,220a5.52,5.52,0,1,0-5.51-5.51A5.51,5.51,0,0,0,1216.6,220Z"/>
        <path class="cls-2" d="M1231.77,220.81a5.52,5.52,0,1,0-5.52-5.52A5.52,5.52,0,0,0,1231.77,220.81Z"/>
        <path class="cls-2" d="M1244.88,221.6a5.52,5.52,0,1,0-5.51-5.52A5.52,5.52,0,0,0,1244.88,221.6Z"/>
        <path class="cls-2" d="M1255.9,222.38a5.34,5.34,0,0,1,8.9.79,5.36,5.36,0,0,0,2.84-.89,5.47,5.47,0,0,0,3.93,1.68,5.27,5.27,0,0,0,1.54-.31,51.92,51.92,0,0,0,5.61,1.86,5.5,5.5,0,0,0,.2-11,5.34,5.34,0,0,0-2.7-.81,5.47,5.47,0,0,0-1.53.31,5.31,5.31,0,0,0-3.12-1.09,5.24,5.24,0,0,1-6.77-.79,5.33,5.33,0,0,1-8.9-.79,5.52,5.52,0,0,0,0,11Z"/>
        <path class="cls-3" d="M143.72,254.17a5.45,5.45,0,0,0,3.76-1.52c.18,0,.34.1.52.1a5.38,5.38,0,0,0,3.37-1.26,5.34,5.34,0,0,0,2.36.58,5.43,5.43,0,0,0,4.31-2.22,5.5,5.5,0,0,0,3.81,1.56,5.45,5.45,0,0,0,5.32-4.54,5.46,5.46,0,0,0,5.19,3.89,5.52,5.52,0,1,0,0-11,5.45,5.45,0,0,0-5.32,4.53,5.36,5.36,0,0,0-9.49-1.66,5.48,5.48,0,0,0-3.82-1.56,5.36,5.36,0,0,0-3.37,1.26,5,5,0,0,0-5.09.24c-.21,0-.39-.12-.6-.12a5.47,5.47,0,0,0-4,1.76,5.41,5.41,0,0,0-2.46,4.47A5.51,5.51,0,0,0,143.72,254.17Z"/>
        <path class="cls-3" d="M185.22,250.15a5.52,5.52,0,1,0-5.52-5.52A5.52,5.52,0,0,0,185.22,250.15Z"/>
        <path class="cls-3" d="M200.39,249.56a5.52,5.52,0,1,0-5.52-5.52A5.52,5.52,0,0,0,200.39,249.56Z"/>
        <path class="cls-3" d="M217.82,249a5.52,5.52,0,1,0-5.51-5.51A5.52,5.52,0,0,0,217.82,249Z"/>
        <path class="cls-3" d="M237.46,248.48a5.52,5.52,0,1,0-5.52-5.52A5.51,5.51,0,0,0,237.46,248.48Z"/>
        <path class="cls-3" d="M259.23,248a5.52,5.52,0,1,0-5.52-5.51A5.52,5.52,0,0,0,259.23,248Z"/>
        <path class="cls-3" d="M283,247.54a5.52,5.52,0,1,0-5.51-5.51A5.52,5.52,0,0,0,283,247.54Z"/>
        <path class="cls-3" d="M308.81,247.13a5.52,5.52,0,1,0-5.51-5.51A5.52,5.52,0,0,0,308.81,247.13Z"/>
        <path class="cls-3" d="M336.42,246.77a5.52,5.52,0,1,0-5.52-5.52A5.52,5.52,0,0,0,336.42,246.77Z"/>
        <path class="cls-3" d="M365.76,246.45a5.52,5.52,0,1,0-5.51-5.52A5.52,5.52,0,0,0,365.76,246.45Z"/>
        <path class="cls-3" d="M396.7,246.18a5.52,5.52,0,1,0-5.51-5.52A5.52,5.52,0,0,0,396.7,246.18Z"/>
        <path class="cls-3" d="M429.12,246a5.52,5.52,0,1,0-5.52-5.52A5.52,5.52,0,0,0,429.12,246Z"/>
        <path class="cls-3" d="M462.86,245.77a5.52,5.52,0,1,0-5.52-5.51A5.51,5.51,0,0,0,462.86,245.77Z"/>
        <path class="cls-3" d="M497.78,245.64a5.52,5.52,0,1,0-5.52-5.51A5.52,5.52,0,0,0,497.78,245.64Z"/>
        <path class="cls-3" d="M533.72,245.57a5.52,5.52,0,1,0-5.52-5.52A5.52,5.52,0,0,0,533.72,245.57Z"/>
        <path class="cls-3" d="M570.52,245.54A5.52,5.52,0,1,0,565,240,5.52,5.52,0,0,0,570.52,245.54Z"/>
        <path class="cls-3" d="M608,245.56a5.52,5.52,0,1,0-5.51-5.51A5.52,5.52,0,0,0,608,245.56Z"/>
        <path class="cls-3" d="M646,245.64a5.52,5.52,0,1,0-5.52-5.52A5.52,5.52,0,0,0,646,245.64Z"/>
        <path class="cls-3" d="M684.36,245.76a5.52,5.52,0,1,0-5.51-5.51A5.51,5.51,0,0,0,684.36,245.76Z"/>
        <path class="cls-3" d="M722.89,245.94a5.52,5.52,0,1,0-5.52-5.52A5.52,5.52,0,0,0,722.89,245.94Z"/>
        <path class="cls-3" d="M761.41,246.16a5.52,5.52,0,1,0-5.52-5.51A5.52,5.52,0,0,0,761.41,246.16Z"/>
        <path class="cls-3" d="M799.75,246.43a5.52,5.52,0,1,0-5.5-5.51A5.52,5.52,0,0,0,799.75,246.43Z"/>
        <path class="cls-3" d="M837.76,246.75a5.52,5.52,0,1,0-5.52-5.51A5.52,5.52,0,0,0,837.76,246.75Z"/>
        <path class="cls-3" d="M875.24,247.12a5.52,5.52,0,1,0-5.52-5.52A5.52,5.52,0,0,0,875.24,247.12Z"/>
        <path class="cls-3" d="M912,247.52a5.52,5.52,0,1,0-5.51-5.52A5.51,5.51,0,0,0,912,247.52Z"/>
        <path class="cls-3" d="M948,248a5.52,5.52,0,1,0-5.51-5.51A5.52,5.52,0,0,0,948,248Z"/>
        <path class="cls-3" d="M982.94,248.45a5.52,5.52,0,1,0-5.52-5.52A5.52,5.52,0,0,0,982.94,248.45Z"/>
        <path class="cls-3" d="M1016.76,249a5.52,5.52,0,1,0-5.51-5.52A5.52,5.52,0,0,0,1016.76,249Z"/>
        <path class="cls-3" d="M1049.28,249.53a5.52,5.52,0,1,0-5.51-5.52A5.52,5.52,0,0,0,1049.28,249.53Z"/>
        <path class="cls-3" d="M1080.39,250.12a5.52,5.52,0,1,0-5.52-5.52A5.52,5.52,0,0,0,1080.39,250.12Z"/>
        <path class="cls-3" d="M1109.94,250.73a5.52,5.52,0,1,0-5.52-5.52A5.51,5.51,0,0,0,1109.94,250.73Z"/>
        <path class="cls-3" d="M1137.84,251.37a5.52,5.52,0,1,0-5.52-5.52A5.52,5.52,0,0,0,1137.84,251.37Z"/>
        <path class="cls-3" d="M1164,252a5.52,5.52,0,1,0-5.53-5.52A5.52,5.52,0,0,0,1164,252Z"/>
        <path class="cls-3" d="M1188.25,252.71a5.52,5.52,0,1,0-5.52-5.51A5.52,5.52,0,0,0,1188.25,252.71Z"/>
        <path class="cls-3" d="M1210.56,253.41a5.52,5.52,0,1,0-5.52-5.51A5.49,5.49,0,0,0,1210.56,253.41Z"/>
        <path class="cls-3" d="M1230.87,254.13a5.52,5.52,0,1,0-5.52-5.51A5.52,5.52,0,0,0,1230.87,254.13Z"/>
        <path class="cls-3" d="M1249.06,254.85a5.52,5.52,0,1,0-5.52-5.51A5.5,5.5,0,0,0,1249.06,254.85Z"/>
        <path class="cls-3" d="M1265.13,255.59a5.52,5.52,0,1,0-5.52-5.52A5.52,5.52,0,0,0,1265.13,255.59Z"/>
        <path class="cls-3" d="M1279,256.32a5.52,5.52,0,1,0-5.51-5.51A5.52,5.52,0,0,0,1279,256.32Z"/>
        <path class="cls-3" d="M1290.62,257.06a5.39,5.39,0,0,0,4.43-2.41,5.49,5.49,0,0,0,5,3.15,5.35,5.35,0,0,0,3.07-1.07,5.49,5.49,0,0,0,4,1.8,5.6,5.6,0,0,0,1.73-.34,5.42,5.42,0,0,0,3.06,1.07,5.49,5.49,0,1,0,2.6-10.31,5.36,5.36,0,0,0-2.58-.72,5.61,5.61,0,0,0-1.73.35,5.29,5.29,0,0,0-3.08-1.07,5.35,5.35,0,0,0-3.09,1.06,11.39,11.39,0,0,1-13.4-2.53,5.51,5.51,0,1,0,0,11Z"/>
        <path class="cls-4" d="M110.72,291.24a5.41,5.41,0,0,0,3.6-1.42,4.36,4.36,0,0,0,.72.14,5.48,5.48,0,0,0,3.44-1.3,5.18,5.18,0,0,0,7-1.75,5.46,5.46,0,0,0,4,1.84,5.52,5.52,0,1,0,0-11,5.41,5.41,0,0,0-4.45,2.44,5.31,5.31,0,0,0-7.5-.54,4.93,4.93,0,0,0-5.19.1,4.89,4.89,0,0,0-.76-.16,5.86,5.86,0,1,0-.89,11.68Z"/>
        <path class="cls-4" d="M140.54,288.18a5.52,5.52,0,1,0-5.51-5.52A5.52,5.52,0,0,0,140.54,288.18Z"/>
        <path class="cls-4" d="M154.07,287.63a5.52,5.52,0,1,0-5.51-5.52A5.52,5.52,0,0,0,154.07,287.63Z"/>
        <path class="cls-4" d="M170.05,287.1a5.52,5.52,0,1,0-5.51-5.52A5.52,5.52,0,0,0,170.05,287.1Z"/>
        <path class="cls-4" d="M188.44,286.6a5.52,5.52,0,1,0-5.52-5.52A5.52,5.52,0,0,0,188.44,286.6Z"/>
        <path class="cls-4" d="M209.17,286.12a5.52,5.52,0,1,0-5.52-5.51A5.51,5.51,0,0,0,209.17,286.12Z"/>
        <path class="cls-4" d="M232.16,285.68a5.52,5.52,0,1,0-5.51-5.51A5.51,5.51,0,0,0,232.16,285.68Z"/>
        <path class="cls-4" d="M257.34,285.28a5.52,5.52,0,1,0-5.52-5.51A5.51,5.51,0,0,0,257.34,285.28Z"/>
        <path class="cls-4" d="M284.59,284.91a5.52,5.52,0,1,0-5.52-5.51A5.51,5.51,0,0,0,284.59,284.91Z"/>
        <path class="cls-4" d="M313.8,284.58a5.52,5.52,0,1,0-5.52-5.51A5.51,5.51,0,0,0,313.8,284.58Z"/>
        <path class="cls-4" d="M344.86,284.3a5.52,5.52,0,1,0-5.52-5.52A5.52,5.52,0,0,0,344.86,284.3Z"/>
        <path class="cls-4" d="M377.62,284.05a5.52,5.52,0,1,0-5.52-5.52A5.51,5.51,0,0,0,377.62,284.05Z"/>
        <path class="cls-4" d="M412,283.85a5.52,5.52,0,1,0-5.52-5.52A5.52,5.52,0,0,0,412,283.85Z"/>
        <path class="cls-4" d="M447.69,283.68a5.52,5.52,0,1,0-5.52-5.51A5.51,5.51,0,0,0,447.69,283.68Z"/>
        <path class="cls-4" d="M484.68,283.57a5.52,5.52,0,1,0-5.52-5.52A5.52,5.52,0,0,0,484.68,283.57Z"/>
        <path class="cls-4" d="M522.76,283.5a5.52,5.52,0,1,0-5.51-5.51A5.52,5.52,0,0,0,522.76,283.5Z"/>
        <path class="cls-4" d="M561.75,283.47a5.52,5.52,0,1,0-5.51-5.51A5.52,5.52,0,0,0,561.75,283.47Z"/>
        <path class="cls-4" d="M601.48,283.5A5.52,5.52,0,1,0,596,278,5.52,5.52,0,0,0,601.48,283.5Z"/>
        <path class="cls-4" d="M641.75,283.56a5.52,5.52,0,1,0-5.51-5.51A5.52,5.52,0,0,0,641.75,283.56Z"/>
        <path class="cls-4" d="M682.39,283.68a5.52,5.52,0,1,0-5.51-5.52A5.52,5.52,0,0,0,682.39,283.68Z"/>
        <path class="cls-4" d="M723.21,283.83a5.52,5.52,0,1,0-5.51-5.51A5.52,5.52,0,0,0,723.21,283.83Z"/>
        <path class="cls-4" d="M764,284a5.52,5.52,0,1,0-5.52-5.52A5.52,5.52,0,0,0,764,284Z"/>
        <path class="cls-4" d="M804.66,284.28a5.52,5.52,0,1,0-5.53-5.52A5.52,5.52,0,0,0,804.66,284.28Z"/>
        <path class="cls-4" d="M844.9,284.57a5.52,5.52,0,1,0-5.51-5.52A5.52,5.52,0,0,0,844.9,284.57Z"/>
        <path class="cls-4" d="M884.6,284.9a5.52,5.52,0,1,0-5.53-5.52A5.51,5.51,0,0,0,884.6,284.9Z"/>
        <path class="cls-4" d="M923.55,285.26a5.52,5.52,0,1,0-5.52-5.52A5.51,5.51,0,0,0,923.55,285.26Z"/>
        <path class="cls-4" d="M961.62,285.66a5.52,5.52,0,1,0-5.52-5.51A5.52,5.52,0,0,0,961.62,285.66Z"/>
        <path class="cls-4" d="M998.6,286.1a5.52,5.52,0,1,0-5.51-5.52A5.52,5.52,0,0,0,998.6,286.1Z"/>
        <path class="cls-4" d="M1034.37,286.57a5.52,5.52,0,1,0-5.52-5.52A5.52,5.52,0,0,0,1034.37,286.57Z"/>
        <path class="cls-4" d="M1068.76,287.07a5.52,5.52,0,1,0-5.52-5.52A5.52,5.52,0,0,0,1068.76,287.07Z"/>
        <path class="cls-4" d="M1101.64,287.59a5.52,5.52,0,1,0-5.52-5.51A5.52,5.52,0,0,0,1101.64,287.59Z"/>
        <path class="cls-4" d="M1132.87,288.15a5.52,5.52,0,1,0-5.52-5.51A5.52,5.52,0,0,0,1132.87,288.15Z"/>
        <path class="cls-4" d="M1162.32,288.72a5.52,5.52,0,1,0-5.52-5.51A5.51,5.51,0,0,0,1162.32,288.72Z"/>
        <path class="cls-4" d="M1189.9,289.32a5.52,5.52,0,1,0-5.51-5.52A5.52,5.52,0,0,0,1189.9,289.32Z"/>
        <path class="cls-4" d="M1215.51,289.94a5.52,5.52,0,1,0-5.52-5.52A5.52,5.52,0,0,0,1215.51,289.94Z"/>
        <path class="cls-4" d="M1239,290.56a5.52,5.52,0,1,0-5.51-5.51A5.51,5.51,0,0,0,1239,290.56Z"/>
        <path class="cls-4" d="M1260.4,291.21a5.52,5.52,0,1,0-5.5-5.52A5.52,5.52,0,0,0,1260.4,291.21Z"/>
        <path class="cls-4" d="M1279.56,291.85a5.52,5.52,0,1,0-5.51-5.51A5.52,5.52,0,0,0,1279.56,291.85Z"/>
        <path class="cls-4" d="M1296.44,292.51a5.52,5.52,0,1,0-5.52-5.52A5.5,5.5,0,0,0,1296.44,292.51Z"/>
        <path class="cls-4" d="M1311,282.14a5.52,5.52,0,1,0,5.52,5.51A5.52,5.52,0,0,0,1311,282.14Z"/>
        <path class="cls-4" d="M1317.67,288.32a5.52,5.52,0,0,0,5.52,5.51,5.45,5.45,0,0,0,4.71-2.81,5.5,5.5,0,0,0,5.1,3.47,5.28,5.28,0,0,0,3.31-1.23,5.28,5.28,0,0,0,6,1.49,5.34,5.34,0,0,0,3.05,1.05s.06,0,.11,0a5.3,5.3,0,0,0,2.48.66,5.52,5.52,0,0,0,0-11s-.08,0-.11,0a5.37,5.37,0,0,0-2.48-.67,5.26,5.26,0,0,0-2,.4,5,5,0,0,0-6.37.18,5.35,5.35,0,0,0-8.78.92,5.51,5.51,0,0,0-10.62,2.06Z"/>
        <path class="cls-5" d="M80.26,330.35a5.38,5.38,0,0,0,2.95-1,4.8,4.8,0,0,0,.48-.3,4.7,4.7,0,0,0,.92.19,5.46,5.46,0,0,0,3.48-1.33,5.33,5.33,0,0,0,2.7.8,5.42,5.42,0,0,0,4.6-2.64,5.42,5.42,0,0,0,4.25,2.14,5.52,5.52,0,1,0,0-11,5.42,5.42,0,0,0-4.59,2.64,5.27,5.27,0,0,0-7.74-.81,5.3,5.3,0,0,0-2.7-.8A5.4,5.4,0,0,0,82,319a4.79,4.79,0,0,0-.93-.19,5.38,5.38,0,0,0-2.94,1,5.51,5.51,0,0,0,2.1,10.61Z"/>
        <path class="cls-5" d="M111.15,327.73a5.52,5.52,0,1,0-5.51-5.51A5.51,5.51,0,0,0,111.15,327.73Z"/>
        <path class="cls-5" d="M125.29,327.26a5.52,5.52,0,1,0-5.52-5.52A5.52,5.52,0,0,0,125.29,327.26Z"/>
        <path class="cls-5" d="M142,326.81a5.52,5.52,0,1,0-5.52-5.52A5.52,5.52,0,0,0,142,326.81Z"/>
        <path class="cls-5" d="M161.29,326.38a5.52,5.52,0,1,0-5.52-5.52A5.52,5.52,0,0,0,161.29,326.38Z"/>
        <path class="cls-5" d="M183,326a5.52,5.52,0,1,0-5.52-5.52A5.52,5.52,0,0,0,183,326Z"/>
        <path class="cls-5" d="M207.16,325.61a5.52,5.52,0,1,0-5.52-5.52A5.52,5.52,0,0,0,207.16,325.61Z"/>
        <path class="cls-5" d="M233.59,325.26a5.52,5.52,0,1,0-5.52-5.52A5.52,5.52,0,0,0,233.59,325.26Z"/>
        <path class="cls-5" d="M262.21,324.94a5.52,5.52,0,1,0-5.51-5.51A5.52,5.52,0,0,0,262.21,324.94Z"/>
        <path class="cls-5" d="M292.91,324.66a5.52,5.52,0,1,0-5.51-5.52A5.52,5.52,0,0,0,292.91,324.66Z"/>
        <path class="cls-5" d="M325.56,324.41a5.52,5.52,0,1,0-5.51-5.51A5.51,5.51,0,0,0,325.56,324.41Z"/>
        <path class="cls-5" d="M360,324.2a5.52,5.52,0,1,0-5.51-5.51A5.52,5.52,0,0,0,360,324.2Z"/>
        <path class="cls-5" d="M396.12,324a5.52,5.52,0,1,0-5.52-5.52A5.51,5.51,0,0,0,396.12,324Z"/>
        <path class="cls-5" d="M433.71,323.89a5.52,5.52,0,1,0-5.51-5.51A5.52,5.52,0,0,0,433.71,323.89Z"/>
        <path class="cls-5" d="M472.64,323.79a5.52,5.52,0,1,0-5.52-5.51A5.52,5.52,0,0,0,472.64,323.79Z"/>
        <path class="cls-5" d="M512.71,323.73a5.52,5.52,0,1,0-5.52-5.52A5.52,5.52,0,0,0,512.71,323.73Z"/>
        <path class="cls-5" d="M553.74,323.71a5.52,5.52,0,1,0-5.51-5.52A5.52,5.52,0,0,0,553.74,323.71Z"/>
        <path class="cls-5" d="M595.55,323.73a5.52,5.52,0,1,0-5.52-5.52A5.52,5.52,0,0,0,595.55,323.73Z"/>
        <path class="cls-5" d="M637.93,323.79a5.52,5.52,0,1,0-5.51-5.52A5.52,5.52,0,0,0,637.93,323.79Z"/>
        <path class="cls-5" d="M680.71,323.89a5.52,5.52,0,1,0-5.52-5.52A5.52,5.52,0,0,0,680.71,323.89Z"/>
        <path class="cls-5" d="M723.67,324a5.52,5.52,0,1,0-5.52-5.52A5.52,5.52,0,0,0,723.67,324Z"/>
        <path class="cls-5" d="M766.62,324.19a5.52,5.52,0,1,0-5.52-5.51A5.51,5.51,0,0,0,766.62,324.19Z"/>
        <path class="cls-5" d="M809.36,324.4a5.52,5.52,0,1,0-5.51-5.52A5.52,5.52,0,0,0,809.36,324.4Z"/>
        <path class="cls-5" d="M851.69,324.64a5.52,5.52,0,1,0-5.51-5.51A5.51,5.51,0,0,0,851.69,324.64Z"/>
        <path class="cls-5" d="M893.44,324.93a5.52,5.52,0,1,0-5.52-5.52A5.51,5.51,0,0,0,893.44,324.93Z"/>
        <path class="cls-5" d="M934.41,325.24a5.52,5.52,0,1,0-5.51-5.52A5.52,5.52,0,0,0,934.41,325.24Z"/>
        <path class="cls-5" d="M974.41,325.58a5.52,5.52,0,1,0-5.51-5.51A5.51,5.51,0,0,0,974.41,325.58Z"/>
        <path class="cls-5" d="M1013.29,326a5.52,5.52,0,1,0-5.51-5.51A5.51,5.51,0,0,0,1013.29,326Z"/>
        <path class="cls-5" d="M1050.88,326.36a5.52,5.52,0,1,0-5.52-5.52A5.52,5.52,0,0,0,1050.88,326.36Z"/>
        <path class="cls-5" d="M1087,326.79a5.52,5.52,0,1,0-5.52-5.52A5.52,5.52,0,0,0,1087,326.79Z"/>
        <path class="cls-5" d="M1121.52,327.24a5.52,5.52,0,1,0-5.52-5.52A5.52,5.52,0,0,0,1121.52,327.24Z"/>
        <path class="cls-5" d="M1154.28,327.71a5.52,5.52,0,1,0-5.51-5.52A5.52,5.52,0,0,0,1154.28,327.71Z"/>
        <path class="cls-5" d="M1185.18,328.2a5.52,5.52,0,1,0-5.51-5.51A5.51,5.51,0,0,0,1185.18,328.2Z"/>
        <path class="cls-5" d="M1214.11,328.71a5.52,5.52,0,1,0-5.52-5.51A5.52,5.52,0,0,0,1214.11,328.71Z"/>
        <path class="cls-5" d="M1240.92,329.23a5.52,5.52,0,1,0-5.51-5.51A5.5,5.5,0,0,0,1240.92,329.23Z"/>
        <path class="cls-5" d="M1265.56,329.77a5.52,5.52,0,1,0-5.51-5.52A5.52,5.52,0,0,0,1265.56,329.77Z"/>
        <path class="cls-5" d="M1287.93,330.32a5.52,5.52,0,1,0-5.51-5.52A5.51,5.51,0,0,0,1287.93,330.32Z"/>
        <path class="cls-5" d="M1308,330.87a5.52,5.52,0,1,0-5.52-5.51A5.52,5.52,0,0,0,1308,330.87Z"/>
        <path class="cls-5" d="M1325.61,331.43a5.52,5.52,0,1,0-5.52-5.52A5.52,5.52,0,0,0,1325.61,331.43Z"/>
        <path class="cls-5" d="M1340.78,332a5.52,5.52,0,1,0-5.51-5.52A5.52,5.52,0,0,0,1340.78,332Z"/>
        <path class="cls-5" d="M1353.48,321.53a5.52,5.52,0,1,0,5,7.77,5.36,5.36,0,0,0,8.72,2.44,5.38,5.38,0,0,0,4.1,1.94,5.57,5.57,0,0,0,2.17-.44,5.39,5.39,0,0,0,3,1c.07,0,.15,0,.22,0a5.44,5.44,0,0,0,2.38.59,5.52,5.52,0,1,0,0-11c-.08,0-.15,0-.23,0a5.44,5.44,0,0,0-2.39-.59,5.59,5.59,0,0,0-2.16.44,5.1,5.1,0,0,0-6.51.39,10.3,10.3,0,0,1-14.3-2.5Z"/>
        <path class="cls-6" d="M27.55,414a5.4,5.4,0,0,0,2.47-.65,5.89,5.89,0,0,0,.59-.21,5,5,0,0,0,1.29.26,5.36,5.36,0,0,0,3.47-1.33,5.36,5.36,0,0,0,3.05,1,5.44,5.44,0,0,0,4.81-3,5.42,5.42,0,0,0,4.63,2.68,5.52,5.52,0,0,0,0-11,5.45,5.45,0,0,0-4.81,3,5.27,5.27,0,0,0-8.1-1.36,5,5,0,0,0-5.38-.48,5.1,5.1,0,0,0-1.29-.26,5.44,5.44,0,0,0-2.47.65A5.48,5.48,0,0,0,27.55,414Z"/>
        <path class="cls-7" d="M52.5,371.33a5.33,5.33,0,0,0,2.73-.82,3.71,3.71,0,0,0,.53-.26,5.11,5.11,0,0,0,1.1.22,5.42,5.42,0,0,0,3.49-1.34,5.33,5.33,0,0,0,2.88.93,5.44,5.44,0,0,0,4.71-2.83,5.42,5.42,0,0,0,4.45,2.43,5.52,5.52,0,1,0-4.72-8.21A5.41,5.41,0,0,0,63.23,359a5.47,5.47,0,0,0-3.5,1.34,5.27,5.27,0,0,0-2.87-.93,5.39,5.39,0,0,0-2.46.65,5.74,5.74,0,0,0-1.11-.22,5.42,5.42,0,0,0-2.72.82,5.49,5.49,0,0,0,1.93,10.64Z"/>
        <path class="cls-7" d="M84.32,369.27a5.52,5.52,0,1,0-5.51-5.52A5.52,5.52,0,0,0,84.32,369.27Z"/>
        <path class="cls-7" d="M99,368.89a5.52,5.52,0,1,0-5.52-5.51A5.51,5.51,0,0,0,99,368.89Z"/>
        <path class="cls-7" d="M116.43,368.53a5.52,5.52,0,1,0-5.52-5.51A5.51,5.51,0,0,0,116.43,368.53Z"/>
        <path class="cls-7" d="M136.5,368.19a5.52,5.52,0,1,0-5.52-5.52A5.52,5.52,0,0,0,136.5,368.19Z"/>
        <path class="cls-7" d="M159.16,367.87a5.52,5.52,0,1,0-5.51-5.52A5.52,5.52,0,0,0,159.16,367.87Z"/>
        <path class="cls-7" d="M184.33,367.57a5.52,5.52,0,1,0-5.51-5.51A5.52,5.52,0,0,0,184.33,367.57Z"/>
        <path class="cls-7" d="M211.92,367.3a5.52,5.52,0,1,0-5.52-5.51A5.51,5.51,0,0,0,211.92,367.3Z"/>
        <path class="cls-7" d="M241.8,367.05a5.52,5.52,0,1,0-5.52-5.52A5.52,5.52,0,0,0,241.8,367.05Z"/>
        <path class="cls-7" d="M273.86,366.83a5.52,5.52,0,1,0-5.51-5.52A5.52,5.52,0,0,0,273.86,366.83Z"/>
        <path class="cls-7" d="M308,366.63a5.52,5.52,0,1,0-5.51-5.52A5.52,5.52,0,0,0,308,366.63Z"/>
        <path class="cls-7" d="M344,366.46a5.52,5.52,0,1,0-5.51-5.51A5.52,5.52,0,0,0,344,366.46Z"/>
        <path class="cls-7" d="M381.72,366.33a5.52,5.52,0,1,0-5.52-5.52A5.52,5.52,0,0,0,381.72,366.33Z"/>
        <path class="cls-7" d="M421,366.21a5.52,5.52,0,1,0-5.51-5.51A5.51,5.51,0,0,0,421,366.21Z"/>
        <path class="cls-7" d="M461.72,366.14a5.52,5.52,0,1,0-5.51-5.52A5.52,5.52,0,0,0,461.72,366.14Z"/>
        <path class="cls-7" d="M503.62,366.09a5.52,5.52,0,1,0-5.51-5.52A5.52,5.52,0,0,0,503.62,366.09Z"/>
        <path class="cls-7" d="M546.53,366.07a5.52,5.52,0,1,0-5.51-5.51A5.52,5.52,0,0,0,546.53,366.07Z"/>
        <path class="cls-7" d="M590.26,366.09a5.52,5.52,0,1,0-5.52-5.52A5.52,5.52,0,0,0,590.26,366.09Z"/>
        <path class="cls-7" d="M634.59,366.13a5.52,5.52,0,1,0-5.52-5.51A5.51,5.51,0,0,0,634.59,366.13Z"/>
        <path class="cls-7" d="M679.32,366.21a5.52,5.52,0,1,0-5.52-5.52A5.52,5.52,0,0,0,679.32,366.21Z"/>
        <path class="cls-7" d="M724.25,366.31a5.52,5.52,0,1,0-5.52-5.51A5.51,5.51,0,0,0,724.25,366.31Z"/>
        <path class="cls-7" d="M769.16,366.45a5.52,5.52,0,1,0-5.52-5.51A5.51,5.51,0,0,0,769.16,366.45Z"/>
        <path class="cls-7" d="M813.85,366.62a5.52,5.52,0,1,0-5.53-5.52A5.52,5.52,0,0,0,813.85,366.62Z"/>
        <path class="cls-7" d="M858.11,366.82a5.52,5.52,0,1,0-5.51-5.52A5.52,5.52,0,0,0,858.11,366.82Z"/>
        <path class="cls-7" d="M901.74,367a5.52,5.52,0,1,0-5.51-5.52A5.52,5.52,0,0,0,901.74,367Z"/>
        <path class="cls-7" d="M944.55,367.29a5.52,5.52,0,1,0-5.52-5.52A5.51,5.51,0,0,0,944.55,367.29Z"/>
        <path class="cls-7" d="M986.36,367.55a5.52,5.52,0,1,0-5.52-5.51A5.51,5.51,0,0,0,986.36,367.55Z"/>
        <path class="cls-7" d="M1027,367.85a5.52,5.52,0,1,0-5.53-5.51A5.51,5.51,0,0,0,1027,367.85Z"/>
        <path class="cls-7" d="M1066.19,368.17a5.52,5.52,0,1,0-5.52-5.51A5.52,5.52,0,0,0,1066.19,368.17Z"/>
        <path class="cls-7" d="M1103.9,368.51a5.52,5.52,0,1,0-5.51-5.52A5.52,5.52,0,0,0,1103.9,368.51Z"/>
        <path class="cls-7" d="M1139.92,368.87a5.52,5.52,0,1,0-5.52-5.52A5.5,5.5,0,0,0,1139.92,368.87Z"/>
        <path class="cls-7" d="M1174.12,369.24a5.52,5.52,0,1,0-5.52-5.51A5.52,5.52,0,0,0,1174.12,369.24Z"/>
        <path class="cls-7" d="M1206.34,369.64a5.52,5.52,0,1,0-5.53-5.52A5.52,5.52,0,0,0,1206.34,369.64Z"/>
        <path class="cls-7" d="M1236.48,370a5.52,5.52,0,1,0-5.53-5.52A5.52,5.52,0,0,0,1236.48,370Z"/>
        <path class="cls-7" d="M1264.41,370.45a5.52,5.52,0,1,0-5.51-5.52A5.51,5.51,0,0,0,1264.41,370.45Z"/>
        <path class="cls-7" d="M1290.06,370.88a5.52,5.52,0,1,0-5.52-5.52A5.51,5.51,0,0,0,1290.06,370.88Z"/>
        <path class="cls-7" d="M1313.34,371.31a5.52,5.52,0,1,0-5.53-5.51A5.51,5.51,0,0,0,1313.34,371.31Z"/>
        <path class="cls-7" d="M1334.15,371.75a5.52,5.52,0,1,0-5.51-5.52A5.52,5.52,0,0,0,1334.15,371.75Z"/>
        <path class="cls-7" d="M1352.47,372.19a5.52,5.52,0,1,0-5.52-5.51A5.51,5.51,0,0,0,1352.47,372.19Z"/>
        <path class="cls-7" d="M1368.22,372.64a5.52,5.52,0,1,0-5.53-5.52A5.52,5.52,0,0,0,1368.22,372.64Z"/>
        <path class="cls-7" d="M1381.38,362.05a5.52,5.52,0,1,0,0,11,5.38,5.38,0,0,1,10.52.45,5.37,5.37,0,0,1,7.89.44,5.07,5.07,0,0,1,5.26.43c.13,0,.24-.06.37-.07a5.37,5.37,0,0,0,2.26.5,5.52,5.52,0,0,0,0-11,3.41,3.41,0,0,0-.37.08,5.42,5.42,0,0,0-2.26-.5,5.26,5.26,0,0,0-2.3.54,5.34,5.34,0,0,0-3-1,5.51,5.51,0,0,0-3.76,1.52,9.3,9.3,0,0,1-14.65-2.41Z"/>
        <path class="cls-6" d="M60.19,412.59a5.52,5.52,0,1,0-5.52-5.51A5.51,5.51,0,0,0,60.19,412.59Z"/>
        <path class="cls-6" d="M75.38,412.33a5.52,5.52,0,1,0-5.52-5.51A5.51,5.51,0,0,0,75.38,412.33Z"/>
        <path class="cls-6" d="M93.4,412.08a5.52,5.52,0,1,0-5.51-5.51A5.52,5.52,0,0,0,93.4,412.08Z"/>
        <path class="cls-6" d="M114.2,411.85a5.52,5.52,0,1,0-5.52-5.52A5.52,5.52,0,0,0,114.2,411.85Z"/>
        <path class="cls-6" d="M137.69,411.62a5.52,5.52,0,1,0-5.52-5.51A5.51,5.51,0,0,0,137.69,411.62Z"/>
        <path class="cls-6" d="M163.8,411.42a5.52,5.52,0,1,0-5.51-5.52A5.52,5.52,0,0,0,163.8,411.42Z"/>
        <path class="cls-6" d="M192.42,411.23a5.52,5.52,0,1,0-5.51-5.52A5.52,5.52,0,0,0,192.42,411.23Z"/>
        <path class="cls-6" d="M223.45,411.05a5.52,5.52,0,1,0-5.52-5.51A5.5,5.5,0,0,0,223.45,411.05Z"/>
        <path class="cls-6" d="M256.75,410.9a5.52,5.52,0,1,0-5.51-5.51A5.52,5.52,0,0,0,256.75,410.9Z"/>
        <path class="cls-6" d="M292.19,410.76a5.52,5.52,0,1,0-5.52-5.51A5.51,5.51,0,0,0,292.19,410.76Z"/>
        <path class="cls-6" d="M329.59,410.65a5.52,5.52,0,1,0-5.51-5.52A5.52,5.52,0,0,0,329.59,410.65Z"/>
        <path class="cls-6" d="M368.82,410.55A5.52,5.52,0,1,0,363.3,405,5.52,5.52,0,0,0,368.82,410.55Z"/>
        <path class="cls-6" d="M409.68,410.48a5.52,5.52,0,1,0-5.52-5.52A5.52,5.52,0,0,0,409.68,410.48Z"/>
        <path class="cls-6" d="M452,410.42a5.52,5.52,0,1,0-5.52-5.51A5.51,5.51,0,0,0,452,410.42Z"/>
        <path class="cls-6" d="M495.55,410.39a5.52,5.52,0,1,0-5.51-5.52A5.52,5.52,0,0,0,495.55,410.39Z"/>
        <path class="cls-6" d="M540.17,410.38a5.52,5.52,0,1,0-5.52-5.52A5.51,5.51,0,0,0,540.17,410.38Z"/>
        <path class="cls-6" d="M585.63,410.39a5.52,5.52,0,1,0-5.52-5.52A5.51,5.51,0,0,0,585.63,410.39Z"/>
        <path class="cls-6" d="M631.72,410.42a5.52,5.52,0,1,0-5.51-5.51A5.52,5.52,0,0,0,631.72,410.42Z"/>
        <path class="cls-6" d="M678.23,410.47a5.52,5.52,0,1,0-5.51-5.52A5.52,5.52,0,0,0,678.23,410.47Z"/>
        <path class="cls-6" d="M725,410.55a5.52,5.52,0,1,0-5.52-5.52A5.52,5.52,0,0,0,725,410.55Z"/>
        <path class="cls-6" d="M771.64,410.64a5.52,5.52,0,1,0-5.52-5.51A5.51,5.51,0,0,0,771.64,410.64Z"/>
        <path class="cls-6" d="M818.1,410.76a5.52,5.52,0,1,0-5.53-5.52A5.52,5.52,0,0,0,818.1,410.76Z"/>
        <path class="cls-6" d="M864.1,410.89a5.52,5.52,0,1,0-5.51-5.52A5.52,5.52,0,0,0,864.1,410.89Z"/>
        <path class="cls-6" d="M909.44,411a5.52,5.52,0,1,0-5.52-5.51A5.5,5.5,0,0,0,909.44,411Z"/>
        <path class="cls-6" d="M953.92,411.22a5.52,5.52,0,1,0-5.51-5.52A5.51,5.51,0,0,0,953.92,411.22Z"/>
        <path class="cls-6" d="M997.36,411.41a5.52,5.52,0,1,0-5.52-5.52A5.52,5.52,0,0,0,997.36,411.41Z"/>
        <path class="cls-6" d="M1039.53,411.61a5.52,5.52,0,1,0-5.51-5.51A5.51,5.51,0,0,0,1039.53,411.61Z"/>
        <path class="cls-6" d="M1080.27,411.83a5.52,5.52,0,1,0-5.52-5.51A5.51,5.51,0,0,0,1080.27,411.83Z"/>
        <path class="cls-6" d="M1119.4,412.07a5.52,5.52,0,1,0-5.51-5.52A5.52,5.52,0,0,0,1119.4,412.07Z"/>
        <path class="cls-6" d="M1156.78,412.32a5.52,5.52,0,1,0-5.51-5.52A5.51,5.51,0,0,0,1156.78,412.32Z"/>
        <path class="cls-6" d="M1192.25,412.58a5.52,5.52,0,1,0-5.51-5.52A5.52,5.52,0,0,0,1192.25,412.58Z"/>
        <path class="cls-6" d="M1225.66,412.85a5.52,5.52,0,1,0-5.51-5.52A5.52,5.52,0,0,0,1225.66,412.85Z"/>
        <path class="cls-6" d="M1256.9,413.13a5.52,5.52,0,1,0-5.51-5.52A5.52,5.52,0,0,0,1256.9,413.13Z"/>
        <path class="cls-6" d="M1285.85,413.42a5.52,5.52,0,1,0-5.53-5.52A5.52,5.52,0,0,0,1285.85,413.42Z"/>
        <path class="cls-6" d="M1312.4,413.71a5.52,5.52,0,1,0-5.51-5.51A5.51,5.51,0,0,0,1312.4,413.71Z"/>
        <path class="cls-6" d="M1336.49,414a5.52,5.52,0,1,0-5.52-5.51A5.51,5.51,0,0,0,1336.49,414Z"/>
        <path class="cls-6" d="M1358,414.31a5.52,5.52,0,1,0-5.51-5.51A5.51,5.51,0,0,0,1358,414.31Z"/>
        <path class="cls-6" d="M1376.93,414.62a5.52,5.52,0,1,0-5.52-5.51A5.51,5.51,0,0,0,1376.93,414.62Z"/>
        <path class="cls-6" d="M1393.19,414.93a5.52,5.52,0,1,0-5.52-5.51A5.51,5.51,0,0,0,1393.19,414.93Z"/>
        <path class="cls-6" d="M1406.75,404.2a9.42,9.42,0,0,0,14.78,9.66,5.23,5.23,0,0,0,6.61,1.35,5.27,5.27,0,0,0,2.89,1c.21,0,.38-.1.59-.12a5.29,5.29,0,0,0,2,.41,5.52,5.52,0,1,0,0-11,5.05,5.05,0,0,0-.56.12,5.69,5.69,0,0,0-2.06-.41,5.42,5.42,0,0,0-2.46.64,5.31,5.31,0,0,0-2.9-.95,5.38,5.38,0,0,1-8.1-.31,5.43,5.43,0,0,1-10.82-.31Z"/>
        <path class="cls-8" d="M5.51,458.25a5.63,5.63,0,0,0,2.18-.45c.21-.07.46-.06.66-.15a5.41,5.41,0,0,0,1.5.31,5.48,5.48,0,0,0,3.44-1.3,5.29,5.29,0,0,0,8.1-1.92,5.49,5.49,0,1,0-.09-5,5.46,5.46,0,0,0-4.79-2.94,5.38,5.38,0,0,0-3.43,1.31,5.41,5.41,0,0,0-3.23-1.16,5.61,5.61,0,0,0-2.17.44,5.63,5.63,0,0,0-1.49-.3,5.63,5.63,0,0,0-2.18.45,5.44,5.44,0,0,0-4,5.21A5.51,5.51,0,0,0,5.51,458.25Z"/>
        <path class="cls-8" d="M38.85,457.53A5.52,5.52,0,1,0,33.34,452,5.52,5.52,0,0,0,38.85,457.53Z"/>
        <path class="cls-8" d="M54.48,457.4A5.52,5.52,0,1,0,49,451.89,5.52,5.52,0,0,0,54.48,457.4Z"/>
        <path class="cls-8" d="M73.05,457.28a5.52,5.52,0,1,0-5.51-5.52A5.52,5.52,0,0,0,73.05,457.28Z"/>
        <path class="cls-8" d="M94.48,457.16A5.52,5.52,0,1,0,89,451.64,5.52,5.52,0,0,0,94.48,457.16Z"/>
        <path class="cls-8" d="M118.72,457.05a5.52,5.52,0,1,0-5.52-5.52A5.52,5.52,0,0,0,118.72,457.05Z"/>
        <path class="cls-8" d="M145.67,456.94a5.52,5.52,0,1,0-5.52-5.51A5.51,5.51,0,0,0,145.67,456.94Z"/>
        <path class="cls-8" d="M175.22,456.85a5.52,5.52,0,1,0-5.52-5.52A5.52,5.52,0,0,0,175.22,456.85Z"/>
        <path class="cls-8" d="M207.26,456.76a5.52,5.52,0,1,0-5.51-5.52A5.52,5.52,0,0,0,207.26,456.76Z"/>
        <path class="cls-8" d="M241.67,456.68a5.52,5.52,0,1,0-5.52-5.51A5.51,5.51,0,0,0,241.67,456.68Z"/>
        <path class="cls-8" d="M278.28,456.62a5.52,5.52,0,1,0-5.52-5.52A5.52,5.52,0,0,0,278.28,456.62Z"/>
        <path class="cls-8" d="M317,456.56a5.52,5.52,0,1,0-5.52-5.52A5.52,5.52,0,0,0,317,456.56Z"/>
        <path class="cls-8" d="M357.49,456.51A5.52,5.52,0,1,0,352,451,5.52,5.52,0,0,0,357.49,456.51Z"/>
        <path class="cls-8" d="M399.74,456.47a5.52,5.52,0,1,0-5.52-5.52A5.52,5.52,0,0,0,399.74,456.47Z"/>
        <path class="cls-8" d="M443.48,456.45a5.52,5.52,0,1,0-5.51-5.52A5.52,5.52,0,0,0,443.48,456.45Z"/>
        <path class="cls-8" d="M488.54,456.43a5.52,5.52,0,1,0-5.52-5.51A5.51,5.51,0,0,0,488.54,456.43Z"/>
        <path class="cls-8" d="M534.68,456.42a5.52,5.52,0,1,0-5.52-5.52A5.52,5.52,0,0,0,534.68,456.42Z"/>
        <path class="cls-8" d="M581.69,456.43a5.52,5.52,0,1,0-5.51-5.51A5.52,5.52,0,0,0,581.69,456.43Z"/>
        <path class="cls-8" d="M629.36,456.44a5.52,5.52,0,1,0-5.51-5.51A5.52,5.52,0,0,0,629.36,456.44Z"/>
        <path class="cls-8" d="M677.46,456.47a5.52,5.52,0,1,0-5.52-5.52A5.52,5.52,0,0,0,677.46,456.47Z"/>
        <path class="cls-8" d="M725.76,456.51a5.52,5.52,0,1,0-5.51-5.52A5.52,5.52,0,0,0,725.76,456.51Z"/>
        <path class="cls-8" d="M774.05,456.55a5.52,5.52,0,1,0-5.52-5.51A5.51,5.51,0,0,0,774.05,456.55Z"/>
        <path class="cls-8" d="M822.07,456.61a5.52,5.52,0,1,0-5.51-5.51A5.52,5.52,0,0,0,822.07,456.61Z"/>
        <path class="cls-8" d="M869.65,456.68a5.52,5.52,0,1,0-5.52-5.51A5.51,5.51,0,0,0,869.65,456.68Z"/>
        <path class="cls-8" d="M916.52,456.76a5.52,5.52,0,1,0-5.52-5.52A5.52,5.52,0,0,0,916.52,456.76Z"/>
        <path class="cls-8" d="M962.49,456.84a5.52,5.52,0,1,0-5.51-5.51A5.52,5.52,0,0,0,962.49,456.84Z"/>
        <path class="cls-8" d="M1007.37,456.94a5.52,5.52,0,1,0-5.52-5.52A5.52,5.52,0,0,0,1007.37,456.94Z"/>
        <path class="cls-8" d="M1050.93,457a5.52,5.52,0,1,0-5.52-5.51A5.51,5.51,0,0,0,1050.93,457Z"/>
        <path class="cls-8" d="M1093,457.15a5.52,5.52,0,1,0-5.52-5.51A5.52,5.52,0,0,0,1093,457.15Z"/>
        <path class="cls-8" d="M1133.43,457.27a5.52,5.52,0,1,0-5.52-5.52A5.51,5.51,0,0,0,1133.43,457.27Z"/>
        <path class="cls-8" d="M1172,457.39a5.52,5.52,0,1,0-5.52-5.51A5.51,5.51,0,0,0,1172,457.39Z"/>
        <path class="cls-8" d="M1208.62,457.53a5.52,5.52,0,1,0-5.52-5.52A5.52,5.52,0,0,0,1208.62,457.53Z"/>
        <path class="cls-8" d="M1243.07,457.66a5.52,5.52,0,1,0-5.51-5.52A5.52,5.52,0,0,0,1243.07,457.66Z"/>
        <path class="cls-8" d="M1275.29,457.8a5.52,5.52,0,1,0-5.51-5.51A5.51,5.51,0,0,0,1275.29,457.8Z"/>
        <path class="cls-8" d="M1305.14,458a5.52,5.52,0,1,0-5.52-5.52A5.52,5.52,0,0,0,1305.14,458Z"/>
        <path class="cls-8" d="M1332.5,458.09a5.52,5.52,0,1,0-5.52-5.51A5.52,5.52,0,0,0,1332.5,458.09Z"/>
        <path class="cls-8" d="M1357.29,447.21a5.52,5.52,0,1,0,5.51,5.51A5.51,5.51,0,0,0,1357.29,447.21Z"/>
        <path class="cls-8" d="M1379.45,458.39a5.52,5.52,0,1,0-5.52-5.51A5.52,5.52,0,0,0,1379.45,458.39Z"/>
        <path class="cls-8" d="M1398.9,458.55a5.52,5.52,0,1,0-5.51-5.52A5.52,5.52,0,0,0,1398.9,458.55Z"/>
        <path class="cls-8" d="M1415.61,447.67a5.52,5.52,0,1,0,5.51,5.52A5.51,5.51,0,0,0,1415.61,447.67Z"/>
        <path class="cls-8" d="M1429.52,458.86a5.52,5.52,0,1,0-5.51-5.52A5.52,5.52,0,0,0,1429.52,458.86Z"/>
        <path class="cls-8" d="M1435.1,453.5a5.51,5.51,0,0,0,5.51,5.51,5.33,5.33,0,0,1,8.27.16,5.46,5.46,0,0,0,2.61-.75,5.33,5.33,0,0,0,2.83.9,3.46,3.46,0,0,1,2.63.14,5.52,5.52,0,1,0,0-11,4.91,4.91,0,0,0-.94.2,5.36,5.36,0,0,0-1.69-.35,4.91,4.91,0,0,1-5.44-.15,5.34,5.34,0,0,1-8.27-.15A5.51,5.51,0,0,0,1435.1,453.5Z"/>
      </g>
    </g>
  </g>
</svg>
