<svg xmlns="http://www.w3.org/2000/svg" width="1923" height="372.62" viewBox="0 0 1923 372.62">
  <defs>
    <style>
      .ha-cls-1 {
        fill: #290062;
      }

      .ha-cls-1, .ha-cls-2, .ha-cls-3 {
        fill-rule: evenodd;
      }

      .ha-cls-2 {
        fill: #5205be;
      }

      .ha-cls-3 {
        fill: #6500e3;
      }
    </style>
  </defs>
  <g id="Layer_2" data-name="Layer 2">
    <g id="Layer_1-2" data-name="Layer 1">
      <g>
        <path class="ha-cls-1" d="M1,24.56S374.93-69.2,657,109.64,1146.87,323,1432,259s491,24.58,491,24.58v89H0Z"/>
        <path class="ha-cls-2" d="M1432,259c-285.13,64-492.93,29.48-775-149.36S1,24.56,1,24.56L.8,93C75.71,76.88,402.07,17.26,654,141.64c286.4,141.4,582.55,287.44,821,209,202-66.44,394-61.22,448-58.07v-9S1717.13,195,1432,259Z"/>
        <path class="ha-cls-3" d="M1432,259c-285.13,64-492.93,29.48-775-149.36S1,24.56,1,24.56l0,8.15L1,55.78S376.93-61.61,659,117.22s487.87,237,773,173,491,44.43,491,44.43V283.58S1717.13,195,1432,259Z"/>
      </g>
    </g>
  </g>
</svg>
