<svg width="502" height="725" viewBox="0 0 502 725" fill="none" xmlns="http://www.w3.org/2000/svg">
<path d="M501.548 472.952L463.629 510.871" stroke="#4D4D4D" stroke-miterlimit="10"/>
<path d="M501.548 510.871L463.629 472.952" stroke="#4D4D4D" stroke-miterlimit="10"/>
<path d="M240.213 410.262L202.293 448.181" stroke="#4D4D4D" stroke-miterlimit="10"/>
<path d="M240.213 448.181L202.293 410.262" stroke="#4D4D4D" stroke-miterlimit="10"/>
<path d="M150.508 399.34C153.861 385.139 145.068 370.909 130.867 367.556C116.666 364.203 102.436 372.996 99.0825 387.197C95.7293 401.398 104.523 415.628 118.724 418.981C132.925 422.335 147.155 413.541 150.508 399.34Z" stroke="#4D4D4D" stroke-miterlimit="10" stroke-dasharray="5 5"/>
<path d="M484.15 73.8389L221.241 336.723" stroke="#4D4D4D" stroke-miterlimit="10"/>
<path d="M421.56 1L344.172 78.3881" stroke="#4D4D4D" stroke-miterlimit="10"/>
<path d="M489.825 238.863L350.696 377.992" stroke="#4D4D4D" stroke-miterlimit="10"/>
<path d="M393.089 193.345L293.53 292.93" stroke="#4D4D4D" stroke-miterlimit="10"/>
<path d="M412.937 520.245L325.35 607.806" stroke="#4D4D4D" stroke-miterlimit="10"/>
<path d="M412.937 607.806L325.35 520.245" stroke="#4D4D4D" stroke-miterlimit="10"/>
<path d="M130.33 723.564C201.757 723.564 259.66 665.661 259.66 594.234C259.66 522.807 201.757 464.904 130.33 464.904C58.9031 464.904 1 522.807 1 594.234C1 665.661 58.9031 723.564 130.33 723.564Z" stroke="#4D4D4D" stroke-miterlimit="10" stroke-dasharray="5 5"/>
</svg>
