<?xml version="1.0" encoding="utf-8"?>
<!-- Generator: Adobe Illustrator 23.1.1, SVG Export Plug-In . SVG Version: 6.00 Build 0)  -->
<svg version="1.1" id="Capa_1" xmlns="http://www.w3.org/2000/svg" xmlns:xlink="http://www.w3.org/1999/xlink" x="0px" y="0px"
	 viewBox="0 0 323.5 50" style="enable-background:new 0 0 323.5 50;" xml:space="preserve">
<style type="text/css">
	.st0{fill:#FFFFFF;}
	.st1{fill-rule:evenodd;clip-rule:evenodd;fill:#633001;}
	.st2{fill:#FEDC90;}
	.st3{fill-rule:evenodd;clip-rule:evenodd;fill:#D1884F;}
	.st4{fill:#633001;}
</style>
<g>
	<g id="Capa_1-2">
		<path class="st0" d="M62.4,38.7c-0.6,0.1-1.1-0.1-1.6-0.5c-0.3-0.4-0.5-1-0.4-1.5V14.2c0-0.5,0.1-1.1,0.5-1.5
			c0.4-0.4,1-0.6,1.6-0.5h9.5c3.6,0,6.3,0.8,8,2.3s2.6,3.8,2.6,6.8c0,3-0.9,5.3-2.6,6.8c-1.7,1.5-4.4,2.3-8,2.3h-3.7v6.3
			c0,0.5-0.1,1.1-0.5,1.5c-0.5,0.4-1,0.5-1.6,0.5L62.4,38.7z M71.3,24.8c0.9,0.1,1.8-0.2,2.5-0.9c0.6-0.7,1-1.6,0.9-2.6
			c0.1-1-0.2-1.9-0.9-2.6c-0.7-0.6-1.6-0.9-2.5-0.9h-3.1v6.9H71.3z"/>
		<path class="st0" d="M91.7,39.2c-2.2,0.1-4.3-0.8-5.9-2.3c-1.6-1.9-2.3-4.2-2.2-6.7c0-2,0.5-4,1.5-5.7c1-1.6,2.5-3,4.2-3.8
			c2-0.9,4.2-1.4,6.3-1.4c1.8,0,3.5,0.2,5.2,0.7c1.5,0.4,2.9,1,4.2,1.8v15.6c0,0.3-0.1,0.7-0.3,1c-0.3,0.2-0.7,0.3-1.1,0.2h-4
			c-0.2,0-0.5,0-0.7-0.1c-0.2-0.1-0.3-0.3-0.4-0.5l-0.5-1.2c-0.7,0.8-1.7,1.4-2.7,1.8C94.3,39.1,93,39.3,91.7,39.2 M94.6,34
			c0.9,0.1,1.7-0.2,2.4-0.7c0.6-0.5,0.9-1.3,0.9-2.1V25c-0.6-0.3-1.2-0.4-1.9-0.4c-1.3,0-2.5,0.5-3.3,1.4c-0.9,1.2-1.3,2.6-1.2,4
			C91.5,32.7,92.5,34,94.6,34"/>
		<path class="st0" d="M110.5,38.7c-0.6,0.1-1.1-0.1-1.6-0.5c-0.3-0.4-0.5-0.9-0.5-1.5V21.2c0-0.3,0-0.7,0.2-0.9
			c0.3-0.2,0.7-0.3,1.1-0.3h4c0.2,0,0.5,0,0.7,0.2c0.2,0.1,0.3,0.3,0.3,0.5l0.2,1.2c0.8-0.8,1.8-1.4,2.8-1.7c1.3-0.5,2.6-0.7,4-0.7
			c1.9-0.1,3.7,0.6,5.1,1.8c1.4,1.4,2.1,3.3,1.9,5.2v10.3c0,0.5-0.1,1.1-0.5,1.5c-0.4,0.4-1,0.5-1.6,0.5h-3.8
			c-0.6,0.1-1.2-0.1-1.6-0.5c-0.3-0.4-0.5-0.9-0.5-1.5v-9.8c0.1-0.6-0.1-1.2-0.5-1.7c-0.4-0.4-1-0.6-1.6-0.5c-0.7,0-1.3,0.2-1.9,0.6
			c-0.5,0.5-0.7,1.1-0.7,1.7v9.6c0,0.5-0.1,1.1-0.5,1.5c-0.4,0.4-1,0.5-1.6,0.5L110.5,38.7z"/>
		<path class="st0" d="M142.6,39.2c-3.6,0-6.4-0.8-8.4-2.5c-2-1.7-3-4.1-3-7.4c0-1.8,0.4-3.6,1.4-5.2c0.9-1.5,2.3-2.7,3.9-3.5
			c1.9-0.9,4-1.3,6.1-1.2c1.5,0,3,0.1,4.5,0.5c1.2,0.3,2.3,0.8,3.3,1.6c0.3,0.1,0.4,0.4,0.4,0.7c0,0.3-0.1,0.6-0.3,0.8l-1.6,2.8
			c-0.2,0.4-0.4,0.5-0.7,0.5c-0.3,0-0.5-0.1-0.7-0.3c-0.6-0.4-1.3-0.7-2-1c-0.7-0.2-1.5-0.3-2.3-0.3c-1.2,0-2.3,0.4-3.2,1.2
			c-0.8,0.9-1.2,2.2-1.2,3.4c-0.1,1.3,0.4,2.5,1.2,3.4c0.9,0.8,2.1,1.2,3.3,1.2c0.8,0,1.5-0.1,2.3-0.3c0.7-0.3,1.4-0.6,2.1-1
			c0.2-0.2,0.5-0.3,0.8-0.3c0.2,0,0.4,0.2,0.6,0.5l1.8,3c0.1,0.2,0.2,0.4,0.2,0.6c0,0.3-0.2,0.5-0.5,0.7c-1.1,0.7-2.3,1.2-3.6,1.6
			C145.7,39.1,144.2,39.3,142.6,39.2"/>
		<path class="st0" d="M161.1,39.2c-2.2,0.1-4.3-0.8-5.9-2.3c-1.5-1.9-2.3-4.2-2.2-6.7c0-2,0.5-4,1.5-5.7c1-1.6,2.5-3,4.2-3.8
			c2-0.9,4.2-1.4,6.3-1.4c1.8,0,3.5,0.2,5.2,0.7c1.5,0.4,2.9,1,4.2,1.8v15.6c0,0.3-0.1,0.7-0.3,1c-0.3,0.2-0.7,0.3-1.1,0.2h-4
			c-0.2,0-0.5,0-0.7-0.1c-0.2-0.1-0.3-0.3-0.4-0.5l-0.5-1.2c-0.7,0.8-1.7,1.4-2.7,1.8C163.7,39.1,162.4,39.3,161.1,39.2 M164,34
			c0.9,0.1,1.7-0.2,2.4-0.7c0.6-0.5,0.9-1.3,0.9-2.1V25c-0.6-0.3-1.2-0.4-1.9-0.4c-1.3,0-2.5,0.5-3.3,1.4c-0.9,1.2-1.3,2.6-1.2,4
			C160.9,32.7,161.9,34,164,34"/>
		<path class="st0" d="M199,37.2c0.2,0.2,0.3,0.4,0.3,0.7c0,0.2-0.1,0.4-0.2,0.6c-0.2,0.1-0.4,0.2-0.6,0.2h-6c-0.3,0-0.6,0-0.8-0.1
			c-0.2-0.1-0.4-0.3-0.5-0.4l-5.3-7.2v5.8c0,0.5-0.1,1.1-0.5,1.5c-0.5,0.4-1,0.5-1.6,0.5h-3.8c-0.6,0.1-1.1-0.1-1.6-0.5
			c-0.3-0.4-0.5-0.9-0.4-1.5V14.2c0-0.5,0.1-1.1,0.5-1.5c0.4-0.4,1-0.6,1.6-0.5h3.8c0.6-0.1,1.2,0.1,1.6,0.5
			c0.3,0.4,0.5,0.9,0.5,1.5v13l5.1-6.7c0.1-0.2,0.3-0.3,0.5-0.4c0.3-0.1,0.5-0.1,0.8-0.1h6c0.2,0,0.4,0.1,0.6,0.2
			c0.2,0.1,0.2,0.3,0.2,0.5c0,0.3-0.1,0.5-0.3,0.7l-6.7,7.6L199,37.2z"/>
		<path class="st0" d="M211.6,39.2c-2,0-4-0.3-5.8-1.1c-1.6-0.7-3-1.8-4-3.3c-1-1.6-1.5-3.4-1.5-5.3c0-3.3,0.9-5.8,2.8-7.5
			s4.6-2.6,8.1-2.6c3.4,0,6,0.9,7.8,2.6c1.9,1.9,2.8,4.4,2.7,7c0,1.3-0.6,1.9-1.7,1.9h-12.2c-0.1,1,0.4,2,1.2,2.6
			c1.2,0.7,2.5,1,3.9,0.9c0.9,0,1.8-0.1,2.6-0.3c0.8-0.2,1.5-0.5,2.2-0.9c0.2-0.1,0.4-0.2,0.6-0.2c0.2,0,0.4,0.2,0.6,0.5l1.3,2.5
			c0.1,0.2,0.2,0.4,0.2,0.6c0,0.3-0.2,0.5-0.5,0.7c-1.1,0.7-2.3,1.2-3.6,1.5C214.7,39.1,213.2,39.3,211.6,39.2 M214.6,27.1
			c0.1-0.9-0.3-1.7-0.9-2.3c-0.7-0.6-1.6-0.9-2.6-0.8c-0.9-0.1-1.9,0.2-2.6,0.9c-0.6,0.6-0.9,1.4-0.9,2.3L214.6,27.1z"/>
		<path class="st0" d="M235,39.2c-2.1,0-4.2-0.2-6.2-0.7c-1.7-0.4-3.3-1-4.7-1.9c-0.4-0.3-0.7-0.6-0.7-0.9c0-0.2,0.1-0.5,0.2-0.7
			l1.9-3c0.2-0.3,0.4-0.5,0.6-0.5c0.2,0,0.5,0.1,0.7,0.3c1,0.6,2.1,1,3.3,1.3c1.2,0.3,2.4,0.5,3.6,0.5c0.9,0.1,1.9-0.1,2.7-0.5
			c0.6-0.4,1-1,0.9-1.8c0-0.7-0.3-1.4-1-1.8c-1.1-0.7-2.3-1.2-3.5-1.7c-2.2-0.8-4.3-1.9-6.1-3.3c-1.5-1.3-2.3-3.1-2.2-5.1
			c-0.1-2.3,0.9-4.5,2.8-5.9c2.2-1.4,4.7-2.2,7.4-2c1.8,0,3.7,0.2,5.4,0.6c1.4,0.3,2.7,0.9,3.9,1.7c0.4,0.3,0.7,0.6,0.7,0.9
			c0,0.2-0.1,0.4-0.2,0.6l-1.9,3c-0.2,0.3-0.4,0.5-0.6,0.5c-0.2,0-0.5-0.1-0.7-0.3c-1.6-1-3.5-1.5-5.4-1.5c-0.9-0.1-1.8,0.1-2.6,0.5
			c-0.6,0.4-1,1.1-0.9,1.8c0,0.5,0.1,1,0.5,1.4c0.4,0.4,0.8,0.7,1.2,1c0.5,0.3,1.4,0.6,2.5,1l0.7,0.3c1.6,0.6,3.1,1.3,4.5,2.2
			c1,0.6,1.9,1.5,2.5,2.5c0.6,1.1,0.9,2.4,0.9,3.7c0.1,2.2-0.9,4.2-2.6,5.5C240.8,38.6,238.3,39.2,235,39.2"/>
		<path class="st0" d="M253.4,38.7c-0.3,0-0.6,0-0.9-0.2c-0.2-0.2-0.4-0.5-0.5-0.8l-5-16.8c0-0.1-0.1-0.2-0.1-0.4
			c0-0.4,0.3-0.5,0.8-0.5h5.1c0.3,0,0.5,0,0.7,0.2c0.2,0.1,0.3,0.3,0.3,0.5l2.1,8.8l2.6-7.1c0.1-0.2,0.2-0.4,0.4-0.6
			c0.2-0.1,0.5-0.2,0.8-0.2h2.5c0.3,0,0.5,0,0.7,0.2c0.2,0.2,0.3,0.4,0.4,0.6l2.6,7.1l2.1-8.8c0-0.2,0.2-0.4,0.3-0.5
			c0.2-0.2,0.5-0.2,0.7-0.2h5.2c0.5,0,0.8,0.2,0.8,0.5c0,0.1,0,0.2-0.1,0.4L270,37.7c-0.1,0.3-0.2,0.6-0.5,0.8
			c-0.3,0.1-0.6,0.2-0.9,0.2h-3.8c-0.3,0-0.6,0-0.8-0.2c-0.2-0.2-0.4-0.5-0.5-0.8l-2.6-7l-2.6,7c-0.1,0.3-0.2,0.6-0.5,0.8
			c-0.2,0.1-0.5,0.2-0.8,0.2H253.4z"/>
		<path class="st0" d="M285,39.2c-2.2,0.1-4.3-0.8-5.9-2.3c-1.5-1.9-2.3-4.2-2.2-6.7c0-2,0.5-4,1.5-5.7c1-1.6,2.5-3,4.2-3.8
			c2-0.9,4.2-1.4,6.3-1.4c1.8,0,3.5,0.2,5.2,0.7c1.5,0.4,2.9,1,4.2,1.8v15.6c0,0.3-0.1,0.7-0.3,1c-0.3,0.2-0.7,0.3-1.1,0.2h-4
			c-0.2,0-0.5,0-0.7-0.1c-0.2-0.1-0.3-0.3-0.4-0.5l-0.5-1.2c-0.7,0.8-1.7,1.4-2.7,1.8C287.6,39.1,286.3,39.3,285,39.2 M288,34
			c0.9,0.1,1.7-0.2,2.4-0.7c0.6-0.5,0.9-1.3,0.9-2.1V25c-0.6-0.3-1.2-0.4-1.9-0.4c-1.3,0-2.5,0.5-3.3,1.4c-0.9,1.2-1.3,2.6-1.2,4
			C284.8,32.7,285.9,34,288,34"/>
		<path class="st0" d="M303.8,46.5c-0.6,0.1-1.1-0.1-1.6-0.5c-0.3-0.4-0.5-1-0.4-1.5V22.3c1.3-0.9,2.8-1.6,4.4-2.1
			c1.8-0.5,3.7-0.8,5.5-0.8c7.8,0,11.8,3.3,11.8,10c0.1,2.6-0.8,5.2-2.5,7.2c-1.9,1.9-4.4,2.8-7,2.7c-0.8,0-1.7-0.1-2.5-0.3
			c-0.7-0.2-1.4-0.5-1.9-0.9v6.5c0,0.5-0.1,1.1-0.5,1.5c-0.5,0.4-1,0.5-1.6,0.5L303.8,46.5z M312.3,34c1,0.1,1.9-0.4,2.5-1.2
			c0.6-1,0.9-2.2,0.9-3.4c0.1-1.3-0.2-2.5-1-3.5c-0.8-0.8-1.9-1.1-3-1.1c-0.7,0-1.4,0.1-2.1,0.4v6.2c-0.1,0.7,0.2,1.5,0.7,2
			C310.8,33.8,311.5,34,312.3,34"/>
		<path class="st1" d="M8.9,7.8c-0.6-3.6,1.7-7,5.3-7.7s7,1.7,7.7,5.3C21.9,5.9,22,6.2,22,6.6v8.1c0.9-0.1,1.8-0.1,2.8-0.1
			c0.9,0,1.8,0,2.7,0.1V6.6c0-3.6,3-6.6,6.7-6.5s6.6,3,6.5,6.7c0,0.4,0,0.7-0.1,1.1l-1.8,9.6c6.1,2.7,10.8,7.3,10.8,13.2v3.5
			c0,4.8-3.2,8.8-7.6,11.5c-5.2,3-11.1,4.5-17.1,4.4c-6,0.1-11.9-1.4-17.1-4.4C3.2,42.9,0,38.9,0,34.1v-3.5
			c0-5.8,4.6-10.4,10.7-13.1L8.9,7.8z M36.4,18.6l2.1-11.2C39,5,37.4,2.6,34.9,2.1S30,3.3,29.5,5.8c-0.1,0.3-0.1,0.6-0.1,0.8V17
			c-0.7-0.1-1.3-0.2-2-0.2c-0.9-0.1-1.8-0.1-2.7-0.1c-0.9,0-1.9,0-2.8,0.1c-0.7,0.1-1.4,0.1-2,0.2V6.6c0-2.5-2.1-4.6-4.6-4.6
			c-2.5,0-4.6,2.1-4.6,4.6c0,0.3,0,0.6,0.1,0.8L13,18.7C6.4,21.1,2,25.5,2,30.6v3.5C2,41.8,12.2,48,24.7,48s22.7-6.2,22.7-13.9v-3.5
			C47.5,25.5,43,21.1,36.4,18.6"/>
		<path class="st2" d="M47.5,34.1c0,7.7-10.2,13.9-22.7,13.9S2,41.8,2,34.1v-3.5h45.5V34.1z"/>
		<path class="st3" d="M10.9,7.4C10.4,5,12,2.6,14.5,2.1s4.9,1.2,5.3,3.7c0.1,0.3,0.1,0.6,0.1,0.8V17c3.1-0.4,6.3-0.4,9.5,0V6.6
			C29.4,4.1,31.5,2,34,2c2.5,0,4.6,2.1,4.6,4.6c0,0.3,0,0.6-0.1,0.8l-2.1,11.2c6.6,2.4,11,6.9,11,11.9c0,7.7-10.2,13.9-22.7,13.9
			S2,38.2,2,30.6c0-5,4.4-9.4,10.9-11.9L10.9,7.4z"/>
		<path class="st4" d="M18.4,29.5c0,2.1-1.1,3.8-2.5,3.8s-2.5-1.7-2.5-3.8s1.1-3.8,2.5-3.8S18.4,27.5,18.4,29.5"/>
		<path class="st4" d="M35.9,29.5c0,2.1-1.1,3.8-2.5,3.8s-2.5-1.7-2.5-3.8s1.1-3.8,2.5-3.8C34.7,25.8,35.9,27.5,35.9,29.5"/>
	</g>
</g>
</svg>
