<svg xmlns="http://www.w3.org/2000/svg" width="1032" height="765" viewBox="0 0 1032 765">
  <defs>
    <style>
      .cls-1 {
        fill: #3d068b;
      }

      .cls-2 {
        fill: #290062;
      }

      .cls-3 {
        fill: none;
        stroke: #fff;
        stroke-opacity: 0.26;
      }

      .cls-4 {
        fill: #4b81e4;
      }

      .cls-5 {
        fill: #fff966;
      }

      .cls-6 {
        fill: #5cb6c0;
      }

      .cls-7 {
        fill: #7ea6ea;
      }

      .cls-8 {
        fill: #e5867b;
      }

      .cls-9 {
        fill: #de5b47;
      }

      .cls-10 {
        fill: #f5cf71;
      }

      .cls-11 {
        fill: #8f32ed;
      }

      .cls-12 {
        fill: #86cad1;
      }

      .cls-13 {
        fill: #f2bd50;
      }

      .cls-14 {
        fill: #4a9f5e;
      }

      .cls-15 {
        fill: #f27f3d;
      }

      .cls-16 {
        fill: #fff;
      }
    </style>
  </defs>
  <g id="Layer_2" data-name="Layer 2">
    <g id="Layer_1-2" data-name="Layer 1">
      <g>
        <rect class="cls-1" width="1032" height="765" rx="10"/>
        <rect class="cls-2" y="69" width="1032" height="70"/>
        <path class="cls-3" d="M211,1V765"/>
        <path class="cls-3" d="M110,70.18V764"/>
        <path class="cls-3" d="M312,70.18V764"/>
        <path class="cls-3" d="M413,70.18V764"/>
        <path class="cls-3" d="M516,70.18V764"/>
        <path class="cls-3" d="M617,1V765"/>
        <path class="cls-3" d="M718,70.18V764"/>
        <path class="cls-3" d="M819,70.18V764"/>
        <path class="cls-3" d="M920,70.18V764"/>
        <rect class="cls-4" x="311" y="147" width="709" height="43" rx="5"/>
        <rect class="cls-5" x="311" y="606" width="709" height="43" rx="5"/>
        <rect class="cls-6" x="311" y="402" width="709" height="43" rx="5"/>
        <rect class="cls-7" x="311" y="453" width="205" height="43" rx="5"/>
        <rect class="cls-8" x="311" y="504" width="306" height="43" rx="5"/>
        <rect class="cls-9" x="311" y="198" width="709" height="43" rx="5"/>
        <rect class="cls-10" x="311" y="555" width="306" height="43" rx="5"/>
        <rect class="cls-11" x="311" y="657" width="709" height="43" rx="5"/>
        <rect class="cls-12" x="211" y="708" width="809" height="43" rx="5"/>
        <rect class="cls-13" x="311" y="249" width="709" height="43" rx="5"/>
        <rect class="cls-14" x="159" y="300" width="152" height="43" rx="5"/>
        <rect class="cls-15" x="261" y="351" width="152" height="43" rx="5"/>
        <g>
          <path class="cls-2" d="M241.45,735.62h6.07V737h-7.76V724.2h1.69Z"/>
          <path class="cls-2" d="M249.19,725a1,1,0,0,1,.25-.67,1.08,1.08,0,0,1,1.43,0,1,1,0,0,1,0,1.33,1.11,1.11,0,0,1-1.43,0A1,1,0,0,1,249.19,725ZM251,737h-1.62v-9.51H251Z"/>
          <path class="cls-2" d="M253.16,732.17a5.55,5.55,0,0,1,1-3.55,3.63,3.63,0,0,1,5.42-.17l.07-1h1.49v13.17h-1.62v-4.54a3.43,3.43,0,0,1-2.62,1.06,3.3,3.3,0,0,1-2.75-1.34,5.74,5.74,0,0,1-1-3.56Zm1.62.18a4.24,4.24,0,0,0,.69,2.57,2.2,2.2,0,0,0,1.86.93,2.45,2.45,0,0,0,2.22-1.28v-4.66a2.45,2.45,0,0,0-2.2-1.26,2.2,2.2,0,0,0-1.87.94A4.6,4.6,0,0,0,254.78,732.35Z"/>
          <path class="cls-2" d="M269.66,736.06a3.49,3.49,0,0,1-2.79,1.12,3,3,0,0,1-2.32-.89,3.84,3.84,0,0,1-.8-2.61v-6.19h1.63v6.14c0,1.45.58,2.17,1.75,2.17a2.44,2.44,0,0,0,2.48-1.39v-6.92h1.63V737h-1.55Z"/>
          <path class="cls-2" d="M273.72,725a1,1,0,0,1,.24-.67.91.91,0,0,1,.71-.27,1,1,0,0,1,.73.27,1,1,0,0,1,0,1.33,1,1,0,0,1-.73.26.94.94,0,0,1-.71-.26A1,1,0,0,1,273.72,725Zm1.75,12h-1.62v-9.51h1.62Z"/>
          <path class="cls-2" d="M277.68,732.17a5.56,5.56,0,0,1,1-3.52,3.26,3.26,0,0,1,2.71-1.33,3.3,3.3,0,0,1,2.65,1.14v-5h1.62V737h-1.49l-.08-1a3.29,3.29,0,0,1-2.71,1.2,3.24,3.24,0,0,1-2.7-1.36,5.65,5.65,0,0,1-1-3.53Zm1.63.18a4.25,4.25,0,0,0,.66,2.53,2.17,2.17,0,0,0,1.85.92,2.39,2.39,0,0,0,2.26-1.39V730a2.39,2.39,0,0,0-2.24-1.35,2.18,2.18,0,0,0-1.87.93A4.66,4.66,0,0,0,279.31,732.35Z"/>
          <path class="cls-2" d="M288.24,725a1,1,0,0,1,.24-.67,1.08,1.08,0,0,1,1.43,0,1,1,0,0,1,0,1.33,1.11,1.11,0,0,1-1.43,0A1,1,0,0,1,288.24,725ZM290,737h-1.62v-9.51H290Z"/>
          <path class="cls-2" d="M294.8,725.19v2.3h1.78v1.26H294.8v5.9a1.32,1.32,0,0,0,.24.86,1,1,0,0,0,.81.29,4.11,4.11,0,0,0,.77-.11V737a4.61,4.61,0,0,1-1.25.18,2,2,0,0,1-1.64-.66,2.84,2.84,0,0,1-.55-1.87v-5.9h-1.74v-1.26h1.74v-2.3Z"/>
          <path class="cls-2" d="M301.59,734.62l2.21-7.13h1.74l-3.82,11q-.89,2.37-2.82,2.37l-.31,0-.61-.12v-1.32l.44,0a2.13,2.13,0,0,0,1.29-.34,2.4,2.4,0,0,0,.76-1.22l.36-1-3.39-9.41h1.77Z"/>
        </g>
        <g>
          <path class="cls-16" d="M339.48,686V673.2h3.62a5.85,5.85,0,0,1,2.95.74,5,5,0,0,1,2,2.1,6.84,6.84,0,0,1,.71,3.13V680a6.79,6.79,0,0,1-.7,3.17,4.87,4.87,0,0,1-2,2.09,6.1,6.1,0,0,1-3,.75Zm1.69-11.42v10H343a3.84,3.84,0,0,0,3-1.21,5,5,0,0,0,1.09-3.46v-.75a5.07,5.07,0,0,0-1-3.39,3.65,3.65,0,0,0-2.9-1.23Z"/>
          <path class="cls-16" d="M356.9,686a3.59,3.59,0,0,1-.23-1,3.62,3.62,0,0,1-2.7,1.18,3.36,3.36,0,0,1-2.31-.8,2.57,2.57,0,0,1-.9-2,2.69,2.69,0,0,1,1.13-2.3,5.3,5.3,0,0,1,3.18-.82h1.58v-.75a1.83,1.83,0,0,0-.51-1.36,2,2,0,0,0-1.5-.51,2.39,2.39,0,0,0-1.46.44,1.29,1.29,0,0,0-.59,1.07H351a2.23,2.23,0,0,1,.51-1.38,3.49,3.49,0,0,1,1.37-1,4.58,4.58,0,0,1,1.9-.38,3.75,3.75,0,0,1,2.58.82,3,3,0,0,1,1,2.26v4.38a5.4,5.4,0,0,0,.34,2.08V686Zm-2.69-1.24a2.92,2.92,0,0,0,1.45-.39,2.51,2.51,0,0,0,1-1v-2h-1.28c-2,0-3,.58-3,1.75a1.47,1.47,0,0,0,.51,1.19A1.93,1.93,0,0,0,354.21,684.76Z"/>
          <path class="cls-16" d="M360.83,674a1,1,0,0,1,.24-.67,1.1,1.1,0,0,1,1.44,0,1,1,0,0,1,0,1.33,1.13,1.13,0,0,1-1.44,0A1,1,0,0,1,360.83,674Zm1.76,12H361v-9.51h1.63Z"/>
          <path class="cls-16" d="M367,686h-1.63V672.5H367Z"/>
          <path class="cls-16" d="M372.67,683.62l2.22-7.13h1.74l-3.83,11q-.89,2.37-2.82,2.37l-.31,0-.6-.12v-1.32l.44,0a2.07,2.07,0,0,0,1.28-.34,2.33,2.33,0,0,0,.76-1.22l.37-1-3.4-9.41h1.78Z"/>
        </g>
        <g>
          <path class="cls-16" d="M339.48,482V469.2h3.62a5.85,5.85,0,0,1,2.95.74,5,5,0,0,1,2,2.1,6.84,6.84,0,0,1,.71,3.13V476a6.79,6.79,0,0,1-.7,3.17,4.87,4.87,0,0,1-2,2.09,6.1,6.1,0,0,1-3,.75Zm1.69-11.42v10H343a3.84,3.84,0,0,0,3-1.21,5,5,0,0,0,1.09-3.46v-.75a5.07,5.07,0,0,0-1-3.39,3.65,3.65,0,0,0-2.9-1.23Z"/>
          <path class="cls-16" d="M356.9,482a3.59,3.59,0,0,1-.23-1,3.62,3.62,0,0,1-2.7,1.18,3.36,3.36,0,0,1-2.31-.8,2.57,2.57,0,0,1-.9-2,2.69,2.69,0,0,1,1.13-2.3,5.3,5.3,0,0,1,3.18-.82h1.58v-.75a1.83,1.83,0,0,0-.51-1.36,2,2,0,0,0-1.5-.51,2.39,2.39,0,0,0-1.46.44,1.29,1.29,0,0,0-.59,1.07H351a2.23,2.23,0,0,1,.51-1.38,3.49,3.49,0,0,1,1.37-1.05,4.58,4.58,0,0,1,1.9-.38,3.75,3.75,0,0,1,2.58.82,3,3,0,0,1,1,2.26v4.38a5.4,5.4,0,0,0,.34,2.08V482Zm-2.69-1.24a2.92,2.92,0,0,0,1.45-.39,2.51,2.51,0,0,0,1-1v-1.95h-1.28c-2,0-3,.58-3,1.75a1.47,1.47,0,0,0,.51,1.19A1.93,1.93,0,0,0,354.21,480.76Z"/>
          <path class="cls-16" d="M360.83,470a1,1,0,0,1,.24-.67,1.09,1.09,0,0,1,1.44,0,1,1,0,0,1,0,1.33,1.13,1.13,0,0,1-1.44,0A1,1,0,0,1,360.83,470Zm1.76,12H361v-9.51h1.63Z"/>
          <path class="cls-16" d="M367,482h-1.63V468.5H367Z"/>
          <path class="cls-16" d="M372.67,479.62l2.22-7.13h1.74l-3.83,11q-.89,2.37-2.82,2.37l-.31,0-.6-.12v-1.32l.44,0a2.07,2.07,0,0,0,1.28-.34,2.33,2.33,0,0,0,.76-1.22l.37-1-3.4-9.41h1.78Z"/>
        </g>
        <g>
          <path class="cls-2" d="M339.48,635V622.2h3.62a5.85,5.85,0,0,1,2.95.74,5,5,0,0,1,2,2.1,6.84,6.84,0,0,1,.71,3.13V629a6.79,6.79,0,0,1-.7,3.17,4.87,4.87,0,0,1-2,2.09,6.1,6.1,0,0,1-3,.75Zm1.69-11.42v10H343a3.84,3.84,0,0,0,3-1.21,5,5,0,0,0,1.09-3.46v-.75a5.07,5.07,0,0,0-1-3.39,3.65,3.65,0,0,0-2.9-1.23Z"/>
          <path class="cls-2" d="M356.9,635a3.59,3.59,0,0,1-.23-1,3.62,3.62,0,0,1-2.7,1.18,3.36,3.36,0,0,1-2.31-.8,2.57,2.57,0,0,1-.9-2,2.69,2.69,0,0,1,1.13-2.3,5.3,5.3,0,0,1,3.18-.82h1.58v-.75a1.83,1.83,0,0,0-.51-1.36,2,2,0,0,0-1.5-.51,2.39,2.39,0,0,0-1.46.44,1.29,1.29,0,0,0-.59,1.07H351a2.23,2.23,0,0,1,.51-1.38,3.49,3.49,0,0,1,1.37-1,4.58,4.58,0,0,1,1.9-.38,3.75,3.75,0,0,1,2.58.82,3,3,0,0,1,1,2.26v4.38a5.4,5.4,0,0,0,.34,2.08V635Zm-2.69-1.24a2.92,2.92,0,0,0,1.45-.39,2.51,2.51,0,0,0,1-1v-2h-1.28c-2,0-3,.58-3,1.75a1.47,1.47,0,0,0,.51,1.19A1.93,1.93,0,0,0,354.21,633.76Z"/>
          <path class="cls-2" d="M360.83,623a1,1,0,0,1,.24-.67,1.1,1.1,0,0,1,1.44,0,1,1,0,0,1,0,1.33,1.13,1.13,0,0,1-1.44,0A1,1,0,0,1,360.83,623Zm1.76,12H361v-9.51h1.63Z"/>
          <path class="cls-2" d="M367,635h-1.63V621.5H367Z"/>
          <path class="cls-2" d="M372.67,632.62l2.22-7.13h1.74l-3.83,11q-.89,2.37-2.82,2.37l-.31,0-.6-.12v-1.32l.44,0a2.07,2.07,0,0,0,1.28-.34,2.33,2.33,0,0,0,.76-1.22l.37-1-3.4-9.41h1.78Z"/>
        </g>
        <g>
          <path class="cls-16" d="M342.23,529l.25,1.68.36-1.52,2.53-8.93h1.42l2.47,8.93.35,1.55.28-1.72,2-8.76h1.7l-3.1,12.8h-1.54l-2.64-9.33-.2-1-.2,1L343.15,533h-1.53l-3.1-12.8h1.69Z"/>
          <path class="cls-16" d="M359.13,533.18a4.15,4.15,0,0,1-3.14-1.27,4.72,4.72,0,0,1-1.22-3.4v-.3a5.73,5.73,0,0,1,.54-2.53,4.28,4.28,0,0,1,1.51-1.74,3.81,3.81,0,0,1,2.11-.63,3.53,3.53,0,0,1,2.88,1.23,5.25,5.25,0,0,1,1,3.49v.68H356.4a3.36,3.36,0,0,0,.82,2.27,2.57,2.57,0,0,0,2,.87,2.89,2.89,0,0,0,1.46-.35,3.68,3.68,0,0,0,1-.93l1,.77A4,4,0,0,1,359.13,533.18Zm-.2-8.53a2.15,2.15,0,0,0-1.65.72,3.44,3.44,0,0,0-.83,2h4.76v-.12a3.07,3.07,0,0,0-.66-1.92A2.06,2.06,0,0,0,358.93,524.65Z"/>
          <path class="cls-16" d="M368.67,533.18a4.19,4.19,0,0,1-3.15-1.27,4.72,4.72,0,0,1-1.21-3.4v-.3a5.73,5.73,0,0,1,.54-2.53,4.21,4.21,0,0,1,1.51-1.74,3.81,3.81,0,0,1,2.11-.63,3.56,3.56,0,0,1,2.88,1.23,5.3,5.3,0,0,1,1,3.49v.68h-6.45a3.37,3.37,0,0,0,.83,2.27,2.57,2.57,0,0,0,2,.87,2.83,2.83,0,0,0,1.45-.35,3.86,3.86,0,0,0,1.05-.93l1,.77A4,4,0,0,1,368.67,533.18Zm-.2-8.53a2.18,2.18,0,0,0-1.66.72,3.43,3.43,0,0,0-.82,2h4.76v-.12a3.13,3.13,0,0,0-.67-1.92A2,2,0,0,0,368.47,524.65Z"/>
          <path class="cls-16" d="M376.91,528.6l-1,1.06V533h-1.62V519.5h1.62v8.16l.87-1,3-3.13h2l-3.7,4,4.13,5.54h-1.9Z"/>
          <path class="cls-16" d="M385.15,533h-1.63V519.5h1.63Z"/>
          <path class="cls-16" d="M390.86,530.62l2.22-7.13h1.74l-3.83,11q-.89,2.37-2.82,2.37l-.31,0-.6-.11v-1.32l.44,0a2.07,2.07,0,0,0,1.28-.34,2.4,2.4,0,0,0,.76-1.22l.36-1-3.39-9.4h1.78Z"/>
        </g>
        <g>
          <path class="cls-2" d="M342.23,579.92l.25,1.69.36-1.52,2.53-8.93h1.42l2.47,8.93.35,1.54.28-1.72,2-8.75h1.7L350.47,584h-1.54l-2.64-9.32-.2-1-.2,1L343.15,584h-1.53l-3.1-12.79h1.69Z"/>
          <path class="cls-2" d="M359.13,584.13a4.11,4.11,0,0,1-3.14-1.27,4.72,4.72,0,0,1-1.22-3.4v-.3a5.69,5.69,0,0,1,.54-2.52,4.28,4.28,0,0,1,1.51-1.74,3.81,3.81,0,0,1,2.11-.63,3.53,3.53,0,0,1,2.88,1.22,5.26,5.26,0,0,1,1,3.5v.67H356.4a3.41,3.41,0,0,0,.82,2.28,2.59,2.59,0,0,0,2,.86,2.89,2.89,0,0,0,1.46-.35,3.54,3.54,0,0,0,1-.93l1,.77A4,4,0,0,1,359.13,584.13Zm-.2-8.53a2.15,2.15,0,0,0-1.65.72,3.5,3.5,0,0,0-.83,2h4.76v-.13a3.07,3.07,0,0,0-.66-1.92A2.06,2.06,0,0,0,358.93,575.6Z"/>
          <path class="cls-2" d="M368.67,584.13a4.15,4.15,0,0,1-3.15-1.27,4.72,4.72,0,0,1-1.21-3.4v-.3a5.69,5.69,0,0,1,.54-2.52,4.21,4.21,0,0,1,1.51-1.74,3.81,3.81,0,0,1,2.11-.63,3.55,3.55,0,0,1,2.88,1.22,5.31,5.31,0,0,1,1,3.5v.67h-6.45a3.41,3.41,0,0,0,.83,2.28,2.59,2.59,0,0,0,2,.86,2.83,2.83,0,0,0,1.45-.35,3.7,3.7,0,0,0,1.05-.93l1,.77A4,4,0,0,1,368.67,584.13Zm-.2-8.53a2.18,2.18,0,0,0-1.66.72,3.49,3.49,0,0,0-.82,2h4.76v-.13a3.13,3.13,0,0,0-.67-1.92A2,2,0,0,0,368.47,575.6Z"/>
          <path class="cls-2" d="M376.91,579.55l-1,1.06V584h-1.62v-13.5h1.62v8.17l.87-1,3-3.13h2l-3.7,4,4.13,5.53h-1.9Z"/>
          <path class="cls-2" d="M385.15,584h-1.63v-13.5h1.63Z"/>
          <path class="cls-2" d="M390.86,581.57l2.22-7.13h1.74l-3.83,11q-.89,2.37-2.82,2.37l-.31,0-.6-.12v-1.32l.44,0A2.14,2.14,0,0,0,389,586a2.43,2.43,0,0,0,.76-1.23l.36-1-3.39-9.41h1.78Z"/>
        </g>
        <g>
          <path class="cls-16" d="M342.23,427l.25,1.68.36-1.52,2.53-8.93h1.42l2.47,8.93.35,1.55.28-1.72,2-8.76h1.7l-3.1,12.8h-1.54l-2.64-9.33-.2-1-.2,1L343.15,431h-1.53l-3.1-12.8h1.69Z"/>
          <path class="cls-16" d="M359.13,431.18a4.15,4.15,0,0,1-3.14-1.27,4.72,4.72,0,0,1-1.22-3.4v-.3a5.73,5.73,0,0,1,.54-2.53,4.28,4.28,0,0,1,1.51-1.74,3.81,3.81,0,0,1,2.11-.63,3.53,3.53,0,0,1,2.88,1.23,5.25,5.25,0,0,1,1,3.49v.68H356.4a3.36,3.36,0,0,0,.82,2.27,2.57,2.57,0,0,0,2,.87,2.89,2.89,0,0,0,1.46-.35,3.68,3.68,0,0,0,1-.93l1,.77A4,4,0,0,1,359.13,431.18Zm-.2-8.53a2.15,2.15,0,0,0-1.65.72,3.44,3.44,0,0,0-.83,2h4.76v-.12a3.07,3.07,0,0,0-.66-1.92A2.06,2.06,0,0,0,358.93,422.65Z"/>
          <path class="cls-16" d="M368.67,431.18a4.19,4.19,0,0,1-3.15-1.27,4.72,4.72,0,0,1-1.21-3.4v-.3a5.73,5.73,0,0,1,.54-2.53,4.21,4.21,0,0,1,1.51-1.74,3.81,3.81,0,0,1,2.11-.63,3.56,3.56,0,0,1,2.88,1.23,5.3,5.3,0,0,1,1,3.49v.68h-6.45a3.37,3.37,0,0,0,.83,2.27,2.57,2.57,0,0,0,2,.87,2.83,2.83,0,0,0,1.45-.35,3.86,3.86,0,0,0,1.05-.93l1,.77A4,4,0,0,1,368.67,431.18Zm-.2-8.53a2.18,2.18,0,0,0-1.66.72,3.43,3.43,0,0,0-.82,2h4.76v-.12a3.13,3.13,0,0,0-.67-1.92A2,2,0,0,0,368.47,422.65Z"/>
          <path class="cls-16" d="M376.91,426.6l-1,1.06V431h-1.62V417.5h1.62v8.16l.87-1,3-3.13h2l-3.7,4,4.13,5.54h-1.9Z"/>
          <path class="cls-16" d="M385.15,431h-1.63V417.5h1.63Z"/>
          <path class="cls-16" d="M390.86,428.62l2.22-7.13h1.74l-3.83,11q-.89,2.37-2.82,2.37l-.31,0-.6-.11v-1.32l.44,0a2.07,2.07,0,0,0,1.28-.34,2.4,2.4,0,0,0,.76-1.22l.36-1-3.39-9.4h1.78Z"/>
        </g>
        <g>
          <path class="cls-16" d="M342.23,223l.25,1.68.36-1.52,2.53-8.93h1.42l2.47,8.93.35,1.55.28-1.72,2-8.76h1.7l-3.1,12.8h-1.54l-2.64-9.33-.2-1-.2,1L343.15,227h-1.53l-3.1-12.8h1.69Z"/>
          <path class="cls-16" d="M359.13,227.18a4.15,4.15,0,0,1-3.14-1.27,4.72,4.72,0,0,1-1.22-3.4v-.3a5.73,5.73,0,0,1,.54-2.53,4.28,4.28,0,0,1,1.51-1.74,3.81,3.81,0,0,1,2.11-.63,3.53,3.53,0,0,1,2.88,1.23,5.25,5.25,0,0,1,1,3.49v.68H356.4a3.36,3.36,0,0,0,.82,2.27,2.57,2.57,0,0,0,2,.87,2.89,2.89,0,0,0,1.46-.35,3.68,3.68,0,0,0,1-.93l1,.77A4,4,0,0,1,359.13,227.18Zm-.2-8.53a2.15,2.15,0,0,0-1.65.72,3.44,3.44,0,0,0-.83,2h4.76v-.12a3.07,3.07,0,0,0-.66-1.92A2.06,2.06,0,0,0,358.93,218.65Z"/>
          <path class="cls-16" d="M368.67,227.18a4.19,4.19,0,0,1-3.15-1.27,4.72,4.72,0,0,1-1.21-3.4v-.3a5.73,5.73,0,0,1,.54-2.53,4.21,4.21,0,0,1,1.51-1.74,3.81,3.81,0,0,1,2.11-.63,3.56,3.56,0,0,1,2.88,1.23,5.3,5.3,0,0,1,1,3.49v.68h-6.45a3.37,3.37,0,0,0,.83,2.27,2.57,2.57,0,0,0,2,.87,2.83,2.83,0,0,0,1.45-.35,3.86,3.86,0,0,0,1.05-.93l1,.77A4,4,0,0,1,368.67,227.18Zm-.2-8.53a2.18,2.18,0,0,0-1.66.72,3.43,3.43,0,0,0-.82,2h4.76v-.12a3.13,3.13,0,0,0-.67-1.92A2,2,0,0,0,368.47,218.65Z"/>
          <path class="cls-16" d="M376.91,222.6l-1,1.06V227h-1.62V213.5h1.62v8.16l.87-1,3-3.13h2l-3.7,4,4.13,5.54h-1.9Z"/>
          <path class="cls-16" d="M385.15,227h-1.63V213.5h1.63Z"/>
          <path class="cls-16" d="M390.86,224.62l2.22-7.13h1.74l-3.83,11q-.89,2.37-2.82,2.37l-.31,0-.6-.11v-1.32l.44,0a2.07,2.07,0,0,0,1.28-.34,2.4,2.4,0,0,0,.76-1.22l.36-1-3.39-9.4h1.78Z"/>
        </g>
        <g>
          <path class="cls-16" d="M342.23,172l.25,1.68.36-1.52,2.53-8.93h1.42l2.47,8.93.35,1.55.28-1.72,2-8.76h1.7l-3.1,12.8h-1.54l-2.64-9.33-.2-1-.2,1L343.15,176h-1.53l-3.1-12.8h1.69Z"/>
          <path class="cls-16" d="M359.13,176.18a4.15,4.15,0,0,1-3.14-1.27,4.72,4.72,0,0,1-1.22-3.4v-.3a5.73,5.73,0,0,1,.54-2.53,4.28,4.28,0,0,1,1.51-1.74,3.81,3.81,0,0,1,2.11-.63,3.53,3.53,0,0,1,2.88,1.23,5.25,5.25,0,0,1,1,3.49v.68H356.4a3.36,3.36,0,0,0,.82,2.27,2.57,2.57,0,0,0,2,.87,2.89,2.89,0,0,0,1.46-.35,3.68,3.68,0,0,0,1-.93l1,.77A4,4,0,0,1,359.13,176.18Zm-.2-8.53a2.15,2.15,0,0,0-1.65.72,3.44,3.44,0,0,0-.83,2h4.76v-.12a3.07,3.07,0,0,0-.66-1.92A2.06,2.06,0,0,0,358.93,167.65Z"/>
          <path class="cls-16" d="M368.67,176.18a4.19,4.19,0,0,1-3.15-1.27,4.72,4.72,0,0,1-1.21-3.4v-.3a5.73,5.73,0,0,1,.54-2.53,4.21,4.21,0,0,1,1.51-1.74,3.81,3.81,0,0,1,2.11-.63,3.56,3.56,0,0,1,2.88,1.23,5.3,5.3,0,0,1,1,3.49v.68h-6.45a3.37,3.37,0,0,0,.83,2.27,2.57,2.57,0,0,0,2,.87,2.83,2.83,0,0,0,1.45-.35,3.86,3.86,0,0,0,1.05-.93l1,.77A4,4,0,0,1,368.67,176.18Zm-.2-8.53a2.18,2.18,0,0,0-1.66.72,3.43,3.43,0,0,0-.82,2h4.76v-.12a3.13,3.13,0,0,0-.67-1.92A2,2,0,0,0,368.47,167.65Z"/>
          <path class="cls-16" d="M376.91,171.6l-1,1.06V176h-1.62V162.5h1.62v8.16l.87-1,3-3.13h2l-3.7,4,4.13,5.54h-1.9Z"/>
          <path class="cls-16" d="M385.15,176h-1.63V162.5h1.63Z"/>
          <path class="cls-16" d="M390.86,173.62l2.22-7.13h1.74l-3.83,11q-.89,2.37-2.82,2.37l-.31,0-.6-.11v-1.32l.44,0a2.07,2.07,0,0,0,1.28-.34,2.4,2.4,0,0,0,.76-1.22l.36-1-3.39-9.4h1.78Z"/>
        </g>
        <g>
          <path class="cls-16" d="M99.74,41H91.35V39.83l4.43-4.92a10.47,10.47,0,0,0,1.36-1.82,3,3,0,0,0,.37-1.44,2.33,2.33,0,0,0-.6-1.65,2.17,2.17,0,0,0-1.62-.64,2.52,2.52,0,0,0-1.89.69A2.67,2.67,0,0,0,92.73,32H91.11a3.75,3.75,0,0,1,1.13-2.85A4.22,4.22,0,0,1,95.29,28a4.06,4.06,0,0,1,2.82.93,3.22,3.22,0,0,1,1,2.49c0,1.26-.81,2.76-2.41,4.5l-3.43,3.72h6.43Z"/>
          <path class="cls-16" d="M109.48,35.54a7.46,7.46,0,0,1-1,4.25,4,4,0,0,1-6.08,0,7,7,0,0,1-1-4.06V33.59a7.26,7.26,0,0,1,1-4.19A3.48,3.48,0,0,1,105.44,28a3.53,3.53,0,0,1,3,1.32,7,7,0,0,1,1,4.08Zm-1.62-2.22a6,6,0,0,0-.58-3,2,2,0,0,0-1.84-.95,2,2,0,0,0-1.82.94,5.81,5.81,0,0,0-.59,2.89V35.8a6.07,6.07,0,0,0,.6,3.06,2,2,0,0,0,1.83,1,2,2,0,0,0,1.79-.93,5.86,5.86,0,0,0,.61-2.94Z"/>
          <path class="cls-16" d="M120,41h-8.38V39.83L116,34.91a10.85,10.85,0,0,0,1.35-1.82,3,3,0,0,0,.38-1.44,2.29,2.29,0,0,0-.61-1.65,2.14,2.14,0,0,0-1.62-.64,2.51,2.51,0,0,0-1.88.69A2.63,2.63,0,0,0,113,32h-1.63a3.76,3.76,0,0,1,1.14-2.85,4.2,4.2,0,0,1,3-1.09,4.11,4.11,0,0,1,2.83.93,3.21,3.21,0,0,1,1,2.49q0,1.89-2.41,4.5l-3.42,3.72H120Z"/>
          <path class="cls-16" d="M127,41h-1.64V30.16l-3.28,1.21V29.89l4.66-1.75H127Z"/>
        </g>
        <g>
          <path class="cls-16" d="M62.88,107.86A10.21,10.21,0,0,1,62.1,112,7.07,7.07,0,0,1,60,114.84l2.83,2.23-2.24,2-3.63-2.92a7.67,7.67,0,0,1-1.29.1,7.09,7.09,0,0,1-3.78-1,6.78,6.78,0,0,1-2.58-2.91,10,10,0,0,1-.93-4.35v-.84a10.35,10.35,0,0,1,.91-4.44,6.73,6.73,0,0,1,2.57-2.94,7.49,7.49,0,0,1,7.58,0A6.73,6.73,0,0,1,62,102.67a10.29,10.29,0,0,1,.91,4.42Zm-3.57-.78a7.19,7.19,0,0,0-1-4.08,3.39,3.39,0,0,0-5.47,0,7,7,0,0,0-1,4v.84a7.26,7.26,0,0,0,1,4,3.12,3.12,0,0,0,2.76,1.44A3.09,3.09,0,0,0,58.35,112a7.25,7.25,0,0,0,1-4Z"/>
          <path class="cls-16" d="M68.54,106h1.8a2.54,2.54,0,0,0,1.91-.65,2.38,2.38,0,0,0,.62-1.71,2.08,2.08,0,0,0-.61-1.6,2.37,2.37,0,0,0-1.7-.58,2.48,2.48,0,0,0-1.63.54,1.7,1.7,0,0,0-.65,1.39H64.89a4.16,4.16,0,0,1,.72-2.4,4.77,4.77,0,0,1,2-1.66,6.68,6.68,0,0,1,2.85-.6,6.32,6.32,0,0,1,4.24,1.3,4.39,4.39,0,0,1,1.54,3.57,3.54,3.54,0,0,1-.72,2.15,4.56,4.56,0,0,1-1.87,1.51,4,4,0,0,1,2.86,4,4.5,4.5,0,0,1-1.66,3.64,6.65,6.65,0,0,1-4.39,1.37,6.37,6.37,0,0,1-4.18-1.34,4.42,4.42,0,0,1-1.62-3.57h3.39a2,2,0,0,0,.72,1.57,2.63,2.63,0,0,0,1.77.61,2.67,2.67,0,0,0,1.9-.64,2.21,2.21,0,0,0,.68-1.69c0-1.7-.94-2.55-2.81-2.55H68.54Z"/>
        </g>
        <g>
          <path class="cls-16" d="M163.85,107.86a10.38,10.38,0,0,1-.77,4.15,7.09,7.09,0,0,1-2.15,2.83l2.84,2.23-2.24,2-3.63-2.92a7.84,7.84,0,0,1-1.29.1,7.12,7.12,0,0,1-3.79-1,6.76,6.76,0,0,1-2.57-2.91,10,10,0,0,1-.93-4.35v-.84a10.21,10.21,0,0,1,.91-4.44,6.71,6.71,0,0,1,2.56-2.94,7.51,7.51,0,0,1,7.59,0,6.71,6.71,0,0,1,2.56,2.94,10.15,10.15,0,0,1,.91,4.42Zm-3.56-.78a7.19,7.19,0,0,0-1-4.08,3.39,3.39,0,0,0-5.47,0,7,7,0,0,0-1,4v.84a7.26,7.26,0,0,0,1,4,3.13,3.13,0,0,0,2.77,1.44,3.09,3.09,0,0,0,2.72-1.39,7.25,7.25,0,0,0,1-4Z"/>
          <path class="cls-16" d="M176.09,109.58H178v2.73h-1.93V116H172.7v-3.69h-7l-.15-2.13,7.11-11.24h3.43Zm-7.16,0h3.77v-6l-.22.39Z"/>
        </g>
        <g>
          <path class="cls-16" d="M466.85,107.86a10.21,10.21,0,0,1-.77,4.15,7.16,7.16,0,0,1-2.14,2.83l2.83,2.23-2.24,2-3.63-2.92a7.67,7.67,0,0,1-1.29.1,7.09,7.09,0,0,1-3.78-1,6.78,6.78,0,0,1-2.58-2.91,10,10,0,0,1-.93-4.35v-.84a10.21,10.21,0,0,1,.91-4.44,6.73,6.73,0,0,1,2.57-2.94,7.49,7.49,0,0,1,7.58,0,6.71,6.71,0,0,1,2.56,2.94,10.15,10.15,0,0,1,.91,4.42Zm-3.56-.78a7.19,7.19,0,0,0-1-4.08,3.39,3.39,0,0,0-5.47,0,7.08,7.08,0,0,0-1,4v.84a7.18,7.18,0,0,0,1,4,3.12,3.12,0,0,0,2.76,1.44,3.09,3.09,0,0,0,2.72-1.39,7.25,7.25,0,0,0,1-4Z"/>
          <path class="cls-16" d="M472.51,106h1.81a2.55,2.55,0,0,0,1.91-.65,2.38,2.38,0,0,0,.62-1.71,2.09,2.09,0,0,0-.62-1.6,2.34,2.34,0,0,0-1.69-.58,2.48,2.48,0,0,0-1.63.54,1.68,1.68,0,0,0-.65,1.39h-3.39a4.16,4.16,0,0,1,.72-2.4,4.8,4.8,0,0,1,2-1.66,6.75,6.75,0,0,1,2.86-.6,6.34,6.34,0,0,1,4.24,1.3,4.42,4.42,0,0,1,1.54,3.57,3.54,3.54,0,0,1-.72,2.15,4.63,4.63,0,0,1-1.87,1.51,4.3,4.3,0,0,1,2.15,1.55,4.22,4.22,0,0,1,.71,2.44,4.5,4.5,0,0,1-1.66,3.64,6.65,6.65,0,0,1-4.39,1.37,6.37,6.37,0,0,1-4.18-1.34,4.42,4.42,0,0,1-1.62-3.57H472a1.93,1.93,0,0,0,.73,1.57,3,3,0,0,0,3.66,0,2.19,2.19,0,0,0,.69-1.69c0-1.7-.94-2.55-2.81-2.55h-1.8Z"/>
        </g>
        <g>
          <path class="cls-16" d="M567.83,107.86a10.38,10.38,0,0,1-.77,4.15,7.09,7.09,0,0,1-2.15,2.83l2.84,2.23-2.24,2-3.63-2.92a7.84,7.84,0,0,1-1.29.1,7.1,7.1,0,0,1-3.79-1,6.78,6.78,0,0,1-2.58-2.91,10,10,0,0,1-.92-4.35v-.84a10.21,10.21,0,0,1,.91-4.44,6.71,6.71,0,0,1,2.56-2.94,7.49,7.49,0,0,1,7.58,0,6.67,6.67,0,0,1,2.57,2.94,10.15,10.15,0,0,1,.91,4.42Zm-3.56-.78a7.19,7.19,0,0,0-1-4.08,3.4,3.4,0,0,0-5.48,0,7.09,7.09,0,0,0-1,4v.84a7.26,7.26,0,0,0,1,4,3.37,3.37,0,0,0,5.49,0,7.25,7.25,0,0,0,1-4Z"/>
          <path class="cls-16" d="M580.06,109.58H582v2.73h-1.94V116h-3.38v-3.69h-7l-.15-2.13,7.11-11.24h3.42Zm-7.16,0h3.78v-6l-.23.39Z"/>
        </g>
        <g>
          <path class="cls-16" d="M264.85,107.86a10.38,10.38,0,0,1-.77,4.15,7.09,7.09,0,0,1-2.15,2.83l2.84,2.23-2.24,2-3.63-2.92a7.84,7.84,0,0,1-1.29.1,7.12,7.12,0,0,1-3.79-1,6.76,6.76,0,0,1-2.57-2.91,10,10,0,0,1-.93-4.35v-.84a10.21,10.21,0,0,1,.91-4.44,6.71,6.71,0,0,1,2.56-2.94,7.51,7.51,0,0,1,7.59,0,6.71,6.71,0,0,1,2.56,2.94,10.15,10.15,0,0,1,.91,4.42Zm-3.56-.78a7.19,7.19,0,0,0-1-4.08,3.39,3.39,0,0,0-5.47,0,7,7,0,0,0-1,4v.84a7.26,7.26,0,0,0,1,4,3.13,3.13,0,0,0,2.77,1.44,3.09,3.09,0,0,0,2.72-1.39,7.25,7.25,0,0,0,1-4Z"/>
          <path class="cls-16" d="M275.29,116h-3.38V102.94l-4.05,1.26v-2.76l7.07-2.53h.36Z"/>
        </g>
        <g>
          <path class="cls-16" d="M365.85,107.86a10.38,10.38,0,0,1-.77,4.15,7.09,7.09,0,0,1-2.15,2.83l2.84,2.23-2.24,2-3.63-2.92a7.84,7.84,0,0,1-1.29.1,7.12,7.12,0,0,1-3.79-1,6.76,6.76,0,0,1-2.57-2.91,10,10,0,0,1-.93-4.35v-.84a10.21,10.21,0,0,1,.91-4.44,6.71,6.71,0,0,1,2.56-2.94,7.51,7.51,0,0,1,7.59,0,6.71,6.71,0,0,1,2.56,2.94,10.15,10.15,0,0,1,.91,4.42Zm-3.56-.78a7.19,7.19,0,0,0-1-4.08,3.39,3.39,0,0,0-5.47,0,7,7,0,0,0-1,4v.84a7.26,7.26,0,0,0,1,4,3.13,3.13,0,0,0,2.77,1.44,3.09,3.09,0,0,0,2.72-1.39,7.25,7.25,0,0,0,1-4Z"/>
          <path class="cls-16" d="M379.76,116H368.07v-2.32l5.52-5.88a14.46,14.46,0,0,0,1.68-2.17,3.51,3.51,0,0,0,.54-1.76,2.63,2.63,0,0,0-.57-1.79,2.08,2.08,0,0,0-1.64-.65,2.25,2.25,0,0,0-1.81.79,3.14,3.14,0,0,0-.66,2.08h-3.4a5.55,5.55,0,0,1,.74-2.84,5.24,5.24,0,0,1,2.1-2,6.42,6.42,0,0,1,3.09-.74,6,6,0,0,1,4.09,1.27,4.47,4.47,0,0,1,1.46,3.57,5.68,5.68,0,0,1-.66,2.58,13.62,13.62,0,0,1-2.25,3.06l-3.87,4.09h7.33Z"/>
        </g>
        <g>
          <path class="cls-16" d="M870.86,107.86a10.38,10.38,0,0,1-.77,4.15,7.09,7.09,0,0,1-2.15,2.83l2.84,2.23-2.24,2-3.63-2.92a7.84,7.84,0,0,1-1.29.1,7.1,7.1,0,0,1-3.79-1,6.78,6.78,0,0,1-2.58-2.91,10.15,10.15,0,0,1-.92-4.35v-.84a10.21,10.21,0,0,1,.91-4.44,6.71,6.71,0,0,1,2.56-2.94,7.51,7.51,0,0,1,7.59,0,6.71,6.71,0,0,1,2.56,2.94,10.15,10.15,0,0,1,.91,4.42Zm-3.56-.78a7.19,7.19,0,0,0-1-4.08,3.4,3.4,0,0,0-5.48,0,7.09,7.09,0,0,0-1,4v.84a7.26,7.26,0,0,0,1,4,3.13,3.13,0,0,0,2.77,1.44,3.1,3.1,0,0,0,2.72-1.39,7.25,7.25,0,0,0,1-4Z"/>
          <path class="cls-16" d="M876.52,106h1.81a2.57,2.57,0,0,0,1.91-.65,2.38,2.38,0,0,0,.62-1.71,2.09,2.09,0,0,0-.62-1.6,2.34,2.34,0,0,0-1.69-.58,2.48,2.48,0,0,0-1.63.54,1.68,1.68,0,0,0-.66,1.39h-3.38a4.16,4.16,0,0,1,.72-2.4,4.8,4.8,0,0,1,2-1.66,6.75,6.75,0,0,1,2.86-.6,6.36,6.36,0,0,1,4.24,1.3,4.42,4.42,0,0,1,1.53,3.57,3.6,3.6,0,0,1-.71,2.15,4.59,4.59,0,0,1-1.88,1.51,4.26,4.26,0,0,1,2.15,1.55,4.15,4.15,0,0,1,.71,2.44,4.47,4.47,0,0,1-1.66,3.64,6.6,6.6,0,0,1-4.38,1.37,6.35,6.35,0,0,1-4.18-1.34,4.42,4.42,0,0,1-1.62-3.57h3.38a2,2,0,0,0,.72,1.57,3,3,0,0,0,3.67,0,2.19,2.19,0,0,0,.69-1.69q0-2.55-2.82-2.55h-1.79Z"/>
        </g>
        <g>
          <path class="cls-16" d="M971.84,107.86a10.21,10.21,0,0,1-.78,4.15,7.07,7.07,0,0,1-2.14,2.83l2.83,2.23-2.23,2-3.64-2.92a7.67,7.67,0,0,1-1.29.1,7.09,7.09,0,0,1-3.78-1,6.78,6.78,0,0,1-2.58-2.91,9.87,9.87,0,0,1-.92-4.35v-.84a10.35,10.35,0,0,1,.9-4.44,6.73,6.73,0,0,1,2.57-2.94,7.49,7.49,0,0,1,7.58,0,6.73,6.73,0,0,1,2.57,2.94,10.29,10.29,0,0,1,.91,4.42Zm-3.57-.78a7.19,7.19,0,0,0-1-4.08,3.39,3.39,0,0,0-5.47,0,7.09,7.09,0,0,0-1,4v.84a7.26,7.26,0,0,0,1,4,3.12,3.12,0,0,0,2.76,1.44,3.09,3.09,0,0,0,2.72-1.39,7.08,7.08,0,0,0,1-4Z"/>
          <path class="cls-16" d="M984.07,109.58H986v2.73h-1.93V116h-3.39v-3.69h-7l-.15-2.13,7.11-11.24h3.42Zm-7.16,0h3.77v-6l-.22.39Z"/>
        </g>
        <g>
          <path class="cls-16" d="M668.86,107.86a10.38,10.38,0,0,1-.77,4.15,7.09,7.09,0,0,1-2.15,2.83l2.84,2.23-2.24,2-3.63-2.92a7.84,7.84,0,0,1-1.29.1,7.1,7.1,0,0,1-3.79-1,6.78,6.78,0,0,1-2.58-2.91,10,10,0,0,1-.92-4.35v-.84a10.21,10.21,0,0,1,.91-4.44,6.71,6.71,0,0,1,2.56-2.94,7.49,7.49,0,0,1,7.58,0,6.67,6.67,0,0,1,2.57,2.94,10.15,10.15,0,0,1,.91,4.42Zm-3.56-.78a7.19,7.19,0,0,0-1-4.08,3.4,3.4,0,0,0-5.48,0,7.09,7.09,0,0,0-1,4v.84a7.26,7.26,0,0,0,1,4,3.37,3.37,0,0,0,5.49,0,7.25,7.25,0,0,0,1-4Z"/>
          <path class="cls-16" d="M679.3,116h-3.39V102.94l-4,1.26v-2.76l7.07-2.53h.36Z"/>
        </g>
        <g>
          <path class="cls-16" d="M769.86,107.86a10.38,10.38,0,0,1-.77,4.15,7.09,7.09,0,0,1-2.15,2.83l2.84,2.23-2.24,2-3.63-2.92a7.84,7.84,0,0,1-1.29.1,7.1,7.1,0,0,1-3.79-1,6.78,6.78,0,0,1-2.58-2.91,10,10,0,0,1-.92-4.35v-.84a10.21,10.21,0,0,1,.91-4.44,6.71,6.71,0,0,1,2.56-2.94,7.49,7.49,0,0,1,7.58,0,6.67,6.67,0,0,1,2.57,2.94,10.15,10.15,0,0,1,.91,4.42Zm-3.56-.78a7.19,7.19,0,0,0-1-4.08,3.4,3.4,0,0,0-5.48,0,7.09,7.09,0,0,0-1,4v.84a7.26,7.26,0,0,0,1,4,3.37,3.37,0,0,0,5.49,0,7.25,7.25,0,0,0,1-4Z"/>
          <path class="cls-16" d="M783.77,116h-11.7v-2.32l5.52-5.88a14,14,0,0,0,1.69-2.17,3.51,3.51,0,0,0,.54-1.76,2.63,2.63,0,0,0-.57-1.79,2.09,2.09,0,0,0-1.64-.65,2.28,2.28,0,0,0-1.82.79,3.14,3.14,0,0,0-.66,2.08h-3.4a5.56,5.56,0,0,1,.75-2.84,5.18,5.18,0,0,1,2.1-2,6.4,6.4,0,0,1,3.08-.74,6,6,0,0,1,4.1,1.27,4.47,4.47,0,0,1,1.46,3.57,5.68,5.68,0,0,1-.66,2.58,13.62,13.62,0,0,1-2.25,3.06l-3.88,4.09h7.34Z"/>
        </g>
        <g>
          <path class="cls-16" d="M402.73,41h-8.39V39.83l4.43-4.92a10.47,10.47,0,0,0,1.36-1.82,3,3,0,0,0,.37-1.44,2.33,2.33,0,0,0-.6-1.65,2.17,2.17,0,0,0-1.62-.64,2.52,2.52,0,0,0-1.89.69,2.67,2.67,0,0,0-.67,1.92H394.1a3.79,3.79,0,0,1,1.13-2.85,4.22,4.22,0,0,1,3-1.09,4.06,4.06,0,0,1,2.82.93,3.22,3.22,0,0,1,1,2.49q0,1.89-2.41,4.5l-3.43,3.72h6.43Z"/>
          <path class="cls-16" d="M412.47,35.54a7.46,7.46,0,0,1-1,4.25,4,4,0,0,1-6.08,0,7,7,0,0,1-1-4.06V33.59a7.26,7.26,0,0,1,1-4.19A3.48,3.48,0,0,1,408.43,28a3.53,3.53,0,0,1,3,1.32,7,7,0,0,1,1,4.08Zm-1.62-2.22a6,6,0,0,0-.58-3,2,2,0,0,0-1.84-.95,2,2,0,0,0-1.82.94,5.81,5.81,0,0,0-.59,2.89V35.8a6,6,0,0,0,.61,3.06,2.18,2.18,0,0,0,3.61.06,5.86,5.86,0,0,0,.61-2.94Z"/>
          <path class="cls-16" d="M422.94,41h-8.38V39.83L419,34.91a10.31,10.31,0,0,0,1.35-1.82,3,3,0,0,0,.38-1.44,2.29,2.29,0,0,0-.61-1.65,2.14,2.14,0,0,0-1.62-.64,2.51,2.51,0,0,0-1.88.69,2.63,2.63,0,0,0-.67,1.92h-1.63a3.76,3.76,0,0,1,1.14-2.85,4.2,4.2,0,0,1,3-1.09,4.11,4.11,0,0,1,2.83.93,3.21,3.21,0,0,1,1,2.49q0,1.89-2.41,4.5l-3.42,3.72h6.42Z"/>
          <path class="cls-16" d="M433.05,41h-8.39V39.83l4.43-4.92a10.47,10.47,0,0,0,1.36-1.82,3,3,0,0,0,.38-1.44,2.33,2.33,0,0,0-.61-1.65,2.15,2.15,0,0,0-1.62-.64,2.5,2.5,0,0,0-1.88.69A2.63,2.63,0,0,0,426,32h-1.62a3.76,3.76,0,0,1,1.14-2.85,4.2,4.2,0,0,1,3-1.09,4.06,4.06,0,0,1,2.82.93,3.22,3.22,0,0,1,1,2.49q0,1.89-2.41,4.5l-3.43,3.72h6.43Z"/>
        </g>
        <g>
          <path class="cls-16" d="M808.74,41h-8.39V39.83l4.43-4.92a10.47,10.47,0,0,0,1.36-1.82,3,3,0,0,0,.37-1.44,2.33,2.33,0,0,0-.6-1.65,2.17,2.17,0,0,0-1.62-.64,2.48,2.48,0,0,0-1.88.69,2.63,2.63,0,0,0-.68,1.92h-1.62a3.76,3.76,0,0,1,1.14-2.85,4.18,4.18,0,0,1,3-1.09,4.06,4.06,0,0,1,2.82.93,3.22,3.22,0,0,1,1,2.49q0,1.89-2.41,4.5l-3.43,3.72h6.43Z"/>
          <path class="cls-16" d="M818.49,35.54a7.45,7.45,0,0,1-1,4.25,4,4,0,0,1-6.08,0,7,7,0,0,1-1-4.06V33.59a7.26,7.26,0,0,1,1-4.19A3.48,3.48,0,0,1,814.44,28a3.53,3.53,0,0,1,3,1.32,7,7,0,0,1,1,4.08Zm-1.63-2.22a5.91,5.91,0,0,0-.58-3,2,2,0,0,0-1.84-.95,2,2,0,0,0-1.82.94,5.92,5.92,0,0,0-.59,2.89V35.8a6,6,0,0,0,.61,3.06,2.18,2.18,0,0,0,3.61.06,5.86,5.86,0,0,0,.61-2.94Z"/>
          <path class="cls-16" d="M829,41h-8.38V39.83L825,34.91a11,11,0,0,0,1.36-1.82,3.08,3.08,0,0,0,.37-1.44,2.29,2.29,0,0,0-.61-1.65,2.13,2.13,0,0,0-1.61-.64,2.52,2.52,0,0,0-1.89.69A2.63,2.63,0,0,0,822,32h-1.63a3.76,3.76,0,0,1,1.14-2.85,4.2,4.2,0,0,1,3-1.09,4.06,4.06,0,0,1,2.82.93,3.21,3.21,0,0,1,1,2.49q0,1.89-2.4,4.5l-3.43,3.72H829Z"/>
          <path class="cls-16" d="M833,33.81h1.22a2.64,2.64,0,0,0,1.81-.61,2,2,0,0,0,.66-1.59,2,2,0,0,0-2.24-2.25,2.33,2.33,0,0,0-1.68.6,2.13,2.13,0,0,0-.63,1.6h-1.63A3.28,3.28,0,0,1,831.66,29a4.08,4.08,0,0,1,2.83-1,4,4,0,0,1,2.84,1,3.46,3.46,0,0,1,1,2.66,2.85,2.85,0,0,1-.54,1.62,3.18,3.18,0,0,1-1.48,1.16A3.18,3.18,0,0,1,838,35.54a3.06,3.06,0,0,1,.58,1.89,3.47,3.47,0,0,1-1.12,2.73,4.2,4.2,0,0,1-2.93,1,4.32,4.32,0,0,1-2.93-1,3.22,3.22,0,0,1-1.13-2.58h1.63a2.08,2.08,0,0,0,.66,1.62,2.9,2.9,0,0,0,3.57,0,2.35,2.35,0,0,0,.62-1.76,2.15,2.15,0,0,0-.68-1.72,3,3,0,0,0-2-.61H833Z"/>
        </g>
        <g>
          <path class="cls-2" d="M342.25,274l.25,1.68.36-1.52,2.53-8.93h1.42l2.47,8.93.35,1.55.28-1.72,2-8.76h1.7l-3.1,12.8H349l-2.64-9.33-.2-1-.2,1L343.17,278h-1.54l-3.09-12.8h1.69Z"/>
          <path class="cls-2" d="M359.15,278.18a4.19,4.19,0,0,1-3.15-1.27,4.76,4.76,0,0,1-1.21-3.4v-.3a5.73,5.73,0,0,1,.54-2.53,4.28,4.28,0,0,1,1.51-1.74,3.81,3.81,0,0,1,2.11-.63,3.53,3.53,0,0,1,2.88,1.23,5.25,5.25,0,0,1,1,3.49v.68h-6.44a3.36,3.36,0,0,0,.82,2.27,2.57,2.57,0,0,0,2,.87,2.89,2.89,0,0,0,1.46-.35,3.68,3.68,0,0,0,1-.93l1,.77A4,4,0,0,1,359.15,278.18Zm-.2-8.53a2.15,2.15,0,0,0-1.65.72,3.44,3.44,0,0,0-.83,2h4.76v-.12a3.13,3.13,0,0,0-.66-1.92A2.06,2.06,0,0,0,359,269.65Z"/>
          <path class="cls-2" d="M368.69,278.18a4.19,4.19,0,0,1-3.15-1.27,4.72,4.72,0,0,1-1.21-3.4v-.3a5.73,5.73,0,0,1,.54-2.53,4.21,4.21,0,0,1,1.51-1.74,3.81,3.81,0,0,1,2.11-.63,3.56,3.56,0,0,1,2.88,1.23,5.3,5.3,0,0,1,1,3.49v.68H366a3.37,3.37,0,0,0,.83,2.27,2.57,2.57,0,0,0,2,.87,2.83,2.83,0,0,0,1.45-.35,3.86,3.86,0,0,0,1-.93l1,.77A4,4,0,0,1,368.69,278.18Zm-.2-8.53a2.18,2.18,0,0,0-1.66.72,3.43,3.43,0,0,0-.82,2h4.76v-.12a3.13,3.13,0,0,0-.67-1.92A2,2,0,0,0,368.49,269.65Z"/>
          <path class="cls-2" d="M376.93,273.6l-1,1.06V278h-1.62V264.5h1.62v8.16l.87-1,3-3.13h2l-3.7,4,4.13,5.54h-1.9Z"/>
          <path class="cls-2" d="M385.17,278h-1.63V264.5h1.63Z"/>
          <path class="cls-2" d="M390.88,275.62l2.21-7.13h1.74l-3.82,11q-.88,2.37-2.82,2.37l-.31,0-.6-.11v-1.32l.44,0a2.07,2.07,0,0,0,1.28-.34,2.4,2.4,0,0,0,.76-1.22l.36-1-3.39-9.4h1.78Z"/>
          <path class="cls-2" d="M401.07,279.1h-1.4L405,265.2h1.39Z"/>
          <path class="cls-2" d="M414.22,272.37a4,4,0,0,1-1.21,1,3.28,3.28,0,0,1-1.55.37,3.34,3.34,0,0,1-1.93-.55,3.44,3.44,0,0,1-1.27-1.53,5.6,5.6,0,0,1,0-4.49,3.56,3.56,0,0,1,1.38-1.58,4,4,0,0,1,2.09-.54,3.55,3.55,0,0,1,3,1.42,6.16,6.16,0,0,1,1.1,3.87v.47q0,3.73-1.48,5.46a5.68,5.68,0,0,1-4.45,1.76h-.32v-1.38H410a3.87,3.87,0,0,0,4.27-4.26Zm-2.5,0a2.49,2.49,0,0,0,1.51-.5,2.86,2.86,0,0,0,1-1.24V270a4.51,4.51,0,0,0-.69-2.6,2.12,2.12,0,0,0-3.48-.18,3.36,3.36,0,0,0-.65,2.17,3.54,3.54,0,0,0,.63,2.16A2,2,0,0,0,411.72,272.37Z"/>
          <path class="cls-2" d="M426.48,278H418.1v-1.17l4.43-4.92a10.47,10.47,0,0,0,1.36-1.82,3,3,0,0,0,.37-1.44,2.29,2.29,0,0,0-.61-1.65,2.13,2.13,0,0,0-1.61-.64,2.52,2.52,0,0,0-1.89.69,2.63,2.63,0,0,0-.67,1.92h-1.63a3.76,3.76,0,0,1,1.14-2.85A4.22,4.22,0,0,1,422,265a4.06,4.06,0,0,1,2.82.93,3.22,3.22,0,0,1,1,2.49c0,1.26-.81,2.76-2.41,4.5l-3.43,3.72h6.42Z"/>
          <path class="cls-2" d="M429,271.58l.65-6.38h6.56v1.51H431l-.38,3.48a4.2,4.2,0,0,1,2.13-.55,3.53,3.53,0,0,1,2.78,1.16,4.5,4.5,0,0,1,1,3.12,4.39,4.39,0,0,1-1.07,3.12,3.89,3.89,0,0,1-3,1.14,4.08,4.08,0,0,1-2.77-.94,3.75,3.75,0,0,1-1.22-2.61H430a2.53,2.53,0,0,0,.78,1.66,2.44,2.44,0,0,0,1.67.56,2.19,2.19,0,0,0,1.78-.78,3.21,3.21,0,0,0,.64-2.13,2.94,2.94,0,0,0-.7-2.06,2.35,2.35,0,0,0-1.85-.78,2.67,2.67,0,0,0-1.67.47l-.44.35Z"/>
          <path class="cls-2" d="M445.59,273.6l-1,1.06V278H443V264.5h1.62v8.16l.87-1,3-3.13h2l-3.7,4,4.13,5.54h-1.9Z"/>
          <path class="cls-2" d="M456.84,279.1h-1.4l5.35-13.9h1.39Z"/>
          <path class="cls-2" d="M469.11,278h-1.63V267.16l-3.28,1.21v-1.48l4.66-1.75h.25Z"/>
          <path class="cls-2" d="M474,280.55l-.92-.63a4.31,4.31,0,0,0,.86-2.38v-1.47h1.59v1.28a4,4,0,0,1-.44,1.77A4.11,4.11,0,0,1,474,280.55Z"/>
          <path class="cls-2" d="M485.43,272.54a7.46,7.46,0,0,1-1,4.25,4,4,0,0,1-6.08,0,7,7,0,0,1-1-4.06v-2.17a7.26,7.26,0,0,1,1-4.19,3.48,3.48,0,0,1,3.06-1.37,3.53,3.53,0,0,1,3,1.32,7,7,0,0,1,1,4.08Zm-1.62-2.22a6,6,0,0,0-.58-3,2,2,0,0,0-1.84-.95,2,2,0,0,0-1.82.94,5.81,5.81,0,0,0-.59,2.89v2.61a6.07,6.07,0,0,0,.6,3.06,2,2,0,0,0,1.83,1,2,2,0,0,0,1.79-.93,5.86,5.86,0,0,0,.61-2.94Z"/>
          <path class="cls-2" d="M495.54,272.54a7.45,7.45,0,0,1-1,4.25,3.48,3.48,0,0,1-3.05,1.39,3.52,3.52,0,0,1-3-1.36,7.18,7.18,0,0,1-1-4.06v-2.17a7.26,7.26,0,0,1,1-4.19A3.48,3.48,0,0,1,491.5,265a3.54,3.54,0,0,1,3,1.32,7,7,0,0,1,1,4.08Zm-1.63-2.22a5.91,5.91,0,0,0-.58-3,2.23,2.23,0,0,0-3.65,0,5.81,5.81,0,0,0-.59,2.89v2.61a6.07,6.07,0,0,0,.6,3.06,2,2,0,0,0,1.82,1,2,2,0,0,0,1.79-.93,5.76,5.76,0,0,0,.61-2.94Z"/>
          <path class="cls-2" d="M505.65,272.54a7.45,7.45,0,0,1-1,4.25,4,4,0,0,1-6.08,0,7,7,0,0,1-1-4.06v-2.17a7.26,7.26,0,0,1,1-4.19A3.47,3.47,0,0,1,501.6,265a3.54,3.54,0,0,1,3,1.32,7,7,0,0,1,1,4.08ZM504,270.32a5.91,5.91,0,0,0-.58-3,2,2,0,0,0-1.84-.95,2,2,0,0,0-1.81.94,5.7,5.7,0,0,0-.59,2.89v2.61a6.07,6.07,0,0,0,.6,3.06,2.18,2.18,0,0,0,3.61.06A5.86,5.86,0,0,0,504,273Z"/>
          <path class="cls-2" d="M516.38,272.3a7.93,7.93,0,0,1-3.16-1.54,2.91,2.91,0,0,1-1-2.24,3.08,3.08,0,0,1,1.21-2.5,4.78,4.78,0,0,1,3.14-1,5.24,5.24,0,0,1,2.35.51,3.91,3.91,0,0,1,1.6,1.4,3.58,3.58,0,0,1,.57,2h-1.7a2.33,2.33,0,0,0-.74-1.83,3,3,0,0,0-2.08-.66,3.08,3.08,0,0,0-2,.55,1.83,1.83,0,0,0-.69,1.53,1.65,1.65,0,0,0,.66,1.32,6.47,6.47,0,0,0,2.26,1,10.51,10.51,0,0,1,2.49,1,3.81,3.81,0,0,1,1.34,1.26,3.23,3.23,0,0,1,.44,1.7,3,3,0,0,1-1.22,2.49,5.2,5.2,0,0,1-3.24.94,6,6,0,0,1-2.46-.51,4.19,4.19,0,0,1-1.76-1.38,3.36,3.36,0,0,1-.62-2h1.69a2.2,2.2,0,0,0,.86,1.83,3.59,3.59,0,0,0,2.29.68,3.36,3.36,0,0,0,2.05-.55,1.78,1.78,0,0,0,.71-1.48,1.74,1.74,0,0,0-.66-1.46A7.64,7.64,0,0,0,516.38,272.3Z"/>
          <path class="cls-2" d="M531.07,273.35a5.72,5.72,0,0,1-1,3.5,3.2,3.2,0,0,1-2.69,1.33,3.49,3.49,0,0,1-2.72-1.1v4.58H523V268.49h1.49l.08,1.05a3.34,3.34,0,0,1,2.76-1.23,3.23,3.23,0,0,1,2.71,1.3,5.78,5.78,0,0,1,1,3.59Zm-1.63-.18a4.16,4.16,0,0,0-.69-2.54,2.18,2.18,0,0,0-1.88-.94,2.39,2.39,0,0,0-2.21,1.31v4.55a2.4,2.4,0,0,0,2.23,1.3,2.2,2.2,0,0,0,1.86-.93A4.59,4.59,0,0,0,529.44,273.17Z"/>
          <path class="cls-2" d="M532.7,273.16a5.62,5.62,0,0,1,.55-2.52,4.14,4.14,0,0,1,1.53-1.72,4.2,4.2,0,0,1,2.24-.61,4,4,0,0,1,3.14,1.35,5.18,5.18,0,0,1,1.2,3.58v.11a5.69,5.69,0,0,1-.53,2.49,4.11,4.11,0,0,1-1.52,1.72,4.23,4.23,0,0,1-2.28.62,4,4,0,0,1-3.13-1.35,5.15,5.15,0,0,1-1.2-3.56Zm1.63.19a4.08,4.08,0,0,0,.74,2.54,2.34,2.34,0,0,0,2,1,2.32,2.32,0,0,0,2-1,4.44,4.44,0,0,0,.73-2.72,4.1,4.1,0,0,0-.74-2.54,2.47,2.47,0,0,0-3.92,0A4.42,4.42,0,0,0,534.33,273.35Z"/>
          <path class="cls-2" d="M544.93,268.49l.06,1.2a3.44,3.44,0,0,1,2.84-1.38q3,0,3,3.41V278h-1.63v-6.29a2.17,2.17,0,0,0-.47-1.52,1.89,1.89,0,0,0-1.44-.5,2.32,2.32,0,0,0-1.39.43,3,3,0,0,0-.93,1.1V278H543.4v-9.51Z"/>
          <path class="cls-2" d="M558.87,275.48a1.22,1.22,0,0,0-.5-1,4.93,4.93,0,0,0-1.73-.63,7.65,7.65,0,0,1-2-.63,2.78,2.78,0,0,1-1.08-.88,2.1,2.1,0,0,1-.34-1.21,2.47,2.47,0,0,1,1-2,3.85,3.85,0,0,1,2.52-.81,4,4,0,0,1,2.63.84,2.65,2.65,0,0,1,1,2.13h-1.63a1.48,1.48,0,0,0-.57-1.15,2.13,2.13,0,0,0-1.43-.48,2.23,2.23,0,0,0-1.39.39,1.21,1.21,0,0,0-.5,1,1,1,0,0,0,.47.89,6.3,6.3,0,0,0,1.68.57,8.49,8.49,0,0,1,2,.65,2.89,2.89,0,0,1,1.12.91,2.23,2.23,0,0,1,.36,1.29,2.45,2.45,0,0,1-1,2.05,4.29,4.29,0,0,1-2.64.77,4.81,4.81,0,0,1-2-.41,3.33,3.33,0,0,1-1.37-1.13,2.71,2.71,0,0,1-.5-1.57h1.63a1.7,1.7,0,0,0,.65,1.3,2.56,2.56,0,0,0,1.62.48,2.62,2.62,0,0,0,1.48-.38A1.14,1.14,0,0,0,558.87,275.48Z"/>
          <path class="cls-2" d="M562.18,273.16a5.62,5.62,0,0,1,.55-2.52,4,4,0,0,1,1.53-1.72,4.19,4.19,0,0,1,2.23-.61,4,4,0,0,1,3.15,1.35,5.18,5.18,0,0,1,1.2,3.58v.11a5.56,5.56,0,0,1-.54,2.49,4,4,0,0,1-1.52,1.72,4.2,4.2,0,0,1-2.27.62,4,4,0,0,1-3.13-1.35,5.15,5.15,0,0,1-1.2-3.56Zm1.63.19a4.08,4.08,0,0,0,.74,2.54,2.48,2.48,0,0,0,3.93,0,4.44,4.44,0,0,0,.73-2.72,4.1,4.1,0,0,0-.74-2.54,2.37,2.37,0,0,0-2-1,2.33,2.33,0,0,0-1.94,1A4.42,4.42,0,0,0,563.81,273.35Z"/>
          <path class="cls-2" d="M577.47,270a4.92,4.92,0,0,0-.8-.06,2.14,2.14,0,0,0-2.17,1.36V278h-1.62v-9.51h1.58l0,1.1a2.55,2.55,0,0,1,2.27-1.28,1.65,1.65,0,0,1,.72.13Z"/>
          <path class="cls-2" d="M584.5,275.48a1.21,1.21,0,0,0-.49-1,4.91,4.91,0,0,0-1.74-.63,7.92,7.92,0,0,1-2-.63,2.74,2.74,0,0,1-1.07-.88,2.1,2.1,0,0,1-.34-1.21,2.49,2.49,0,0,1,1-2,3.88,3.88,0,0,1,2.53-.81,3.94,3.94,0,0,1,2.62.84,2.63,2.63,0,0,1,1,2.13h-1.63a1.48,1.48,0,0,0-.57-1.15,2.13,2.13,0,0,0-1.43-.48A2.23,2.23,0,0,0,581,270a1.21,1.21,0,0,0-.5,1,1,1,0,0,0,.47.89,6.3,6.3,0,0,0,1.68.57,8.24,8.24,0,0,1,2,.65,2.75,2.75,0,0,1,1.12.91,2.16,2.16,0,0,1,.37,1.29,2.45,2.45,0,0,1-1,2.05,4.3,4.3,0,0,1-2.65.77,4.79,4.79,0,0,1-2-.41,3.33,3.33,0,0,1-1.37-1.13,2.71,2.71,0,0,1-.5-1.57h1.63a1.67,1.67,0,0,0,.65,1.3,2.55,2.55,0,0,0,1.61.48,2.6,2.6,0,0,0,1.48-.38A1.12,1.12,0,0,0,584.5,275.48Z"/>
          <path class="cls-2" d="M594.65,273v5H593V265.2h4.72a4.71,4.71,0,0,1,3.29,1.08,3.63,3.63,0,0,1,1.19,2.83A3.59,3.59,0,0,1,601,272a5,5,0,0,1-3.34,1Zm0-1.38h3a3,3,0,0,0,2.07-.64,2.32,2.32,0,0,0,.72-1.84,2.39,2.39,0,0,0-.72-1.83,2.85,2.85,0,0,0-2-.72h-3.12Z"/>
          <path class="cls-2" d="M608.66,270a5.1,5.1,0,0,0-.8-.06,2.16,2.16,0,0,0-2.18,1.36V278h-1.62v-9.51h1.58l0,1.1a2.53,2.53,0,0,1,2.26-1.28,1.73,1.73,0,0,1,.73.13Z"/>
          <path class="cls-2" d="M609.54,273.16a5.75,5.75,0,0,1,.55-2.52,4.14,4.14,0,0,1,1.53-1.72,4.2,4.2,0,0,1,2.24-.61,4,4,0,0,1,3.14,1.35,5.18,5.18,0,0,1,1.2,3.58v.11a5.69,5.69,0,0,1-.53,2.49,4,4,0,0,1-1.52,1.72,4.22,4.22,0,0,1-2.27.62,4,4,0,0,1-3.14-1.35,5.15,5.15,0,0,1-1.2-3.56Zm1.64.19a4.07,4.07,0,0,0,.73,2.54,2.36,2.36,0,0,0,2,1,2.31,2.31,0,0,0,2-1,4.44,4.44,0,0,0,.73-2.72,4,4,0,0,0-.74-2.54,2.46,2.46,0,0,0-3.91,0A4.36,4.36,0,0,0,611.18,273.35Z"/>
          <path class="cls-2" d="M619.85,273.17a5.6,5.6,0,0,1,1-3.54,3.54,3.54,0,0,1,5.44-.09l.08-1.05h1.49v9.28a3.87,3.87,0,0,1-1.1,2.91,4,4,0,0,1-2.94,1.06,4.8,4.8,0,0,1-2-.44,3.37,3.37,0,0,1-1.5-1.2l.84-1a3.17,3.17,0,0,0,2.56,1.3,2.51,2.51,0,0,0,1.85-.67,2.56,2.56,0,0,0,.66-1.88v-.82a3.35,3.35,0,0,1-2.66,1.13,3.22,3.22,0,0,1-2.7-1.35A5.87,5.87,0,0,1,619.85,273.17Zm1.64.18a4.27,4.27,0,0,0,.66,2.53,2.14,2.14,0,0,0,1.84.92,2.38,2.38,0,0,0,2.26-1.4v-4.34a2.41,2.41,0,0,0-2.24-1.37,2.14,2.14,0,0,0-1.85.93A4.58,4.58,0,0,0,621.49,273.35Z"/>
          <path class="cls-2" d="M634.93,270a4.92,4.92,0,0,0-.8-.06,2.14,2.14,0,0,0-2.17,1.36V278h-1.62v-9.51h1.58l0,1.1a2.53,2.53,0,0,1,2.26-1.28,1.65,1.65,0,0,1,.72.13Z"/>
          <path class="cls-2" d="M642,278a3.26,3.26,0,0,1-.23-1,3.66,3.66,0,0,1-2.71,1.18,3.35,3.35,0,0,1-2.3-.8,2.55,2.55,0,0,1-.91-2,2.67,2.67,0,0,1,1.13-2.3,5.34,5.34,0,0,1,3.18-.83h1.58v-.74a1.83,1.83,0,0,0-.51-1.36,2,2,0,0,0-1.5-.51,2.39,2.39,0,0,0-1.46.44,1.32,1.32,0,0,0-.59,1.07H636a2.27,2.27,0,0,1,.5-1.38,3.56,3.56,0,0,1,1.37-1.05,4.63,4.63,0,0,1,1.91-.39,3.75,3.75,0,0,1,2.57.83,2.94,2.94,0,0,1,1,2.26v4.38a5.42,5.42,0,0,0,.33,2.08V278Zm-2.7-1.24a2.81,2.81,0,0,0,1.45-.4,2.31,2.31,0,0,0,1-1v-1.95h-1.27c-2,0-3,.58-3,1.74a1.49,1.49,0,0,0,.51,1.2A2,2,0,0,0,639.25,276.76Z"/>
          <path class="cls-2" d="M647.4,268.49l0,1.05a3.52,3.52,0,0,1,2.82-1.23,2.72,2.72,0,0,1,2.72,1.53,3.63,3.63,0,0,1,1.23-1.1,3.58,3.58,0,0,1,1.8-.43q3.13,0,3.18,3.32V278h-1.62v-6.28a2.18,2.18,0,0,0-.47-1.52,2,2,0,0,0-1.56-.51,2.17,2.17,0,0,0-1.51.54,2.2,2.2,0,0,0-.69,1.46V278H651.7v-6.23a1.82,1.82,0,0,0-2-2.08,2.17,2.17,0,0,0-2.18,1.37V278h-1.63v-9.51Z"/>
        </g>
        <g>
          <path class="cls-16" d="M299.3,380h-1.69V367.2h1.69Z"/>
          <path class="cls-16" d="M303.67,370.49l.05,1.2a3.43,3.43,0,0,1,2.85-1.37q3,0,3,3.4V380H308v-6.29a2.14,2.14,0,0,0-.47-1.52,1.89,1.89,0,0,0-1.44-.5,2.33,2.33,0,0,0-1.38.43,3,3,0,0,0-.94,1.1V380h-1.62v-9.51Z"/>
          <path class="cls-16" d="M313.59,370.49l0,1.06a3.52,3.52,0,0,1,2.82-1.23,2.72,2.72,0,0,1,2.72,1.52,3.72,3.72,0,0,1,1.23-1.1,3.68,3.68,0,0,1,1.8-.42q3.14,0,3.18,3.31V380h-1.62v-6.27a2.21,2.21,0,0,0-.47-1.53,2,2,0,0,0-1.56-.51,2.12,2.12,0,0,0-2.2,2V380H317.9v-6.23a1.82,1.82,0,0,0-2-2.08,2.17,2.17,0,0,0-2.18,1.37V380h-1.63v-9.51Z"/>
          <path class="cls-16" d="M331.78,380.18a4.15,4.15,0,0,1-3.14-1.27,4.72,4.72,0,0,1-1.22-3.4v-.3a5.76,5.76,0,0,1,.54-2.53,4.28,4.28,0,0,1,1.51-1.74,3.88,3.88,0,0,1,2.11-.62,3.53,3.53,0,0,1,2.88,1.22,5.25,5.25,0,0,1,1,3.49v.68h-6.44a3.36,3.36,0,0,0,.82,2.27,2.57,2.57,0,0,0,2,.87,2.89,2.89,0,0,0,1.46-.35,3.68,3.68,0,0,0,1-.93l1,.77A4,4,0,0,1,331.78,380.18Zm-.2-8.53a2.15,2.15,0,0,0-1.65.72,3.47,3.47,0,0,0-.83,2h4.76v-.13a3.07,3.07,0,0,0-.66-1.92A2.06,2.06,0,0,0,331.58,371.65Z"/>
          <path class="cls-16" d="M337,375.17a5.56,5.56,0,0,1,1-3.52,3.53,3.53,0,0,1,5.36-.19v-5H345V380h-1.49l-.08-1a3.31,3.31,0,0,1-2.72,1.2,3.22,3.22,0,0,1-2.69-1.36,5.59,5.59,0,0,1-1-3.53Zm1.62.18a4.18,4.18,0,0,0,.67,2.53,2.17,2.17,0,0,0,1.85.92,2.37,2.37,0,0,0,2.25-1.39V373a2.38,2.38,0,0,0-2.24-1.35,2.17,2.17,0,0,0-1.86.93A4.58,4.58,0,0,0,338.6,375.35Z"/>
          <path class="cls-16" d="M347.53,368a1,1,0,0,1,.24-.67,1.09,1.09,0,0,1,1.44,0,1,1,0,0,1,0,1.33,1.13,1.13,0,0,1-1.44,0A1,1,0,0,1,347.53,368Zm1.76,12h-1.63v-9.51h1.63Z"/>
          <path class="cls-16" d="M357.76,380a3.59,3.59,0,0,1-.23-1,3.62,3.62,0,0,1-2.7,1.18,3.36,3.36,0,0,1-2.31-.8,2.57,2.57,0,0,1-.9-2,2.69,2.69,0,0,1,1.13-2.3,5.3,5.3,0,0,1,3.18-.82h1.58v-.75a1.83,1.83,0,0,0-.51-1.36,2,2,0,0,0-1.51-.51,2.36,2.36,0,0,0-1.45.44,1.29,1.29,0,0,0-.59,1.07h-1.64a2.23,2.23,0,0,1,.51-1.38,3.42,3.42,0,0,1,1.37-1.05,4.58,4.58,0,0,1,1.9-.38,3.75,3.75,0,0,1,2.58.82,3,3,0,0,1,1,2.26v4.38a5.22,5.22,0,0,0,.34,2.08V380Zm-2.7-1.24a2.87,2.87,0,0,0,1.45-.39,2.47,2.47,0,0,0,1-1v-1.95h-1.28c-2,0-3,.58-3,1.75a1.47,1.47,0,0,0,.51,1.19A2,2,0,0,0,355.06,378.76Z"/>
          <path class="cls-16" d="M363.89,368.19v2.3h1.77v1.26h-1.77v5.9a1.32,1.32,0,0,0,.24.86,1,1,0,0,0,.8.29,4.08,4.08,0,0,0,.78-.11V380a4.66,4.66,0,0,1-1.25.18,2,2,0,0,1-1.64-.66,2.84,2.84,0,0,1-.56-1.87v-5.9h-1.73v-1.26h1.73v-2.3Z"/>
          <path class="cls-16" d="M369.33,380H367.7V366.5h1.63Z"/>
          <path class="cls-16" d="M375,377.62l2.22-7.13H379l-3.83,11q-.89,2.37-2.82,2.37l-.31,0-.6-.12v-1.32l.44,0a2.13,2.13,0,0,0,1.29-.34,2.46,2.46,0,0,0,.76-1.22l.36-1-3.4-9.41h1.78Z"/>
        </g>
        <g>
          <path class="cls-16" d="M196.29,329H194.6V316.2h1.69Z"/>
          <path class="cls-16" d="M200.66,319.49l.05,1.2a3.44,3.44,0,0,1,2.85-1.38q3,0,3,3.41V329H205v-6.29a2.17,2.17,0,0,0-.47-1.52,1.89,1.89,0,0,0-1.44-.5,2.32,2.32,0,0,0-1.39.43,3,3,0,0,0-.93,1.1V329h-1.62v-9.51Z"/>
          <path class="cls-16" d="M210.58,319.49l0,1.05a3.52,3.52,0,0,1,2.82-1.23,2.72,2.72,0,0,1,2.72,1.53,3.72,3.72,0,0,1,1.23-1.1,3.58,3.58,0,0,1,1.8-.43q3.13,0,3.18,3.32V329h-1.62v-6.28a2.18,2.18,0,0,0-.47-1.52,2,2,0,0,0-1.56-.51,2.17,2.17,0,0,0-1.51.54,2.24,2.24,0,0,0-.69,1.46V329h-1.64v-6.23a1.82,1.82,0,0,0-2-2.08,2.17,2.17,0,0,0-2.18,1.37V329H209v-9.51Z"/>
          <path class="cls-16" d="M228.77,329.18a4.15,4.15,0,0,1-3.14-1.27,4.72,4.72,0,0,1-1.22-3.4v-.3a5.73,5.73,0,0,1,.54-2.53,4.28,4.28,0,0,1,1.51-1.74,3.81,3.81,0,0,1,2.11-.63,3.53,3.53,0,0,1,2.88,1.23,5.25,5.25,0,0,1,1,3.49v.68H226a3.36,3.36,0,0,0,.82,2.27,2.57,2.57,0,0,0,2,.87,2.89,2.89,0,0,0,1.46-.35,3.68,3.68,0,0,0,1-.93l1,.77A4,4,0,0,1,228.77,329.18Zm-.2-8.53a2.15,2.15,0,0,0-1.65.72,3.44,3.44,0,0,0-.83,2h4.76v-.12a3.13,3.13,0,0,0-.66-1.92A2.06,2.06,0,0,0,228.57,320.65Z"/>
          <path class="cls-16" d="M234,324.17a5.56,5.56,0,0,1,1-3.52,3.51,3.51,0,0,1,5.36-.19v-5H242V329H240.5l-.08-1a3.31,3.31,0,0,1-2.72,1.2,3.25,3.25,0,0,1-2.69-1.36,5.59,5.59,0,0,1-1-3.53Zm1.62.18a4.18,4.18,0,0,0,.67,2.53,2.17,2.17,0,0,0,1.85.92,2.37,2.37,0,0,0,2.25-1.39V322a2.38,2.38,0,0,0-2.24-1.35,2.17,2.17,0,0,0-1.86.93A4.58,4.58,0,0,0,235.59,324.35Z"/>
          <path class="cls-16" d="M244.52,317a1,1,0,0,1,.24-.67,1.09,1.09,0,0,1,1.44,0,1,1,0,0,1,0,1.33,1.13,1.13,0,0,1-1.44,0A1,1,0,0,1,244.52,317Zm1.76,12h-1.63v-9.51h1.63Z"/>
          <path class="cls-16" d="M254.75,329a3.59,3.59,0,0,1-.23-1,3.62,3.62,0,0,1-2.7,1.18,3.36,3.36,0,0,1-2.31-.8,2.57,2.57,0,0,1-.9-2,2.65,2.65,0,0,1,1.13-2.3,5.3,5.3,0,0,1,3.18-.83h1.58v-.74a1.83,1.83,0,0,0-.51-1.36,2,2,0,0,0-1.51-.51,2.36,2.36,0,0,0-1.45.44,1.29,1.29,0,0,0-.59,1.07H248.8a2.23,2.23,0,0,1,.51-1.38,3.42,3.42,0,0,1,1.37-1.05,4.58,4.58,0,0,1,1.9-.39,3.76,3.76,0,0,1,2.58.83,2.93,2.93,0,0,1,1,2.26v4.38a5.22,5.22,0,0,0,.34,2.08V329Zm-2.7-1.24a2.78,2.78,0,0,0,1.45-.4,2.39,2.39,0,0,0,1-1v-1.95h-1.28c-2,0-3,.58-3,1.74a1.49,1.49,0,0,0,.51,1.2A2,2,0,0,0,252.05,327.76Z"/>
          <path class="cls-16" d="M260.88,317.19v2.3h1.77v1.26h-1.77v5.9a1.32,1.32,0,0,0,.24.86,1,1,0,0,0,.8.29,4.08,4.08,0,0,0,.78-.11V329a4.66,4.66,0,0,1-1.25.18,2,2,0,0,1-1.64-.66,2.85,2.85,0,0,1-.56-1.88v-5.89h-1.73v-1.26h1.73v-2.3Z"/>
          <path class="cls-16" d="M266.32,329h-1.63V315.5h1.63Z"/>
          <path class="cls-16" d="M272,326.62l2.22-7.13H276l-3.83,11q-.89,2.37-2.82,2.37l-.31,0-.6-.11v-1.32l.44,0a2.07,2.07,0,0,0,1.28-.34,2.4,2.4,0,0,0,.77-1.22l.36-1-3.4-9.4h1.78Z"/>
        </g>
      </g>
    </g>
  </g>
</svg>
