<?xml version="1.0" encoding="utf-8"?>
<!-- Generator: Adobe Illustrator 25.0.0, SVG Export Plug-In . SVG Version: 6.00 Build 0)  -->
<svg version="1.1" id="Capa_1" xmlns="http://www.w3.org/2000/svg" xmlns:xlink="http://www.w3.org/1999/xlink" x="0px" y="0px"
	 viewBox="0 0 1032 765" style="enable-background:new 0 0 1032 765;" xml:space="preserve">
<style type="text/css">
	.st0{fill:#3D068B;}
	.st1{fill:#290062;}
	.st2{opacity:0.26;}
	.st3{fill:#FFFFFF;}
	.st4{fill:#4B81E4;}
	.st5{fill:#FFF966;}
	.st6{fill:#5CB6C0;}
	.st7{fill:#7EA6EA;}
	.st8{fill:#E5867B;}
	.st9{fill:#DE5B47;}
	.st10{fill:#F5CF71;}
	.st11{fill:#8F32ED;}
	.st12{fill:#86CAD1;}
	.st13{fill:#F2BD50;}
	.st14{fill:#4A9F5E;}
	.st15{fill:#F27F3D;}
	.st16{enable-background:new    ;}
</style>
<g id="Layer_2">
	<g id="Layer_1-2">
		<g>
			<g>
				<path class="st0" d="M10,0h1012c5.5,0,10,4.5,10,10v745c0,5.5-4.5,10-10,10H10c-5.5,0-10-4.5-10-10V10C0,4.5,4.5,0,10,0z"/>
			</g>
			<g>
				<rect y="69" class="st1" width="1032" height="70"/>
			</g>
			<g class="st2">
				<rect x="210.5" y="1" class="st3" width="1" height="764"/>
			</g>
			<g class="st2">
				<rect x="109.5" y="70.2" class="st3" width="1" height="693.8"/>
			</g>
			<g class="st2">
				<rect x="311.5" y="70.2" class="st3" width="1" height="693.8"/>
			</g>
			<g class="st2">
				<rect x="412.5" y="70.2" class="st3" width="1" height="693.8"/>
			</g>
			<g class="st2">
				<rect x="515.5" y="70.2" class="st3" width="1" height="693.8"/>
			</g>
			<g class="st2">
				<rect x="616.5" y="1" class="st3" width="1" height="764"/>
			</g>
			<g class="st2">
				<rect x="717.5" y="70.2" class="st3" width="1" height="693.8"/>
			</g>
			<g class="st2">
				<rect x="818.5" y="70.2" class="st3" width="1" height="693.8"/>
			</g>
			<g class="st2">
				<rect x="919.5" y="70.2" class="st3" width="1" height="693.8"/>
			</g>
			<g>
				<path class="st4" d="M316,147h699c2.8,0,5,2.2,5,5v33c0,2.8-2.2,5-5,5H316c-2.8,0-5-2.2-5-5v-33C311,149.2,313.2,147,316,147z"
					/>
			</g>
			<g>
				<path class="st5" d="M316,606h699c2.8,0,5,2.2,5,5v33c0,2.8-2.2,5-5,5H316c-2.8,0-5-2.2-5-5v-33C311,608.2,313.2,606,316,606z"
					/>
			</g>
			<g>
				<path class="st6" d="M316,402h699c2.8,0,5,2.2,5,5v33c0,2.8-2.2,5-5,5H316c-2.8,0-5-2.2-5-5v-33C311,404.2,313.2,402,316,402z"
					/>
			</g>
			<g>
				<path class="st7" d="M316,453h195c2.8,0,5,2.2,5,5v33c0,2.8-2.2,5-5,5H316c-2.8,0-5-2.2-5-5v-33C311,455.2,313.2,453,316,453z"
					/>
			</g>
			<g>
				<path class="st8" d="M316,504h296c2.8,0,5,2.2,5,5v33c0,2.8-2.2,5-5,5H316c-2.8,0-5-2.2-5-5v-33C311,506.2,313.2,504,316,504z"
					/>
			</g>
			<g>
				<path class="st9" d="M316,198h699c2.8,0,5,2.2,5,5v33c0,2.8-2.2,5-5,5H316c-2.8,0-5-2.2-5-5v-33C311,200.2,313.2,198,316,198z"
					/>
			</g>
			<g>
				<path class="st10" d="M316,555h296c2.8,0,5,2.2,5,5v33c0,2.8-2.2,5-5,5H316c-2.8,0-5-2.2-5-5v-33C311,557.2,313.2,555,316,555z"
					/>
			</g>
			<g>
				<path class="st11" d="M316,657h699c2.8,0,5,2.2,5,5v33c0,2.8-2.2,5-5,5H316c-2.8,0-5-2.2-5-5v-33C311,659.2,313.2,657,316,657z"
					/>
			</g>
			<g>
				<path class="st12" d="M216,708h799c2.8,0,5,2.2,5,5v33c0,2.8-2.2,5-5,5H216c-2.8,0-5-2.2-5-5v-33C211,710.2,213.2,708,216,708z"
					/>
			</g>
			<g>
				<path class="st13" d="M316,249h699c2.8,0,5,2.2,5,5v33c0,2.8-2.2,5-5,5H316c-2.8,0-5-2.2-5-5v-33C311,251.2,313.2,249,316,249z"
					/>
			</g>
			<g>
				<path class="st14" d="M164,300h142c2.8,0,5,2.2,5,5v33c0,2.8-2.2,5-5,5H164c-2.8,0-5-2.2-5-5v-33C159,302.2,161.2,300,164,300z"
					/>
			</g>
			<g>
				<path class="st15" d="M266,351h142c2.8,0,5,2.2,5,5v33c0,2.8-2.2,5-5,5H266c-2.8,0-5-2.2-5-5v-33C261,353.2,263.2,351,266,351z"
					/>
			</g>
			<g class="st16">
				<path class="st1" d="M241.5,735.6h6.1v1.4h-7.8v-12.8h1.7V735.6z"/>
				<path class="st1" d="M249.2,725c0-0.3,0.1-0.5,0.2-0.7s0.4-0.3,0.7-0.3s0.6,0.1,0.7,0.3s0.2,0.4,0.2,0.7s-0.1,0.5-0.2,0.7
					s-0.4,0.3-0.7,0.3s-0.6-0.1-0.7-0.3S249.2,725.2,249.2,725z M251,737h-1.6v-9.5h1.6V737z"/>
				<path class="st1" d="M253.2,732.2c0-1.5,0.3-2.7,1-3.5c0.7-0.9,1.6-1.3,2.8-1.3c1.1,0,2,0.4,2.7,1.1l0.1-1h1.5v13.2h-1.6v-4.5
					c-0.7,0.7-1.5,1.1-2.6,1.1c-1.1,0-2.1-0.4-2.7-1.3s-1-2.1-1-3.6V732.2z M254.8,732.4c0,1.1,0.2,1.9,0.7,2.6s1.1,0.9,1.9,0.9
					c1,0,1.7-0.4,2.2-1.3v-4.7c-0.5-0.8-1.2-1.3-2.2-1.3c-0.8,0-1.4,0.3-1.9,0.9C255,730.2,254.8,731.1,254.8,732.4z"/>
				<path class="st1" d="M269.7,736.1c-0.6,0.7-1.6,1.1-2.8,1.1c-1,0-1.8-0.3-2.3-0.9c-0.5-0.6-0.8-1.5-0.8-2.6v-6.2h1.6v6.1
					c0,1.4,0.6,2.2,1.8,2.2c1.2,0,2.1-0.5,2.5-1.4v-6.9h1.6v9.5h-1.5L269.7,736.1z"/>
				<path class="st1" d="M273.7,725c0-0.3,0.1-0.5,0.2-0.7s0.4-0.3,0.7-0.3s0.6,0.1,0.7,0.3s0.2,0.4,0.2,0.7s-0.1,0.5-0.2,0.7
					s-0.4,0.3-0.7,0.3s-0.6-0.1-0.7-0.3S273.7,725.2,273.7,725z M275.5,737h-1.6v-9.5h1.6V737z"/>
				<path class="st1" d="M277.7,732.2c0-1.5,0.3-2.6,1-3.5c0.7-0.9,1.6-1.3,2.7-1.3c1.1,0,2,0.4,2.6,1.1v-5h1.6V737h-1.5l-0.1-1
					c-0.7,0.8-1.6,1.2-2.7,1.2c-1.1,0-2-0.5-2.7-1.4s-1-2.1-1-3.5V732.2z M279.3,732.4c0,1.1,0.2,1.9,0.7,2.5s1.1,0.9,1.8,0.9
					c1,0,1.8-0.5,2.3-1.4V730c-0.5-0.9-1.2-1.3-2.2-1.3c-0.8,0-1.4,0.3-1.9,0.9S279.3,731.1,279.3,732.4z"/>
				<path class="st1" d="M288.2,725c0-0.3,0.1-0.5,0.2-0.7s0.4-0.3,0.7-0.3s0.6,0.1,0.7,0.3s0.2,0.4,0.2,0.7s-0.1,0.5-0.2,0.7
					s-0.4,0.3-0.7,0.3s-0.6-0.1-0.7-0.3S288.2,725.2,288.2,725z M290,737h-1.6v-9.5h1.6V737z"/>
				<path class="st1" d="M294.8,725.2v2.3h1.8v1.3h-1.8v5.9c0,0.4,0.1,0.7,0.2,0.9s0.4,0.3,0.8,0.3c0.2,0,0.4,0,0.8-0.1v1.3
					c-0.4,0.1-0.8,0.2-1.2,0.2c-0.7,0-1.3-0.2-1.6-0.7s-0.6-1.1-0.6-1.9v-5.9h-1.7v-1.3h1.7v-2.3H294.8z"/>
				<path class="st1" d="M301.6,734.6l2.2-7.1h1.7l-3.8,11c-0.6,1.6-1.5,2.4-2.8,2.4l-0.3,0l-0.6-0.1v-1.3l0.4,0
					c0.6,0,1-0.1,1.3-0.3s0.6-0.6,0.8-1.2l0.4-1l-3.4-9.4h1.8L301.6,734.6z"/>
			</g>
			<g class="st16">
				<path class="st3" d="M339.5,686v-12.8h3.6c1.1,0,2.1,0.2,3,0.7s1.5,1.2,2,2.1s0.7,2,0.7,3.1v0.8c0,1.2-0.2,2.3-0.7,3.2
					s-1.1,1.6-2,2.1s-1.9,0.7-3,0.7H339.5z M341.2,674.6v10h1.8c1.3,0,2.3-0.4,3-1.2s1.1-2,1.1-3.5v-0.7c0-1.5-0.3-2.6-1-3.4
					c-0.7-0.8-1.7-1.2-2.9-1.2H341.2z"/>
				<path class="st3" d="M356.9,686c-0.1-0.2-0.2-0.5-0.2-1c-0.8,0.8-1.7,1.2-2.7,1.2c-0.9,0-1.7-0.3-2.3-0.8s-0.9-1.2-0.9-2
					c0-1,0.4-1.8,1.1-2.3s1.8-0.8,3.2-0.8h1.6v-0.7c0-0.6-0.2-1-0.5-1.4c-0.3-0.3-0.8-0.5-1.5-0.5c-0.6,0-1.1,0.1-1.5,0.4
					s-0.6,0.6-0.6,1.1H351c0-0.5,0.2-0.9,0.5-1.4s0.8-0.8,1.4-1.1s1.2-0.4,1.9-0.4c1.1,0,2,0.3,2.6,0.8s0.9,1.3,1,2.3v4.4
					c0,0.9,0.1,1.6,0.3,2.1v0.1H356.9z M354.2,684.8c0.5,0,1-0.1,1.5-0.4s0.8-0.6,1-1v-2h-1.3c-2,0-3,0.6-3,1.7
					c0,0.5,0.2,0.9,0.5,1.2S353.7,684.8,354.2,684.8z"/>
				<path class="st3" d="M360.8,674c0-0.3,0.1-0.5,0.2-0.7s0.4-0.3,0.7-0.3s0.6,0.1,0.7,0.3s0.2,0.4,0.2,0.7s-0.1,0.5-0.2,0.7
					s-0.4,0.3-0.7,0.3s-0.6-0.1-0.7-0.3S360.8,674.2,360.8,674z M362.6,686H361v-9.5h1.6V686z"/>
				<path class="st3" d="M367,686h-1.6v-13.5h1.6V686z"/>
				<path class="st3" d="M372.7,683.6l2.2-7.1h1.7l-3.8,11c-0.6,1.6-1.5,2.4-2.8,2.4l-0.3,0l-0.6-0.1v-1.3l0.4,0
					c0.6,0,1-0.1,1.3-0.3s0.6-0.6,0.8-1.2l0.4-1l-3.4-9.4h1.8L372.7,683.6z"/>
			</g>
			<g class="st16">
				<path class="st3" d="M339.5,482v-12.8h3.6c1.1,0,2.1,0.2,3,0.7s1.5,1.2,2,2.1s0.7,2,0.7,3.1v0.8c0,1.2-0.2,2.3-0.7,3.2
					s-1.1,1.6-2,2.1s-1.9,0.7-3,0.7H339.5z M341.2,470.6v10h1.8c1.3,0,2.3-0.4,3-1.2s1.1-2,1.1-3.5v-0.7c0-1.5-0.3-2.6-1-3.4
					c-0.7-0.8-1.7-1.2-2.9-1.2H341.2z"/>
				<path class="st3" d="M356.9,482c-0.1-0.2-0.2-0.5-0.2-1c-0.8,0.8-1.7,1.2-2.7,1.2c-0.9,0-1.7-0.3-2.3-0.8s-0.9-1.2-0.9-2
					c0-1,0.4-1.8,1.1-2.3s1.8-0.8,3.2-0.8h1.6v-0.7c0-0.6-0.2-1-0.5-1.4c-0.3-0.3-0.8-0.5-1.5-0.5c-0.6,0-1.1,0.1-1.5,0.4
					s-0.6,0.6-0.6,1.1H351c0-0.5,0.2-0.9,0.5-1.4s0.8-0.8,1.4-1.1s1.2-0.4,1.9-0.4c1.1,0,2,0.3,2.6,0.8s0.9,1.3,1,2.3v4.4
					c0,0.9,0.1,1.6,0.3,2.1v0.1H356.9z M354.2,480.8c0.5,0,1-0.1,1.5-0.4s0.8-0.6,1-1v-2h-1.3c-2,0-3,0.6-3,1.7
					c0,0.5,0.2,0.9,0.5,1.2S353.7,480.8,354.2,480.8z"/>
				<path class="st3" d="M360.8,470c0-0.3,0.1-0.5,0.2-0.7s0.4-0.3,0.7-0.3s0.6,0.1,0.7,0.3s0.2,0.4,0.2,0.7s-0.1,0.5-0.2,0.7
					s-0.4,0.3-0.7,0.3s-0.6-0.1-0.7-0.3S360.8,470.2,360.8,470z M362.6,482H361v-9.5h1.6V482z"/>
				<path class="st3" d="M367,482h-1.6v-13.5h1.6V482z"/>
				<path class="st3" d="M372.7,479.6l2.2-7.1h1.7l-3.8,11c-0.6,1.6-1.5,2.4-2.8,2.4l-0.3,0l-0.6-0.1v-1.3l0.4,0
					c0.6,0,1-0.1,1.3-0.3s0.6-0.6,0.8-1.2l0.4-1l-3.4-9.4h1.8L372.7,479.6z"/>
			</g>
			<g class="st16">
				<path class="st1" d="M339.5,635v-12.8h3.6c1.1,0,2.1,0.2,3,0.7s1.5,1.2,2,2.1s0.7,2,0.7,3.1v0.8c0,1.2-0.2,2.3-0.7,3.2
					s-1.1,1.6-2,2.1s-1.9,0.7-3,0.7H339.5z M341.2,623.6v10h1.8c1.3,0,2.3-0.4,3-1.2s1.1-2,1.1-3.5v-0.7c0-1.5-0.3-2.6-1-3.4
					c-0.7-0.8-1.7-1.2-2.9-1.2H341.2z"/>
				<path class="st1" d="M356.9,635c-0.1-0.2-0.2-0.5-0.2-1c-0.8,0.8-1.7,1.2-2.7,1.2c-0.9,0-1.7-0.3-2.3-0.8s-0.9-1.2-0.9-2
					c0-1,0.4-1.8,1.1-2.3s1.8-0.8,3.2-0.8h1.6v-0.7c0-0.6-0.2-1-0.5-1.4c-0.3-0.3-0.8-0.5-1.5-0.5c-0.6,0-1.1,0.1-1.5,0.4
					s-0.6,0.6-0.6,1.1H351c0-0.5,0.2-0.9,0.5-1.4s0.8-0.8,1.4-1.1s1.2-0.4,1.9-0.4c1.1,0,2,0.3,2.6,0.8s0.9,1.3,1,2.3v4.4
					c0,0.9,0.1,1.6,0.3,2.1v0.1H356.9z M354.2,633.8c0.5,0,1-0.1,1.5-0.4s0.8-0.6,1-1v-2h-1.3c-2,0-3,0.6-3,1.7
					c0,0.5,0.2,0.9,0.5,1.2S353.7,633.8,354.2,633.8z"/>
				<path class="st1" d="M360.8,623c0-0.3,0.1-0.5,0.2-0.7s0.4-0.3,0.7-0.3s0.6,0.1,0.7,0.3s0.2,0.4,0.2,0.7s-0.1,0.5-0.2,0.7
					s-0.4,0.3-0.7,0.3s-0.6-0.1-0.7-0.3S360.8,623.2,360.8,623z M362.6,635H361v-9.5h1.6V635z"/>
				<path class="st1" d="M367,635h-1.6v-13.5h1.6V635z"/>
				<path class="st1" d="M372.7,632.6l2.2-7.1h1.7l-3.8,11c-0.6,1.6-1.5,2.4-2.8,2.4l-0.3,0l-0.6-0.1v-1.3l0.4,0
					c0.6,0,1-0.1,1.3-0.3s0.6-0.6,0.8-1.2l0.4-1l-3.4-9.4h1.8L372.7,632.6z"/>
			</g>
			<g class="st16">
				<path class="st3" d="M342.2,529l0.2,1.7l0.4-1.5l2.5-8.9h1.4l2.5,8.9l0.4,1.5l0.3-1.7l2-8.8h1.7l-3.1,12.8h-1.5l-2.6-9.3l-0.2-1
					l-0.2,1l-2.7,9.3h-1.5l-3.1-12.8h1.7L342.2,529z"/>
				<path class="st3" d="M359.1,533.2c-1.3,0-2.3-0.4-3.1-1.3s-1.2-2-1.2-3.4v-0.3c0-0.9,0.2-1.8,0.5-2.5s0.9-1.3,1.5-1.7
					s1.3-0.6,2.1-0.6c1.2,0,2.2,0.4,2.9,1.2s1,2,1,3.5v0.7h-6.4c0,0.9,0.3,1.7,0.8,2.3c0.5,0.6,1.2,0.9,2,0.9c0.6,0,1.1-0.1,1.5-0.4
					s0.7-0.5,1-0.9l1,0.8C361.9,532.6,360.7,533.2,359.1,533.2z M358.9,524.7c-0.7,0-1.2,0.2-1.7,0.7s-0.7,1.1-0.8,2h4.8v-0.1
					c0-0.8-0.3-1.5-0.7-1.9S359.6,524.7,358.9,524.7z"/>
				<path class="st3" d="M368.7,533.2c-1.3,0-2.3-0.4-3.1-1.3s-1.2-2-1.2-3.4v-0.3c0-0.9,0.2-1.8,0.5-2.5s0.9-1.3,1.5-1.7
					s1.3-0.6,2.1-0.6c1.2,0,2.2,0.4,2.9,1.2s1,2,1,3.5v0.7h-6.4c0,0.9,0.3,1.7,0.8,2.3c0.5,0.6,1.2,0.9,2,0.9c0.6,0,1.1-0.1,1.5-0.4
					s0.7-0.5,1-0.9l1,0.8C371.5,532.6,370.3,533.2,368.7,533.2z M368.5,524.7c-0.7,0-1.2,0.2-1.7,0.7s-0.7,1.1-0.8,2h4.8v-0.1
					c0-0.8-0.3-1.5-0.7-1.9S369.2,524.7,368.5,524.7z"/>
				<path class="st3" d="M376.9,528.6l-1,1.1v3.3h-1.6v-13.5h1.6v8.2l0.9-1l3-3.1h2l-3.7,4l4.1,5.5h-1.9L376.9,528.6z"/>
				<path class="st3" d="M385.2,533h-1.6v-13.5h1.6V533z"/>
				<path class="st3" d="M390.9,530.6l2.2-7.1h1.7l-3.8,11c-0.6,1.6-1.5,2.4-2.8,2.4l-0.3,0l-0.6-0.1v-1.3l0.4,0
					c0.6,0,1-0.1,1.3-0.3s0.6-0.6,0.8-1.2l0.4-1l-3.4-9.4h1.8L390.9,530.6z"/>
			</g>
			<g class="st16">
				<path class="st1" d="M342.2,579.9l0.2,1.7l0.4-1.5l2.5-8.9h1.4l2.5,8.9l0.4,1.5l0.3-1.7l2-8.8h1.7l-3.1,12.8h-1.5l-2.6-9.3
					l-0.2-1l-0.2,1l-2.7,9.3h-1.5l-3.1-12.8h1.7L342.2,579.9z"/>
				<path class="st1" d="M359.1,584.1c-1.3,0-2.3-0.4-3.1-1.3s-1.2-2-1.2-3.4v-0.3c0-0.9,0.2-1.8,0.5-2.5s0.9-1.3,1.5-1.7
					s1.3-0.6,2.1-0.6c1.2,0,2.2,0.4,2.9,1.2s1,2,1,3.5v0.7h-6.4c0,0.9,0.3,1.7,0.8,2.3c0.5,0.6,1.2,0.9,2,0.9c0.6,0,1.1-0.1,1.5-0.4
					s0.7-0.5,1-0.9l1,0.8C361.9,583.5,360.7,584.1,359.1,584.1z M358.9,575.6c-0.7,0-1.2,0.2-1.7,0.7s-0.7,1.1-0.8,2h4.8v-0.1
					c0-0.8-0.3-1.5-0.7-1.9S359.6,575.6,358.9,575.6z"/>
				<path class="st1" d="M368.7,584.1c-1.3,0-2.3-0.4-3.1-1.3s-1.2-2-1.2-3.4v-0.3c0-0.9,0.2-1.8,0.5-2.5s0.9-1.3,1.5-1.7
					s1.3-0.6,2.1-0.6c1.2,0,2.2,0.4,2.9,1.2s1,2,1,3.5v0.7h-6.4c0,0.9,0.3,1.7,0.8,2.3c0.5,0.6,1.2,0.9,2,0.9c0.6,0,1.1-0.1,1.5-0.4
					s0.7-0.5,1-0.9l1,0.8C371.5,583.5,370.3,584.1,368.7,584.1z M368.5,575.6c-0.7,0-1.2,0.2-1.7,0.7s-0.7,1.1-0.8,2h4.8v-0.1
					c0-0.8-0.3-1.5-0.7-1.9S369.2,575.6,368.5,575.6z"/>
				<path class="st1" d="M376.9,579.5l-1,1.1v3.3h-1.6v-13.5h1.6v8.2l0.9-1l3-3.1h2l-3.7,4l4.1,5.5h-1.9L376.9,579.5z"/>
				<path class="st1" d="M385.2,584h-1.6v-13.5h1.6V584z"/>
				<path class="st1" d="M390.9,581.6l2.2-7.1h1.7l-3.8,11c-0.6,1.6-1.5,2.4-2.8,2.4l-0.3,0l-0.6-0.1v-1.3l0.4,0
					c0.6,0,1-0.1,1.3-0.3s0.6-0.6,0.8-1.2l0.4-1l-3.4-9.4h1.8L390.9,581.6z"/>
			</g>
			<g class="st16">
				<path class="st3" d="M342.2,427l0.2,1.7l0.4-1.5l2.5-8.9h1.4l2.5,8.9l0.4,1.5l0.3-1.7l2-8.8h1.7l-3.1,12.8h-1.5l-2.6-9.3l-0.2-1
					l-0.2,1l-2.7,9.3h-1.5l-3.1-12.8h1.7L342.2,427z"/>
				<path class="st3" d="M359.1,431.2c-1.3,0-2.3-0.4-3.1-1.3s-1.2-2-1.2-3.4v-0.3c0-0.9,0.2-1.8,0.5-2.5s0.9-1.3,1.5-1.7
					s1.3-0.6,2.1-0.6c1.2,0,2.2,0.4,2.9,1.2s1,2,1,3.5v0.7h-6.4c0,0.9,0.3,1.7,0.8,2.3c0.5,0.6,1.2,0.9,2,0.9c0.6,0,1.1-0.1,1.5-0.4
					s0.7-0.5,1-0.9l1,0.8C361.9,430.6,360.7,431.2,359.1,431.2z M358.9,422.7c-0.7,0-1.2,0.2-1.7,0.7s-0.7,1.1-0.8,2h4.8v-0.1
					c0-0.8-0.3-1.5-0.7-1.9S359.6,422.7,358.9,422.7z"/>
				<path class="st3" d="M368.7,431.2c-1.3,0-2.3-0.4-3.1-1.3s-1.2-2-1.2-3.4v-0.3c0-0.9,0.2-1.8,0.5-2.5s0.9-1.3,1.5-1.7
					s1.3-0.6,2.1-0.6c1.2,0,2.2,0.4,2.9,1.2s1,2,1,3.5v0.7h-6.4c0,0.9,0.3,1.7,0.8,2.3c0.5,0.6,1.2,0.9,2,0.9c0.6,0,1.1-0.1,1.5-0.4
					s0.7-0.5,1-0.9l1,0.8C371.5,430.6,370.3,431.2,368.7,431.2z M368.5,422.7c-0.7,0-1.2,0.2-1.7,0.7s-0.7,1.1-0.8,2h4.8v-0.1
					c0-0.8-0.3-1.5-0.7-1.9S369.2,422.7,368.5,422.7z"/>
				<path class="st3" d="M376.9,426.6l-1,1.1v3.3h-1.6v-13.5h1.6v8.2l0.9-1l3-3.1h2l-3.7,4l4.1,5.5h-1.9L376.9,426.6z"/>
				<path class="st3" d="M385.2,431h-1.6v-13.5h1.6V431z"/>
				<path class="st3" d="M390.9,428.6l2.2-7.1h1.7l-3.8,11c-0.6,1.6-1.5,2.4-2.8,2.4l-0.3,0l-0.6-0.1v-1.3l0.4,0
					c0.6,0,1-0.1,1.3-0.3s0.6-0.6,0.8-1.2l0.4-1l-3.4-9.4h1.8L390.9,428.6z"/>
			</g>
			<g class="st16">
				<path class="st3" d="M342.2,223l0.2,1.7l0.4-1.5l2.5-8.9h1.4l2.5,8.9l0.4,1.5l0.3-1.7l2-8.8h1.7l-3.1,12.8h-1.5l-2.6-9.3l-0.2-1
					l-0.2,1l-2.7,9.3h-1.5l-3.1-12.8h1.7L342.2,223z"/>
				<path class="st3" d="M359.1,227.2c-1.3,0-2.3-0.4-3.1-1.3s-1.2-2-1.2-3.4v-0.3c0-0.9,0.2-1.8,0.5-2.5s0.9-1.3,1.5-1.7
					s1.3-0.6,2.1-0.6c1.2,0,2.2,0.4,2.9,1.2s1,2,1,3.5v0.7h-6.4c0,0.9,0.3,1.7,0.8,2.3c0.5,0.6,1.2,0.9,2,0.9c0.6,0,1.1-0.1,1.5-0.4
					s0.7-0.5,1-0.9l1,0.8C361.9,226.6,360.7,227.2,359.1,227.2z M358.9,218.7c-0.7,0-1.2,0.2-1.7,0.7s-0.7,1.1-0.8,2h4.8v-0.1
					c0-0.8-0.3-1.5-0.7-1.9S359.6,218.7,358.9,218.7z"/>
				<path class="st3" d="M368.7,227.2c-1.3,0-2.3-0.4-3.1-1.3s-1.2-2-1.2-3.4v-0.3c0-0.9,0.2-1.8,0.5-2.5s0.9-1.3,1.5-1.7
					s1.3-0.6,2.1-0.6c1.2,0,2.2,0.4,2.9,1.2s1,2,1,3.5v0.7h-6.4c0,0.9,0.3,1.7,0.8,2.3c0.5,0.6,1.2,0.9,2,0.9c0.6,0,1.1-0.1,1.5-0.4
					s0.7-0.5,1-0.9l1,0.8C371.5,226.6,370.3,227.2,368.7,227.2z M368.5,218.7c-0.7,0-1.2,0.2-1.7,0.7s-0.7,1.1-0.8,2h4.8v-0.1
					c0-0.8-0.3-1.5-0.7-1.9S369.2,218.7,368.5,218.7z"/>
				<path class="st3" d="M376.9,222.6l-1,1.1v3.3h-1.6v-13.5h1.6v8.2l0.9-1l3-3.1h2l-3.7,4l4.1,5.5h-1.9L376.9,222.6z"/>
				<path class="st3" d="M385.2,227h-1.6v-13.5h1.6V227z"/>
				<path class="st3" d="M390.9,224.6l2.2-7.1h1.7l-3.8,11c-0.6,1.6-1.5,2.4-2.8,2.4l-0.3,0l-0.6-0.1v-1.3l0.4,0
					c0.6,0,1-0.1,1.3-0.3s0.6-0.6,0.8-1.2l0.4-1l-3.4-9.4h1.8L390.9,224.6z"/>
			</g>
			<g class="st16">
				<path class="st3" d="M342.2,172l0.2,1.7l0.4-1.5l2.5-8.9h1.4l2.5,8.9l0.4,1.5l0.3-1.7l2-8.8h1.7l-3.1,12.8h-1.5l-2.6-9.3l-0.2-1
					l-0.2,1l-2.7,9.3h-1.5l-3.1-12.8h1.7L342.2,172z"/>
				<path class="st3" d="M359.1,176.2c-1.3,0-2.3-0.4-3.1-1.3s-1.2-2-1.2-3.4v-0.3c0-0.9,0.2-1.8,0.5-2.5s0.9-1.3,1.5-1.7
					s1.3-0.6,2.1-0.6c1.2,0,2.2,0.4,2.9,1.2s1,2,1,3.5v0.7h-6.4c0,0.9,0.3,1.7,0.8,2.3c0.5,0.6,1.2,0.9,2,0.9c0.6,0,1.1-0.1,1.5-0.4
					s0.7-0.5,1-0.9l1,0.8C361.9,175.6,360.7,176.2,359.1,176.2z M358.9,167.7c-0.7,0-1.2,0.2-1.7,0.7s-0.7,1.1-0.8,2h4.8v-0.1
					c0-0.8-0.3-1.5-0.7-1.9S359.6,167.7,358.9,167.7z"/>
				<path class="st3" d="M368.7,176.2c-1.3,0-2.3-0.4-3.1-1.3s-1.2-2-1.2-3.4v-0.3c0-0.9,0.2-1.8,0.5-2.5s0.9-1.3,1.5-1.7
					s1.3-0.6,2.1-0.6c1.2,0,2.2,0.4,2.9,1.2s1,2,1,3.5v0.7h-6.4c0,0.9,0.3,1.7,0.8,2.3c0.5,0.6,1.2,0.9,2,0.9c0.6,0,1.1-0.1,1.5-0.4
					s0.7-0.5,1-0.9l1,0.8C371.5,175.6,370.3,176.2,368.7,176.2z M368.5,167.7c-0.7,0-1.2,0.2-1.7,0.7s-0.7,1.1-0.8,2h4.8v-0.1
					c0-0.8-0.3-1.5-0.7-1.9S369.2,167.7,368.5,167.7z"/>
				<path class="st3" d="M376.9,171.6l-1,1.1v3.3h-1.6v-13.5h1.6v8.2l0.9-1l3-3.1h2l-3.7,4l4.1,5.5h-1.9L376.9,171.6z"/>
				<path class="st3" d="M385.2,176h-1.6v-13.5h1.6V176z"/>
				<path class="st3" d="M390.9,173.6l2.2-7.1h1.7l-3.8,11c-0.6,1.6-1.5,2.4-2.8,2.4l-0.3,0l-0.6-0.1v-1.3l0.4,0
					c0.6,0,1-0.1,1.3-0.3s0.6-0.6,0.8-1.2l0.4-1l-3.4-9.4h1.8L390.9,173.6z"/>
			</g>
			<g class="st16">
				<path class="st3" d="M99.7,41h-8.4v-1.2l4.4-4.9c0.7-0.7,1.1-1.3,1.4-1.8c0.2-0.5,0.4-0.9,0.4-1.4c0-0.7-0.2-1.2-0.6-1.6
					s-0.9-0.6-1.6-0.6c-0.8,0-1.4,0.2-1.9,0.7c-0.4,0.5-0.7,1.1-0.7,1.9h-1.6c0-1.2,0.4-2.1,1.1-2.9s1.8-1.1,3-1.1
					c1.2,0,2.1,0.3,2.8,0.9c0.7,0.6,1,1.5,1,2.5c0,1.3-0.8,2.8-2.4,4.5l-3.4,3.7h6.4V41z"/>
				<path class="st3" d="M109.5,35.5c0,1.9-0.3,3.3-1,4.2s-1.7,1.4-3,1.4c-1.4,0-2.4-0.5-3-1.4c-0.7-0.9-1-2.3-1-4.1v-2.2
					c0-1.9,0.3-3.3,1-4.2s1.7-1.4,3.1-1.4c1.4,0,2.4,0.4,3,1.3c0.7,0.9,1,2.2,1,4.1V35.5z M107.9,33.3c0-1.4-0.2-2.4-0.6-3
					s-1-0.9-1.8-0.9c-0.8,0-1.4,0.3-1.8,0.9s-0.6,1.6-0.6,2.9v2.6c0,1.4,0.2,2.4,0.6,3.1c0.4,0.7,1,1,1.8,1c0.8,0,1.4-0.3,1.8-0.9
					s0.6-1.6,0.6-2.9V33.3z"/>
				<path class="st3" d="M120,41h-8.4v-1.2l4.4-4.9c0.7-0.7,1.1-1.3,1.4-1.8c0.2-0.5,0.4-0.9,0.4-1.4c0-0.7-0.2-1.2-0.6-1.6
					s-0.9-0.6-1.6-0.6c-0.8,0-1.4,0.2-1.9,0.7c-0.4,0.5-0.7,1.1-0.7,1.9h-1.6c0-1.2,0.4-2.1,1.1-2.9s1.8-1.1,3-1.1
					c1.2,0,2.1,0.3,2.8,0.9c0.7,0.6,1,1.5,1,2.5c0,1.3-0.8,2.8-2.4,4.5l-3.4,3.7h6.4V41z"/>
				<path class="st3" d="M127,41h-1.6V30.2l-3.3,1.2v-1.5l4.7-1.7h0.3V41z"/>
			</g>
			<g class="st16">
				<path class="st3" d="M60.7,108.8c0,2.8-0.8,4.9-2.3,6.2l2.4,2.1l-2.2,2l-3.1-2.9l-0.9,0.1c-1.9,0-3.4-0.7-4.5-2
					s-1.6-3.1-1.6-5.4v-2.7c0-2.3,0.5-4.2,1.6-5.5s2.6-2,4.5-2c1.9,0,3.4,0.6,4.5,1.9s1.7,3,1.7,5.3V108.8z M57.3,106.1
					c0-1.6-0.2-2.7-0.7-3.4s-1.1-1.1-2-1.1s-1.6,0.4-2,1.1s-0.7,1.8-0.7,3.3v2.8c0,1.6,0.2,2.7,0.7,3.5s1.1,1.1,2.1,1.1
					c0.9,0,1.6-0.4,2-1.1s0.7-1.9,0.7-3.4V106.1z"/>
				<path class="st3" d="M65.9,106h1.6c0.6,0,1.1-0.2,1.3-0.6s0.4-1,0.4-1.7c0-0.7-0.1-1.2-0.4-1.6s-0.7-0.6-1.2-0.6
					c-0.5,0-0.8,0.2-1.1,0.5s-0.4,0.8-0.4,1.4h-3.3c0-0.9,0.2-1.7,0.6-2.4s1-1.3,1.7-1.7s1.6-0.6,2.5-0.6c1.6,0,2.8,0.4,3.7,1.3
					s1.3,2.1,1.3,3.6c0,0.8-0.2,1.5-0.6,2.2s-0.9,1.2-1.6,1.5c0.8,0.3,1.4,0.9,1.8,1.5s0.6,1.5,0.6,2.4c0,1.5-0.5,2.7-1.4,3.6
					s-2.2,1.4-3.8,1.4c-1.5,0-2.6-0.5-3.6-1.4s-1.4-2.1-1.4-3.6h3.3c0,0.6,0.2,1.1,0.5,1.5s0.7,0.6,1.2,0.6c0.6,0,1-0.2,1.4-0.6
					s0.5-1,0.5-1.7c0-1.7-0.7-2.5-2-2.5h-1.6V106z"/>
			</g>
			<g class="st16">
				<path class="st3" d="M161.7,108.8c0,2.8-0.8,4.9-2.3,6.2l2.4,2.1l-2.2,2l-3.1-2.9l-0.9,0.1c-1.9,0-3.4-0.7-4.5-2
					s-1.6-3.1-1.6-5.4v-2.7c0-2.3,0.5-4.2,1.6-5.5s2.6-2,4.5-2c1.9,0,3.4,0.6,4.5,1.9s1.7,3,1.7,5.3V108.8z M158.3,106.1
					c0-1.6-0.2-2.7-0.7-3.4s-1.1-1.1-2-1.1s-1.6,0.4-2,1.1s-0.7,1.8-0.7,3.3v2.8c0,1.6,0.2,2.7,0.7,3.5s1.1,1.1,2.1,1.1
					c0.9,0,1.6-0.4,2-1.1s0.7-1.9,0.7-3.4V106.1z"/>
				<path class="st3" d="M172.7,109.6h1.5v2.8h-1.5v3.7h-3.3v-3.7h-5.6l-0.2-2.1l5.8-11.2h3.3V109.6z M166.8,109.6h2.6v-5.7
					l-0.1,0.1L166.8,109.6z"/>
			</g>
			<g class="st16">
				<path class="st3" d="M464.7,108.8c0,2.8-0.8,4.9-2.3,6.2l2.4,2.1l-2.2,2l-3.1-2.9l-0.9,0.1c-1.9,0-3.4-0.7-4.5-2
					s-1.6-3.1-1.6-5.4v-2.7c0-2.3,0.5-4.2,1.6-5.5s2.6-2,4.5-2c1.9,0,3.4,0.6,4.5,1.9s1.7,3,1.7,5.3V108.8z M461.3,106.1
					c0-1.6-0.2-2.7-0.7-3.4s-1.1-1.1-2-1.1s-1.6,0.4-2,1.1s-0.7,1.8-0.7,3.3v2.8c0,1.6,0.2,2.7,0.7,3.5s1.1,1.1,2.1,1.1
					c0.9,0,1.6-0.4,2-1.1s0.7-1.9,0.7-3.4V106.1z"/>
				<path class="st3" d="M469.9,106h1.6c0.6,0,1.1-0.2,1.3-0.6s0.4-1,0.4-1.7c0-0.7-0.1-1.2-0.4-1.6s-0.7-0.6-1.2-0.6
					c-0.5,0-0.8,0.2-1.1,0.5s-0.4,0.8-0.4,1.4h-3.3c0-0.9,0.2-1.7,0.6-2.4s1-1.3,1.7-1.7s1.6-0.6,2.5-0.6c1.6,0,2.8,0.4,3.7,1.3
					s1.3,2.1,1.3,3.6c0,0.8-0.2,1.5-0.6,2.2s-0.9,1.2-1.6,1.5c0.8,0.3,1.4,0.9,1.8,1.5s0.6,1.5,0.6,2.4c0,1.5-0.5,2.7-1.4,3.6
					s-2.2,1.4-3.8,1.4c-1.5,0-2.6-0.5-3.6-1.4s-1.4-2.1-1.4-3.6h3.3c0,0.6,0.2,1.1,0.5,1.5s0.7,0.6,1.2,0.6c0.6,0,1-0.2,1.4-0.6
					s0.5-1,0.5-1.7c0-1.7-0.7-2.5-2-2.5h-1.6V106z"/>
			</g>
			<g class="st16">
				<path class="st3" d="M565.7,108.8c0,2.8-0.8,4.9-2.3,6.2l2.4,2.1l-2.2,2l-3.1-2.9l-0.9,0.1c-1.9,0-3.4-0.7-4.5-2
					s-1.6-3.1-1.6-5.4v-2.7c0-2.3,0.5-4.2,1.6-5.5s2.6-2,4.5-2c1.9,0,3.4,0.6,4.5,1.9s1.7,3,1.7,5.3V108.8z M562.2,106.1
					c0-1.6-0.2-2.7-0.7-3.4s-1.1-1.1-2-1.1s-1.6,0.4-2,1.1s-0.7,1.8-0.7,3.3v2.8c0,1.6,0.2,2.7,0.7,3.5s1.1,1.1,2.1,1.1
					c0.9,0,1.6-0.4,2-1.1s0.7-1.9,0.7-3.4V106.1z"/>
				<path class="st3" d="M576.6,109.6h1.5v2.8h-1.5v3.7h-3.3v-3.7h-5.6l-0.2-2.1l5.8-11.2h3.3V109.6z M570.8,109.6h2.6v-5.7
					l-0.1,0.1L570.8,109.6z"/>
			</g>
			<g class="st16">
				<path class="st3" d="M262.7,108.8c0,2.8-0.8,4.9-2.3,6.2l2.4,2.1l-2.2,2l-3.1-2.9l-0.9,0.1c-1.9,0-3.4-0.7-4.5-2
					s-1.6-3.1-1.6-5.4v-2.7c0-2.3,0.5-4.2,1.6-5.5s2.6-2,4.5-2c1.9,0,3.4,0.6,4.5,1.9s1.7,3,1.7,5.3V108.8z M259.3,106.1
					c0-1.6-0.2-2.7-0.7-3.4s-1.1-1.1-2-1.1s-1.6,0.4-2,1.1s-0.7,1.8-0.7,3.3v2.8c0,1.6,0.2,2.7,0.7,3.5s1.1,1.1,2.1,1.1
					c0.9,0,1.6-0.4,2-1.1s0.7-1.9,0.7-3.4V106.1z"/>
				<path class="st3" d="M272.2,116h-3.3v-13l-3.2,1.3v-2.8l6.2-2.5h0.4V116z"/>
			</g>
			<g class="st16">
				<path class="st3" d="M363.7,108.8c0,2.8-0.8,4.9-2.3,6.2l2.4,2.1l-2.2,2l-3.1-2.9l-0.9,0.1c-1.9,0-3.4-0.7-4.5-2
					s-1.6-3.1-1.6-5.4v-2.7c0-2.3,0.5-4.2,1.6-5.5s2.6-2,4.5-2c1.9,0,3.4,0.6,4.5,1.9s1.7,3,1.7,5.3V108.8z M360.3,106.1
					c0-1.6-0.2-2.7-0.7-3.4s-1.1-1.1-2-1.1s-1.6,0.4-2,1.1s-0.7,1.8-0.7,3.3v2.8c0,1.6,0.2,2.7,0.7,3.5s1.1,1.1,2.1,1.1
					c0.9,0,1.6-0.4,2-1.1s0.7-1.9,0.7-3.4V106.1z"/>
				<path class="st3" d="M376,116h-10.1v-2.3l4.6-5.9c0.6-0.8,1-1.5,1.3-2.1s0.4-1.2,0.4-1.8c0-0.8-0.1-1.4-0.4-1.8
					s-0.6-0.6-1.1-0.6c-0.5,0-1,0.2-1.3,0.8s-0.5,1.2-0.5,2.1h-3.3c0-1,0.2-2,0.7-2.9s1-1.5,1.8-2s1.7-0.7,2.7-0.7
					c1.5,0,2.7,0.4,3.5,1.3s1.3,2,1.3,3.6c0,1-0.2,1.9-0.7,2.9s-1.3,2.2-2.5,3.7l-2.2,3.1h5.8V116z"/>
			</g>
			<g class="st16">
				<path class="st3" d="M868.7,108.8c0,2.8-0.8,4.9-2.3,6.2l2.4,2.1l-2.2,2l-3.1-2.9l-0.9,0.1c-1.9,0-3.4-0.7-4.5-2
					s-1.6-3.1-1.6-5.4v-2.7c0-2.3,0.5-4.2,1.6-5.5s2.6-2,4.5-2c1.9,0,3.4,0.6,4.5,1.9s1.7,3,1.7,5.3V108.8z M865.3,106.1
					c0-1.6-0.2-2.7-0.7-3.4s-1.1-1.1-2-1.1s-1.6,0.4-2,1.1s-0.7,1.8-0.7,3.3v2.8c0,1.6,0.2,2.7,0.7,3.5s1.1,1.1,2.1,1.1
					c0.9,0,1.6-0.4,2-1.1s0.7-1.9,0.7-3.4V106.1z"/>
				<path class="st3" d="M873.9,106h1.6c0.6,0,1.1-0.2,1.3-0.6s0.4-1,0.4-1.7c0-0.7-0.1-1.2-0.4-1.6s-0.7-0.6-1.2-0.6
					c-0.5,0-0.8,0.2-1.1,0.5s-0.4,0.8-0.4,1.4h-3.3c0-0.9,0.2-1.7,0.6-2.4s1-1.3,1.7-1.7s1.6-0.6,2.5-0.6c1.6,0,2.8,0.4,3.7,1.3
					s1.3,2.1,1.3,3.6c0,0.8-0.2,1.5-0.6,2.2s-0.9,1.2-1.6,1.5c0.8,0.3,1.4,0.9,1.8,1.5s0.6,1.5,0.6,2.4c0,1.5-0.5,2.7-1.4,3.6
					s-2.2,1.4-3.8,1.4c-1.5,0-2.6-0.5-3.6-1.4s-1.4-2.1-1.4-3.6h3.3c0,0.6,0.2,1.1,0.5,1.5s0.7,0.6,1.2,0.6c0.6,0,1-0.2,1.4-0.6
					s0.5-1,0.5-1.7c0-1.7-0.7-2.5-2-2.5h-1.6V106z"/>
			</g>
			<g class="st16">
				<path class="st3" d="M969.7,108.8c0,2.8-0.8,4.9-2.3,6.2l2.4,2.1l-2.2,2l-3.1-2.9l-0.9,0.1c-1.9,0-3.4-0.7-4.5-2
					s-1.6-3.1-1.6-5.4v-2.7c0-2.3,0.5-4.2,1.6-5.5s2.6-2,4.5-2c1.9,0,3.4,0.6,4.5,1.9s1.7,3,1.7,5.3V108.8z M966.2,106.1
					c0-1.6-0.2-2.7-0.7-3.4s-1.1-1.1-2-1.1s-1.6,0.4-2,1.1s-0.7,1.8-0.7,3.3v2.8c0,1.6,0.2,2.7,0.7,3.5s1.1,1.1,2.1,1.1
					c0.9,0,1.6-0.4,2-1.1s0.7-1.9,0.7-3.4V106.1z"/>
				<path class="st3" d="M980.7,109.6h1.5v2.8h-1.5v3.7h-3.3v-3.7h-5.6l-0.2-2.1l5.8-11.2h3.3V109.6z M974.8,109.6h2.6v-5.7
					l-0.1,0.1L974.8,109.6z"/>
			</g>
			<g class="st16">
				<path class="st3" d="M666.7,108.8c0,2.8-0.8,4.9-2.3,6.2l2.4,2.1l-2.2,2l-3.1-2.9l-0.9,0.1c-1.9,0-3.4-0.7-4.5-2
					s-1.6-3.1-1.6-5.4v-2.7c0-2.3,0.5-4.2,1.6-5.5s2.6-2,4.5-2c1.9,0,3.4,0.6,4.5,1.9s1.7,3,1.7,5.3V108.8z M663.3,106.1
					c0-1.6-0.2-2.7-0.7-3.4s-1.1-1.1-2-1.1s-1.6,0.4-2,1.1s-0.7,1.8-0.7,3.3v2.8c0,1.6,0.2,2.7,0.7,3.5s1.1,1.1,2.1,1.1
					c0.9,0,1.6-0.4,2-1.1s0.7-1.9,0.7-3.4V106.1z"/>
				<path class="st3" d="M676.2,116h-3.3v-13l-3.2,1.3v-2.8l6.2-2.5h0.4V116z"/>
			</g>
			<g class="st16">
				<path class="st3" d="M767.7,108.8c0,2.8-0.8,4.9-2.3,6.2l2.4,2.1l-2.2,2l-3.1-2.9l-0.9,0.1c-1.9,0-3.4-0.7-4.5-2
					s-1.6-3.1-1.6-5.4v-2.7c0-2.3,0.5-4.2,1.6-5.5s2.6-2,4.5-2c1.9,0,3.4,0.6,4.5,1.9s1.7,3,1.7,5.3V108.8z M764.3,106.1
					c0-1.6-0.2-2.7-0.7-3.4s-1.1-1.1-2-1.1s-1.6,0.4-2,1.1s-0.7,1.8-0.7,3.3v2.8c0,1.6,0.2,2.7,0.7,3.5s1.1,1.1,2.1,1.1
					c0.9,0,1.6-0.4,2-1.1s0.7-1.9,0.7-3.4V106.1z"/>
				<path class="st3" d="M780,116h-10.1v-2.3l4.6-5.9c0.6-0.8,1-1.5,1.3-2.1s0.4-1.2,0.4-1.8c0-0.8-0.1-1.4-0.4-1.8
					s-0.6-0.6-1.1-0.6c-0.5,0-1,0.2-1.3,0.8s-0.5,1.2-0.5,2.1h-3.3c0-1,0.2-2,0.7-2.9s1-1.5,1.8-2s1.7-0.7,2.7-0.7
					c1.5,0,2.7,0.4,3.5,1.3s1.3,2,1.3,3.6c0,1-0.2,1.9-0.7,2.9s-1.3,2.2-2.5,3.7l-2.2,3.1h5.8V116z"/>
			</g>
			<g class="st16">
				<path class="st3" d="M402.7,41h-8.4v-1.2l4.4-4.9c0.7-0.7,1.1-1.3,1.4-1.8c0.2-0.5,0.4-0.9,0.4-1.4c0-0.7-0.2-1.2-0.6-1.6
					s-0.9-0.6-1.6-0.6c-0.8,0-1.4,0.2-1.9,0.7c-0.4,0.5-0.7,1.1-0.7,1.9h-1.6c0-1.2,0.4-2.1,1.1-2.9s1.8-1.1,3-1.1
					c1.2,0,2.1,0.3,2.8,0.9c0.7,0.6,1,1.5,1,2.5c0,1.3-0.8,2.8-2.4,4.5l-3.4,3.7h6.4V41z"/>
				<path class="st3" d="M412.5,35.5c0,1.9-0.3,3.3-1,4.2s-1.7,1.4-3,1.4c-1.4,0-2.4-0.5-3-1.4c-0.7-0.9-1-2.3-1-4.1v-2.2
					c0-1.9,0.3-3.3,1-4.2s1.7-1.4,3.1-1.4c1.4,0,2.4,0.4,3,1.3c0.7,0.9,1,2.2,1,4.1V35.5z M410.8,33.3c0-1.4-0.2-2.4-0.6-3
					s-1-0.9-1.8-0.9c-0.8,0-1.4,0.3-1.8,0.9s-0.6,1.6-0.6,2.9v2.6c0,1.4,0.2,2.4,0.6,3.1c0.4,0.7,1,1,1.8,1c0.8,0,1.4-0.3,1.8-0.9
					s0.6-1.6,0.6-2.9V33.3z"/>
				<path class="st3" d="M422.9,41h-8.4v-1.2l4.4-4.9c0.7-0.7,1.1-1.3,1.4-1.8c0.2-0.5,0.4-0.9,0.4-1.4c0-0.7-0.2-1.2-0.6-1.6
					s-0.9-0.6-1.6-0.6c-0.8,0-1.4,0.2-1.9,0.7c-0.4,0.5-0.7,1.1-0.7,1.9h-1.6c0-1.2,0.4-2.1,1.1-2.9s1.8-1.1,3-1.1
					c1.2,0,2.1,0.3,2.8,0.9c0.7,0.6,1,1.5,1,2.5c0,1.3-0.8,2.8-2.4,4.5l-3.4,3.7h6.4V41z"/>
				<path class="st3" d="M433.1,41h-8.4v-1.2l4.4-4.9c0.7-0.7,1.1-1.3,1.4-1.8c0.2-0.5,0.4-0.9,0.4-1.4c0-0.7-0.2-1.2-0.6-1.6
					s-0.9-0.6-1.6-0.6c-0.8,0-1.4,0.2-1.9,0.7c-0.4,0.5-0.7,1.1-0.7,1.9h-1.6c0-1.2,0.4-2.1,1.1-2.9s1.8-1.1,3-1.1
					c1.2,0,2.1,0.3,2.8,0.9c0.7,0.6,1,1.5,1,2.5c0,1.3-0.8,2.8-2.4,4.5l-3.4,3.7h6.4V41z"/>
			</g>
			<g class="st16">
				<path class="st3" d="M808.7,41h-8.4v-1.2l4.4-4.9c0.7-0.7,1.1-1.3,1.4-1.8c0.2-0.5,0.4-0.9,0.4-1.4c0-0.7-0.2-1.2-0.6-1.6
					s-0.9-0.6-1.6-0.6c-0.8,0-1.4,0.2-1.9,0.7c-0.4,0.5-0.7,1.1-0.7,1.9h-1.6c0-1.2,0.4-2.1,1.1-2.9c0.8-0.7,1.8-1.1,3-1.1
					c1.2,0,2.1,0.3,2.8,0.9c0.7,0.6,1,1.5,1,2.5c0,1.3-0.8,2.8-2.4,4.5l-3.4,3.7h6.4V41z"/>
				<path class="st3" d="M818.5,35.5c0,1.9-0.3,3.3-1,4.2s-1.7,1.4-3,1.4c-1.4,0-2.4-0.5-3-1.4c-0.7-0.9-1-2.3-1-4.1v-2.2
					c0-1.9,0.3-3.3,1-4.2s1.7-1.4,3.1-1.4c1.4,0,2.4,0.4,3,1.3c0.7,0.9,1,2.2,1,4.1V35.5z M816.9,33.3c0-1.4-0.2-2.4-0.6-3
					s-1-0.9-1.8-0.9c-0.8,0-1.4,0.3-1.8,0.9s-0.6,1.6-0.6,2.9v2.6c0,1.4,0.2,2.4,0.6,3.1c0.4,0.7,1,1,1.8,1c0.8,0,1.4-0.3,1.8-0.9
					c0.4-0.6,0.6-1.6,0.6-2.9V33.3z"/>
				<path class="st3" d="M829,41h-8.4v-1.2l4.4-4.9c0.7-0.7,1.1-1.3,1.4-1.8c0.2-0.5,0.4-0.9,0.4-1.4c0-0.7-0.2-1.2-0.6-1.6
					s-0.9-0.6-1.6-0.6c-0.8,0-1.4,0.2-1.9,0.7c-0.4,0.5-0.7,1.1-0.7,1.9h-1.6c0-1.2,0.4-2.1,1.1-2.9c0.8-0.7,1.8-1.1,3-1.1
					c1.2,0,2.1,0.3,2.8,0.9c0.7,0.6,1,1.5,1,2.5c0,1.3-0.8,2.8-2.4,4.5l-3.4,3.7h6.4V41z"/>
				<path class="st3" d="M833,33.8h1.2c0.8,0,1.4-0.2,1.8-0.6s0.7-0.9,0.7-1.6c0-1.5-0.7-2.2-2.2-2.2c-0.7,0-1.3,0.2-1.7,0.6
					c-0.4,0.4-0.6,0.9-0.6,1.6h-1.6c0-1,0.4-1.9,1.1-2.5c0.7-0.7,1.7-1,2.8-1c1.2,0,2.2,0.3,2.8,1s1,1.5,1,2.7
					c0,0.6-0.2,1.1-0.5,1.6c-0.4,0.5-0.9,0.9-1.5,1.2c0.7,0.2,1.2,0.6,1.6,1.1c0.4,0.5,0.6,1.1,0.6,1.9c0,1.1-0.4,2.1-1.1,2.7
					s-1.7,1-2.9,1s-2.2-0.3-2.9-1c-0.8-0.7-1.1-1.5-1.1-2.6h1.6c0,0.7,0.2,1.2,0.7,1.6s1,0.6,1.8,0.6c0.8,0,1.4-0.2,1.8-0.6
					s0.6-1,0.6-1.8c0-0.7-0.2-1.3-0.7-1.7s-1.1-0.6-2-0.6H833V33.8z"/>
			</g>
			<g class="st16">
				<path class="st1" d="M342.2,274l0.2,1.7l0.4-1.5l2.5-8.9h1.4l2.5,8.9l0.4,1.5l0.3-1.7l2-8.8h1.7l-3.1,12.8h-1.5l-2.6-9.3l-0.2-1
					l-0.2,1l-2.7,9.3h-1.5l-3.1-12.8h1.7L342.2,274z"/>
				<path class="st1" d="M359.1,278.2c-1.3,0-2.3-0.4-3.1-1.3s-1.2-2-1.2-3.4v-0.3c0-0.9,0.2-1.8,0.5-2.5s0.9-1.3,1.5-1.7
					s1.3-0.6,2.1-0.6c1.2,0,2.2,0.4,2.9,1.2s1,2,1,3.5v0.7h-6.4c0,0.9,0.3,1.7,0.8,2.3c0.5,0.6,1.2,0.9,2,0.9c0.6,0,1.1-0.1,1.5-0.4
					s0.7-0.5,1-0.9l1,0.8C361.9,277.6,360.7,278.2,359.1,278.2z M358.9,269.7c-0.7,0-1.2,0.2-1.7,0.7s-0.7,1.1-0.8,2h4.8v-0.1
					c0-0.8-0.3-1.5-0.7-1.9S359.6,269.7,358.9,269.7z"/>
				<path class="st1" d="M368.7,278.2c-1.3,0-2.3-0.4-3.1-1.3s-1.2-2-1.2-3.4v-0.3c0-0.9,0.2-1.8,0.5-2.5s0.9-1.3,1.5-1.7
					s1.3-0.6,2.1-0.6c1.2,0,2.2,0.4,2.9,1.2s1,2,1,3.5v0.7h-6.4c0,0.9,0.3,1.7,0.8,2.3c0.5,0.6,1.2,0.9,2,0.9c0.6,0,1.1-0.1,1.5-0.4
					s0.7-0.5,1-0.9l1,0.8C371.5,277.6,370.3,278.2,368.7,278.2z M368.5,269.7c-0.7,0-1.2,0.2-1.7,0.7s-0.7,1.1-0.8,2h4.8v-0.1
					c0-0.8-0.3-1.5-0.7-1.9S369.2,269.7,368.5,269.7z"/>
				<path class="st1" d="M376.9,273.6l-1,1.1v3.3h-1.6v-13.5h1.6v8.2l0.9-1l3-3.1h2l-3.7,4l4.1,5.5h-1.9L376.9,273.6z"/>
				<path class="st1" d="M385.2,278h-1.6v-13.5h1.6V278z"/>
				<path class="st1" d="M390.9,275.6l2.2-7.1h1.7l-3.8,11c-0.6,1.6-1.5,2.4-2.8,2.4l-0.3,0l-0.6-0.1v-1.3l0.4,0
					c0.6,0,1-0.1,1.3-0.3s0.6-0.6,0.8-1.2l0.4-1l-3.4-9.4h1.8L390.9,275.6z"/>
				<path class="st1" d="M401.1,279.1h-1.4l5.3-13.9h1.4L401.1,279.1z"/>
				<path class="st1" d="M414.2,272.4c-0.3,0.4-0.7,0.7-1.2,1s-1,0.4-1.6,0.4c-0.7,0-1.4-0.2-1.9-0.5s-1-0.9-1.3-1.5
					c-0.3-0.7-0.4-1.4-0.4-2.2c0-0.9,0.2-1.6,0.5-2.3s0.8-1.2,1.4-1.6s1.3-0.5,2.1-0.5c1.3,0,2.3,0.5,3,1.4s1.1,2.2,1.1,3.9v0.5
					c0,2.5-0.5,4.3-1.5,5.5c-1,1.1-2.5,1.7-4.5,1.8h-0.3v-1.4h0.3c1.3,0,2.4-0.4,3.1-1C413.8,274.9,414.2,273.8,414.2,272.4z
					 M411.7,272.4c0.5,0,1-0.2,1.5-0.5s0.8-0.7,1-1.2V270c0-1.1-0.2-1.9-0.7-2.6s-1-1-1.8-1c-0.7,0-1.3,0.3-1.7,0.8
					s-0.7,1.3-0.7,2.2c0,0.9,0.2,1.6,0.6,2.2S411,272.4,411.7,272.4z"/>
				<path class="st1" d="M426.5,278h-8.4v-1.2l4.4-4.9c0.7-0.7,1.1-1.3,1.4-1.8c0.2-0.5,0.4-0.9,0.4-1.4c0-0.7-0.2-1.2-0.6-1.6
					s-0.9-0.6-1.6-0.6c-0.8,0-1.4,0.2-1.9,0.7c-0.4,0.5-0.7,1.1-0.7,1.9h-1.6c0-1.2,0.4-2.1,1.1-2.9s1.8-1.1,3-1.1
					c1.2,0,2.1,0.3,2.8,0.9c0.7,0.6,1,1.5,1,2.5c0,1.3-0.8,2.8-2.4,4.5l-3.4,3.7h6.4V278z"/>
				<path class="st1" d="M428.9,271.6l0.7-6.4h6.6v1.5H431l-0.4,3.5c0.6-0.4,1.3-0.6,2.1-0.6c1.2,0,2.1,0.4,2.8,1.2
					c0.7,0.8,1,1.8,1,3.1c0,1.3-0.4,2.4-1.1,3.1c-0.7,0.8-1.7,1.1-3,1.1c-1.1,0-2.1-0.3-2.8-0.9s-1.1-1.5-1.2-2.6h1.5
					c0.1,0.7,0.4,1.3,0.8,1.7s1,0.6,1.7,0.6c0.8,0,1.3-0.3,1.8-0.8s0.6-1.2,0.6-2.1c0-0.9-0.2-1.5-0.7-2.1c-0.5-0.5-1.1-0.8-1.9-0.8
					c-0.7,0-1.3,0.2-1.7,0.5l-0.4,0.4L428.9,271.6z"/>
				<path class="st1" d="M445.6,273.6l-1,1.1v3.3h-1.6v-13.5h1.6v8.2l0.9-1l3-3.1h2l-3.7,4l4.1,5.5h-1.9L445.6,273.6z"/>
				<path class="st1" d="M456.8,279.1h-1.4l5.3-13.9h1.4L456.8,279.1z"/>
				<path class="st1" d="M469.1,278h-1.6v-10.8l-3.3,1.2v-1.5l4.7-1.7h0.3V278z"/>
				<path class="st1" d="M474,280.5l-0.9-0.6c0.6-0.8,0.8-1.6,0.9-2.4v-1.5h1.6v1.3c0,0.6-0.1,1.2-0.4,1.8S474.4,280.2,474,280.5z"
					/>
				<path class="st1" d="M485.4,272.5c0,1.9-0.3,3.3-1,4.2s-1.7,1.4-3,1.4c-1.4,0-2.4-0.5-3-1.4c-0.7-0.9-1-2.3-1-4.1v-2.2
					c0-1.9,0.3-3.3,1-4.2s1.7-1.4,3.1-1.4c1.4,0,2.4,0.4,3,1.3c0.7,0.9,1,2.2,1,4.1V272.5z M483.8,270.3c0-1.4-0.2-2.4-0.6-3
					s-1-0.9-1.8-0.9c-0.8,0-1.4,0.3-1.8,0.9s-0.6,1.6-0.6,2.9v2.6c0,1.4,0.2,2.4,0.6,3.1c0.4,0.7,1,1,1.8,1c0.8,0,1.4-0.3,1.8-0.9
					s0.6-1.6,0.6-2.9V270.3z"/>
				<path class="st1" d="M495.5,272.5c0,1.9-0.3,3.3-1,4.2s-1.7,1.4-3,1.4c-1.4,0-2.4-0.5-3-1.4c-0.7-0.9-1-2.3-1-4.1v-2.2
					c0-1.9,0.3-3.3,1-4.2s1.7-1.4,3.1-1.4c1.4,0,2.4,0.4,3,1.3c0.7,0.9,1,2.2,1,4.1V272.5z M493.9,270.3c0-1.4-0.2-2.4-0.6-3
					s-1-0.9-1.8-0.9c-0.8,0-1.4,0.3-1.8,0.9s-0.6,1.6-0.6,2.9v2.6c0,1.4,0.2,2.4,0.6,3.1c0.4,0.7,1,1,1.8,1c0.8,0,1.4-0.3,1.8-0.9
					s0.6-1.6,0.6-2.9V270.3z"/>
				<path class="st1" d="M505.6,272.5c0,1.9-0.3,3.3-1,4.2s-1.7,1.4-3,1.4c-1.4,0-2.4-0.5-3-1.4c-0.7-0.9-1-2.3-1-4.1v-2.2
					c0-1.9,0.3-3.3,1-4.2s1.7-1.4,3.1-1.4c1.4,0,2.4,0.4,3,1.3c0.7,0.9,1,2.2,1,4.1V272.5z M504,270.3c0-1.4-0.2-2.4-0.6-3
					s-1-0.9-1.8-0.9c-0.8,0-1.4,0.3-1.8,0.9s-0.6,1.6-0.6,2.9v2.6c0,1.4,0.2,2.4,0.6,3.1c0.4,0.7,1,1,1.8,1c0.8,0,1.4-0.3,1.8-0.9
					s0.6-1.6,0.6-2.9V270.3z"/>
				<path class="st1" d="M516.4,272.3c-1.4-0.4-2.5-0.9-3.2-1.5c-0.7-0.6-1-1.4-1-2.2c0-1,0.4-1.8,1.2-2.5c0.8-0.7,1.9-1,3.1-1
					c0.9,0,1.7,0.2,2.4,0.5c0.7,0.3,1.2,0.8,1.6,1.4c0.4,0.6,0.6,1.3,0.6,2h-1.7c0-0.8-0.2-1.4-0.7-1.8s-1.2-0.7-2.1-0.7
					c-0.8,0-1.5,0.2-1.9,0.6c-0.5,0.4-0.7,0.9-0.7,1.5c0,0.5,0.2,1,0.7,1.3s1.2,0.7,2.3,1c1.1,0.3,1.9,0.6,2.5,1
					c0.6,0.4,1,0.8,1.3,1.3c0.3,0.5,0.4,1,0.4,1.7c0,1-0.4,1.9-1.2,2.5c-0.8,0.6-1.9,0.9-3.2,0.9c-0.9,0-1.7-0.2-2.5-0.5
					c-0.8-0.3-1.3-0.8-1.8-1.4s-0.6-1.3-0.6-2h1.7c0,0.8,0.3,1.4,0.9,1.8c0.6,0.4,1.3,0.7,2.3,0.7c0.9,0,1.6-0.2,2-0.5
					s0.7-0.9,0.7-1.5s-0.2-1.1-0.7-1.5C518.3,273,517.5,272.6,516.4,272.3z"/>
				<path class="st1" d="M531.1,273.4c0,1.4-0.3,2.6-1,3.5s-1.6,1.3-2.7,1.3c-1.2,0-2.1-0.4-2.7-1.1v4.6H523v-13.2h1.5l0.1,1.1
					c0.7-0.8,1.6-1.2,2.8-1.2c1.1,0,2,0.4,2.7,1.3c0.7,0.9,1,2.1,1,3.6V273.4z M529.4,273.2c0-1.1-0.2-1.9-0.7-2.5s-1.1-0.9-1.9-0.9
					c-1,0-1.7,0.4-2.2,1.3v4.5c0.5,0.9,1.2,1.3,2.2,1.3c0.8,0,1.4-0.3,1.9-0.9C529.2,275.3,529.4,274.4,529.4,273.2z"/>
				<path class="st1" d="M532.7,273.2c0-0.9,0.2-1.8,0.5-2.5c0.4-0.7,0.9-1.3,1.5-1.7c0.7-0.4,1.4-0.6,2.2-0.6
					c1.3,0,2.3,0.4,3.1,1.3c0.8,0.9,1.2,2.1,1.2,3.6v0.1c0,0.9-0.2,1.8-0.5,2.5c-0.4,0.7-0.9,1.3-1.5,1.7c-0.7,0.4-1.4,0.6-2.3,0.6
					c-1.3,0-2.3-0.4-3.1-1.3c-0.8-0.9-1.2-2.1-1.2-3.6V273.2z M534.3,273.4c0,1.1,0.2,1.9,0.7,2.5c0.5,0.6,1.1,1,2,1
					c0.8,0,1.5-0.3,2-1c0.5-0.6,0.7-1.6,0.7-2.7c0-1-0.2-1.9-0.7-2.5c-0.5-0.6-1.2-1-2-1c-0.8,0-1.5,0.3-1.9,1
					S534.3,272.2,534.3,273.4z"/>
				<path class="st1" d="M544.9,268.5l0.1,1.2c0.7-0.9,1.7-1.4,2.8-1.4c2,0,3,1.1,3,3.4v6.3h-1.6v-6.3c0-0.7-0.2-1.2-0.5-1.5
					c-0.3-0.3-0.8-0.5-1.4-0.5c-0.5,0-1,0.1-1.4,0.4s-0.7,0.7-0.9,1.1v6.8h-1.6v-9.5H544.9z"/>
				<path class="st1" d="M558.9,275.5c0-0.4-0.2-0.8-0.5-1c-0.3-0.2-0.9-0.5-1.7-0.6c-0.8-0.2-1.5-0.4-2-0.6
					c-0.5-0.2-0.8-0.5-1.1-0.9c-0.2-0.3-0.3-0.7-0.3-1.2c0-0.8,0.3-1.4,1-2c0.7-0.5,1.5-0.8,2.5-0.8c1.1,0,2,0.3,2.6,0.8
					c0.7,0.6,1,1.3,1,2.1h-1.6c0-0.4-0.2-0.8-0.6-1.2c-0.4-0.3-0.9-0.5-1.4-0.5c-0.6,0-1.1,0.1-1.4,0.4s-0.5,0.6-0.5,1
					c0,0.4,0.2,0.7,0.5,0.9s0.9,0.4,1.7,0.6c0.8,0.2,1.5,0.4,2,0.7s0.9,0.6,1.1,0.9c0.2,0.4,0.4,0.8,0.4,1.3c0,0.8-0.3,1.5-1,2
					c-0.7,0.5-1.6,0.8-2.6,0.8c-0.8,0-1.4-0.1-2-0.4s-1-0.6-1.4-1.1c-0.3-0.5-0.5-1-0.5-1.6h1.6c0,0.5,0.2,1,0.7,1.3
					c0.4,0.3,0.9,0.5,1.6,0.5c0.6,0,1.1-0.1,1.5-0.4C558.7,276.2,558.9,275.9,558.9,275.5z"/>
				<path class="st1" d="M562.2,273.2c0-0.9,0.2-1.8,0.5-2.5c0.4-0.7,0.9-1.3,1.5-1.7c0.7-0.4,1.4-0.6,2.2-0.6
					c1.3,0,2.3,0.4,3.1,1.3c0.8,0.9,1.2,2.1,1.2,3.6v0.1c0,0.9-0.2,1.8-0.5,2.5c-0.4,0.7-0.9,1.3-1.5,1.7c-0.7,0.4-1.4,0.6-2.3,0.6
					c-1.3,0-2.3-0.4-3.1-1.3c-0.8-0.9-1.2-2.1-1.2-3.6V273.2z M563.8,273.4c0,1.1,0.2,1.9,0.7,2.5c0.5,0.6,1.1,1,2,1
					c0.8,0,1.5-0.3,2-1c0.5-0.6,0.7-1.6,0.7-2.7c0-1-0.2-1.9-0.7-2.5c-0.5-0.6-1.2-1-2-1c-0.8,0-1.5,0.3-1.9,1
					S563.8,272.2,563.8,273.4z"/>
				<path class="st1" d="M577.5,269.9c-0.2,0-0.5-0.1-0.8-0.1c-1.1,0-1.8,0.5-2.2,1.4v6.8h-1.6v-9.5h1.6l0,1.1
					c0.5-0.8,1.3-1.3,2.3-1.3c0.3,0,0.6,0,0.7,0.1V269.9z"/>
				<path class="st1" d="M584.5,275.5c0-0.4-0.2-0.8-0.5-1c-0.3-0.2-0.9-0.5-1.7-0.6c-0.8-0.2-1.5-0.4-2-0.6
					c-0.5-0.2-0.8-0.5-1.1-0.9c-0.2-0.3-0.3-0.7-0.3-1.2c0-0.8,0.3-1.4,1-2c0.7-0.5,1.5-0.8,2.5-0.8c1.1,0,2,0.3,2.6,0.8
					c0.7,0.6,1,1.3,1,2.1h-1.6c0-0.4-0.2-0.8-0.6-1.2c-0.4-0.3-0.9-0.5-1.4-0.5c-0.6,0-1.1,0.1-1.4,0.4s-0.5,0.6-0.5,1
					c0,0.4,0.2,0.7,0.5,0.9s0.9,0.4,1.7,0.6c0.8,0.2,1.5,0.4,2,0.7s0.9,0.6,1.1,0.9c0.2,0.4,0.4,0.8,0.4,1.3c0,0.8-0.3,1.5-1,2
					c-0.7,0.5-1.6,0.8-2.6,0.8c-0.8,0-1.4-0.1-2-0.4s-1-0.6-1.4-1.1c-0.3-0.5-0.5-1-0.5-1.6h1.6c0,0.5,0.2,1,0.7,1.3
					c0.4,0.3,0.9,0.5,1.6,0.5c0.6,0,1.1-0.1,1.5-0.4C584.3,276.2,584.5,275.9,584.5,275.5z"/>
				<path class="st1" d="M594.6,273v5H593v-12.8h4.7c1.4,0,2.5,0.4,3.3,1.1c0.8,0.7,1.2,1.7,1.2,2.8c0,1.2-0.4,2.2-1.2,2.9
					c-0.8,0.7-1.9,1-3.3,1H594.6z M594.6,271.6h3c0.9,0,1.6-0.2,2.1-0.6c0.5-0.4,0.7-1,0.7-1.8c0-0.8-0.2-1.4-0.7-1.8
					s-1.1-0.7-2-0.7h-3.1V271.6z"/>
			</g>
			<g class="st16">
				<path class="st1" d="M608.6,269.9c-0.2,0-0.5-0.1-0.8-0.1c-1.1,0-1.8,0.5-2.2,1.4v6.8h-1.6v-9.5h1.6l0,1.1
					c0.5-0.8,1.3-1.3,2.3-1.3c0.3,0,0.6,0,0.7,0.1V269.9z"/>
			</g>
			<g class="st16">
				<path class="st1" d="M609.5,273.2c0-0.9,0.2-1.8,0.5-2.5s0.9-1.3,1.5-1.7s1.4-0.6,2.2-0.6c1.3,0,2.3,0.4,3.1,1.3
					s1.2,2.1,1.2,3.6v0.1c0,0.9-0.2,1.8-0.5,2.5c-0.4,0.7-0.9,1.3-1.5,1.7s-1.4,0.6-2.3,0.6c-1.3,0-2.3-0.4-3.1-1.3
					s-1.2-2.1-1.2-3.6V273.2z M611.2,273.4c0,1.1,0.2,1.9,0.7,2.5s1.1,1,2,1c0.8,0,1.5-0.3,2-1c0.5-0.6,0.7-1.6,0.7-2.7
					c0-1-0.2-1.9-0.7-2.5c-0.5-0.6-1.2-1-2-1c-0.8,0-1.5,0.3-1.9,1S611.2,272.2,611.2,273.4z"/>
				<path class="st1" d="M619.8,273.2c0-1.5,0.3-2.7,1-3.5s1.6-1.3,2.7-1.3c1.2,0,2.1,0.4,2.7,1.2l0.1-1.1h1.5v9.3
					c0,1.2-0.4,2.2-1.1,2.9s-1.7,1.1-2.9,1.1c-0.7,0-1.4-0.1-2-0.4s-1.2-0.7-1.5-1.2l0.8-1c0.7,0.9,1.5,1.3,2.6,1.3
					c0.8,0,1.4-0.2,1.8-0.7s0.7-1.1,0.7-1.9v-0.8c-0.7,0.8-1.5,1.1-2.7,1.1c-1.1,0-2-0.4-2.7-1.3S619.8,274.7,619.8,273.2z
					 M621.5,273.4c0,1.1,0.2,1.9,0.7,2.5c0.4,0.6,1.1,0.9,1.8,0.9c1,0,1.8-0.5,2.3-1.4v-4.3c-0.5-0.9-1.2-1.4-2.2-1.4
					c-0.8,0-1.4,0.3-1.9,0.9S621.5,272.1,621.5,273.4z"/>
			</g>
			<g class="st16">
				<path class="st1" d="M634.9,269.9c-0.2,0-0.5-0.1-0.8-0.1c-1.1,0-1.8,0.5-2.2,1.4v6.8h-1.6v-9.5h1.6l0,1.1
					c0.5-0.8,1.3-1.3,2.3-1.3c0.3,0,0.6,0,0.7,0.1V269.9z"/>
			</g>
			<g class="st16">
				<path class="st1" d="M641.9,278c-0.1-0.2-0.2-0.5-0.2-1c-0.8,0.8-1.7,1.2-2.7,1.2c-0.9,0-1.7-0.3-2.3-0.8s-0.9-1.2-0.9-2
					c0-1,0.4-1.8,1.1-2.3s1.8-0.8,3.2-0.8h1.6v-0.7c0-0.6-0.2-1-0.5-1.4c-0.3-0.3-0.8-0.5-1.5-0.5c-0.6,0-1.1,0.1-1.5,0.4
					s-0.6,0.6-0.6,1.1H636c0-0.5,0.2-0.9,0.5-1.4s0.8-0.8,1.4-1.1s1.2-0.4,1.9-0.4c1.1,0,2,0.3,2.6,0.8s0.9,1.3,1,2.3v4.4
					c0,0.9,0.1,1.6,0.3,2.1v0.1H641.9z M639.2,276.8c0.5,0,1-0.1,1.5-0.4s0.8-0.6,1-1v-2h-1.3c-2,0-3,0.6-3,1.7
					c0,0.5,0.2,0.9,0.5,1.2S638.7,276.8,639.2,276.8z"/>
				<path class="st1" d="M647.4,268.5l0,1.1c0.7-0.8,1.6-1.2,2.8-1.2c1.3,0,2.2,0.5,2.7,1.5c0.3-0.5,0.7-0.8,1.2-1.1
					s1.1-0.4,1.8-0.4c2.1,0,3.1,1.1,3.2,3.3v6.4h-1.6v-6.3c0-0.7-0.2-1.2-0.5-1.5c-0.3-0.3-0.8-0.5-1.6-0.5c-0.6,0-1.1,0.2-1.5,0.5
					c-0.4,0.4-0.6,0.8-0.7,1.5v6.3h-1.6v-6.2c0-1.4-0.7-2.1-2-2.1c-1.1,0-1.8,0.5-2.2,1.4v6.9h-1.6v-9.5H647.4z"/>
			</g>
			<g class="st16">
				<path class="st3" d="M299.3,380h-1.7v-12.8h1.7V380z"/>
				<path class="st3" d="M303.7,370.5l0.1,1.2c0.7-0.9,1.7-1.4,2.8-1.4c2,0,3,1.1,3,3.4v6.3H308v-6.3c0-0.7-0.2-1.2-0.5-1.5
					s-0.8-0.5-1.4-0.5c-0.5,0-1,0.1-1.4,0.4s-0.7,0.7-0.9,1.1v6.8h-1.6v-9.5H303.7z"/>
				<path class="st3" d="M313.6,370.5l0,1.1c0.7-0.8,1.6-1.2,2.8-1.2c1.3,0,2.2,0.5,2.7,1.5c0.3-0.5,0.7-0.8,1.2-1.1
					s1.1-0.4,1.8-0.4c2.1,0,3.1,1.1,3.2,3.3v6.4h-1.6v-6.3c0-0.7-0.2-1.2-0.5-1.5c-0.3-0.3-0.8-0.5-1.6-0.5c-0.6,0-1.1,0.2-1.5,0.5
					c-0.4,0.4-0.6,0.8-0.7,1.5v6.3h-1.6v-6.2c0-1.4-0.7-2.1-2-2.1c-1.1,0-1.8,0.5-2.2,1.4v6.9H312v-9.5H313.6z"/>
				<path class="st3" d="M331.8,380.2c-1.3,0-2.3-0.4-3.1-1.3s-1.2-2-1.2-3.4v-0.3c0-0.9,0.2-1.8,0.5-2.5s0.9-1.3,1.5-1.7
					s1.3-0.6,2.1-0.6c1.2,0,2.2,0.4,2.9,1.2s1,2,1,3.5v0.7H329c0,0.9,0.3,1.7,0.8,2.3c0.5,0.6,1.2,0.9,2,0.9c0.6,0,1.1-0.1,1.5-0.4
					s0.7-0.5,1-0.9l1,0.8C334.6,379.6,333.4,380.2,331.8,380.2z M331.6,371.7c-0.7,0-1.2,0.2-1.7,0.7s-0.7,1.1-0.8,2h4.8v-0.1
					c0-0.8-0.3-1.5-0.7-1.9S332.3,371.7,331.6,371.7z"/>
				<path class="st3" d="M337,375.2c0-1.5,0.3-2.6,1-3.5c0.7-0.9,1.6-1.3,2.7-1.3c1.1,0,2,0.4,2.6,1.1v-5h1.6V380h-1.5l-0.1-1
					c-0.7,0.8-1.6,1.2-2.7,1.2c-1.1,0-2-0.5-2.7-1.4s-1-2.1-1-3.5V375.2z M338.6,375.4c0,1.1,0.2,1.9,0.7,2.5s1.1,0.9,1.8,0.9
					c1,0,1.8-0.5,2.3-1.4V373c-0.5-0.9-1.2-1.3-2.2-1.3c-0.8,0-1.4,0.3-1.9,0.9S338.6,374.1,338.6,375.4z"/>
				<path class="st3" d="M347.5,368c0-0.3,0.1-0.5,0.2-0.7s0.4-0.3,0.7-0.3s0.6,0.1,0.7,0.3s0.2,0.4,0.2,0.7s-0.1,0.5-0.2,0.7
					s-0.4,0.3-0.7,0.3s-0.6-0.1-0.7-0.3S347.5,368.2,347.5,368z M349.3,380h-1.6v-9.5h1.6V380z"/>
				<path class="st3" d="M357.8,380c-0.1-0.2-0.2-0.5-0.2-1c-0.8,0.8-1.7,1.2-2.7,1.2c-0.9,0-1.7-0.3-2.3-0.8s-0.9-1.2-0.9-2
					c0-1,0.4-1.8,1.1-2.3s1.8-0.8,3.2-0.8h1.6v-0.7c0-0.6-0.2-1-0.5-1.4c-0.3-0.3-0.8-0.5-1.5-0.5c-0.6,0-1.1,0.1-1.5,0.4
					s-0.6,0.6-0.6,1.1h-1.6c0-0.5,0.2-0.9,0.5-1.4s0.8-0.8,1.4-1.1s1.2-0.4,1.9-0.4c1.1,0,2,0.3,2.6,0.8s0.9,1.3,1,2.3v4.4
					c0,0.9,0.1,1.6,0.3,2.1v0.1H357.8z M355.1,378.8c0.5,0,1-0.1,1.5-0.4s0.8-0.6,1-1v-2h-1.3c-2,0-3,0.6-3,1.7
					c0,0.5,0.2,0.9,0.5,1.2S354.5,378.8,355.1,378.8z"/>
				<path class="st3" d="M363.9,368.2v2.3h1.8v1.3h-1.8v5.9c0,0.4,0.1,0.7,0.2,0.9s0.4,0.3,0.8,0.3c0.2,0,0.4,0,0.8-0.1v1.3
					c-0.4,0.1-0.8,0.2-1.2,0.2c-0.7,0-1.3-0.2-1.6-0.7s-0.6-1.1-0.6-1.9v-5.9h-1.7v-1.3h1.7v-2.3H363.9z"/>
				<path class="st3" d="M369.3,380h-1.6v-13.5h1.6V380z"/>
				<path class="st3" d="M375,377.6l2.2-7.1h1.7l-3.8,11c-0.6,1.6-1.5,2.4-2.8,2.4l-0.3,0l-0.6-0.1v-1.3l0.4,0c0.6,0,1-0.1,1.3-0.3
					s0.6-0.6,0.8-1.2l0.4-1l-3.4-9.4h1.8L375,377.6z"/>
			</g>
			<g class="st16">
				<path class="st3" d="M196.3,329h-1.7v-12.8h1.7V329z"/>
				<path class="st3" d="M200.7,319.5l0.1,1.2c0.7-0.9,1.7-1.4,2.8-1.4c2,0,3,1.1,3,3.4v6.3H205v-6.3c0-0.7-0.2-1.2-0.5-1.5
					s-0.8-0.5-1.4-0.5c-0.5,0-1,0.1-1.4,0.4s-0.7,0.7-0.9,1.1v6.8h-1.6v-9.5H200.7z"/>
				<path class="st3" d="M210.6,319.5l0,1.1c0.7-0.8,1.6-1.2,2.8-1.2c1.3,0,2.2,0.5,2.7,1.5c0.3-0.5,0.7-0.8,1.2-1.1
					s1.1-0.4,1.8-0.4c2.1,0,3.1,1.1,3.2,3.3v6.4h-1.6v-6.3c0-0.7-0.2-1.2-0.5-1.5c-0.3-0.3-0.8-0.5-1.6-0.5c-0.6,0-1.1,0.2-1.5,0.5
					c-0.4,0.4-0.6,0.8-0.7,1.5v6.3h-1.6v-6.2c0-1.4-0.7-2.1-2-2.1c-1.1,0-1.8,0.5-2.2,1.4v6.9H209v-9.5H210.6z"/>
				<path class="st3" d="M228.8,329.2c-1.3,0-2.3-0.4-3.1-1.3s-1.2-2-1.2-3.4v-0.3c0-0.9,0.2-1.8,0.5-2.5s0.9-1.3,1.5-1.7
					s1.3-0.6,2.1-0.6c1.2,0,2.2,0.4,2.9,1.2s1,2,1,3.5v0.7H226c0,0.9,0.3,1.7,0.8,2.3c0.5,0.6,1.2,0.9,2,0.9c0.6,0,1.1-0.1,1.5-0.4
					s0.7-0.5,1-0.9l1,0.8C231.6,328.6,230.4,329.2,228.8,329.2z M228.6,320.7c-0.7,0-1.2,0.2-1.7,0.7s-0.7,1.1-0.8,2h4.8v-0.1
					c0-0.8-0.3-1.5-0.7-1.9S229.2,320.7,228.6,320.7z"/>
				<path class="st3" d="M234,324.2c0-1.5,0.3-2.6,1-3.5c0.7-0.9,1.6-1.3,2.7-1.3c1.1,0,2,0.4,2.6,1.1v-5h1.6V329h-1.5l-0.1-1
					c-0.7,0.8-1.6,1.2-2.7,1.2c-1.1,0-2-0.5-2.7-1.4s-1-2.1-1-3.5V324.2z M235.6,324.4c0,1.1,0.2,1.9,0.7,2.5s1.1,0.9,1.8,0.9
					c1,0,1.8-0.5,2.3-1.4V322c-0.5-0.9-1.2-1.3-2.2-1.3c-0.8,0-1.4,0.3-1.9,0.9S235.6,323.1,235.6,324.4z"/>
				<path class="st3" d="M244.5,317c0-0.3,0.1-0.5,0.2-0.7s0.4-0.3,0.7-0.3s0.6,0.1,0.7,0.3s0.2,0.4,0.2,0.7s-0.1,0.5-0.2,0.7
					s-0.4,0.3-0.7,0.3s-0.6-0.1-0.7-0.3S244.5,317.2,244.5,317z M246.3,329h-1.6v-9.5h1.6V329z"/>
				<path class="st3" d="M254.8,329c-0.1-0.2-0.2-0.5-0.2-1c-0.8,0.8-1.7,1.2-2.7,1.2c-0.9,0-1.7-0.3-2.3-0.8s-0.9-1.2-0.9-2
					c0-1,0.4-1.8,1.1-2.3s1.8-0.8,3.2-0.8h1.6v-0.7c0-0.6-0.2-1-0.5-1.4c-0.3-0.3-0.8-0.5-1.5-0.5c-0.6,0-1.1,0.1-1.5,0.4
					s-0.6,0.6-0.6,1.1h-1.6c0-0.5,0.2-0.9,0.5-1.4s0.8-0.8,1.4-1.1s1.2-0.4,1.9-0.4c1.1,0,2,0.3,2.6,0.8s0.9,1.3,1,2.3v4.4
					c0,0.9,0.1,1.6,0.3,2.1v0.1H254.8z M252.1,327.8c0.5,0,1-0.1,1.5-0.4s0.8-0.6,1-1v-2h-1.3c-2,0-3,0.6-3,1.7
					c0,0.5,0.2,0.9,0.5,1.2S251.5,327.8,252.1,327.8z"/>
				<path class="st3" d="M260.9,317.2v2.3h1.8v1.3h-1.8v5.9c0,0.4,0.1,0.7,0.2,0.9s0.4,0.3,0.8,0.3c0.2,0,0.4,0,0.8-0.1v1.3
					c-0.4,0.1-0.8,0.2-1.2,0.2c-0.7,0-1.3-0.2-1.6-0.7s-0.6-1.1-0.6-1.9v-5.9h-1.7v-1.3h1.7v-2.3H260.9z"/>
				<path class="st3" d="M266.3,329h-1.6v-13.5h1.6V329z"/>
				<path class="st3" d="M272,326.6l2.2-7.1h1.7l-3.8,11c-0.6,1.6-1.5,2.4-2.8,2.4l-0.3,0l-0.6-0.1v-1.3l0.4,0c0.6,0,1-0.1,1.3-0.3
					s0.6-0.6,0.8-1.2l0.4-1l-3.4-9.4h1.8L272,326.6z"/>
			</g>
		</g>
	</g>
</g>
</svg>
