<svg xmlns="http://www.w3.org/2000/svg" xmlns:xlink="http://www.w3.org/1999/xlink" width="1366.43" height="350" viewBox="0 0 1366.43 350">
  <defs>
    <style>
      .cls-1 {
        isolation: isolate;
      }

      .cls-2 {
        fill: #7f3fc9;
      }

      .cls-10, .cls-11, .cls-12, .cls-13, .cls-14, .cls-15, .cls-16, .cls-17, .cls-18, .cls-19, .cls-2, .cls-20, .cls-21, .cls-22, .cls-23, .cls-24, .cls-25, .cls-26, .cls-27, .cls-28, .cls-29, .cls-3, .cls-30, .cls-31, .cls-32, .cls-33, .cls-34, .cls-36, .cls-37, .cls-38, .cls-39, .cls-4, .cls-40, .cls-41, .cls-42, .cls-43, .cls-44, .cls-45, .cls-46, .cls-47, .cls-49, .cls-5, .cls-50, .cls-51, .cls-52, .cls-53, .cls-54, .cls-55, .cls-56, .cls-57, .cls-58, .cls-59, .cls-6, .cls-60, .cls-62, .cls-7, .cls-8, .cls-9 {
        fill-rule: evenodd;
      }

      .cls-3 {
        fill: #7235bf;
      }

      .cls-4 {
        fill: #945cd2;
      }

      .cls-5 {
        fill: #642a97;
      }

      .cls-6 {
        fill: #54278b;
      }

      .cls-7 {
        fill: #55227c;
      }

      .cls-8 {
        fill: #7430aa;
      }

      .cls-9 {
        fill: #8d4bcd;
      }

      .cls-10 {
        fill: #7d39c6;
      }

      .cls-11 {
        fill: #4b1c75;
      }

      .cls-12 {
        fill: #a36cdd;
      }

      .cls-13 {
        fill: #431768;
      }

      .cls-14 {
        fill: #9452db;
      }

      .cls-15 {
        fill: #a66ce9;
      }

      .cls-16 {
        fill: #7232b5;
      }

      .cls-17 {
        fill: #642ea5;
      }

      .cls-18 {
        fill: #7f3fc7;
      }

      .cls-19 {
        fill: #592482;
      }

      .cls-20 {
        fill: #492279;
      }

      .cls-21 {
        fill: #471d6b;
      }

      .cls-22 {
        fill: #632993;
      }

      .cls-23 {
        fill: #7031ac;
      }

      .cls-24 {
        fill: #421865;
      }

      .cls-25 {
        fill: #8a48d4;
      }

      .cls-26 {
        fill: #3c145a;
      }

      .cls-27 {
        fill: #8333d3;
      }

      .cls-28 {
        fill: #8d44e3;
      }

      .cls-29 {
        fill: #7c35be;
      }

      .cls-30 {
        fill: #542c7f;
      }

      .cls-31 {
        fill: #8937ef;
      }

      .cls-32 {
        fill: #65329c;
      }

      .cls-33 {
        fill: #7f41c4;
      }

      .cls-34, .cls-63 {
        fill: #5733af;
      }

      .cls-35, .cls-36 {
        fill: #341d6b;
      }

      .cls-37 {
        fill: #422684;
      }

      .cls-38 {
        fill: #a5b2d1;
      }

      .cls-39 {
        fill: #db7a53;
      }

      .cls-40 {
        fill: #b9b9ea;
      }

      .cls-41 {
        fill: #95a3c2;
      }

      .cls-42 {
        fill: #a7a7ce;
      }

      .cls-43 {
        fill: #d1d7e3;
      }

      .cls-44 {
        fill: #c1c8d9;
      }

      .cls-45 {
        fill: #e88f69;
      }

      .cls-46 {
        fill: #c4673f;
      }

      .cls-47 {
        fill: #ed7e5c;
      }

      .cls-48, .cls-49 {
        fill: #594f2e;
      }

      .cls-50 {
        fill: #f7a07b;
      }

      .cls-51 {
        fill: #d5dced;
      }

      .cls-52 {
        fill: #a13223;
      }

      .cls-53 {
        fill: #e87d6a;
      }

      .cls-54 {
        fill: #e06951;
      }

      .cls-55 {
        fill: #5e32b2;
      }

      .cls-56 {
        fill: #9189c6;
      }

      .cls-57 {
        fill: #b6d6fd;
      }

      .cls-58 {
        fill: #c3cfeb;
      }

      .cls-59 {
        fill: #e4e3ff;
      }

      .cls-60, .cls-62 {
        fill: #7303e0;
      }

      .cls-60 {
        opacity: 0.11;
      }

      .cls-61 {
        opacity: 0.14;
      }

      .cls-64 {
        fill: #b7d7fd;
      }

      .cls-65 {
        fill: #c3d2ff;
      }

      .cls-66 {
        fill: url(#linear-gradient);
      }

      .cls-67 {
        fill: url(#linear-gradient-2);
      }

      .cls-68 {
        mix-blend-mode: multiply;
      }

      .cls-69 {
        fill: #dfd9f7;
      }

      .cls-70 {
        mix-blend-mode: screen;
      }

      .cls-71 {
        fill: #6d4e80;
      }
    </style>
    <linearGradient id="linear-gradient" x1="722.03" y1="49.11" x2="690.26" y2="111.59" gradientUnits="userSpaceOnUse">
      <stop offset="0" stop-color="#abc9fe"/>
      <stop offset="1" stop-color="#c0e2fd"/>
    </linearGradient>
    <linearGradient id="linear-gradient-2" x1="748.93" y1="66.28" x2="714.11" y2="32.6" gradientUnits="userSpaceOnUse">
      <stop offset="0" stop-color="#a18cff"/>
      <stop offset="1" stop-color="#d5d5f5"/>
    </linearGradient>
  </defs>
  <g class="cls-1">
    <g id="Layer_1" data-name="Layer 1">
      <g>
        <g>
          <g>
            <path class="cls-2" d="M1378.6,22.24q-21.43,6.59-43,12.77-51.81,24.33-105,46.21A2367.82,2367.82,0,0,1,896.41,123q-7,3.39-14,6.74A2370.86,2370.86,0,0,1,417.2,119.33q-42-9.54-83.5-20.58C272,89.94,192.56,87.86,131.31,71.31,118.28,67.84,108,53.49,95,50.19c-35-8.88-72-11.37-107.14-21.76Q-37.26,110.21-62.42,192a2539.14,2539.14,0,0,0,1493.25,0Z"/>
            <path class="cls-3" d="M478.07,195.89c1.61-3,12.32.69,15.71.88,28.53,1.58,18.71,3.18,41,14.81,14.92,7.75,44.72,2.17,65.23,7.71,26.5,8.06,187.17,11.1,44-9.1-28.38-4.49-28.89-7.09-57.68-5.06-8.9.63-31.65.9-38.12-7.31-17.5-22.3-40.53,1.57-61.56-6.47C480.27,188.9,480.45,191.46,478.07,195.89Z"/>
            <path class="cls-3" d="M1205.55,154.62c11.16-1.27,19.08-5.31,31-3.35,6.71,1.11,18.8-1.27,24.36-5.12,7.48-5.16,18.43-10.9,26.61-16,10.44-6.52,15.25-6.74,25.83-10.34,5.64-1.9,24-9.82,29-5.92,2,1.58-.76,1.46-4.39,3.12-10,4.61-21.12,9-30.61,15-6.59,4.2-30.69,14.81-39.15,16.12-6.67,1.06-9.82,4.07-17.38,5.81-6.95,1.59-9.49,2.56-17,3.77-11.31,1.8-16.62,5.22-30,5.42-12.5.16-20.48,1-32.41,5.81-5.32,2.15-7.24-4.76-6-5.13C1175.79,160.71,1192.77,156.09,1205.55,154.62Z"/>
            <path class="cls-4" d="M1408.62,119.81q-14.13,0-28.21-.17c-12.89.39-26.76,3.65-41.25,8.34-4.57,1.48-8.14,6.66-13.26,6.38-4-.22-9.49-5.83-13.45-5.64-3.54.18-5.41,2.64-9.53,3.22s-13.16,2-17.25,3.28-10.26,10.55-13.71,12c-2.14.91,8,6.44,5.88,7.29-14,5.61-29,8.6-42.5,12.56q-31,5.89-62,11-24.69-3.92-49.11-8.35-21.68,10-43.63,19.68-10.44,4.53-20.94,9-7.72-1.31-15.43-2.67-23.65,2.6-47.33,4.73c-27.51,2.69-13.07,16-20,17.62s-15.22-9.78-21.91-8.17c-27.29,6.51-54.7,12.86-97.72,13.53q-43.2,2.86-86.45,4.21-14.87.47-29.74.74-7.32-8.51-14.54-17.07-12.9,1.5-25.83,2.87-29.58-5-58.92-10.7-25.34,11.85-51.16,23.17-10.64-.45-21.27-1L559,228q-5.55-1.85-11.09-3.72-7.14-3.3-14.25-6.65-16.75-.47-33.53-1.16-15.51,1-31.08,1.86,2,4.73,3.92,9.46Q461.16,222,449.5,216.05q-30.94-3.11-61.82-7-44.81-.18-89.83-2c-77.46-13.8-161.63-44.84-237-67-1.1-.31,0-1.82-1.11-2.13-9.71-2.76-26.42-6.82-39.64-11.56-7.37-2.63-14.35-5.1-19.89-6.83-5.91-1.86-1.18,2.07-6.85.27-4.34-1.37-10.09-6.52-14-7.44-2.17-.5,4.64,10.83,2.45,10.31-6.8-1.61-13.8-3.49-21.14-5.83Q-50.86,154.43-62.42,192a2539.14,2539.14,0,0,0,1493.25,0Q1419.73,155.9,1408.62,119.81Z"/>
            <path class="cls-5" d="M552,233.87q-112.5.91-225.62-8.5A2480.2,2480.2,0,0,1,56.69,152q-50-10.29-99.81-22.72,2.9,93.15,10.06,186.8c72.44.53,149.87.82,231.73.91q213.72.19,380-.64Q564.87,275.16,552,233.87Z"/>
            <path class="cls-5" d="M988.54,225.26q-3.81,26.36-7.9,52.71-8.57-28.19-16.91-56.41c-74,8.32-140.89,21.66-215.7,23.68-58.43,1.58-123.64-7.8-181.63-10.64q-3.35,33.3-6.78,66.59A2539,2539,0,0,0,1430.83,192q-7.55-24.5-15.08-49-80.82,17-161.79,28.44C1158.5,188.35,1067.77,202.8,988.54,225.26Z"/>
            <path class="cls-6" d="M1364.44,158l2.07-.32-1.72,0Z"/>
            <path class="cls-6" d="M1339.13,182.31c15.26-14.47,23.56-22.64,25.31-24.33q-59.39,9.3-118.66,15.6-5.92,1.32-11.85,2.59-14.45.75-28.86,1.32-10.35,3.4-20.74,6.72-35.65,7-71.45,12.87-26.7,6.12-53.55,11.66-38.44,11-77.36,20.86-9.06-3.3-18.08-6.67-88.82,15.36-178.81,24.26-40.46,1.27-80.91,1.24-69.21-4-137.89-11.81-62.55,1.19-125.37-.79-57.57-1-115.34-4.7Q217.38,205.81,112.11,171,84.29,161.82,56.69,152q-50.23-9.43-100.33-21-3.8,12.36-7.6,24.72c12.73-2.43,24.18-2.82,34.44-1.11,6,1,21,5.26,23.55,13.72,3.14,10.55-16.27,19-26,31.84-10.51,14.23-16,42.51,20.65,104C17.64,274,24.33,248.4,27.61,230.69c4.57-25,4.71-46.93,21.27-56.65,9.25-5.44,20.09-5,27.41-4,.71,10.27,1,21.16.71,32.57a320,320,0,0,1-20.19,104.6Q76.93,313,97.14,318.59q2.69-23.28,5.48-46.55,14.67-23.4,29-47l5.73-21.52A233.93,233.93,0,0,0,172,192.64c68.35,26.52,103.58,37.66,103.5,37.83,4.91,21.35,9.68,35.63,14,42.91q18,2.83,36.07,5.41,2-11.44,4.13-24.41c24.24-13.51,36.32-19.92,36.84-18.7C398.2,248.53,412,262.33,407.13,278c2,4.62,3.65,8.49,5.08,11.65q5,.54,10,1.05c9.89-19.51,14.7-29.31,14.71-29.31A379.74,379.74,0,0,1,469,241c56.62,5.85,83,16.48,78.72,34.82.18,8.81.38,17,.61,24.82q12,.64,24,1.17c8.64-38.71,12.74-58.14,12.75-58.13,45.35,12,81.45,16.21,107.33,13.94,56-5.55,83.67-9.67,83.69-9.57,6.64,22.14,12.18,40.1,16.48,53.91q7.51-.31,15-.69c3.94-34.26,5.75-51.42,5.76-51.42,7.86-1.89,31.11,3.28,70.66,14.2,16.26-17.68,24.12-26.64,24.14-26.63,34.57-13.57,55.65-4.8,64.27,27.34q2.81,12,5.28,22.49,14.64-1.7,29.29-3.58c3.32-23.46,4.92-42,5-55.48,4.31-7.13,56.33-8.14,157.66-12.42,12.88,0,25.35,11.4,37.68,34q5.36-1.12,10.71-2.28,1-24,3.68-53.7,7.29,27.71,13.19,50,9.8-2.17,19.58-4.43c-.59-33.64,1.39-51.83,6.35-54.58q20-4.83,35.15,44.64l6.68-1.67C1309.75,199.71,1321.67,184.63,1339.13,182.31Z"/>
            <path class="cls-7" d="M1292.23,145.94q-13.59,12.09-27.43,24,12.56,30.49,25.36,60.92,6.64-1.62,13.27-3.3-7.42-30.6-14.87-61.19Q1290.42,156.16,1292.23,145.94Z"/>
            <path class="cls-7" d="M1366.06,192q-14.3-16.89-28.32-33.92-5-8.84-10-17.69,16.2,6.9,32.6,13.58Q1363.25,173,1366.06,192Z"/>
            <path class="cls-7" d="M1203.85,172.86q-14.88,2.64-29.77,5.08,5.06,2.87,10.14,5.72,9.08,17.85,18.33,35.62-.33-14.52-.71-29,7.73,4,15.52,8,8.46,22.85,17,45.64l8-1.79q-3.26-33.76-6.74-67.49Q1219.73,173.86,1203.85,172.86Z"/>
            <path class="cls-7" d="M1002.37,220.47q3-10.36,5.85-20.71Q995,213,981.55,226.12,981,252.06,980.39,278c.1,3,.21,5.92.31,8.88q8.44-1,16.87-2,3.54-17.91,6.91-35.81Q1003.43,234.75,1002.37,220.47Z"/>
            <path class="cls-7" d="M876.93,222.68q-.81,5.25-1.63,10.51,4.88,22.4,9.89,44.76,3.84-23.58,7.47-47.15-.39-4.68-.79-9.34Q884.4,222.09,876.93,222.68Z"/>
            <path class="cls-7" d="M792.67,226.81q-10.9.44-21.81.77c-.39,5.58-.8,11.16-1.2,16.74q4.55,6,9.14,12,3.23,23,6.53,45.93,6.87-.27,13.75-.58.55-29.81,1-59.6Q796.37,234.43,792.67,226.81Z"/>
            <path class="cls-7" d="M1104.62,245.64q-1.33,12-2.72,24l6-1Q1106.25,257.15,1104.62,245.64Z"/>
            <path class="cls-7" d="M579.12,226l-9.4-.46q-1.65,4.53-3.32,9.08-3.35,33.3-6.78,66.59l6.56.31q9.86-32.85,19.26-65.79Q582.26,230.85,579.12,226Z"/>
            <path class="cls-7" d="M444.77,232.41q-17.36-.61-34.72-1.48-1.21,29.12-2.32,58.22l5.44.59q5.47-21,10.84-42Q434.45,240.1,444.77,232.41Z"/>
            <path class="cls-7" d="M314.35,222.78q.56-7.51,1.13-15-8.81-.33-17.63-.72l-7.94-1.48q-3.26,5.14-6.53,10.28,4.69,14.76,9.54,29.52,7.93,7.11,15.94,14.17.61,8.5,1.24,17l5.57.82q2.61-17.82,5.23-35.63Q317.59,232.27,314.35,222.78Z"/>
            <path class="cls-7" d="M201.39,183.47q-12.31-3.63-24.58-7.37-1.5,5.88-3,11.76,4,16.08,8.25,32.14,4.22-13.77,8.41-27.54Q196,188,201.39,183.47Z"/>
            <path class="cls-7" d="M113.18,183.37q1.72-6.12,3.46-12.24Q97.77,165.37,79,159.3q4.08,25.62,8.56,51.25-1.6,10.9-3.18,21.83l-9.18,39.68q3.77,29.42,8,58.87,2.41-27.89,5-55.75,7.41-19.17,14.73-38.37,7.05-9.62,14-19.28Q115,200.45,113.18,183.37Z"/>
            <path class="cls-7" d="M.74,126.8q-6.15,5.05-12.36,10.09,1.88,7.34,3.79,14.67,10.4-4.47,20.7-9-2-7.09-4-14.2C6.13,127.83,3.43,127.32.74,126.8Z"/>
            <path class="cls-8" d="M1107.27,268.75l.78-.13-2.31-10.12Z"/>
            <path class="cls-8" d="M1371.54,151.87q-2.62,20.06-5.48,40.14-2.82-19-5.69-38Q1365.95,152.95,1371.54,151.87Z"/>
            <path class="cls-8" d="M1288.2,166.48l11.49,45.69q1.88,7.71,3.74,15.41l3.26-.82q-4.26-31-8.7-62Z"/>
            <path class="cls-9" d="M1298,164.79l-5.9-18.95q-1.87,10.26-3.84,20.52Z"/>
            <path class="cls-8" d="M1246.07,172.82l-10.39,1.82q3.48,33.74,6.74,67.49l2.33-.53q-.33-15.27-.73-30.53Q1245.12,191.93,1246.07,172.82Z"/>
            <path class="cls-8" d="M1004.47,249q-3.36,17.91-6.9,35.81l3-.38C1003.14,267.53,1005.41,249.92,1004.47,249Z"/>
            <path class="cls-8" d="M903.09,229.35c.13,0-18.16,51-17.9,48.6.44-2.34,7.53-47.15,7.47-47.15Z"/>
            <path class="cls-8" d="M806.25,226.24q-6.66.3-13.32.56,3.59,7.63,7.19,15.25-.48,29.79-1,59.6l4.07-.19q2-30,3.86-60Q806.64,233.86,806.25,226.24Z"/>
            <path class="cls-8" d="M588.86,226.42l-9.74-.44q3.15,4.88,6.32,9.73Q576,268.65,566.18,301.5l2.16.1q11.94-32.67,23.32-65.45Q590.25,231.29,588.86,226.42Z"/>
            <path class="cls-8" d="M450,232.59l-5.18-.18q-10.32,7.69-20.76,15.3-5.37,21-10.84,42l2.77.3q7.24-18.84,14.33-37.69S447.77,234.86,450,232.59Z"/>
            <path class="cls-8" d="M326.41,225.37q-2.75,8.19-5.51,16.36-3.31-9.47-6.55-18.95Q320.38,224.09,326.41,225.37Z"/>
            <path class="cls-8" d="M196.8,194.17S181.26,222.69,182.05,220s8.42-27.54,8.41-27.54Z"/>
            <path class="cls-8" d="M125.84,173.93l-9.2-2.8q-1.74,6.12-3.46,12.24,1.8,17.07,3.75,34.16Q99,244,80.46,270.31q1.5,28.43,3.33,56.89c2.88-.61,5.77-1.22,8.65-1.85q1.52-27.9,3.24-55.77,13.17-29,26-58Q123.74,192.74,125.84,173.93Z"/>
            <path class="cls-8" d="M16.56,143.36q-7.63,4-15.32,7.89l-9.07.31q9.92-4.62,19.74-9.3Z"/>
            <path class="cls-10" d="M1264.93,169.85q11.55-1.69,23.11-3.49s5.89-21.92,4-20.26S1265,169.89,1264.93,169.85Z"/>
            <path class="cls-10" d="M1327.77,140.4c1,1.8,10,17.7,10,17.69q11.31-2,22.63-4.11Q1344,147.31,1327.77,140.4Z"/>
            <path class="cls-10" d="M1174.08,177.94q5.06,2.87,10.14,5.72,10.44-3,20.85-6.17,15.3-1.32,30.61-2.85-15.95-.78-31.83-1.78Q1189,175.5,1174.08,177.94Z"/>
            <path class="cls-10" d="M981.55,226.12q10.46-2.31,20.89-4.69,2.89-11,5.73-22.05Q995,212.82,981.55,226.12Z"/>
            <path class="cls-10" d="M875.3,233.19Q884,232,892.66,230.8q-.39-4.68-.79-9.34-7.47.63-14.94,1.22Q876.12,227.93,875.3,233.19Z"/>
            <path class="cls-10" d="M770.86,227.58c-.39,5.58-.8,11.16-1.2,16.74q15.27-1,30.52-2.2-3.61-7.65-7.18-15.32Q781.93,227.24,770.86,227.58Z"/>
            <path class="cls-10" d="M569.72,225.52q-1.65,4.53-3.32,9.08,9.52.6,19,1.11-3.18-4.86-6.32-9.73Z"/>
            <path class="cls-10" d="M410.05,230.93q9.93-8.25,19.73-16.57,9.59,1,19.15,1.91-2.07,8.07-4.16,16.14Q427.42,231.8,410.05,230.93Z"/>
            <path class="cls-10" d="M283.38,215.83c1.77.47,31,7,31,6.95s5.56-14.62,2.24-14.86-18.9.17-18.9.16l-7-1.11C288.28,209.92,285.84,212.88,283.38,215.83Z"/>
            <path class="cls-10" d="M176.81,176.1q-1.89,5.78-3.81,11.54,8.73,2.45,17.46,4.82,5.49-4.49,10.93-9Q189.08,179.84,176.81,176.1Z"/>
            <path class="cls-10" d="M79,159.3c.26-1,5-12.34,5-12.34q16.09,5.14,32.25,10.07.19,7,.41,14.1Q97.77,165.37,79,159.3Z"/>
            <path class="cls-10" d="M-11.62,136.89q12.24,2.88,24.49,5.64-2-7.09-4-14.2c-2.69-.5-5.39-1-8.08-1.53Q-5.41,131.85-11.62,136.89Z"/>
            <path class="cls-3" d="M67.4,124.88c-19.47-5.44-49.28-17.13-88.64-36.27C2.2,91.94,37,98.77,83.37,107.56,103,119.44,113,125.2,113,125.21,120.67,137.17,105.38,137.51,67.4,124.88Z"/>
            <path class="cls-3" d="M207.59,169.5c-52.42-23.59-76.14-29.45-72.75-15,77.89,29.61,134.92,41.11,168.14,39.31,23.31-.49,21.68-6.92-4.26-19.42C288.38,170.92,258.19,170.06,207.59,169.5Z"/>
            <path class="cls-3" d="M404,188.47c-40.93-18-60.82-27.76-60.86-27.7,54.85,15.4,82.8,21.74,82.75,21.84,28.8-.79,43.13-1.56,43.13-1.53C425.8,186.52,403.93,188.4,404,188.47Z"/>
            <path class="cls-4" d="M102.46,139.79c5.21,1.28,9.9.51,10.43-1.69s-3.28-5-8.47-6.29-9.87-.54-10.42,1.66S97.25,138.52,102.46,139.79Z"/>
            <path class="cls-4" d="M150,147.73c2.11.47,4.08-.26,4.38-1.63s-1.17-2.86-3.27-3.33-4.08.25-4.39,1.61S147.91,147.25,150,147.73Z"/>
            <path class="cls-4" d="M213.53,165c4.48.88,8.39.24,8.71-1.39s-3.08-3.67-7.54-4.55-8.37-.27-8.7,1.36S209.06,164.07,213.53,165Z"/>
            <path class="cls-4" d="M347.66,171.35c3.28.46,6.08-.11,6.24-1.27s-2.38-2.46-5.66-2.92-6.08.11-6.24,1.26S344.38,170.89,347.66,171.35Z"/>
            <path class="cls-4" d="M513.2,218.78c5.8.4,10.61-.41,10.7-1.77s-4.57-2.79-10.36-3.2-10.6.36-10.7,1.73S507.39,218.37,513.2,218.78Z"/>
            <path class="cls-3" d="M895,190.69c1.22-.8,13.72-7.19,14.82-6.77,8.06,3.13,17.3,1.21,25.5,3.83,5.41,1.78,31.56,1.7,37.67,1.23,1.53,0,34.62-.34,16.54,3.43-10.25,2.12-15.1,4.69-25.64,5.91-9.77,1.12-10.5,1.28-20.39.12-1.48-.09-37.28,0-38.18.29-8.77,3.87-18.53,12.21-28.35,14.45-.19.08-22.68,6.89-19,.26,1.93-3.52,13.8,1.13,18.58-10.11C879.44,196.42,889.69,194.22,895,190.69Z"/>
            <path class="cls-4" d="M569.88,201.15c3.32.15,6.06-.67,6.12-1.84s-2.61-2.23-5.92-2.38-6.05.66-6.11,1.82S566.57,201,569.88,201.15Z"/>
            <path class="cls-4" d="M713.06,211.55c5.79-.07,10.48-1.26,10.46-2.63s-4.75-2.41-10.52-2.34-10.47,1.21-10.46,2.58S707.27,211.62,713.06,211.55Z"/>
            <path class="cls-4" d="M1151.7,165.73c6.68-1.3,11.75-4.2,11.3-6.42s-6.22-2.94-12.87-1.65-11.73,4.14-11.31,6.36S1145,167,1151.7,165.73Z"/>
            <path class="cls-4" d="M842.13,216.84c2.74-.18,4.9-1.47,4.81-2.87s-2.4-2.38-5.14-2.21-4.9,1.46-4.81,2.85S839.39,217,842.13,216.84Z"/>
            <path class="cls-4" d="M925.7,213.83c5.78-.57,10.35-2.41,10.17-4.06s-5-2.52-10.77-2-10.34,2.36-10.18,4S919.92,214.4,925.7,213.83Z"/>
            <path class="cls-4" d="M245.32,197.21c-4.53-.2-16.63-.83-20.88-3-3.86-1.93-.93-4.94-5.16-5.08-.59,0-2-9.1-2.94-10.79-.51-.89,1.06-9.65,1.06-11.62,2.42.29,2.34,1.1,5.27,1.95,4.91,1.4,9.52,2.74,15.1,6.28,8,5.11,14.93,7.26,19.35.2a26.43,26.43,0,0,1,3.87-.7c8.42,3.23,24.92,3.91,35.15,5.54,11.44,2,59,11,69.77,14.51,9.92,3.62,61.43,6.06,62.77,6.56,3,1.53-20.79,11.22-24.82,20.1,0,0-6.7,9.31-6.75,9.33-3.16,1.41-29.5,3.54-34.74,2.81-10.25-1.34-18.29-2.57-29-3.51-16-1.42-28-2.36-41.79-10.2-11-6.22-31.42-9.3-37.33-13C252.85,205.77,248.29,200,245.32,197.21Z"/>
            <path class="cls-11" d="M399.38,221.24c12.45-15,35.35-18.12,10.14-20.89-50.94-5.6-111-8.65-147.68-25.6-5.21-2.4-4.68,9.81-10.44,8.78-13.48-2.38-33.88-16.75-34-16.79.36,19.67,9.67,26.08,16.08,39.62a145.15,145.15,0,0,1,2.58,28.45c-.29,35.13-14,62.14-24.21,77.44q77.76,3.64,154.83,2.55a406,406,0,0,1,9.21-55.69c1.87-7.89,3.91-15.47,6.06-22.72C382.08,236.43,399.11,221.62,399.38,221.24Z"/>
            <path class="cls-12" d="M183.51,166.18q-20.1,6.51-40.47,12.7,1.76,9,3.57,17.93-3.54,24-7,48-4.5,39.72-8.76,79.49,7.91-36.57,15.82-73.13,5.35-33.79,10.83-67.57Q170.58,175,183.51,166.18Z"/>
            <path class="cls-12" d="M392.32,227.49l7.06-6.25q5.19-4.56,10.34-9.15-16.1,10.54-32.48,20.88-4.74,25.74-9.53,51.48l2.33.29q6-24.17,11.91-48.35Q387.16,232,392.32,227.49Z"/>
            <path class="cls-13" d="M237.42,186.32c2.43.29,8.8,2.19,19.13,5.58,6-3.85,8.28-9.4,6.83-16.64q-3.61-2.25-5.07.61-3,7.22-5.47,7.63c-10.37-1.8-22.25-7.36-35.44-16.76a44.79,44.79,0,0,0,5,20.74c5.38,8.56,9.08,14.85,11,18.88,0,0,1.18,19.46,4.11,58.3l2.28.41c1.43-10.24,3.93-28.06,7.54-53.57A52.49,52.49,0,0,0,237.42,186.32Z"/>
            <path class="cls-11" d="M474.1,220.94l-.54-.61C473.54,220.6,473.77,220.79,474.1,220.94Z"/>
            <path class="cls-11" d="M515.53,248.23c2.4-4.25,4.32-10,7.35-13.79,2.42-4.32,13-10.34,17.81-12.07.75-2.92-21.38-2.29-22.86-2.55-20.63-3.24-9.33-3.11-30.5.57-.8.14-9.53,1.2-10.13,1.1a13.73,13.73,0,0,1-3.1-.55q4.88,5.52,9.78,11,2.22,24.78,4.59,49.57,2.52,7.79,5.08,15.55l10.49.77q2.76-7.43,5.49-14.86C509.15,280.48,514.26,250.51,515.53,248.23Z"/>
            <path class="cls-12" d="M515.26,248.45q4-7.24,7.94-14.51-6,7.49-12.11,15-.63,16-1.24,32Q512.58,264.71,515.26,248.45Z"/>
            <path class="cls-13" d="M490.36,236.9l-3.54,27.16q-1.5-16-2.94-32.1-5.11-5.62-10.19-11.28,8.61-.42,17.19-.92c4.78-.68,9.54-1.38,14.31-2.09q-5.64,4.62-11.32,9.21Z"/>
            <path class="cls-11" d="M766.78,266.21c-4.62-15.77,5.94-22.79,1.93-23.08-10.25-.74-15.93-5.66-24.87-9.32-16.08-6.63-10.84-24.17-19.1-22.5q-11.18,2.25-22.37,4.4c-8,1.65-52.2-8.86-60.22-5.81Q629.12,215,616,220c-14.24,5.41-28.76,10.15-16.19,12.82,7.92,1.67,16.14,12.79,21.12,21.36q1.73,24.68,3.54,49.35,72.27,1.71,144.54-.71C768.66,286.3,767.6,269,766.78,266.21Z"/>
            <path class="cls-13" d="M637.54,275.47c3.28-9.82.79-26.09-4.91-33.61-11.37-15,1.31-6.64,16.38-15.43,13.31-7.82,5.23-.51,23.2-5.6,6.76-1.93,20.61-2,25-5.09,0,0-12.45-2.86-43.37-6q-8.92-1.45-14.18,1.15s-6.08,2.41-18.34,7.1c-11.58,4.14-19.55,7.33-23.83,9.68-3.57,2.19-3.25,3.81,1,4.85a17,17,0,0,1,4.74,1.57c5.44,2.8,11.31,9.51,17.71,20.1q2.11,24.69,4.34,49.37l5.76.13C632.23,293.08,632.67,290,637.54,275.47Z"/>
            <path class="cls-12" d="M767.68,267q-1-4.06-2.09-8.11,2.19-7.29,4.37-14.59c0-1.84.07-3.69.1-5.53q-5.59,9.12-11.28,18.21,2.67,23,5.4,46l4.34-.15q-.19-11.32-.4-22.66Q767.9,273.58,767.68,267Z"/>
            <path class="cls-11" d="M42.35,152.25s7.71-5.7,7.85-5.85c5.91-6,15.1-6.19,5.45-8.74C36.12,132.51,12.78,128.73-.68,120c-1.91-1.25-2.41,4.19-4.62,3.55-5.16-1.5-12.41-8.48-12.46-8.49-.92,8.73,2.38,11.85,4.12,18.05A595.9,595.9,0,0,1-21,204.36l3.64,1q13.62-21.87,27-43.84Q26.09,157,42.35,152.25Z"/>
            <path class="cls-13" d="M.17,120.54a94.48,94.48,0,0,0,21.47,8.64c-4.59.57-19.48-2.84-20-.45-1.88,8.57-9,4.58-9.1,16.74,0,5.37-5.74,16.86-5.62,22.6q-3.66,16.29-7.29,32.59,3.21-33.79,6.74-67.54c-3.55-7.44-4.9-13.46-4.12-18.05,4.6,4.27,8.61,7.05,12,8.34,1.21.48,2.15-.09,2.81-1.71Q-1.58,118.64.17,120.54Z"/>
            <path class="cls-12" d="M42.35,152.25c6.88-5.27,10.29-7.93,10.29-7.93-7,3.25-10.59,4.85-10.59,4.85-21.48,8.39-32.41,12.38-32.4,12.4C31.55,155.49,42.34,152.24,42.35,152.25Z"/>
            <path class="cls-11" d="M1167.58,247.26c-2.3-16.79,5.65-15.89,1.65-33.4q4.63-10.85,9.17-21.7c-5.78,1.18-20.23-8.48-26.44-10.52q-12.8-4.17-25.48-8.47-20.85,8.66-41.91,16.94c-9,3.56-25.43,19.5-34.21,8.49-4.46-5.59-26.34-1-31.91.09q-16.55,3.33-33.13,6.44c5.76,2.44,8,8.66,17,11.89,18.66,6.56,9.3,5,18.29,27.41,1.29,13.14,2.58,25.42,3.85,36.91q72.84-9.85,145.17-23.94A99.46,99.46,0,0,1,1167.58,247.26Z"/>
            <path class="cls-13" d="M1056.42,231c2.87-11.69-3-6.18,5.49-12,13.36-9.09,38.43-19.85,46.88-30,5.33-6.38,7.8-8.31,12.53-13.74,0,0-12.58,5.31-38.08,15.39,0,0-5.4,3.15-16.29,9.35-7.56,3.59-13.11,3.1-16.59-1.44-3.41-3.44-12.39-3.66-27-.85,0,0-12.65,2.63-38,7.38a16.88,16.88,0,0,1,4.87,3.37,30.74,30.74,0,0,0,13.3,8.92c8.58,2.51,12.7,5.83,12.32,10a77.47,77.47,0,0,0,4.85,17s1.45,12.3,4.33,36.84q8.74-1.18,17.48-2.42a3.3,3.3,0,0,1,.17-.39C1060.43,267.06,1053,244.88,1056.42,231Z"/>
            <path class="cls-12" d="M1168.92,231.25c1.78-6.49,1.89-12.28.37-17.35,4.07-9.49,14-30.11,7.23-28.88-4.26.78-8.53,1.53-12.8,2.28,1.72,10.73,12.19,3.93-2.93,26.26-5.8,8.51,1.21,21.58,3.41,31.09.83,3.6,3.43,9.1,5.1,12.83l.34-.07C1166.6,246.43,1166.36,237.69,1168.92,231.25Z"/>
            <path class="cls-14" d="M1375.17,61c-34.78,10.38-52.88,8.57-82.72,14.32C1222,89,1149.6,128.57,1105.63,127.46c-44.36-1.13-61.68,10-93.93,12.83-89.08,8.24-222.64,34.44-322,33.85-48.6,1.46-197.81-29.89-276.47-39.88h0c-5.51-.59-10.72-1-15.53-1.31-32.8-6.14-53.81-29.19-107.44-16.37C239,128.94,157.91,114.49,108.43,91.94,93.92,85.42,85.29,79.23,72.7,71,40.91,50,9,56.55-18.59,49.53Q-23,63.86-27.4,78.17C-12,88.76,39.46,93.55,55.21,94.44c24.77,2.1,96.62,18.91,115.1,27.79,36.74,18.69,102.79,30.5,152.94,25.89,87.68,14.48,82.24-15,189.82,21.47C535.82,177.1,599,166,645,177.25c88.81,21.76,154.7-6.69,230-1.1,37,2.49,56.16,4.28,93.34-8.83,17.34-5.77,96.92-27.24,145.09-29.42,13-.29,67-4.32,92.13-17.4C1250.9,98.11,1357.68,74.11,1391.77,65q-1.27-4.14-2.54-8.27Q1382.2,58.92,1375.17,61Z"/>
            <path class="cls-15" d="M125.35,94.65c7.32,3,60.56,16.4,68.07,17.32,7.68,1.19,29.1,5.5,30.71,0,1.61-5.3-50-11.63-60.25-14.11-31.76-7.18-45.29-10.49-76.34-21.42-20.41-7.32-30,.24-8.81,5.86C90.58,85.47,113.35,90.08,125.35,94.65Z"/>
            <path class="cls-15" d="M320.05,150.66c26.29,5,39.07-11.9,64.34,1.42.06,0,18,3.73,11.89,8.31-7.49,5.5-28.71-18-54-3.71-5.7,3.35-46.72,8.24-39.34-2.64C306.21,149.21,319,150.47,320.05,150.66Z"/>
            <path class="cls-15" d="M518,150.64c21.63,2.76,20.19,9.45,45.84,10.81,33,1.57,50.92,13.53,89.17,7.19,17.7-3,25.91-3,42.62-4.17,14.43-1.08-9.13-12.08-28.87-9.26-26.41,3.73-41.81-6.81-71.79-3.43-15,1.75-50.91.87-62.94-9.47-6.21-5.16-44.56-9.24-53.47,2.28C473.37,151.51,516.08,150.5,518,150.64Z"/>
            <path class="cls-15" d="M552.73,181.62c-6.2-3.59-38.07,5.08.55,7.32,1,.12,32.62,4.12,25.14-2.4-3.45-2.95-25.69-5.57-25.67-5.29S552.7,181.6,552.73,181.62Z"/>
            <path class="cls-15" d="M900.66,143.47c12-14.29,55.06-14.37,73-12.21,62.28,7.43,45.55,8.59,1,7.55-15.53-.49-27.22,6.31-46.95,4.88-4.41-.29-27.73,4.36-28,1.9C899.59,144,899.58,144.76,900.66,143.47Z"/>
            <path class="cls-15" d="M1240.87,119.11c5.23,7,47.19-5.46,41.89-9.47-9.09-6.78-27.38,7.79-39.26,6.74-1.19-.08-15.26-2.13-9.67,2.63C1235.46,120.4,1240.92,119.16,1240.87,119.11Z"/>
            <path class="cls-3" d="M305.16,116.2c-19.33-3.46-49.23-12.1-89-27.12,23,.92,57.26,4.19,102.91,8.3,20.1,9.85,30.29,14.58,30.28,14.59C357.84,123.11,343.05,125,305.16,116.2Z"/>
            <path class="cls-3" d="M679.37,153.74c-54.28-13.05-77.88-14.18-72-.67,79.54,14,136.08,14.36,167.42,6.23,22.13-4.93,19.37-10.93-7.71-18.25C756.58,139.63,727.63,144.55,679.37,153.74Z"/>
            <path class="cls-3" d="M1227.44,85.94c1.08-1,12.35-9,13.48-8.76,8.3,2,17-1.22,25.41.24,5.53,1,31-2.71,36.94-4,1.48-.26,33.74-5.16,16.64,1.08-9.7,3.53-14.06,6.75-24.17,9.43-9.38,2.46-10.07,2.73-19.88,3-1.46.11-36.37,5.16-37.19,5.6-8,5.05-16.31,14.66-25.55,18.25-.19.1-21.12,10-18.52,2.9,1.38-3.74,13.62-.79,16.65-12.59C1213.11,93.78,1222.78,90.17,1227.44,85.94Z"/>
            <path class="cls-11" d="M1335,173.16c.6-2-5.42-23.68-6.36-25.58-2.8-5.6-.33-8.93-1.53-8.77-3.1.4-5.22-1.05-8.2-1.81-5.36-1.35-5.46-8.28-7.75-7.06l-6.2,3.27c-2.2,1.17-16.25.7-18.3,2.53q-3.31,3-6.64,5.93c-3.61,3.22-7.33,6.24-3.4,6.15,2.47-.06,6,3.38,8.31,6.15q7,21.19,14.13,42.35,16.32,12.06,32.93,23.92l10.56-2.81-7.44-29.7C1334.19,184.23,1334.05,176.21,1335,173.16Z"/>
            <path class="cls-13" d="M1296.75,134.17l8.16-1c-2.29,1.43-7.5.94-7.9,2.93-.66,3.18-2.58,4.69-4.85,6.91-2.46,2.39.58,10.26,1.41,17.6.17,1.4,2.67,26,2.29,26.26q-5.5-16.47-11-32.94-5.22-5.82-7.67-6.1c-2.46.17-3-.55-1.57-2.13,7.43-6.72,11.1-10.1,11.1-10.1A30.23,30.23,0,0,1,1296.75,134.17Z"/>
            <path class="cls-12" d="M1327.32,138.74l-5.1-.64c1,2.27,2.06,4.53,3.1,6.8q4.82,13.71,9.65,27.42-.71-3.63-1.43-7.26l-3.9-16.84q-1.23-3.16-2.45-6.34C1327.23,140.83,1327.28,139.78,1327.32,138.74Z"/>
          </g>
          <g>
            <path class="cls-16" d="M1106.76,228q-27,1.49-54,2.35c-38.57,6.33-85.9,21.78-125.22,24.64-8.36.62-17.46-6.54-25.76-5.74-22.75,2.22-45.19,9.57-68.18,11.15q6.58,102.22,13.16,204.46a2615.46,2615.46,0,0,0,601-110.23q-29.61-96.27-59.24-192.56A2412.19,2412.19,0,0,1,1106.76,228Z"/>
            <path class="cls-17" d="M1157.75,268.4c.39-2.3,7.48-1.73,9.54-2.2,17.35-3.95,11.79-1.14,27.26,2.88,10.34,2.66,27.19-6.13,40.52-5.71,17.25.87,114.91-21.63,24.89-13.26-17.91,1.47-18.69-.2-35.65,5.91-5.24,1.89-18.85,5.89-24.23,1.44-14.6-12.11-24,8-38.07,6.35C1157.75,263.28,1158.34,265,1157.75,268.4Z"/>
            <path class="cls-18" d="M1391.72,228.15q-25.93,7.66-52,14.74-9,2.43-17.92,4.8-5.86-4.74-11.7-9.49-7.57,2.94-15.17,5.82-18.78,1.08-37.49,1.87-13.23,12.06-26.7,24-6.46,1.44-12.93,2.85l-5.82,3.35-7.31-.65c-3.25-.68-6.49-1.37-9.74-2.07q-10.11,2.56-20.24,5-9.06,3.42-18.17,6.77l4.11,5.69q-8.09-1.82-16.13-3.7-19,3.52-38,6.76-26.52,8.37-53.29,16.16c-48.17,6.21-103.53,3.67-151.73,6.48-.7,0-.41-1.21-1.1-1.16-6.19.42-16.68,1.62-25.31,1.63-4.81,0-9.36,0-12.91.22-3.8.19-.22,1.64-3.86,1.82-2.79.13-7.22-1.88-9.67-1.53-1.34.19,5.06,6,3.69,6.19-4.6.63-9.4,1.12-14.56,1.35q4.5,69.87,9,139.73a2615.46,2615.46,0,0,0,601-110.23l-40.2-130.69C1402.72,225.38,1397.48,226.81,1391.72,228.15Z"/>
            <path class="cls-19" d="M1328.86,258.17c-35.09,9.53-76,13.33-111.19,21.13q6,34.72,12,69.47Q1219.23,315,1209,281.23q-67.1,19.62-135.29,35.49-86.12,7.35-172,8.68-23.55,11.3-47.49,22.13-3.36,58.64-7.41,117.28a2615.46,2615.46,0,0,0,601-110.23l-38.19-124.13C1383.23,240.44,1357.27,250.48,1328.86,258.17Z"/>
            <path class="cls-20" d="M1356.57,356.26c-22,9.55-53.71,23.45-95.88,40.53-19.86,6.42-61.26,7.52-122.68.29-37.42-.17-88.12,10.74-154.13,30.19-28.15,8.84-72.75,5.38-131.43-12.76-5.67,3.78-8.52,5.65-8.52,5.65q2.88,44.64,2.87,44.65a2615.46,2615.46,0,0,0,601-110.23q-1.38-4.51-2.78-9C1424.29,350.42,1394.71,354.3,1356.57,356.26Z"/>
            <path class="cls-20" d="M854.05,346.25c-1.13.43-2.27.91-3.42,1.45Z"/>
            <path class="cls-20" d="M850.36,347.82a67,67,0,0,0-10.67,6.46Q845,351.06,850.36,347.82Z"/>
            <path class="cls-20" d="M1351.63,254.21q-24.33,6.55-48.74,12.61-42.44,7.69-84.92,13.87-37.21,11.26-74.78,21.38-34.29,9.82-68.89,18.68-68.44,4.25-136.58,4.68-18,.12-36,0-23.64,10.65-47.65,20.85a41.62,41.62,0,0,1,6.14-1.86c10.81-.75,19.17,3.15,25.19,11.75,11.68-11.33,22.11-19.11,31.47-23.31,13.89,40.08,22.85,66.86,26.19,80.49,10.43-7.2,14.23-11.38,11.52-12.45,3.41-9.4,5-29.21,4.6-59.41a146.18,146.18,0,0,0,17.73-14.8c45.16,3,68,3.56,67.95,3.63,9.91,18.41,16.86,27.9,20.63,28.54,12.37,14.95,18.33,33.46,22,56.38q4.9-2-6.16-79.65c11.53-13.81,17.41-20.41,17.94-19.69,21.15,2.6,31.91,9.4,32,20.83,7.25,9.78,10.72,14,10.32,12.59,2.77-19.5,4.05-29.25,4.06-29.25a227.08,227.08,0,0,1,15.14-19.57c34.71-6.15,52.41-3.23,53.19,9.87,11.28,39.17,19,63,23,71.56-4-66.43-6.53-99.57-6.48-99.57,29.29.66,51.7-2,66.89-7.51,32.76-12.22,48.93-18.82,48.94-18.78,20.53,37.71,31.11,56.43,31.09,56.44-5.33-40.3-8.2-60.4-8.18-60.4,4.46-2.36,19.44-2.06,45.23.31l1.17-2.32-5.34-17.35Q1381.11,243.83,1351.63,254.21Z"/>
            <path class="cls-20" d="M850.36,347.82l.27-.12-.23.1Z"/>
            <path class="cls-21" d="M1359.91,248.6q10.9,48.47,21.61,97-16.24-42.07-32.19-84.26-3.78-3.42-7.53-6.86l-2-11.59q6.57-1.77,13.12-3.6Q1356.39,243.93,1359.91,248.6Z"/>
            <path class="cls-21" d="M1302.1,394.84q-8.92,2.19-17.86,4.31-4-31.62-8.13-63.21Q1289,365.43,1302.1,394.84Z"/>
            <path class="cls-21" d="M1217.67,279.3c.12-2.23.23-4.47.35-6.71l5.71-1.25,5.54,5.56q.42,35.91.4,71.87Q1223.72,314,1217.67,279.3Z"/>
            <path class="cls-21" d="M1144.83,299.06q-10.41,2.74-20.84,5.4,7,28.32,14,56.64-1.21-24-2.55-47.92Q1140.17,306.13,1144.83,299.06Z"/>
            <path class="cls-21" d="M1048.3,310.68c-.58,2.73-1.17,5.47-1.76,8.2q5.71,9,11.48,17.87,6,3.18,12.12,6.34,5.1,13.95,10.25,27.88-3.36-21.09-6.73-42.19-3.81-5.71-7.59-11.43-1.17-5.14-2.32-10.3l-10.49,3Z"/>
            <path class="cls-21" d="M992.1,314.23q-7.92.21-15.83.36c.23,2.83.47,5.66.7,8.49q5.68,9.82,11.45,19.65-.4-10.1-.82-20.17Z"/>
            <path class="cls-21" d="M940.35,324.49q-12.12.39-24.24.64,7.86,16,15.87,32.05,6.35,34.32,12.85,68.64-1.8-17.32-3.59-34.64,4.63-18,9.1-35.93-4.73-10.92-9.39-21.86Z"/>
            <path class="cls-21" d="M864.1,321.91q-2.42,4.81-4.84,9.61,2.68,4.38,5.39,8.76,5-5.43,9.85-10.87-2.73-4.2-5.44-8.41Z"/>
            <path class="cls-22" d="M1361.06,237l2.94,10.29q9,49.11,17.52,98.3-10.69-48.49-21.61-97c-2.29-3.12-4.58-6.26-6.87-9.39Z"/>
            <path class="cls-22" d="M1223.73,271.34l5.93-1.31,3.42,6.14q-1.44,36.27-3.41,72.6,0-36-.4-71.87Z"/>
            <path class="cls-22" d="M1276.68,337.24q8.4,11.47,16.91,22.9,6.6,16.77,13.27,33.52l-4.76,1.18Q1289.26,366.09,1276.68,337.24Z"/>
            <path class="cls-22" d="M1147.93,298.24c-.87,1.92-7.88,16.92-7.9,16.92q-.94,22.45-2.08,44.92-1.2-23.46-2.5-46.9,4.72-7.05,9.38-14.12Z"/>
            <path class="cls-22" d="M1073.66,316.71v12.07q-3.81-5.71-7.59-11.43Z"/>
            <path class="cls-22" d="M991.64,322.35s-3.12,22.33-3.22,20.38-.82-20.17-.82-20.17Z"/>
            <path class="cls-22" d="M946.27,324.3q2.76,13,5.56,25.93.64,18.39,1.23,36.77-4.21,18.4-8.61,36.81-2.06-15.57-4.09-31.12,5.08-18.7,10-37.44-4.73-10.92-9.39-21.86l-.6-8.9Z"/>
            <path class="cls-22" d="M876.79,329.08q-3.49,4.43-7,8.83l-5.11,2.37q4.64-5.4,9.24-10.82Z"/>
            <path class="cls-23" d="M1339.76,242.85l2,11.59q9.09-2.87,18.16-5.8-3.45-4.71-6.88-9.44Q1346.42,241,1339.76,242.85Z"/>
            <path class="cls-23" d="M1218,272.59c-.12,2.24-.23,4.48-.35,6.71q5.8-1.19,11.6-2.4l-5.54-5.56Z"/>
            <path class="cls-23" d="M1124,304.46q4.29-7.41,8.52-14.83l11.73-2.22q.3,5.83.59,11.65Q1134.42,301.8,1124,304.46Z"/>
            <path class="cls-23" d="M1046.54,318.88c1.12-.06,19.53-1.51,19.53-1.53s.36-10.9-1.64-10.41-11.06,3.88-11.06,3.87l-4.3.65Q1047.81,315.18,1046.54,318.88Z"/>
            <path class="cls-23" d="M976.27,314.59c.06,2.83.13,5.67.19,8.51,3.71-.17,7.43-.35,11.14-.54l4.5-8.33Q984.18,314.44,976.27,314.59Z"/>
            <path class="cls-23" d="M916.11,325.13c-.07-.73.23-9.31.23-9.31q10.39-.26,20.79-.6l3.22,9.27Q928.23,324.88,916.11,325.13Z"/>
            <path class="cls-23" d="M859.26,331.52q7.62-1,15.24-2.11-2.73-4.2-5.44-8.41l-5,.91Q861.69,326.73,859.26,331.52Z"/>
            <path class="cls-17" d="M902,305c-67.35,4.29-47-6.69,5.49-15.14,14,3.35,21,4.94,21,4.95C935.47,301.06,926.66,304.62,902,305Z"/>
            <path class="cls-17" d="M992.82,303.6c-35.46-4.56-50.49-3-45.46,5.79,51.43,2.45,87.1-1.32,106.27-9.2,13.6-5,11.38-9-6.4-12.17C1040.46,287.8,1022.47,293.24,992.82,303.6Z"/>
            <path class="cls-17" d="M1112.21,277c-27.77-4.41-41.48-7-41.5-6.93,35.54-.39,53.39-1.16,53.39-1.11,17-5.87,25.42-8.93,25.43-8.92C1124.77,271.51,1112.19,277,1112.21,277Z"/>
            <path class="cls-18" d="M925.48,306.88c3.29-.33,5.84-1.9,5.67-3.48s-3-2.59-6.25-2.26-5.83,1.88-5.68,3.46S922.19,307.21,925.48,306.88Z"/>
            <path class="cls-18" d="M954.75,301.54c1.33-.15,2.32-1.07,2.21-2.05s-1.28-1.64-2.61-1.49-2.31,1.06-2.21,2S953.42,301.69,954.75,301.54Z"/>
            <path class="cls-18" d="M995.35,299.3c2.8-.36,5-1.61,4.8-2.77s-2.55-1.8-5.34-1.44-4.95,1.6-4.8,2.76S992.56,299.66,995.35,299.3Z"/>
            <path class="cls-18" d="M1075.51,276.28c2-.33,3.58-1.27,3.45-2.07s-1.9-1.19-3.93-.86-3.58,1.26-3.45,2.07S1073.48,276.61,1075.51,276.28Z"/>
            <path class="cls-18" d="M1183,277.67c3.54-.74,6.26-2.11,6.06-3.05s-3.24-1.11-6.77-.37-6.27,2.1-6.07,3S1179.43,278.41,1183,277.67Z"/>
            <path class="cls-18" d="M1213.71,256.05c2-.45,3.52-1.46,3.34-2.26s-2-1.08-4-.63-3.52,1.46-3.34,2.26S1211.69,256.5,1213.71,256.05Z"/>
            <path class="cls-18" d="M1302,240.39c3.49-.91,6.15-2.42,5.9-3.35s-3.29-.94-6.78,0-6.14,2.41-5.9,3.34S1298.48,241.31,1302,240.39Z"/>
            <path class="cls-18" d="M1020.53,314.2c-2.69.8-9.87,2.89-12.79,2.36-2.65-.49-1.56-3.11-4-2.31-.35.11-3-5.66-3.93-6.59-.48-.49-1.37-6.66-1.78-8,1.48-.32,1.6.24,3.48.19a28.59,28.59,0,0,1,10.12,1c5.75,1.73,10.22,1.75,11.37-3.88a15.37,15.37,0,0,1,2.13-1.26c5.59.42,15.42-2.49,21.76-3.45,7.12-1,37-4.37,44-4,6.54.46,37.55-7.56,38.46-7.42,2.09.45-10.2,11.41-10.86,18.16,0,0-2.16,7.52-2.19,7.54-1.6,1.53-16.71,8-19.92,8.49-6.3,1.06-11.26,1.79-17.75,3.26-9.69,2.18-16.88,3.92-26.51,1.43-7.66-2-20.25.13-24.44-1.11C1026.67,318.37,1022.83,315.43,1020.53,314.2Z"/>
            <path class="cls-24" d="M1118,433.06q-7.65-75.81-9.55-119.65c.07,0,7.27-13.18,7.36-13.49,4.47-12.41,17.47-18.79,2-16-31.32,5.71-67.25,15.57-92.17,11.81-3.55-.53-.76,7.52-4.34,8-8.37,1.19-23.24-4.12-23.32-4.11,4.27,13.05,11,15.37,17.51,23.09Q1036.43,373.71,1055,443,1086.57,438.41,1118,433.06Z"/>
            <path class="cls-25" d="M978.1,306.53q-10.35,8.67-20.84,17.26,2.91,5.58,5.83,11.15,4.39,17.31,8.87,34.6l-5.34-45.77Q972.41,315.18,978.1,306.53Z"/>
            <path class="cls-25" d="M1115.83,299.92q2.19-4,4.35-8.09-7.5,10.11-15.15,20.17,3.84,31.63,7.59,63.27-2-30.94-4.15-61.86,2.21-4,4.39-8Z"/>
            <path class="cls-26" d="M1023.8,297.24c.18-1.48,1.12-2,2.84-1.45,2.32,4.55,2.13,8.73-.62,12.54-6.74-.14-10.84-.08-12.33.23a37.62,37.62,0,0,1,11,14.76q7.69,44.63,7.73,44.62c-11.38-30.08-16.89-45.17-16.9-45.17-2-2.29-5.41-5.72-10.3-10.31A33.69,33.69,0,0,1,998,299.68c9.64,3.49,17.72,4.73,24.16,3.79Q1023.47,302.7,1023.8,297.24Z"/>
            <path class="cls-24" d="M1191.65,286.59c.64-3.35,5.86-9.24,8.42-11.23-.09-2.11-13.21,2.12-14.14,2.21-12.9,1.4-6.15-.49-18.07,5.73-.46.24-5.46,2.51-5.83,2.54s-2.24.54-2.39-.13q4.15,3,8.32,6,6,16.35,12,32.69,3.82,6.27,7.68,12.53,1.89,5.74,3.8,11.47.66-13.35,1.25-26.68c-.68-1.64-3.18-22.79-2.84-24.56C1190.45,293.9,1190.53,289.65,1191.65,286.59Z"/>
            <path class="cls-25" d="M1189.69,297.39q1-5.61,2-11.2-2.21,6.12-4.45,12.22,2.6,10.95,5.18,21.89Q1191.09,308.84,1189.69,297.39Z"/>
            <path class="cls-26" d="M1172.73,293.92q1.49,9.49,3,19-3.89-10.57-7.73-21.17l-8.17-5.8,10.06-3.68c2.72-1.31,5.43-2.61,8.14-3.93q-2.51,4.11-5,8.21C1172.88,289,1172.81,291.46,1172.73,293.92Z"/>
            <path class="cls-24" d="M1298.34,395.76q29.22-7.12,58.3-14.93c-.14-9.2-3.47-30.32-1.93-37.79,1.66-8.09-1.4-21.09.64-26.77,1.35-3.76-9.81-43.09-11.65-46.51-5.42-10.08-.19-16.37-2.67-16-6.34,1-10.6-1.57-16.63-2.77-10.85-2.16-10.65-14.86-15.38-12.5q-6.39,3.18-12.81,6.34c-4.56,2.29-33.11,2-37.42,5.37q-7,5.55-14,11.06c-7.61,6-15.46,11.58-7.44,11.33,5-.16,12,6.05,16.46,11.07q12.66,38.61,25.53,77.17Q1288.77,378.32,1298.34,395.76Z"/>
            <path class="cls-26" d="M1293.07,245.64c-2.1,2.78-10.47,4.93-14.22,7.28-10,6.26-6.36,0-13,7.43-7.54,8.34-16.63,4.68-7.15,13.07,4.75,4.2,9.09,14.86,8.86,22-.44,12.87.06,13.3,1.85,25.57.54,3.71,3.47,9.1,2.33,12.05,0,0,.46,3.09.45,3.66q-9.24-26.52-18.35-53.08-8.57-9.24-14.2-10.77a9.6,9.6,0,0,0-3.12-.3q-4.1,0-1.47-3.12c2.16-2.3,6.37-5.76,12.61-10.44,6.55-5.16,9.8-7.75,9.8-7.75q2.71-2.61,8.36-3C1285,245.54,1293.07,245.62,1293.07,245.64Z"/>
            <path class="cls-25" d="M1341.12,250.6q-1.87,7-3.8,14,9,25.32,18.14,50.62l-1-7q-3.81-14.58-7.61-29.18l-2.46-8.92-2.61-5.23q.12-5.28.22-10.56C1341.7,253.12,1341.41,251.86,1341.12,250.6Z"/>
            <path class="cls-24" d="M893.52,328.91s3.19-5.56,3.24-5.69c2.09-5.34,7.35-7.59,1.24-7-12.37,1.11-26.58,4.12-36.21,1.6-1.38-.36-.46,3.34-1.87,3.44-3.28.24-6-2.81-6.07-2.8,1.42,6,1,7.43,3.42,11.1a484.63,484.63,0,0,1,12.67,55.18q3.52-21,6.89-42Q885.21,335.85,893.52,328.91Z"/>
            <path class="cls-26" d="M862.39,317.92a51.71,51.71,0,0,0,14.21.61C874.09,320,864.81,321.27,865,323c.81,6.1-4.13,5.16-1.52,13.21,1.16,3.55.44,12.48,1.77,16.23l3,23.23q-5.58-23-11-46.12c-3.68-4-3.17-8-3.75-11.26,3.58,1.69,3.88,2.93,6.1,3q1.2,0,1.23-1.8C860.93,317.87,861.44,317.36,862.39,317.92Z"/>
            <path class="cls-25" d="M893.52,328.91c2.81-5.09,4.19-7.63,4.19-7.63l-5,5.67c-10.51,10.55-15.86,15.78-15.85,15.78C888,333.55,893.52,328.91,893.52,328.91Z"/>
            <path class="cls-27" d="M835.59,290.68a16.1,16.1,0,0,0,6.34-2.24c-2.73-1.17-4.94-2.48-6.7-3.27Z"/>
            <path class="cls-27" d="M1281.42,218.47c-29.35,8-125.21,11.67-174.13,20.27h0c-3.41.65-6.61,1.33-9.54,2.06-20.73,2.15-37.92-9.29-67.14,10.21-27.9,18.64-78.29,26.38-111.92,22.78-9.85-1-16.23-3.1-25.32-5.67-8.8-2.51-9.23,3.66-16.45,7.39-7,3.63-19.39,5.64-27.15,8.76a60.18,60.18,0,0,0-7.82,4.17,28.64,28.64,0,0,0,8.27,2.24c33,3.61,77.85-16.07,111-10.55,25.38,4.35,66.47-1.62,95.25-14.63,54.83-7.34,46-26.4,117.35-21.07,15,1,51.08-17.27,81-16.85,57.56.77,93-27.93,140.3-34l3.06-.41-4-12.85C1356,194.75,1315.69,209.77,1281.42,218.47Z"/>
            <path class="cls-28" d="M929.11,271.77c4.9.3,38.85-2.55,43.46-3.49s18.23-2.57,18-6.55-31.84,3-38.31,3.62c-20.11,2.25-28.7,3.1-49.14,3-13.46-.13-17.37,7.12-3.84,5.91C906.88,273.56,921.13,271.42,929.11,271.77Z"/>
            <path class="cls-28" d="M1055.07,267.84c16.54-1.87,20.8-15.71,38.46-11.62,0,0,11.46-.93,8.68,3.32-3.36,5.12-20.61-6.65-32.81,7.95-2.73,3.33-26,14.81-23.79,6.06C1046.6,269.64,1054.4,267.92,1055.07,267.84Z"/>
            <path class="cls-28" d="M1173.27,230.75c13.55-1.9,13.9,2.86,29.63-.58,20.26-4.51,33.18.66,55.27-9.72,10.22-4.84,15.22-6.08,25.2-9.46,8.62-2.93-7.65-6.85-19.18-1.83-15.41,6.69-26.63,2-44.21,9.25-8.78,3.64-30.63,9.13-39.79,4.26-4.7-2.45-28.6,1.58-31.77,11C1146.57,239.25,1172.05,231,1173.27,230.75Z"/>
            <path class="cls-28" d="M1199.85,245.72c-4.39-1.37-21.95,10,1.66,4.87.65-.12,20.37-2.71,14.7-5.86-2.62-1.44-16.48.54-16.42.74S1199.83,245.71,1199.85,245.72Z"/>
            <path class="cls-17" d="M1039.34,247.73c-12.16,1.6-31.61,1.91-58.17.4,13.73-4.3,34.66-9.38,62.65-15.82,13.94,2.56,21,3.76,21,3.76C1072,241.9,1063.57,246,1039.34,247.73Z"/>
            <path class="cls-17" d="M1271.59,206.21c-35.34-.41-49.87,2.88-43.89,11,50.72-3.55,85.29-11.43,103.16-21.48,12.75-6.51,10.09-10.24-7.75-11.33C1316.43,185,1299.43,192.49,1271.59,206.21Z"/>
            <path class="cls-16" d="M862.68,467.83A2619.73,2619.73,0,0,1-91.62,358.49q30.14-97.92,60.25-195.85c21.77,6.29,44.86,7.57,66.48,13.47,8.12,2.21,14.16,12.17,22.26,14.57,38.12,11.39,88.15,13.83,126.6,21.64q25.6,8.77,51.43,17A2415.44,2415.44,0,0,0,525.22,268l9.31-3.29q104.58,10.56,210.13,12,35.13-7.34,69.84-15.68,16.74-.94,33.47-2.13Q855.32,363.37,862.68,467.83Z"/>
            <path class="cls-17" d="M268.75,285.24c1.19-2,7.62,1,9.71,1.33,17.62,2.47,11.43,3.12,24.45,12.37,8.71,6.16,27.56,3.92,39.84,9,15.8,6.94,114.65,20.55,27.9-3.56-17.22-5-17.35-6.82-35.33-7.13-5.56-.1-19.68-1.18-23.12-7.25-9.34-16.5-25.29-1-37.83-7.58C270.57,280.46,270.52,282.26,268.75,285.24Z"/>
            <path class="cls-17" d="M720.46,323.57c6.91.69,12.2-1,19.18,2.08,3.93,1.73,11.51,1.85,15.35,0,5.15-2.44,12.47-4.75,18.06-7,7.12-2.9,10.05-2.31,16.89-3.15,3.65-.44,15.75-3,18.24.47,1,1.41-.65.88-3,1.44-6.65,1.57-13.89,2.86-20.37,5.49-4.5,1.86-20.36,5.51-25.62,5.17-4.16-.25-6.43,1.35-11.21,1.44-4.39.09-6,.39-10.75.14-7-.38-10.68,1.22-18.82-.51-7.58-1.62-12.52-2.15-20.31-.43-3.48.76-3.83-4.25-3-4.34C701.71,323.66,712.55,322.79,720.46,323.57Z"/>
            <path class="cls-18" d="M-50.45,224.69c4.24,1.33,8.31,2.4,12.27,3.33,1.36.32-2.62-7.41-1.28-7.11,2.43.55,5.91,4,8.6,4.9,3.5,1.14.64-1.5,4.29-.32,3.43,1.11,7.74,2.71,12.29,4.43,8.15,3.09,18.5,5.72,24.49,7.54.67.21-.05,1.27.63,1.48,46.52,14.64,97.74,36.77,145.18,48.11q27.9,2.25,55.74,3.86,19,3.73,38,7.17,6.87,4.62,13.78,9.19c-.62-2.26-1.22-4.52-1.83-6.78q9.7.11,19.4.12,10.35,1.29,20.7,2.48,4.17,2.7,8.36,5.39l6.59,3.2,6.62-1.06q6.52,1,13.07,1.92,16.8-6.36,33.39-13,17.71,5.91,35.56,11.56,8.08,0,16.17-.06,3.73,6.51,7.52,13,9.17,1,18.34,1.87,26.7,2.63,53.43,4.67c26.41,3.57,43.77,2,61.09.35,4.26-.4,8.12,8.37,12.55,8s-3.09-11.19,14-10q14.65,1.17,29.35,2.16l9.1,3.68q6.87-1.81,13.71-3.67,14.42-4,28.73-8.1,14.34,6.18,28.83,12.21,19.38.68,38.8,1.06c8.64-.8,18-.67,27.16-2.43,1.41-.27-4-5.57-2.63-5.87,2.26-.5,7.18-5.91,9.77-6.19a72.49,72.49,0,0,1,10.82.36c2.55.23,4-1.17,6.15-.75,2.42.48,5,5.17,7.38,5.94,3,1,5.86-2,8.79-2.29,9.32-.94,18.08-.94,25.87.89q11-4,21.84-8.08l10.56,149.91A2619.73,2619.73,0,0,1-91.62,358.49Q-71,291.59-50.45,224.69Z"/>
            <path class="cls-19" d="M-91.62,358.49a2619.73,2619.73,0,0,0,954.3,109.34q-4.23-59.94-8.45-119.9-53.47-1.81-106.57-5.93c-59.56-2.24-116.3-3.57-166.85,3.28q-5,17.84-10.19,35.65-2.32-20.46-4.55-40.91c-46-2.12-88.13.92-134.19-3.62-36-3.55-75.37-14.48-111-19.7q-6.69,34.62-13.45,69.2,2.22-35.25,4.62-70.49-69.59-5.46-139.23-14.9-83.43-23.76-165-53.24-30.53-6.59-61-13.94Q-72.37,295.91-91.62,358.49Z"/>
            <path class="cls-20" d="M-91.62,358.49a2619.73,2619.73,0,0,0,954.3,109.34q-1.3-18.34-2.59-36.69c-11.09-19.5-56.64-12.41-141,15.27-29.54,7.4-64.5,5.36-103.76-6.72-20.3,1.79-44.11,8.19-71.91,18.9-15.15,5.88-56,.15-120.51-20.66-23.78,1.14-58.22,2.87-103.6,3.87-20.81-1-59.81-14.69-114.76-43.28-35-13.47-86.42-21.29-155.51-26.68-29.66-1.78-70.47-20.95-119.52-59l-7.64,1.69Q-84.86,336.52-91.62,358.49Z"/>
            <path class="cls-20" d="M-58.67,251.4a54.08,54.08,0,0,1,20.53-1.27c10.48,3.18,17,9.82,19.62,20,15.07-6.41,27.69-9.95,38-10.52-1.17,42.43-2.26,70.66-4,84.59,12.4-3,17.47-5.55,15.3-7.52q9.84-11.34,25.5-53.88a147,147,0,0,0,22-7.5c41.46,18.9,62.65,27.57,62.62,27.63,2.75,20.73,5.9,32.07,9.21,34,6.3,18.38,5.31,37.81.59,60.52q5.34-.15,22.55-76.64c15.72-8.8,23.58-12.88,23.83-12,18.9,9.95,26.55,20.14,22.62,30.87,3.32,11.71,5.08,16.85,5.2,15.43,9.51-17.24,14.17-25.9,14.18-25.9a227.27,227.27,0,0,1,21.12-12.91c34.64,6.58,50.12,15.58,46.2,28.11-3.37,40.62-4.63,65.64-3.94,75.06,19.87-63.52,29.24-95.4,29.28-95.39,27.09,11,48.9,16.44,65,16.71,34.81.2,52.14-.23,52.14-.19,5.72,42.53,8.93,63.79,8.9,63.79,9.3-39.56,13.75-59.37,13.76-59.37,5-.62,18.76,5,41.82,16.36,11.58-10.72,17.26-16.13,17.27-16.13,22.43-6,34.43,2.43,36.38,25.62,2.47,43.69,3.88,65.53,3.86,65.54,13.5-40.2,21.21-69.09,23.9-86.52,3.34-4.34,35.2.4,96.81,10.84,9.9,2.22,17.25,17,22.26,44.47,2.54-14.65,6.49-32.12,11.7-52.45,3.67,68.92,5.64,103.38,5.63,103.38,7.28-67.3,13.28-102,19-104q14.15-.45,16.16,45.14c8.41-24.71,18.63-36.37,31.08-35.06,12.41-8.51,18.52-12.83,18.53-12.83,24.44,6.63,37.87,14,40,22.63q-1.36-19.46-1.37-19.46-56.34-3.88-112.09-10.29l-7.46.08q-8.81-1.54-17.57-3.15-6.66.9-13.33,1.77-22.36,0-44.73-.5-16.87.86-33.78,1.47-24.55,3-49.24,5.59Q571.18,344.29,566,341q-55.69,1.14-111.59-.22-24.9-2.49-49.76-5.5-42.18-7.86-84-17.16-38.72-2.67-77.47-6.56-35.58-3-71.2-7-65.74-20.38-130.15-44.33-17-6.33-34-12.91-30.69-6-61.32-12.78Q-56.07,243-58.67,251.4Z"/>
            <path class="cls-21" d="M772.06,445.22q-9.13-51.3-17.69-102.65,9.79-6.17,19.5-12.4-2.37,6.74-4.77,13.46Q770.6,394.44,772.06,445.22Z"/>
            <path class="cls-21" d="M812.24,373.09q-6.35-13.79-12.56-27.62c-1.25-4.55-2.48-9.1-3.72-13.65q8.85,7.23,17.8,14.4Q813,359.66,812.24,373.09Z"/>
            <path class="cls-21" d="M698.65,335.3l5.46,5.31q3.39,13.51,6.86,27,1.51-10,3-20.07,4.18,3.85,8.4,7.68,3.87,27.6,7.88,55.18,3.11-34.41,6-68.83-9.53-2.82-19-5.7Q707.95,335.63,698.65,335.3Z"/>
            <path class="cls-21" d="M595.45,329.81q-9.44,7.68-19,15.29-3,17.92-6,35.82-3.12,27.1-6.31,54.18Q576.4,399.37,588,363.51q.86-10,1.69-20Q592.6,336.67,595.45,329.81Z"/>
            <path class="cls-21" d="M512.93,332q-1,3.57-2,7.15.87,16,1.79,32,4.57-16,9.06-32c.14-2.19.28-4.37.41-6.56Z"/>
            <path class="cls-21" d="M464.1,338.47q-7,49.17-14.22,98.31-.19-45.09-.09-90.19-2.3-4.54-4.56-9.09,1.09-5.78,2.2-11.55,6.72.66,13.46,1.29Z"/>
            <path class="cls-21" d="M320.87,316.7l2.7-6.15,5.78.86q1.59,3.58,3.19,7.16-12.35,33.72-25.12,67.33Q314.19,351.31,320.87,316.7Z"/>
            <path class="cls-21" d="M245.78,309.31q-10.71-1.12-21.42-2.35-3.56,28.95-7,57.92Q224.72,342,232,319.18,238.9,314.26,245.78,309.31Z"/>
            <path class="cls-21" d="M151.15,285.85l-4.57,7q2.17,10.39,4.43,20.79,4.53,5.13,9.12,10.24-.18,14.85-.3,29.7,4.35-20.91,8.69-41.83-1.54-6.69-3.06-13.38.73-5.24,1.49-10.46c-3.64-.29-7.29-.59-10.93-.9Z"/>
            <path class="cls-21" d="M97,269.14q-7.51-2.64-15-5.32-1.18,4.1-2.36,8.18,1.84,11.24,3.78,22.45,3.21-9.56,6.41-19.13Z"/>
            <path class="cls-21" d="M99.65,409.51q-10.77-2.44-21.51-5,5.76-8.9,11.46-17.82,8.27-22.43,16.43-44.88-2.79,25.1-5.47,50.21-2.2,3.54-4.43,7.08Q97.87,404.32,99.65,409.51Z"/>
            <path class="cls-21" d="M44.65,260.25q-11.58-4-23.1-8.07Q23.24,270,25.11,287.8q-6.24,34.35-12.33,68.74,4.47-16.83,9-33.65Q32.5,307.76,43.1,292.56q-.56-11.9-1.06-23.78Z"/>
            <path class="cls-22" d="M820.72,346.56q-4.19,13.28-8.48,26.53.78-13.43,1.52-26.87Z"/>
            <path class="cls-22" d="M775,344q-1.23,21.87-2.53,43.76-.23,26.94-.49,53.88-.93-32.46-1.88-64.93l-1.2-33Z"/>
            <path class="cls-29" d="M775,344q-.59-6.94-1.16-13.87-2.43,6.74-4.89,13.48Z"/>
            <path class="cls-22" d="M742.74,341.81q-2.91,13-5.88,26-3.24,21.33-6.61,42.63,3.11-34.41,6-68.83Z"/>
            <path class="cls-22" d="M528.29,339.18c.06,0-16,33.59-15.57,32s9.08-32,9.06-32Z"/>
            <path class="cls-22" d="M469.28,328l-.9,10.66q-9.06,49.08-18.5,98.11,7.22-49.14,14.22-98.31-1.53-5.61-3.05-11.22Z"/>
            <path class="cls-22" d="M329.35,311.41l6,.88q.5,3.48,1,6.95-14.21,33.4-28.93,66.66,12.76-33.6,25.12-67.33Q330.94,315,329.35,311.41Z"/>
            <path class="cls-22" d="M249,309.65c-1.49,1.49-13.38,13-13.4,13q-8.87,20.66-17.91,41.26,7.22-22.35,14.33-44.73,6.91-4.92,13.79-9.87Z"/>
            <path class="cls-22" d="M172.81,300.51l-4.29,11.28q-1.54-6.69-3.06-13.38Z"/>
            <path class="cls-22" d="M99.65,409.51q-2-4.33-3.91-8.68,2.42-4.38,4.82-8.78,2.58-24.14,5.25-48.26-1,27.91-1.83,55.85,1.6,5.79,3.24,11.57Z"/>
            <path class="cls-22" d="M93.72,276.56s-10.89,19.76-10.28,17.89,6.41-19.13,6.41-19.13Z"/>
            <path class="cls-22" d="M50.29,262.18q-2,13.11-4,26.23-6,17.4-11.94,34.8Q23.83,338.9,13.13,354.52L20.36,324q11.46-15.66,22.74-31.42-.56-11.9-1.06-23.78l2.61-8.53Z"/>
            <path class="cls-23" d="M754.46,342.51q7.17.54,14.33,1s6.3-14.14,5-13.28S754.49,342.53,754.46,342.51Z"/>
            <path class="cls-23" d="M796,331.82c.38,1.39,3.71,13.65,3.72,13.65q7,.39,14.08.75Q804.81,339,796,331.82Z"/>
            <path class="cls-23" d="M698.65,335.3l5.46,5.31q6.66-.67,13.33-1.38,9.39,1.22,18.81,2.35-9.53-2.82-19-5.7Q707.95,335.63,698.65,335.3Z"/>
            <path class="cls-23" d="M576.46,345.1c4.41-.3,8.8-.61,13.2-.93q2.91-7.31,5.8-14.62Q586,337.37,576.46,345.1Z"/>
            <path class="cls-23" d="M510.93,339.14h10.85c.14-2.19.28-4.37.41-6.56l-9.26-.6Q511.94,335.56,510.93,339.14Z"/>
            <path class="cls-23" d="M447.43,326q-1.1,5.78-2.2,11.55,9.45.56,18.91,1-1.53-5.64-3.05-11.27Q454.27,326.62,447.43,326Z"/>
            <path class="cls-23" d="M323.57,310.55l-2.7,6.15q5.83,1,11.67,1.87-1.6-3.57-3.19-7.16Z"/>
            <path class="cls-23" d="M224.36,307q6.64-5.41,13.24-10.84l11.76,2.1q-1.79,5.53-3.58,11.09Q235.07,308.19,224.36,307Z"/>
            <path class="cls-23" d="M146.58,292.89c1.08.34,18.87,5.54,18.88,5.52s4.22-10.07,2.17-10.32-11.76-.31-11.76-.32l-4.28-.92C149.92,288.86,148.26,290.88,146.58,292.89Z"/>
            <path class="cls-23" d="M82,263.82l-2.85,8q5.33,1.76,10.68,3.48L97,269.14Q89.53,266.5,82,263.82Z"/>
            <path class="cls-23" d="M21.55,252.18c.19-.71,3.53-8.63,3.53-8.63Q35,247,44.9,250.43c-.08,3.27-.17,6.54-.25,9.82Q33.07,256.28,21.55,252.18Z"/>
            <path class="cls-17" d="M15.4,228.32c-12-3.61-30.39-11.43-54.69-23.9,14.67,1.82,36.4,5.93,65.26,11.71,12,8.14,18.05,12.14,18,12.14C48.39,236.6,38.82,236.79,15.4,228.32Z"/>
            <path class="cls-17" d="M101.51,259.46C69.75,242.54,55,238.62,56.63,248.64c47.6,20.66,82.45,29.84,103.26,29.3,14.53.2,13.88-4.34-1.68-13.65C151.92,261.66,133.1,260.35,101.51,259.46Z"/>
            <path class="cls-17" d="M223.08,277.1c-24.45-14-36.42-21.26-36.44-21.24,33.47,12.28,50.45,17.91,50.43,17.95,18,.55,27,.68,27,.69C236.8,276.44,223.07,277.07,223.08,277.1Z"/>
            <path class="cls-18" d="M36.89,238.47c3.22.86,6.18.31,6.59-1.22s-1.88-3.49-5.09-4.35-6.17-.33-6.59,1.2S33.67,237.6,36.89,238.47Z"/>
            <path class="cls-18" d="M66.39,243.94c1.31.33,2.57-.17,2.81-1.12s-.62-2-1.92-2.33-2.56.17-2.81,1.12S65.09,243.61,66.39,243.94Z"/>
            <path class="cls-18" d="M105.43,256.34c2.76.66,5.23.26,5.5-.87s-1.76-2.6-4.52-3.26-5.22-.27-5.5.87S102.67,255.68,105.43,256.34Z"/>
            <path class="cls-18" d="M188.93,263.37c2,.41,3.81.1,4-.7s-1.36-1.79-3.38-2.2-3.8-.1-4,.7S186.9,263,188.93,263.37Z"/>
            <path class="cls-18" d="M289.05,302.86c3.57.57,6.6.25,6.75-.7s-2.64-2.18-6.2-2.74-6.6-.27-6.75.68S285.48,302.3,289.05,302.86Z"/>
            <path class="cls-17" d="M527.08,311.53c.82-.43,9.12-3.62,9.76-3.21,4.64,3,10.49,2.59,15.26,5.26,3.14,1.79,19.17,4.51,22.95,4.86.94.12,21.2,3.59,9.76,4.19-6.48.34-9.71,1.6-16.28,1.3-6.09-.27-6.55-.23-12.48-2.08-.9-.24-22.83-3.86-23.42-3.71-5.76,1.81-12.54,6.64-18.77,7.26-.13,0-14.55,2.63-11.69-1.63,1.51-2.26,8.35,2.09,12.35-5.26C517,314,523.48,313.46,527.08,311.53Z"/>
            <path class="cls-18" d="M325.42,293.56c2,.3,3.8-.12,3.92-.93s-1.46-1.7-3.5-2-3.81.12-3.92.93S323.37,293.27,325.42,293.56Z"/>
            <path class="cls-18" d="M413.2,310.24c3.57.39,6.57-.09,6.67-1s-2.73-2-6.3-2.43-6.56.07-6.67,1S409.62,309.85,413.2,310.24Z"/>
            <path class="cls-18" d="M686.51,323.91c4.2,0,7.62-1.33,7.61-2.92s-3.44-2.86-7.63-2.85-7.61,1.31-7.61,2.9S682.31,323.92,686.51,323.91Z"/>
            <path class="cls-18" d="M492.15,324.67c1.7.13,3.15-.57,3.22-1.55s-1.25-1.88-2.95-2-3.14.57-3.22,1.54S490.45,324.54,492.15,324.67Z"/>
            <path class="cls-18" d="M543.62,330.68c3.59.2,6.57-.6,6.63-1.77s-2.81-2.27-6.39-2.47-6.56.59-6.63,1.76S540,330.49,543.62,330.68Z"/>
            <path class="cls-18" d="M123.8,279.24c-2.81-.2-10.31-.81-12.86-2.35-2.32-1.4-.36-3.46-3-3.61-.37,0-.83-6.36-1.36-7.55-.27-.63,1.09-6.72,1.17-8.09,1.5.22,1.42.79,3.21,1.41a29.06,29.06,0,0,1,9.15,4.57c4.79,3.67,9,5.28,12.07.43a14.65,14.65,0,0,1,2.45-.42c5.11,2.38,15.37,3.17,21.68,4.53,7.05,1.59,36.25,9.07,42.72,11.92,6,2.76,37.88,6.28,38.68,6.73,1.79,1.17-13.6,7.05-16.62,13.12,0,0-4.7,6.26-4.73,6.28-2.05.86-18.49,1.49-21.7.84-6.28-1.24-11.19-2.32-17.8-3.26-9.86-1.41-17.24-2.34-25.4-8.1-6.49-4.57-19.06-7.09-22.56-9.74C128.09,285.33,125.53,281.21,123.8,279.24Z"/>
            <path class="cls-24" d="M173.05,425q19.77-73.57,33.58-115.24c.07,0,11.49-9.73,11.69-10,8.6-10,23-11.37,7.53-14.23-31.37-5.79-68.59-9.36-90.69-21.75-3.14-1.76-3.38,6.76-6.93,6-8.29-1.87-20.39-12.13-20.47-12.15-.63,13.71,4.89,18.29,8.25,27.82q1.56,55.07-5.61,126.46Q141.66,418.87,173.05,425Z"/>
            <path class="cls-25" d="M86.61,257q-12.84,4.41-25.78,8.68.75,6.25,1.53,12.5-2,17.75-4,35.5Q64,291.3,69.66,269,78.16,263,86.61,257Z"/>
            <path class="cls-25" d="M218.32,299.82l7-6q-10.64,6.78-21.37,13.47-7.65,30.93-15.38,61.85,9.12-29.64,18.1-59.31l6.94-5.86Z"/>
            <path class="cls-26" d="M132.91,264.56q1-2,3.19-.34c.56,5.07-1.11,8.91-5,11.49-6.28-2.53-10.16-3.93-11.67-4.18a37.57,37.57,0,0,1,5.05,17.71q-8.62,44.44-8.61,44.45c0-32.17.21-48.23.19-48.23-1-2.84-3.05-7.27-6-13.31a33.57,33.57,0,0,1-2.23-14.51c7.84,6.69,15,10.74,21.37,12.15C130.15,269.63,131.41,267.88,132.91,264.56Z"/>
            <path class="cls-24" d="M294,314.28c1.79-2.9,8.76-6.56,11.85-7.51.67-2-13.08-2.7-14-2.95-12.56-3.27-5.58-2.64-18.94-1.06-.51.06-6,.41-6.35.31s-2.28-.3-2.18-1q2.81,4.29,5.64,8.58-.24,17.4-.42,34.8,1.35,7.23,2.72,14.45-.26,6-.52,12.06,5.35-12.24,10.65-24.49c-.06-1.78,5.11-22.44,6.05-24C290.27,320.69,291.85,316.75,294,314.28Z"/>
            <path class="cls-25" d="M288.32,323.68l5.89-9.74q-4.23,4.94-8.49,9.84l-2.94,22.3Q285.56,334.88,288.32,323.68Z"/>
            <path class="cls-26" d="M273.71,314.42q-2,9.4-4,18.79.13-11.26.29-22.53-2.81-4.17-5.58-8.33c3.57,0,7.15.1,10.72.13q4.5-.37,9-.78l-7.62,5.89C275.6,309.87,274.65,312.14,273.71,314.42Z"/>
            <path class="cls-24" d="M354.78,454.2q29.73,3.71,59.52,6.72c3.13-8.64,7.5-29.57,11.57-36,4.41-7,6.17-20.21,10.07-24.79,2.59-3,6.13-43.78,5.63-47.62-1.47-11.35,5.62-15.38,3.19-15.91-6.23-1.35-9.29-5.23-14.48-8.48-9.32-5.88-4.63-17.68-9.86-17.15q-7.08.71-14.16,1.38c-5.05.52-31.52-9.88-36.74-8.25q-8.44,2.71-16.95,5.37c-9.22,2.89-18.53,5.34-11,8,4.76,1.64,9,9.91,11.42,16.2q-1.89,40.59-3.56,81.2Q352,434.51,354.78,454.2Z"/>
            <path class="cls-26" d="M403.05,312c-2.94,1.86-11.48.9-15.81,1.77-11.49,2.31-5.94-2.23-14.76,2.33-10,5.12-17.15-1.54-11.29,9.67,2.94,5.62,3.21,17.13.44,23.76-5,11.87-4.65,12.45-7.33,24.56-.81,3.66,0,9.73-2.11,12.09,0,0-.66,3-.87,3.58q.8-28.07,1.71-56.13c-3.14-7.79-6.26-12.83-9.41-15.11a9.49,9.49,0,0,0-2.81-1.39c-2.54-1-2.63-2.12-.26-3.44,2.82-1.38,8-3.12,15.45-5.28,7.93-2.5,11.88-3.77,11.88-3.77q3.47-1.49,8.86.14C395.61,309,403.05,312,403.05,312Z"/>
            <path class="cls-25" d="M446,333.67q-4.23,5.88-8.49,11.76-.57,26.88-1.06,53.76.76-3.44,1.51-6.88,1.63-15,3.26-30l.87-9.21-.57-5.81q2-4.9,3.94-9.8Z"/>
            <path class="cls-24" d="M-1.13,247.62s5-4.06,5.09-4.16c3.88-4.24,9.65-4.46,3.68-6.14-12.08-3.39-26.58-5.67-34.79-11.49-1.17-.82-1.63,3-3,2.55-3.19-.95-7.56-5.65-7.6-5.66-.79,6.09,1.2,8.19,2.13,12.47a477.43,477.43,0,0,1-7.68,56.1q10.8-18.33,21.46-36.74Q-11.44,251.13-1.13,247.62Z"/>
            <path class="cls-25" d="M-1.13,247.62,5.55,242l-6.77,3.49c-13.69,6.09-20.61,9.06-20.6,9.07C-8,250-1.13,247.61-1.13,247.62Z"/>
            <path class="cls-24" d="M598.46,473.07q40.53,1.24,81.1,1.23a322.86,322.86,0,0,0,9.15-46.59c1.25-10.24-2.53-34.7-2-45.54.55-11.87,5.23-10.19,4.85-22.79q4.05-6.84,8.06-13.71c-3.63,0-11.25-8.54-14.77-10.77q-7.27-4.54-14.49-9.15Q656.69,329,643,332.16c-5.84,1.35-17.58,10.38-21.73,1.73-2.11-4.4-15.94-3.77-19.44-3.65q-10.44.42-20.88.74c3.26,2.33,4,6.88,9.16,10.13,10.67,6.64,5.14,4.51,8.24,21C594,428.57,594,465.55,598.46,473.07Z"/>
            <path class="cls-26" d="M642.1,332.4c16.62-3.82,24.86-5.86,24.87-5.85-3.5,3.15-5.21,4.16-9.17,7.89-6.27,5.94-22.67,10.28-31.76,15-5.76,3-1.62-.13-4.62,7.62-3.57,9.17-1.45,25.36-13.39,31.18-.15.08-6.53,12.84-8.69,15-2,2-3.66,13.24-3.77,16.58q2.77-57.65,2.75-57.64a63,63,0,0,1-1.16-12.31q1-4.29-6.44-8.33a20.09,20.09,0,0,1-7.17-7.66,11.05,11.05,0,0,0-2.63-2.87c16-.48,24-.84,24-.83,9.2-.26,14.64,1,16.34,3.74,1.63,3.56,5,4.55,9.93,3C638.47,333.9,642.1,332.4,642.1,332.4Z"/>
            <path class="cls-25" d="M699.3,340.51l-8-.15c-.2,7.62,6.9,4.33-4.81,17.7-4.48,5.1-1.75,15-1.52,21.87.11,3.2,1.51,8.76,1.93,11.23q-1.23-13.26,2.45-19.83a24.6,24.6,0,0,0,2.23-11.91C695.11,353.42,703.55,340.58,699.3,340.51Z"/>
            <path class="cls-27" d="M222.38,238.12c3,.35,6.24.85,9.66,1.46h0c48.93,9.35,139.66,40,169.76,42.87,61.51,7.33,146.41,1.81,202,6.59,20.08,1.79,31.94-3.88,59,2.5,26.7,6.29,75.58-11.2,120.16-9.68,18.85.65,29.56,4.72,52,3.31,4.93-.31,9.86-.65,14.79-1l.45,6.49c-10.15.17-91.61-.88-125.63,9.44-16.83,5.4-50.19,1-58.17-.38-29.66-4.8-80.78,1-92,3.19-24.15,5.08-35.72,1.88-58.25-3.44-45.95-11.09-89,3.17-142.36-18-27.69-11-67.87-6.68-81.53-13-64.86-30.33-63.36-9.37-117.39-22-31.64,1.92-72.41-7.15-94.78-20.28-11.24-6.39-55.89-17.92-71.44-19-9.65-.5-40.53-2.87-50.84-9.45l6.27-20.4c17.06,3.94,37.11-.74,56.28,13.35,7.7,5.64,13,9.89,21.88,14.36,30.46,15.4,80.66,26.14,113.49,18.65C190.13,216,202.18,232.75,222.38,238.12Z"/>
            <path class="cls-28" d="M52.82,207c4.52,2,37.54,11.5,42.21,12.26s18.07,4.1,19.32.32S83.32,211,77,209.25c-19.75-5.08-28.17-7.36-47.41-14.79-12.67-4.94-18.94.43-5.74,4.15C31.21,200.68,45.41,203.78,52.82,207Z"/>
            <path class="cls-28" d="M172.75,248.22c16.19,4.13,25.11-7.29,40.2,2.81,0,0,11.07,3.21,7,6.2-5,3.58-17-13.55-33.6-4.24-3.74,2.14-29.64,4.6-24.48-2.81C164.15,246.88,172.09,248.05,172.75,248.22Z"/>
            <path class="cls-28" d="M296.64,255.55c13.33,3,12,7.61,27.87,10,20.5,3,30.72,12.39,55,10.53,11.24-.9,16.34-.29,26.81.1,9.06.31-4.68-9.12-17.2-8.52-16.72.78-25.51-7.58-44.47-7-9.48.28-31.82-2.33-38.65-10.14-3.52-4-27.29-8.68-33.6-1C268.66,254,295.43,255.32,296.64,255.55Z"/>
            <path class="cls-28" d="M316.14,279c-3.61-2.84-24,1.52-.17,5.14.64.12,20,4.71,15.79-.26-1.92-2.27-15.57-5.34-15.58-5.13S316.13,279,316.14,279Z"/>
            <path class="cls-28" d="M535.16,279.32c8.84-8.75,35.43-4.3,46.25-.79,37.54,12.15,27.1,11.05-.18,5.34-9.51-2.05-17.4,1.4-29.41-1.64-2.7-.67-17.55.19-17.45-1.53C534.44,279.56,534.36,280.11,535.16,279.32Z"/>
            <path class="cls-28" d="M746.19,304.2c2.3,5.54,29.25,3.2,26.55-.31-4.64-6-17.55,1.25-24.62-1.18-.71-.24-9-3.68-6.19.4C742.75,304.3,746.21,304.24,746.19,304.2Z"/>
            <path class="cls-17" d="M165.13,223.82c-12-2.84-30.37-9.48-54.84-20.36,14.46.88,36,3.59,64.54,7.54,12.17,7.36,18.33,11,18.32,11C197.89,230,188.52,230.79,165.13,223.82Z"/>
            <path class="cls-17" d="M397,267.5c-32.76-12.92-47.49-15-44.79-5.26,48.53,14.68,83.43,19.58,103.58,16.52,14.14-1.56,13-6-3.19-13.34C446.23,263.57,427.8,264.55,397,267.5Z"/>
            <path class="cls-17" d="M742.13,279.49c.77-.51,8.64-4.41,9.3-4.06,4.81,2.57,10.53,1.67,15.44,3.92,3.23,1.5,19.2,2.82,22.94,2.84.94,0,21.12,1.73,10,3.33-6.34.89-9.4,2.43-15.87,2.71-6,.25-6.45.33-12.43-1-.9-.17-22.75-1.86-23.31-1.65-5.49,2.3-11.73,7.71-17.79,8.87-.12,0-14,3.88-11.61-.61,1.29-2.38,8.38,1.36,11.66-6.31C732.43,282.82,738.76,281.72,742.13,279.49Z"/>
            <path class="cls-24" d="M795.23,395.82q-.47-15.26-.94-30.5a31.71,31.71,0,0,1,1.78-10c.62-1.29-.21-17-.54-18.48-1-4.27,1-6.16.21-6.24-1.91-.21-3-1.53-4.7-2.5-3-1.76-2.22-6.51-3.76-6l-4.15,1.3c-1.48.46-9.89-2-11.35-1L767,325.42c-2.58,1.66-5.2,3.18-2.82,3.7,1.5.33,3.2,3.21,4.24,5.46q1.59,15.57,3.2,31.13Q783.3,380.81,795.23,395.82Z"/>
            <path class="cls-26" d="M778.09,322.8l5,.59c-1.56.62-4.64-.5-5.14.8-.8,2.07-2.14,2.82-3.79,4s-1,7.12-1.36,12.27c-.08,1-1.66,18.22-1.92,18.34q-1.24-12.1-2.48-24.21-2.4-4.77-3.86-5.32c-1.5-.25-1.72-.82-.67-1.7l8-5.26A16.13,16.13,0,0,1,778.09,322.8Z"/>
            <path class="cls-25" d="M795.91,330.61l-3-1.22,1,5.12q1.14,10.14,2.29,20.26c0-1.73,0-3.46.07-5.19q-.09-6.06-.19-12.12l-.66-4.72C795.58,332,795.75,331.32,795.91,330.61Z"/>
          </g>
        </g>
        <g>
          <polygon class="cls-16" points="745.74 188.06 734.28 188.14 740.88 184.25 745.66 178.33 756.15 161.53 756.31 158.3 761.18 163.3 756.59 170.6 747.5 180.52 745.74 188.06"/>
          <polygon class="cls-28" points="761.18 163.3 756.31 158.3 757.49 155.37 763.15 152.81 786.31 151.65 798.66 152.24 812.07 157.97 812.99 162.3 807.64 169.16 800.21 168.81 799.06 171.18 791.5 173.65 780.1 169.46 768.3 162.84 761.18 163.3"/>
          <polygon class="cls-30" points="768.05 157.08 764.67 157.08 767.7 154.52 794.43 155.79 803.17 157.57 805.53 160.65 805.43 162.75 798.69 166.15 784.79 165.48 775.18 159.95 768.05 157.08"/>
          <polygon class="cls-17" points="807.64 169.16 812.99 162.3 814.25 171.98 819.53 177.41 826.93 189.24 822.11 192.33 804.21 188.48 807.36 176.83 807.64 169.16"/>
          <polygon class="cls-31" points="768.3 162.84 761.68 163.27 767.67 166.93 774.23 167.24 788.74 175.29 791.5 173.65 780.1 169.46 768.3 162.84"/>
          <polygon class="cls-32" points="747.5 180.52 745.63 188.06 763.21 187.74 772.19 188.17 768.41 174.97 774.23 167.24 767.67 166.93 761.16 163.33 756.59 170.6 747.5 180.52"/>
          <polygon class="cls-27" points="768.41 174.97 772.19 188.17 786.63 186.84 804.21 188.48 807.36 176.83 807.64 169.16 800.21 168.81 799.06 171.18 791.5 173.65 788.74 175.29 774.23 167.24 768.41 174.97"/>
          <polygon class="cls-24" points="794.43 155.79 788.59 155.52 793.41 157.93 793.25 161.36 784.79 165.48 798.69 166.15 805.43 162.75 805.53 160.65 803.17 157.57 794.43 155.79"/>
        </g>
        <g>
          <polygon class="cls-16" points="904.62 270.95 887.96 272.11 897.16 267.26 903.52 260.36 917.09 241.08 916.99 237.55 924.57 242.54 918.63 250.93 906.42 262.58 904.62 270.95"/>
          <polygon class="cls-28" points="924.57 242.54 916.99 237.55 918.4 234.25 926.38 230.93 959.95 227.5 977.97 226.98 998.03 231.97 999.8 236.6 992.72 244.57 981.88 244.88 980.45 247.57 969.7 250.97 952.7 247.48 934.87 241.37 924.57 242.54"/>
          <polygon class="cls-30" points="933.94 235.13 929.03 235.44 933.17 232.37 972.16 231.25 985.05 232.36 988.8 235.5 988.87 237.79 979.41 242.13 959.12 242.71 944.6 237.58 933.94 235.13"/>
          <polygon class="cls-17" points="992.72 244.57 999.8 236.6 1002.62 247.02 1010.85 252.44 1022.8 264.63 1016.1 268.45 989.67 265.94 993.08 252.95 992.72 244.57"/>
          <polygon class="cls-31" points="934.87 241.37 925.29 242.46 934.37 245.89 943.95 245.61 965.85 253.02 969.7 250.97 952.7 247.48 934.87 241.37"/>
          <polygon class="cls-32" points="906.42 262.58 904.45 270.96 929.99 268.97 943.09 268.59 936.26 254.57 943.95 245.61 934.37 245.89 924.55 242.58 918.63 250.93 906.42 262.58"/>
          <polygon class="cls-27" points="936.26 254.57 943.09 268.59 963.94 265.79 989.67 265.94 993.08 252.95 992.72 244.57 981.88 244.88 980.45 247.57 969.7 250.97 965.85 253.02 943.95 245.61 936.26 254.57"/>
          <polygon class="cls-24" points="972.16 231.25 963.65 231.5 970.9 233.67 971.01 237.42 959.12 242.71 979.41 242.13 988.87 237.79 988.8 235.5 985.05 232.36 972.16 231.25"/>
        </g>
        <g>
          <polygon class="cls-31" points="295 126.93 306.94 130.69 310.45 132.91 325.66 136.99 326.71 138.04 342.29 136.31 354.79 132.67 355.83 130.32 344.81 122.98 336.5 121.99 325.42 121.62 316.43 118.47 301.28 119.33 289.7 118.47 295 126.93"/>
          <polygon class="cls-32" points="282.65 127.48 286.22 127.82 289.64 126.96 294.56 128.59 302.39 129.25 295 126.93 290.93 119.95 289.7 118.47 282.65 127.48"/>
          <polygon class="cls-30" points="269.46 147.52 274.86 147.85 278.8 140.57 286.22 127.82 282.65 127.82 278.95 135.92 269.46 147.52"/>
          <polygon class="cls-17" points="298.63 137.48 294.19 146.49 311.44 146.49 320.3 147.85 320.3 142.76 326.71 138.04 325.66 136.99 310.45 132.91 306.94 130.69 298.63 137.48"/>
          <polygon class="cls-16" points="320.3 142.76 326.71 138.04 340.08 136.55 344.07 144.64 347.38 146.25 359.46 153.78 350.6 156 336.07 154.64 320.3 147.85 320.3 142.76"/>
          <polygon class="cls-33" points="344.07 144.64 339.84 136.55 343.15 136.06 354.79 132.67 355.83 130.32 361.81 142.76 368.21 151.55 359.46 153.78 344.07 144.64"/>
          <path class="cls-30" d="M300.85,126.19,298.63,124l15-1,1.17,1.17,11.39.86h13q10.8,1.81,7.33,5.68a28.15,28.15,0,0,1-13.61,3.52l-12.62-1.05-10.9-4.57Z"/>
          <polygon class="cls-11" points="298.63 137.48 294.19 146.49 279.14 146.49 274.86 148.03 282.65 130.69 292.44 122.53 295 126.93 306.94 130.69 298.63 137.48"/>
          <polygon class="cls-24" points="314.83 124.15 325.72 124.98 318.71 125.95 311.5 125.95 310.25 128.95 300.85 126.19 298.63 123.97 313.66 122.98 314.83 124.15"/>
        </g>
        <g>
          <polygon class="cls-28" points="-4.21 57.93 -12.6 48.88 -9.66 44.97 1.95 43.18 47.37 49.54 71.32 54.71 96.18 67.81 97.02 74.49 85.08 82.72 70.68 79.61 67.91 82.69 52.62 83.69 31.32 73.57 9.77 59.72 -4.21 57.93"/>
          <polygon class="cls-30" points="10.56 51.17 3.98 50 10.44 47.28 62.27 58.47 78.93 64.12 82.86 69.47 82.2 72.52 68.31 75.17 41.34 69.35 23.84 57.88 10.56 51.17"/>
          <polygon class="cls-17" points="85.08 82.72 97.02 74.49 97.36 89.17 106.46 98.99 118.27 118.97 108.19 121.82 74.13 109.93 82.85 93.89 85.08 82.72"/>
          <polygon class="cls-31" points="9.77 59.72 -3.23 58.05 7.64 65.52 20.37 68.26 46.87 85.15 52.62 83.69 31.32 73.57 9.77 59.72"/>
          <polygon class="cls-32" points="-34.67 78.48 -39.99 88.9 -5.64 94.56 11.78 98.32 7.31 77.6 20.37 68.26 7.64 65.52 -4.25 57.96 -14.77 67.06 -34.67 78.48"/>
          <polygon class="cls-27" points="7.31 77.6 11.78 98.32 40.22 101.39 74.13 109.93 82.85 93.89 85.08 82.72 70.68 79.61 67.91 82.69 52.62 83.69 46.87 85.15 20.37 68.26 7.31 77.6"/>
          <polygon class="cls-24" points="62.27 58.47 50.96 56.03 59.82 61.25 58.75 66.23 41.34 69.35 68.31 75.17 82.2 72.52 82.86 69.47 78.93 64.12 62.27 58.47"/>
        </g>
        <g>
          <polygon class="cls-31" points="368.19 242.47 379.77 247.24 383.08 249.75 397.89 255.09 398.85 256.23 414.52 255.83 427.28 253.25 428.52 251.01 418.16 242.76 409.96 241.07 398.95 239.76 390.26 235.86 375.09 235.44 363.63 233.6 368.19 242.47"/>
          <polygon class="cls-32" points="355.85 241.98 359.37 242.62 362.85 242.05 367.62 244.1 375.36 245.42 368.19 242.47 364.73 235.18 363.63 233.6 355.85 241.98"/>
          <polygon class="cls-30" points="341.01 260.84 346.36 261.62 350.9 254.7 359.37 242.62 355.82 242.32 351.44 250.08 341.01 260.84"/>
          <polygon class="cls-17" points="370.92 253.3 365.73 261.9 382.91 263.36 391.63 265.47 392.06 260.4 398.85 256.23 397.89 255.09 383.08 249.75 379.77 247.24 370.92 253.3"/>
          <polygon class="cls-16" points="392.06 260.4 398.85 256.23 412.3 255.88 415.59 264.28 418.75 266.16 430.15 274.68 421.13 276.15 406.77 273.56 391.63 265.47 392.06 260.4"/>
          <polygon class="cls-33" points="415.59 264.28 412.06 255.86 415.4 255.65 427.28 253.25 428.52 251.01 433.42 263.91 439.06 273.21 430.15 274.68 415.59 264.28"/>
          <path class="cls-30" d="M374.08,242.23l-2-2.4,15.06.29,1.06,1.27,11.28,1.82,13,1.1q10.6,2.73,6.82,6.28a28.2,28.2,0,0,1-13.86,2.35l-12.49-2.11-10.47-5.47Z"/>
          <polygon class="cls-11" points="370.92 253.3 365.73 261.9 350.73 260.63 346.34 261.8 355.57 245.18 366.01 237.88 368.19 242.47 379.77 247.24 370.92 253.3"/>
          <polygon class="cls-24" points="388.18 241.39 398.97 243.13 391.9 243.5 384.72 242.9 383.22 245.78 374.08 242.23 372.06 239.83 387.12 240.12 388.18 241.39"/>
        </g>
        <g>
          <polygon class="cls-31" points="999.48 150.99 991.08 153.64 988.62 155.2 977.92 158.06 977.19 158.8 966.24 157.59 957.45 155.03 956.71 153.38 964.46 148.22 970.31 147.52 978.1 147.26 984.42 145.05 995.06 145.65 1003.2 145.05 999.48 150.99"/>
          <polygon class="cls-32" points="1008.16 151.38 1005.65 151.62 1003.25 151.01 999.78 152.16 994.28 152.63 999.48 150.99 1002.34 146.09 1003.2 145.05 1008.16 151.38"/>
          <polygon class="cls-30" points="1017.43 165.47 1013.63 165.7 1010.87 160.58 1005.65 151.62 1008.16 151.62 1010.76 157.31 1017.43 165.47"/>
          <polygon class="cls-17" points="996.92 158.41 1000.04 164.74 987.92 164.74 981.69 165.7 981.69 162.12 977.19 158.8 977.92 158.06 988.62 155.2 991.08 153.64 996.92 158.41"/>
          <polygon class="cls-16" points="981.69 162.12 977.19 158.8 967.79 157.76 964.98 163.44 962.65 164.57 954.16 169.86 960.39 171.43 970.61 170.47 981.69 165.7 981.69 162.12"/>
          <polygon class="cls-33" points="964.98 163.44 967.96 157.76 965.63 157.41 957.45 155.03 956.71 153.38 952.52 162.12 948.02 168.3 954.16 169.86 964.98 163.44"/>
          <path class="cls-30" d="M995.37,150.47l1.55-1.56-10.56-.7-.82.83-8,.61H968.4q-7.59,1.28-5.15,4a19.78,19.78,0,0,0,9.57,2.47l8.87-.74,7.66-3.21Z"/>
          <polygon class="cls-11" points="996.92 158.41 1000.04 164.74 1010.63 164.74 1013.63 165.83 1008.16 153.64 1001.28 147.9 999.48 150.99 991.08 153.64 996.92 158.41"/>
          <polygon class="cls-24" points="985.54 149.04 977.88 149.62 982.81 150.3 987.88 150.3 988.76 152.41 995.37 150.47 996.92 148.91 986.36 148.22 985.54 149.04"/>
        </g>
        <g>
          <polygon class="cls-31" points="34.82 211.94 26.02 211.54 23.17 212.16 12.14 211.18 11.2 211.62 1.33 206.72 -6.04 201.3 -6.17 199.5 2.88 197.31 8.61 198.66 16.02 201.1 22.71 201.19 32.5 205.41 40.36 207.64 34.82 211.94"/>
          <polygon class="cls-32" points="42.83 215.29 40.4 214.65 38.35 213.26 34.7 213.15 29.38 211.7 34.82 211.94 39.19 208.32 40.36 207.64 42.83 215.29"/>
          <polygon class="cls-30" points="46.7 231.7 43.06 230.62 42.22 224.86 40.4 214.65 42.75 215.51 43.24 221.75 46.7 231.7"/>
          <polygon class="cls-17" points="29.87 218.03 30.63 225.05 19.24 220.89 13.06 219.65 14.29 216.29 11.2 211.62 12.14 211.18 23.17 212.16 26.02 211.54 29.87 218.03"/>
          <polygon class="cls-16" points="14.29 216.29 11.2 211.62 2.73 207.42 -1.86 211.79 -4.43 212.05 -14.22 214.11 -8.91 217.71 1.01 220.33 13.06 219.65 14.29 216.29"/>
          <polygon class="cls-33" points="-1.86 211.79 2.89 207.47 0.82 206.35 -6.04 201.3 -6.17 199.5 -13.11 206.27 -19.46 210.53 -14.22 214.11 -1.86 211.79"/>
          <path class="cls-30" d="M31.13,210l2-.93-9.68-4.28-1.05.49-7.73-2.18L6.09,200q-7.57-1.41-6.21,2A19.91,19.91,0,0,0,8,207.6L16.61,210l8.29-.38Z"/>
          <polygon class="cls-11" points="29.87 218.03 30.63 225.05 40.57 228.69 43.02 230.74 42.06 217.41 37.57 209.66 34.82 211.94 26.02 211.54 29.87 218.03"/>
          <polygon class="cls-24" points="22.4 205.32 15 203.24 19.4 205.57 24.16 207.31 24.26 209.6 31.14 210.04 33.13 209.11 23.45 204.83 22.4 205.32"/>
        </g>
        <g>
          <polygon class="cls-16" points="1199.65 144.25 1183.65 149.01 1191.57 142.27 1196.28 134.16 1205.33 112.39 1204.46 108.97 1212.95 112.19 1208.97 121.66 1199.59 135.69 1199.65 144.25"/>
          <polygon class="cls-28" points="1212.95 112.19 1204.46 108.97 1205.12 105.43 1212.19 100.46 1244.2 89.8 1261.68 85.38 1282.35 85.88 1285.09 90.02 1279.9 99.34 1269.39 102 1268.58 104.94 1258.83 110.59 1241.48 110.89 1222.75 108.8 1212.95 112.19"/>
          <polygon class="cls-30" points="1220.48 102.91 1215.76 104.29 1219.12 100.39 1256.94 90.81 1269.77 89.09 1274.11 91.34 1274.67 93.56 1266.38 99.85 1246.71 104.83 1231.42 102.99 1220.48 102.91"/>
          <polygon class="cls-17" points="1279.9 99.34 1285.09 90.02 1290.11 99.58 1299.31 103.08 1313.63 112.38 1307.92 117.56 1281.58 120.86 1282.08 107.44 1279.9 99.34"/>
          <polygon class="cls-31" points="1222.75 108.8 1213.64 111.95 1223.24 113.32 1232.53 110.97 1255.52 113.43 1258.83 110.59 1241.48 110.89 1222.75 108.8"/>
          <polygon class="cls-32" points="1199.59 135.69 1199.49 144.3 1223.98 136.8 1236.69 133.58 1226.97 121.39 1232.53 110.97 1223.24 113.32 1212.93 112.23 1208.97 121.66 1199.59 135.69"/>
          <polygon class="cls-27" points="1226.97 121.39 1236.69 133.58 1256.44 126.31 1281.58 120.86 1282.08 107.44 1279.9 99.34 1269.39 102 1268.58 104.94 1258.83 110.59 1255.52 113.43 1232.53 110.97 1226.97 121.39"/>
          <polygon class="cls-24" points="1256.94 90.81 1248.69 92.9 1256.24 93.45 1257.16 97.08 1246.71 104.83 1266.38 99.85 1274.67 93.56 1274.11 91.34 1269.77 89.09 1256.94 90.81"/>
        </g>
        <g>
          <polygon class="cls-32" points="559.18 292.23 547.52 305.49 587.89 306.21 597.57 307.15 609.47 307.15 619.23 291.51 588.42 287.13 559.18 292.23"/>
          <polygon class="cls-11" points="683.66 287.36 671.73 281.4 665.98 291.65 681.91 294.28 686.8 296.2 686.8 290.74 683.66 287.36"/>
          <polygon class="cls-17" points="681.91 294.28 665.98 291.65 675.85 299.99 675.96 310.72 686.8 310.05 686.8 296.2 681.91 294.28"/>
          <polygon class="cls-16" points="566.2 281.39 556.85 292.23 546.2 301.79 541.98 307.15 547.52 305.49 559.18 292.23 567.7 286.96 585.27 286.64 566.2 281.39"/>
          <polygon class="cls-11" points="585.27 286.64 597.57 288.49 590.08 292.23 592.56 296.02 592.56 303.77 585.27 297.28 572.3 292.23 559.18 292.23 567.7 286.96 585.27 286.64"/>
          <path class="cls-31" d="M580.31,277.09q-16.86,3.29-14.14,5.77,4.23,2.06,53.06,8.65l45,.72q12.36-4.08,11.52-7.12-1.08-2.64-8-5.68l-19.53-4H602.32Z"/>
          <polygon class="cls-16" points="623.62 308.5 676 306.42 675.84 299.36 665.98 291.65 664.27 292.23 620.84 291.54 619.23 291.51 609.47 307.15 623.62 308.5"/>
          <polygon class="cls-30" points="616.75 287.36 590.08 281.05 610.04 278.35 620.68 279.7 633.08 279.7 663.39 282.95 665.36 284.16 652.9 286.37 616.75 287.36"/>
          <polygon class="cls-24" points="637.25 282.8 640.43 286.71 652.9 286.37 665.36 284.16 663.39 282.95 633.08 279.7 621.72 279.89 637.25 282.8"/>
        </g>
        <g>
          <polygon class="cls-32" points="140.37 226.76 126.28 245.97 165.13 252.41 174.26 255.16 185.76 256.73 198.52 233.53 169.7 222.62 140.37 226.76"/>
          <polygon class="cls-30" points="243.65 239.89 251.38 224.6 261.63 235.5 265.71 245.55 277.57 261.18 294.63 264.89 295.48 266.18 281.01 266.86 268.62 254.71 258.47 246.1 243.65 239.89"/>
          <polygon class="cls-17" points="258.47 246.1 243.65 239.89 251.4 254.24 249.22 271.05 286.72 272.41 268.62 254.71 258.47 246.1"/>
          <polygon class="cls-16" points="149.46 210.71 138.12 226.45 125.8 240.01 120.58 247.85 126.28 245.97 140.37 226.76 149.73 219.63 166.76 221.44 149.46 210.71"/>
          <polygon class="cls-30" points="166.76 221.44 178.24 225.95 170.21 230.82 171.8 237.08 170.15 249.21 164.49 238.09 153.04 228.48 140.37 226.76 149.73 219.63 166.76 221.44"/>
          <path class="cls-28" d="M164,205.83q-17,2.92-14.89,7.17,3.65,3.78,49.4,20.53l43.35,7.05q12.81-4.77,12.64-9.64Q254,226.67,248,221l-18-8.78-44.35-6Z"/>
          <polygon class="cls-16" points="199.14 260.69 250.17 264.33 251.52 253.25 243.65 239.89 241.87 240.58 200.07 233.78 198.52 233.53 185.76 256.73 199.14 260.69"/>
          <polygon class="cls-30" points="197.01 226.71 172.59 213.32 192.46 211.71 202.44 215.23 214.41 216.86 243 225.93 244.64 228.09 232.14 229.91 197.01 226.71"/>
          <polygon class="cls-24" points="217.79 222.26 220.02 228.8 232.14 229.91 244.64 228.09 243 225.93 214.41 216.86 203.4 215.67 217.79 222.26"/>
        </g>
        <g>
          <polygon class="cls-31" points="1279.32 189.89 1270.92 192.54 1268.45 194.1 1257.76 196.97 1257.03 197.7 1246.08 196.49 1237.29 193.93 1236.56 192.28 1244.3 187.12 1250.15 186.42 1257.94 186.16 1264.26 183.95 1274.9 184.56 1283.04 183.95 1279.32 189.89"/>
          <polygon class="cls-32" points="1288 190.28 1285.49 190.52 1283.09 189.91 1279.62 191.06 1274.13 191.53 1279.32 189.89 1282.18 184.99 1283.04 183.95 1288 190.28"/>
          <polygon class="cls-30" points="1297.27 204.37 1293.47 204.6 1290.7 199.48 1285.49 190.52 1288 190.52 1290.6 196.21 1297.27 204.37"/>
          <polygon class="cls-17" points="1276.77 197.31 1279.88 203.65 1267.77 203.65 1261.53 204.6 1261.53 201.03 1257.03 197.7 1257.76 196.97 1268.45 194.1 1270.92 192.54 1276.77 197.31"/>
          <polygon class="cls-16" points="1261.53 201.03 1257.03 197.7 1247.63 196.66 1244.82 202.34 1242.49 203.47 1234 208.77 1240.24 210.33 1250.45 209.37 1261.53 204.6 1261.53 201.03"/>
          <polygon class="cls-33" points="1244.82 202.34 1247.8 196.66 1245.47 196.31 1237.29 193.93 1236.56 192.28 1232.36 201.03 1227.86 207.21 1234 208.77 1244.82 202.34"/>
          <path class="cls-30" d="M1275.21,189.37l1.56-1.56-10.57-.69-.82.82-8,.61h-9.13q-7.59,1.27-5.15,4a19.78,19.78,0,0,0,9.57,2.47l8.87-.73,7.66-3.21Z"/>
          <polygon class="cls-11" points="1276.77 197.31 1279.88 203.65 1290.47 203.65 1293.47 204.73 1288 192.54 1281.12 186.81 1279.32 189.89 1270.92 192.54 1276.77 197.31"/>
          <polygon class="cls-24" points="1265.38 187.94 1257.72 188.52 1262.65 189.2 1267.72 189.2 1268.6 191.31 1275.21 189.37 1276.77 187.81 1266.2 187.12 1265.38 187.94"/>
        </g>
      </g>
      <g>
        <g>
          <path class="cls-34" d="M643.22,140.55c-.17,2.43.32,1.21.06,5.54l-1.24,20,1.45,25.23-7.61.51s-1.88-23.13-1.35-24.79a4.74,4.74,0,0,1,1.41-2.31l0-24Z"/>
          <path class="cls-34" d="M643.67,139.64c.31,4.88-2.76,6.1-9.15,6.66l-2.21,19.62-.57,25-7.43-.1s.93-21.82,1.46-23.48a4.7,4.7,0,0,1,1.42-2.31l-1.94-15.1c-3.35-2.59-2.61-5.18-2-10.28Z"/>
          <rect class="cls-35" x="635.14" y="193.04" width="16.92" height="1.73"/>
          <rect class="cls-35" x="622.44" y="192.95" width="11.31" height="1.73"/>
          <path class="cls-36" d="M635.79,193.48a8,8,0,0,1,.22-2.69,3.94,3.94,0,0,1,1.71-1.58h2s10,1.63,10.74,2.34a2.18,2.18,0,0,1,.49,1.83l-7.59.05Z"/>
          <path class="cls-36" d="M624.21,190.46a2.26,2.26,0,0,0-.87,1.36,3,3,0,0,0,0,1.51l9.41,0a7.25,7.25,0,0,0-.2-2.48c-.35-1-2.3-1.78-2.3-1.78l-3.38,0Z"/>
          <path class="cls-37" d="M632.06,146.4s-2.27.43-2.68,1.47-.81,17-.25,17.67,3.18.38,3.18.38l2.21-19.62Z"/>
          <path class="cls-38" d="M649,105.08s26.79,1.07,28.26.5,2.44-2.75,1.17-4-8.83-8.47-8.83-8.47-4.38-.88-6.65.6-1.81,1.88-1.81,1.88-21.87-1.95-22.87-1.74S639.32,102.48,649,105.08Z"/>
          <path class="cls-39" d="M707.79,80.65s-5.57,1.6-7.49,1.63a12.3,12.3,0,0,1-3.79-.66l-22.57,22.29s-5.68-4.2-2.78-9.34,23.22-16.38,23.22-16.38a81.39,81.39,0,0,1,7.33-4.76,51.69,51.69,0,0,1,5.17-1.65s1.56,1.5,1.06,2.52a10.91,10.91,0,0,1-.86,1.51S709,79.09,707.79,80.65Z"/>
          <path class="cls-40" d="M632.83,79.8A35.37,35.37,0,0,0,623.62,88a18.42,18.42,0,0,0-3.42,10.61l-.46,9.14-2,40.27,31.62-.19-4.11-51.26S635,89.81,632.83,79.8Z"/>
          <path class="cls-41" d="M625.54,85.7l20.1,19.85A17.3,17.3,0,0,0,644,94.17c-3.07-5.37-11.15-14.37-11.15-14.37S627.86,83.47,625.54,85.7Z"/>
          <polygon class="cls-42" points="639.37 125.03 624.25 111.81 628.14 144.02 619.02 146.07 621.29 97.78 643.11 121.62 639.37 125.03"/>
          <path class="cls-43" d="M623.27,107.08s19,15.94,20.45,16.28,3.59-1,3.45-2.74l-1-12.2s-2.64-3.21-5.28-3.21-2.56.59-2.56.59-14.81-13.93-15.68-14.31S617.81,99.41,623.27,107.08Z"/>
          <path class="cls-44" d="M643.93,96.86l4.9-6.67,6.3-3.46,1.47-11.47,2.08-16.18s1.64-3.32-2.21-6.42-7.25-.88-7.25-.88L635.05,69.6S625.62,86.18,643.93,96.86Z"/>
          <path class="cls-45" d="M665.2,64.79s2.66,3.79.42,7.34-5,6.84-5.53,8.77-.92,2-.25,4.47a4.62,4.62,0,0,1-1,4.19l-6.11-4.68s-2.62-3-4-1.9a36.63,36.63,0,0,0-3.5,3.75s-3.43-1.93-3.54-5.22c-.12-3.61,13.13-20.36,15.53-23.75Z"/>
          <polygon class="cls-46" points="659.77 80.04 647.62 70.79 648.93 68.95 655.36 73.65 657.46 71.1 664.47 73.87 659.77 80.04"/>
          <path class="cls-47" d="M647,68.18l-4.31,6.49s-3-2.38-2.37-3.84,3.78-5.2,3.78-5.2S646.07,64.16,647,68.18Z"/>
          <path class="cls-48" d="M654.54,81.59c-2-1.3-2.49-4.34-1-6.76a5.4,5.4,0,0,1,3.32-2.54,3.9,3.9,0,0,1,3,.49h0c2,1.3,2.49,4.34,1,6.76a5.36,5.36,0,0,1-3.31,2.54,4.07,4.07,0,0,1-1,.11A3.79,3.79,0,0,1,654.54,81.59Zm4.64-7.77a2.62,2.62,0,0,0-2.08-.32,4.14,4.14,0,0,0-2.54,2c-1.11,1.86-.82,4.14.65,5.09a2.62,2.62,0,0,0,2.08.32,4.14,4.14,0,0,0,2.54-2c1.11-1.86.82-4.14-.65-5.09Z"/>
          <polygon class="cls-49" points="655.89 73.31 654 74.02 646.79 68.57 646.14 66.04 655.89 73.31"/>
          <path class="cls-50" d="M665.14,70.38s-2-1.24-2.13-2.55,1.33-3.08,1.33-3.08A4,4,0,0,1,665.14,70.38Z"/>
          <path class="cls-44" d="M665.3,70.87l-6-2.17a1.51,1.51,0,0,0-1.95,1h0a1.6,1.6,0,0,0,1,2l6,2.17a1.51,1.51,0,0,0,2-1h0A1.59,1.59,0,0,0,665.3,70.87Z"/>
          <path class="cls-50" d="M650.8,82.46s-3.67-2.07-4-4.32,2.64-5.24,2.64-5.24S654.64,76.83,650.8,82.46Z"/>
          <path class="cls-51" d="M657.21,57.76l-8-6s1.57-1.61,5.27-.3S658.19,56.5,657.21,57.76Z"/>
          <polygon class="cls-52" points="658.43 79.04 656.81 75.86 656.44 76.38 657.42 78.14 655.63 76.9 655.29 77.47 658.43 79.04"/>
          <path class="cls-53" d="M648,86.7l3.21,2.17s0,1.11-.69,1.5a2,2,0,0,1-1.71-.18Z"/>
          <path class="cls-45" d="M646.78,93s-1.65-.84-1.7-2S648,86.7,648,86.7l.81,3.49Z"/>
          <path class="cls-44" d="M644.62,100.42c-1-2.3-7-8.54-7-8.54l9.2,1.1s1.84,1.16,1.93,4.7-3.07,7.87-3.07,7.87A13.64,13.64,0,0,0,644.62,100.42Z"/>
          <path class="cls-54" d="M636.32,97.71s-5.2-3.18-6.65-6.72-.93-2.69-.93-2.69l3.93-7.44a21.1,21.1,0,0,0,1.51,6,32.72,32.72,0,0,0,6,7.9Z"/>
          <path class="cls-37" d="M721.85,194.45,705.39,90.92,695,100.13l-22.87,89.56,2.06.37,24.13-83.43,5.48.14,15.64,87.68Z"/>
          <polygon class="cls-55" points="684.64 196.35 705.04 98.75 699.38 102.06 682.51 196.44 684.64 196.35"/>
          <path class="cls-56" d="M703.88,109.44a5.79,5.79,0,1,1,5.81-5.79A5.81,5.81,0,0,1,703.88,109.44Z"/>
          <path class="cls-57" d="M663.58,79.34l20.88,13-8.23,9.85L660.59,82.75A4.5,4.5,0,0,1,663.58,79.34Z"/>
          <path class="cls-58" d="M621.48,96.34,637,109.89a6.92,6.92,0,0,1,.68-2,3.26,3.26,0,0,1,.51-.68l4.05,2.68a14.32,14.32,0,0,0-1.28,5.84c.17,2.73,2.56,6.56,2.56,6.56L623.65,106.1S619.91,100.29,621.48,96.34Z"/>
          <path class="cls-34" d="M642.91,106.31c-.46-.36-3.16,1.26-3,5.2s4.22,12.4,4.22,12.4,4.42-2.1,5.19-4-.25-2.66-.44-2.52l-3.46,2.65c-2.65-4.49-3-8,.75-11.67C646.19,108.42,645.64,105.55,642.91,106.31Z"/>
          <polygon class="cls-59" points="643.28 146.09 642.74 126.55 647.41 123.66 649.35 147.8 617.73 147.99 643.28 146.09"/>
          <path class="cls-34" d="M638.77,102.25a4.56,4.56,0,0,0,0-5.34c-2-2.69-10.3-9.94-10.3-9.94l-2.24,2.89Z"/>
          <path class="cls-58" d="M652.5,99.24s5.88.85,6.9.34,1.78-4.22,1.78-4.22L648,94.51Z"/>
          <path class="cls-55" d="M704,107.07a3.73,3.73,0,1,1,3.73-3.72A3.74,3.74,0,0,1,704,107.07Z"/>
          <path class="cls-51" d="M645.12,71.07s-5.74,8.18-6.51,11.25,4.86,7,4.86,7l1.75-2.58s-4.14-3.16-3.54-5.22,5.25-9.72,5.25-9.72Z"/>
          <path class="cls-60" d="M645.93,105.14l3.42,42.66-31.62.19q1-20.13,2-40.27c.15-3.06.29-6.11.44-9.16A19.08,19.08,0,0,1,623.54,88a29.25,29.25,0,0,1,5.53-5.56c1-.75,3.57-2.66,3.58-2.67h0a16.36,16.36,0,0,0,.75,5.11,20,20,0,0,0,4.28,7.1c.93,1.07,2.06,2.19,4.24,4.65a19.53,19.53,0,0,1,1.64,2.1,10.62,10.62,0,0,1,1.28,2.21,10.38,10.38,0,0,1,.66,2.88,13.75,13.75,0,0,1,.12,1.71Z"/>
          <path class="cls-44" d="M659.34,77.27c-.41,0-.74-.63-.74-1.39s.33-1.4.74-1.4.74.63.74,1.4S659.75,77.27,659.34,77.27Z"/>
          <path class="cls-50" d="M678.64,97.63s.29-1.31-.3-1.77-1-.55-1.08-1,0-.82-.49-1.08-1.21-.52-1.31-1-.23-.85-.49-1-1.15-.66-1.15-.66l-2.68,3.46s3,3,2.83,4.78-.18,2.06-.18,2.06Z"/>
          <path class="cls-45" d="M679.06,98.7s-3.56,4.07-5.47,3.85a12.14,12.14,0,0,1-3.67-1.14l-25.23,19.24s-5.1-4.89-1.57-9.62,25.12-13.29,25.12-13.29,4-6.48,5.72-7a51.88,51.88,0,0,1,5.33-1s1.36,1.69.73,2.63a11,11,0,0,1-1,1.39S680.49,97.3,679.06,98.7Z"/>
          <path class="cls-50" d="M646.52,112.46l21.72-14.72s-20.31,8.53-22,10.68A2.93,2.93,0,0,0,646.52,112.46Z"/>
          <g class="cls-61">
            <path class="cls-62" d="M707.79,80.52s-5.57,1.6-7.49,1.62a12,12,0,0,1-3.79-.66l-22.57,22.3s-5.68-4.21-2.78-9.34,23.22-16.39,23.22-16.39a81.39,81.39,0,0,1,7.33-4.76,53.55,53.55,0,0,1,5.17-1.64s1.56,1.5,1.06,2.51a11.58,11.58,0,0,1-.86,1.52S709,79,707.79,80.52Z"/>
            <path class="cls-62" d="M665.2,64.65s2.66,3.79.42,7.34-5,6.84-5.53,8.78-.92,2-.25,4.46a4.64,4.64,0,0,1-1,4.2l-6.11-4.68s-2.62-3-4-1.9a36.63,36.63,0,0,0-3.5,3.75s-3.43-1.93-3.54-5.22c-.12-3.61,13.13-20.37,15.53-23.75Z"/>
            <polygon class="cls-62" points="659.77 79.9 647.62 70.66 648.93 68.81 655.36 73.52 657.46 70.97 664.47 73.73 659.77 79.9"/>
            <path class="cls-62" d="M647,68.05l-4.31,6.48s-3-2.37-2.37-3.83,3.78-5.21,3.78-5.21S646.07,64,647,68.05Z"/>
            <path class="cls-62" d="M665.14,70.24s-2-1.24-2.13-2.55,1.33-3.07,1.33-3.07A4,4,0,0,1,665.14,70.24Z"/>
            <path class="cls-62" d="M650.8,82.32s-3.67-2.06-4-4.31,2.64-5.25,2.64-5.25S654.64,76.69,650.8,82.32Z"/>
            <path class="cls-62" d="M648,86.57l3.21,2.16s0,1.11-.69,1.51a2,2,0,0,1-1.71-.18Z"/>
            <path class="cls-62" d="M646.78,92.85s-1.65-.84-1.7-2S648,86.57,648,86.57l.81,3.49Z"/>
            <path class="cls-62" d="M636.32,97.58s-5.2-3.19-6.65-6.73-.93-2.68-.93-2.68l3.93-7.44a21.18,21.18,0,0,0,1.51,6,32.72,32.72,0,0,0,6,7.9Z"/>
            <path class="cls-62" d="M679.06,98.56s-3.56,4.08-5.47,3.86a12.14,12.14,0,0,1-3.67-1.14l-25.23,19.24s-5.1-4.9-1.57-9.62,25.12-13.29,25.12-13.29,4-6.49,5.72-7a50.9,50.9,0,0,1,5.33-1s1.36,1.68.73,2.63a12.11,12.11,0,0,1-1,1.39S680.49,97.17,679.06,98.56Z"/>
            <path class="cls-62" d="M646.52,112.33l21.72-14.72s-20.31,8.52-22,10.68A2.93,2.93,0,0,0,646.52,112.33Z"/>
            <path class="cls-62" d="M678.64,97.5s.29-1.31-.3-1.77-1-.56-1.08-1,0-.82-.49-1.08-1.21-.53-1.31-1-.23-.86-.49-1-1.15-.65-1.15-.65l-2.68,3.45s3,3,2.83,4.78-.18,2.06-.18,2.06Z"/>
          </g>
        </g>
        <g>
          <ellipse class="cls-63" cx="736.83" cy="43.58" rx="11.78" ry="21.45" transform="translate(191.51 541.02) rotate(-45.76)"/>
          <polygon class="cls-64" points="713.78 73.77 660.11 125.63 656.68 122.29 707 67.16 713.78 73.77"/>
          <polygon class="cls-65" points="724.04 69.39 668.9 119.82 662.36 113.45 711.11 56.78 724.04 69.39"/>
          <polygon class="cls-66" points="716.23 40.22 670.38 99.7 682.62 111.62 740.47 63.83 716.23 40.22"/>
          <polygon class="cls-67" points="722.39 24.66 755.87 57.26 739.62 73.21 707.42 41.86 722.39 24.66"/>
          <g class="cls-68">
            <path class="cls-69" d="M739.61,73.21l16.26-15.95L735.15,37.08,721.6,55.68l3.29,3.17-46.81,48.36.49.46q-6.14,4.81-12.28,9.62l.29.26-7.3,7.27.83.81,7.41-7.16,1.38,1.35,11.41-10.44,2.31,2.24,52.18-43.1Z"/>
          </g>
          <g class="cls-70">
            <path class="cls-71" d="M709.09,64.71c-5.51,6.77-9.56,8.87-15.87,16a85.35,85.35,0,0,0-8.44,11.35,24.68,24.68,0,0,1,3.74-9.58c3.08-4.88,6.68-7.71,15.34-16.06,2.8-2.7,7-6.79,12-12A61.66,61.66,0,0,1,709.09,64.71Z"/>
          </g>
        </g>
      </g>
    </g>
  </g>
</svg>
