<svg xmlns="http://www.w3.org/2000/svg" width="250" height="286.41" viewBox="0 0 250 286.41">
  <defs>
    <style>
      .cls-1 {
        fill: #fff;
      }
    </style>
  </defs>
  <g id="Layer_2" data-name="Layer 2">
    <g id="Layer_1-2" data-name="Layer 1">
      <g id="_6peFLF" data-name="6peFLF">
        <g>
          <path class="cls-1" d="M178.29,114.11c.05,4.31-2.95,6.32-6.23,4.78a6.84,6.84,0,0,1-4.16-6.41c-.1-3.91,3.34-5.94,6.72-4A7,7,0,0,1,178.29,114.11Z"/>
          <path class="cls-1" d="M167.93,126.43c0-2.82,1.2-4.68,3-5.31a5,5,0,0,1,5.41,1.79,6.62,6.62,0,0,1,1.63,5.76,4.49,4.49,0,0,1-2.94,3.7,4.81,4.81,0,0,1-4.89-1.2A6.56,6.56,0,0,1,167.93,126.43Z"/>
          <path class="cls-1" d="M166.14,125.37a4.69,4.69,0,0,1-4.61,5c-3.08,0-5.73-2.93-5.71-6.33a4.69,4.69,0,0,1,4.78-5C163.63,119.1,166.17,122,166.14,125.37Z"/>
          <path class="cls-1" d="M179.46,114a3.72,3.72,0,0,1,2.4-3.62c2-.77,3.66,0,5.07,1.32a7.62,7.62,0,0,1,2.48,6.57,3.91,3.91,0,0,1-5.79,3.27A7.8,7.8,0,0,1,179.46,114Z"/>
          <path class="cls-1" d="M178.49,101.45c0-3.3,2.6-5,5.62-3.61a8.38,8.38,0,0,1,4.71,7.77c-.18,2.79-2.32,4.21-5,3.31A8.22,8.22,0,0,1,178.49,101.45Z"/>
          <path class="cls-1" d="M167,99.69c.07-3.75,2.89-5.47,6.3-3.86,2.95,1.4,4.88,5.18,4.06,7.94a3.78,3.78,0,0,1-4.85,2.67C169.39,105.55,167,102.56,167,99.69Z"/>
          <path class="cls-1" d="M189.32,130.14a10.62,10.62,0,0,1-.36,1.75c-1,3-3.83,3.91-6.46,2.11a7.38,7.38,0,0,1-2.52-8.31,4,4,0,0,1,6-2.07A7.58,7.58,0,0,1,189.32,130.14Z"/>
          <path class="cls-1" d="M177.73,140.39c-.39,2.87-2,5.07-4.25,5.48a5.12,5.12,0,0,1-5.49-3.6,10.19,10.19,0,0,1-.26-4.36,4.18,4.18,0,0,1,3.34-3.49,4.14,4.14,0,0,1,4.54,1.64A28.48,28.48,0,0,1,177.73,140.39Z"/>
          <path class="cls-1" d="M166.14,112.33c0,2.81-1.8,4.76-4.39,4.75-3.13,0-6-3.14-6-6.5a4.37,4.37,0,0,1,4.33-4.67C163.2,105.87,166.14,109,166.14,112.33Z"/>
          <path class="cls-1" d="M155.2,137.69a4.91,4.91,0,0,1,4.73-5.13c2.89,0,5.49,2.89,5.46,6.05,0,3-2,5.16-4.63,5.16A5.84,5.84,0,0,1,155.2,137.69Z"/>
          <path class="cls-1" d="M177,89.2c0-2.72,1.86-4.21,4.49-3.55a8.74,8.74,0,0,1,6.09,7.62c0,2.84-1.88,4.3-4.6,3.5C179.83,95.85,177,92.27,177,89.2Z"/>
          <path class="cls-1" d="M155.15,97.68c.06-3.12,2.28-4.75,5.53-4.07,2.62.54,5.33,4.22,5.06,6.86a4,4,0,0,1-4.43,3.8A6.7,6.7,0,0,1,155.15,97.68Z"/>
          <path class="cls-1" d="M188.57,142.77l0,.62c-.19,2.58-1.72,4.5-3.85,4.85s-4.05-1-5-3.36a6.76,6.76,0,0,1,.16-6,4,4,0,0,1,6.94-.75,24.32,24.32,0,0,1,2.22,4.45Z"/>
          <path class="cls-1" d="M169.31,83.29c3.55,0,7.15,3.83,7,7.4a3.41,3.41,0,0,1-3.69,3.52c-3.84,0-7.4-4-6.94-7.82A3.32,3.32,0,0,1,169.31,83.29Z"/>
          <path class="cls-1" d="M190.33,116.83a9.1,9.1,0,0,1,.25-1.43,3.37,3.37,0,0,1,4.95-2.31c3.27,1.4,5.25,6.4,3.83,9.64a3.46,3.46,0,0,1-5,1.55A8.38,8.38,0,0,1,190.33,116.83Z"/>
          <path class="cls-1" d="M153.53,123.39a4.79,4.79,0,0,1-4.72,5,6,6,0,0,1-5.65-5.92,4.79,4.79,0,0,1,4.82-4.87A5.92,5.92,0,0,1,153.53,123.39Z"/>
          <path class="cls-1" d="M190.4,130.85c0-3.17,1.83-5.37,4.08-5.16a5,5,0,0,1,2,.68c2.81,1.72,4.05,6.37,2.54,9.27a3.63,3.63,0,0,1-5.43,1.35A7.74,7.74,0,0,1,190.4,130.85Z"/>
          <path class="cls-1" d="M143.38,109.19a4.51,4.51,0,0,1,4.54-4.68,6.31,6.31,0,0,1,5.93,6,4.56,4.56,0,0,1-4.6,4.64A6,6,0,0,1,143.38,109.19Z"/>
          <path class="cls-1" d="M142.74,96.55a4.17,4.17,0,0,1,4.34-4.43c3.21,0,6.29,3.09,6.23,6.16a4.28,4.28,0,0,1-4.41,4.26A6.35,6.35,0,0,1,142.74,96.55Z"/>
          <path class="cls-1" d="M148.22,141.62a5.51,5.51,0,0,1-5.48-5.56,4.74,4.74,0,0,1,4.67-5.1,5.62,5.62,0,0,1,5.41,5.67A4.66,4.66,0,0,1,148.22,141.62Z"/>
          <path class="cls-1" d="M176.09,153.91c0,3.05-2.06,5.43-4.65,5.38s-5-2.82-4.91-5.82,2.11-5.38,4.72-5.34C174,148.17,176.1,150.64,176.09,153.91Z"/>
          <path class="cls-1" d="M157.78,81.62a7.29,7.29,0,0,1,6.66,6.31,3.71,3.71,0,0,1-3.28,4c-3.54.49-7.47-3-7.45-6.56A3.84,3.84,0,0,1,157.78,81.62Z"/>
          <path class="cls-1" d="M167,72c3.49.1,7.21,3.73,7.25,7.08a3.1,3.1,0,0,1-3.5,3.39,8.43,8.43,0,0,1-7.41-6.87C163.13,73.53,164.72,72,167,72Z"/>
          <path class="cls-1" d="M177.74,155.91c.25-1.15.34-1.87.57-2.55a4.51,4.51,0,0,1,4-3.37,4.4,4.4,0,0,1,4.21,2.92,6.62,6.62,0,0,1-.41,6.54,4,4,0,0,1-6.89.08A18.11,18.11,0,0,1,177.74,155.91Z"/>
          <path class="cls-1" d="M154.46,151.57c0-2.95,1.94-5.11,4.65-5.14a5.3,5.3,0,0,1,5.12,5.52c0,2.93-2,5.24-4.56,5.28C156.86,157.27,154.47,154.67,154.46,151.57Z"/>
          <path class="cls-1" d="M189.85,143.83a13.85,13.85,0,0,1,.47-2.11c.56-1.52,1.47-2.76,3.23-3a3.94,3.94,0,0,1,3.93,2,7.12,7.12,0,0,1,.58,7.62,3.63,3.63,0,0,1-5.85,1.15C190.52,148.11,190,146.21,189.85,143.83Z"/>
          <path class="cls-1" d="M200.41,119.92a11.64,11.64,0,0,1,.3-1.62,3.06,3.06,0,0,1,4.75-2c2.83,1.59,4.59,6.34,3.48,9.4-.84,2.33-2.88,3-5,1.61A8.91,8.91,0,0,1,200.41,119.92Z"/>
          <path class="cls-1" d="M140.86,108.91a4.8,4.8,0,0,1-4.55,4.79,5.8,5.8,0,0,1-5.72-5.59,4.56,4.56,0,0,1,4.75-4.65A5.79,5.79,0,0,1,140.86,108.91Z"/>
          <path class="cls-1" d="M155.61,70.47a7.76,7.76,0,0,1,6.8,5.09,3.54,3.54,0,0,1-3.82,4.86A7.83,7.83,0,0,1,152,75.2C151.21,72.47,152.77,70.41,155.61,70.47Z"/>
          <path class="cls-1" d="M130.57,121.09a4.63,4.63,0,0,1,4.68-4.76,5.47,5.47,0,0,1,5.33,5.54,4.55,4.55,0,0,1-4.73,4.68A5.5,5.5,0,0,1,130.57,121.09Z"/>
          <path class="cls-1" d="M145.91,80.42A6.57,6.57,0,0,1,152.18,86a3.85,3.85,0,0,1-3.43,4.35,6.73,6.73,0,0,1-7-5.11A3.88,3.88,0,0,1,145.91,80.42Z"/>
          <path class="cls-1" d="M209.14,136.18a13.33,13.33,0,0,1-1.09,2.9c-1,1.69-2.77,1.88-4.42.71a8.06,8.06,0,0,1-2.68-9.16c1-2.31,3.21-3,5.17-1.45S209,133,209.14,136.18Z"/>
          <path class="cls-1" d="M141.81,149.46a5,5,0,0,1,4.69-5c2.64,0,5.12,2.57,5.13,5.41a4.86,4.86,0,0,1-4.75,5.07A5.49,5.49,0,0,1,141.81,149.46Z"/>
          <path class="cls-1" d="M140.62,96.74a4.13,4.13,0,0,1-4.34,4.28c-3,.08-5.93-2.56-6-5.41a4.25,4.25,0,0,1,4.54-4.44A5.9,5.9,0,0,1,140.62,96.74Z"/>
          <path class="cls-1" d="M188.28,158.12A22.81,22.81,0,0,1,190,154c1.64-2.38,4.35-2.33,6.11-.06a7,7,0,0,1-.18,8.37c-1.59,1.86-4.12,2-5.63.08A22.53,22.53,0,0,1,188.28,158.12Z"/>
          <path class="cls-1" d="M130,134.08a4.6,4.6,0,0,1,4.73-4.68,5.54,5.54,0,0,1,5.19,5.35,4.78,4.78,0,0,1-4.86,4.78A5.4,5.4,0,0,1,130,134.08Z"/>
          <path class="cls-1" d="M164,61.47a9.07,9.07,0,0,1,7.62,5.76c.71,2.41-.67,4.23-3.11,4.13a9.18,9.18,0,0,1-7.5-5.73C160.21,63.21,161.48,61.44,164,61.47Z"/>
          <path class="cls-1" d="M208.37,148a22.74,22.74,0,0,1-.86,3.09,3.26,3.26,0,0,1-5.48,1.07,7.72,7.72,0,0,1-1.29-8.89,3.33,3.33,0,0,1,5.68-.47A9,9,0,0,1,208.37,148Z"/>
          <path class="cls-1" d="M165.11,167.22c0-3.73,3.08-6.3,6.14-5.09a5.26,5.26,0,0,1,3,5.32,5.35,5.35,0,0,1-3.47,4.87C167.85,173.16,165.13,170.69,165.11,167.22Z"/>
          <path class="cls-1" d="M146.43,78.88a7.49,7.49,0,0,1-6.63-5,3.33,3.33,0,0,1,2.57-4.24,7.05,7.05,0,0,1,7.82,4.44C151,76.73,149.33,78.9,146.43,78.88Z"/>
          <path class="cls-1" d="M153.15,165.09c0-2.7,2.15-5.11,4.61-5.1a5.25,5.25,0,0,1,.15,10.43C155.39,170.46,153.18,168,153.15,165.09Z"/>
          <path class="cls-1" d="M135.12,89c-3.29-.09-6.14-2.78-6-5.68a4,4,0,0,1,4.36-3.68c3.12.07,6.16,2.78,6.13,5.47A4.06,4.06,0,0,1,135.12,89Z"/>
          <path class="cls-1" d="M152.52,60.05a8.32,8.32,0,0,1,7.12,4.72c1,2.44,0,4.27-2.54,4.65-3,.45-7.07-2.23-7.84-5.15A3.13,3.13,0,0,1,152.52,60.05Z"/>
          <path class="cls-1" d="M176.31,169.42a21,21,0,0,1,.82-3,4.15,4.15,0,0,1,8,.76,6.09,6.09,0,0,1-.67,5.06c-1.7,2.86-5.16,3-7,.22A16,16,0,0,1,176.31,169.42Z"/>
          <path class="cls-1" d="M145.37,158.29a5.07,5.07,0,0,1,4.76,5.15,4.85,4.85,0,0,1-4.62,4.89,5.25,5.25,0,0,1-4.94-5.2A4.78,4.78,0,0,1,145.37,158.29Z"/>
          <path class="cls-1" d="M134.1,152.8a5.18,5.18,0,0,1-5-5.2,4.71,4.71,0,0,1,4.73-4.72,5.25,5.25,0,0,1,4.89,5.25A4.63,4.63,0,0,1,134.1,152.8Z"/>
          <path class="cls-1" d="M123.36,112.25a5.54,5.54,0,0,1-5.47-5.28,4.52,4.52,0,0,1,4.59-4.33,5.34,5.34,0,0,1,5.35,5.15A4.59,4.59,0,0,1,123.36,112.25Z"/>
          <path class="cls-1" d="M198.33,160.41a24.65,24.65,0,0,1,1.55-4.34c1.25-2.13,3.69-2.23,5.34-.41a7.52,7.52,0,0,1,.19,8.93,3.17,3.17,0,0,1-5.2,0A23.39,23.39,0,0,1,198.33,160.41Z"/>
          <path class="cls-1" d="M122.91,124.88a5.29,5.29,0,0,1-5.31-5,4.47,4.47,0,0,1,4.67-4.54,5.28,5.28,0,0,1,5.16,5.14A4.57,4.57,0,0,1,122.91,124.88Z"/>
          <path class="cls-1" d="M122.93,99.87a5.45,5.45,0,0,1-5.42-5.29,4.31,4.31,0,0,1,4.46-4c2.87,0,5.62,2.53,5.58,5.17A4.3,4.3,0,0,1,122.93,99.87Z"/>
          <path class="cls-1" d="M209.46,136.63a19.6,19.6,0,0,1,1-3.37c.8-1.63,2.41-1.93,3.94-.94,2.73,1.77,4,7.3,2.27,10.1a2.68,2.68,0,0,1-4.37.52A9.19,9.19,0,0,1,209.46,136.63Z"/>
          <path class="cls-1" d="M186.77,171.27a20.35,20.35,0,0,1,1.46-3.78c1.77-2.77,5.27-2.47,6.64.54a6.39,6.39,0,0,1-.85,7,3.53,3.53,0,0,1-6-.39A20.74,20.74,0,0,1,186.77,171.27Z"/>
          <path class="cls-1" d="M133.83,77.7a6.58,6.58,0,0,1-6.13-4.22A3.37,3.37,0,0,1,130,69a6.85,6.85,0,0,1,7.7,3.56C138.82,75.3,137,77.7,133.83,77.7Z"/>
          <path class="cls-1" d="M144.22,68.05c-3,0-6.07-2.2-6.81-4.76a3,3,0,0,1,2.36-4,7.85,7.85,0,0,1,7.87,3.81C148.92,65.79,147.33,68.08,144.22,68.05Z"/>
          <path class="cls-1" d="M117.19,132.62a4.41,4.41,0,0,1,4.4-4.46,5.09,5.09,0,0,1,5,5,4.51,4.51,0,0,1-4.49,4.56A5.08,5.08,0,0,1,117.19,132.62Z"/>
          <path class="cls-1" d="M165.3,60.9a9.41,9.41,0,0,1-7.75-5.39c-.83-2.21.28-3.84,2.64-3.87a9.48,9.48,0,0,1,7.82,5.3C169,59.32,167.85,61,165.3,60.9Z"/>
          <path class="cls-1" d="M151.39,178.5a4.82,4.82,0,0,1,4.76-4.87,4.65,4.65,0,0,1,4.32,4.78,4.94,4.94,0,0,1-4.63,5.05A4.64,4.64,0,0,1,151.39,178.5Z"/>
          <path class="cls-1" d="M71.57,2.07c3.75.24,7.53-1.06,11,1-1.52,1-6.79,1.48-8.81.62.77-.25,1.32-.46,1.89-.6a3.33,3.33,0,0,0,1.62-.64L66.4,4l-.11-.57,3.91-1-.06-.31L58.58,4.39,58.47,4c.5-.14,1-.3,1.51-.42,3.06-.74,6.09-1.64,9.19-2.15C72.79.79,76.46.5,80.12.19A13.75,13.75,0,0,1,83,.62a14.82,14.82,0,0,0,2.3.16,19.61,19.61,0,0,1,8,1.19c1.61.65,3.58.41,5.38.62.85.1,1.69.31,2.53.47l0,.43a5.5,5.5,0,0,1-1.45.36c-2.7-.06-5.39-.12-8.08-.33-.6,0-1.14-.69-1.75-1a2.52,2.52,0,0,0-1-.17c-2.1,0-4.22.26-6.23-.79a4.31,4.31,0,0,0-2-.05c-1.61.06-3.57.74-4.73.06-1.71-1-2.64,0-3.9.4A5,5,0,0,1,71.57,2.07Z"/>
          <path class="cls-1" d="M208.83,149.49a19.44,19.44,0,0,1,1-3.53c1-2,2.85-2.23,4.51-.83,2.42,2.06,3,7.2,1.08,9.72a2.65,2.65,0,0,1-4.18.43A8.21,8.21,0,0,1,208.83,149.49Z"/>
          <path class="cls-1" d="M163.32,180.55c0-2.72,2.18-5.22,4.66-5.25s4.26,2.14,4.28,4.8-2.2,5.3-4.62,5.29C165.4,185.38,163.36,183.08,163.32,180.55Z"/>
          <path class="cls-1" d="M132.54,165.88a4.88,4.88,0,0,1-4.74-4.94,4.58,4.58,0,0,1,4.45-4.64,5,5,0,0,1,4.83,4.9A4.5,4.5,0,0,1,132.54,165.88Z"/>
          <path class="cls-1" d="M122.41,88c-3,0-5.72-2.41-5.74-5,0-2.22,1.8-3.81,4.38-3.81,3,0,5.73,2.38,5.76,5C126.83,86.36,124.91,88,122.41,88Z"/>
          <path class="cls-1" d="M149.15,50.15c3.18.61,5.6,1.86,7.14,4.44,1.45,2.4.2,4.63-2.57,4.57a8.43,8.43,0,0,1-7.09-3.82c-.71-1.05-1.28-2.39-.34-3.46A10.85,10.85,0,0,1,149.15,50.15Z"/>
          <path class="cls-1" d="M196.7,172.9a21.53,21.53,0,0,1,2.19-4.18c1.49-1.83,3.79-1.47,5.06.52a7.14,7.14,0,0,1-.32,7.76c-1.73,2.28-4.71,2.05-5.92-.54A24.33,24.33,0,0,1,196.7,172.9Z"/>
          <path class="cls-1" d="M139,176.55a4.81,4.81,0,0,1,4.58-4.76,4.78,4.78,0,0,1,0,9.56A5,5,0,0,1,139,176.55Z"/>
          <path class="cls-1" d="M174.43,182a16.54,16.54,0,0,1,1.35-3.11,3.7,3.7,0,0,1,4-1.74,4,4,0,0,1,3.06,3.18,5.8,5.8,0,0,1-2.29,6.3,3.58,3.58,0,0,1-3.84.07C175.13,185.79,174.69,184.21,174.43,182Z"/>
          <path class="cls-1" d="M116.2,145.69a4.38,4.38,0,0,1,4.39-4.45,4.84,4.84,0,0,1,4.8,4.69,4.5,4.5,0,0,1-4.41,4.64A4.88,4.88,0,0,1,116.2,145.69Z"/>
          <path class="cls-1" d="M130.94,67.09a7.2,7.2,0,0,1-4.6-2.26A3.57,3.57,0,0,1,125.19,61a3.35,3.35,0,0,1,3.26-2.17,7.17,7.17,0,0,1,5.54,2,3.82,3.82,0,0,1,1.33,4.29C134.78,66.39,133.33,67.13,130.94,67.09Z"/>
          <path class="cls-1" d="M218.84,241.12a2.89,2.89,0,0,0,.23-2.94c-.65-1.26.43-3.63,1.68-4.54a2.88,2.88,0,0,0,1.24-3.42,5.31,5.31,0,0,1,1.39-5.16c.37-.39,1.09-.44,1.94-.75l.58-1.79c-2.12-2.11-.9-7.5,2.21-10l-.05,0c-.05.77-.36,1.67-.08,2.29,1.07,2.35.31,4.4-.68,6.51-.73,1.58-1.3,3.24-1.94,4.86l.28.12,1-1.64a4.35,4.35,0,0,1-.32,2c-.54,1.45-1.09,2.88-1.64,4.32-1-.11-2-.09-2.14,1.2-.14,1-.22,2-.32,3l.56.11,1.86-4.31.71-.24c-.27.66-.47,1.23-.71,1.78-.71,1.59-1.44,3.16-2.16,4.74v.23l-.28.19a5.1,5.1,0,0,0-1.21.77C220.22,239.26,219.54,240.2,218.84,241.12Z"/>
          <path class="cls-1" d="M207.33,162.83a26.22,26.22,0,0,1,1.87-4.4c1.12-1.7,2.94-1.67,4.34-.2,2.12,2.22,2.23,6.93.21,9.2-1.41,1.59-3.25,1.67-4.44-.1A27.93,27.93,0,0,1,207.33,162.83Z"/>
          <path class="cls-1" d="M110.12,110.9a5,5,0,0,1-5.07-4.83,4.2,4.2,0,0,1,4.27-4,5,5,0,0,1,5.18,4.71A4.39,4.39,0,0,1,110.12,110.9Z"/>
          <path class="cls-1" d="M142,58c-3.35-.22-5.64-1.17-7.23-3.35s-.66-4.52,2.12-4.79a7.4,7.4,0,0,1,7.19,3.38,3.62,3.62,0,0,1,.32,3.12C143.92,57.27,142.55,57.68,142,58Z"/>
          <path class="cls-1" d="M119.78,68.63a6.15,6.15,0,0,1,4.84,3,3.32,3.32,0,0,1-1.73,5A6.4,6.4,0,0,1,115.57,74C114,71.19,115.84,68.59,119.78,68.63Z"/>
          <path class="cls-1" d="M110.23,98.85c-2.91,0-5.38-2.14-5.35-4.7,0-2.32,1.88-4,4.44-4,2.8,0,5.22,2.19,5.21,4.71A4.14,4.14,0,0,1,110.23,98.85Z"/>
          <path class="cls-1" d="M126.25,174.4a4.55,4.55,0,0,1,4.44-4.47,4.74,4.74,0,0,1,4.55,4.75,4.53,4.53,0,0,1-4.6,4.47A4.77,4.77,0,0,1,126.25,174.4Z"/>
          <path class="cls-1" d="M189.1,189.27a4.29,4.29,0,0,1-3.6-2.91,6.11,6.11,0,0,1,.95-5.73,3.68,3.68,0,0,1,3.73-1.73,3.43,3.43,0,0,1,2.75,2.63,5.87,5.87,0,0,1-1.27,6.2A10.82,10.82,0,0,1,189.1,189.27Z"/>
          <path class="cls-1" d="M109.94,123.16a4.77,4.77,0,0,1-5-4.51,4.1,4.1,0,0,1,4.23-4.35,4.8,4.8,0,0,1,5,4.68A4.08,4.08,0,0,1,109.94,123.16Z"/>
          <path class="cls-1" d="M156.72,42.73A9.54,9.54,0,0,1,164,47.6c1.1,1.91.11,3.52-2.08,3.62-2.92.14-7.17-2.5-8.33-5.17C152.75,44.09,153.87,42.64,156.72,42.73Z"/>
          <path class="cls-1" d="M123.81,159.3a4.27,4.27,0,0,1-4.27,4.37,4.72,4.72,0,0,1-4.6-4.7,4.29,4.29,0,0,1,4.32-4.34A4.5,4.5,0,0,1,123.81,159.3Z"/>
          <path class="cls-1" d="M109.24,87.37a5.42,5.42,0,0,1-4.82-3,3.53,3.53,0,0,1,2-5,5.91,5.91,0,0,1,6.59,2.23,3.43,3.43,0,0,1,.17,3.69A4.38,4.38,0,0,1,109.24,87.37Z"/>
          <path class="cls-1" d="M216.75,153.21a28,28,0,0,1,1.59-4.42c.79-1.38,2.22-1.41,3.44-.36,2.37,2,3,7.59,1.08,10a2.22,2.22,0,0,1-3.8,0A34.79,34.79,0,0,1,216.75,153.21Z"/>
          <path class="cls-1" d="M213.55,175.35a24.81,24.81,0,0,1-1.79,4.18c-1.28,1.92-3.61,1.71-4.85-.25a7.55,7.55,0,0,1,.54-8.16c1.45-1.74,3.64-1.68,4.75.28A23.05,23.05,0,0,1,213.55,175.35Z"/>
          <path class="cls-1" d="M144.27,41.62c3.43.25,5.86,1.28,7.69,3.45.76.9,1.44,2,.74,3.25a2.9,2.9,0,0,1-3.11,1.29,9.31,9.31,0,0,1-6.71-3.43,3.82,3.82,0,0,1-.76-3C142.43,42.34,143.79,41.93,144.27,41.62Z"/>
          <path class="cls-1" d="M108.51,126.85a4.7,4.7,0,0,1,4.83,4.46,4.3,4.3,0,0,1-4.16,4.34,4.8,4.8,0,0,1-4.81-4.51A4.08,4.08,0,0,1,108.51,126.85Z"/>
          <path class="cls-1" d="M153.71,196.16a4.24,4.24,0,0,1-4.15-4.17,4.79,4.79,0,0,1,4.51-5,4.1,4.1,0,0,1,4.12,4.32A4.75,4.75,0,0,1,153.71,196.16Z"/>
          <path class="cls-1" d="M126.63,49.65a7.42,7.42,0,0,1,5.2,2.71,2.8,2.8,0,0,1-1.58,4.78,7.18,7.18,0,0,1-6.48-1.78c-1.14-1-2-2.16-1.53-3.79C122.59,50.35,124.1,49.62,126.63,49.65Z"/>
          <path class="cls-1" d="M161.34,193.78c.08-2.95,2.08-5.25,4.51-5.17a4.17,4.17,0,0,1,3.84,4.6,4.94,4.94,0,0,1-4.81,4.74A3.91,3.91,0,0,1,161.34,193.78Z"/>
          <path class="cls-1" d="M118.78,66.53a6.53,6.53,0,0,1-5.15-2.42c-1.65-2-.73-4.77,1.86-5a11.43,11.43,0,0,1,5.05.82A3.84,3.84,0,0,1,123,64.12C122.58,65.7,121.05,66.57,118.78,66.53Z"/>
          <path class="cls-1" d="M194.84,186.67a6.6,6.6,0,0,1,2-5.1,3,3,0,0,1,4.69.53,6.42,6.42,0,0,1-1.17,8,3.15,3.15,0,0,1-5-1.32A11.8,11.8,0,0,1,194.84,186.67Z"/>
          <path class="cls-1" d="M145.92,189.72a4.52,4.52,0,0,1-4.32,4.57,4.4,4.4,0,0,1-4.32-4.37,4.58,4.58,0,0,1,4.53-4.55A4.22,4.22,0,0,1,145.92,189.72Z"/>
          <path class="cls-1" d="M172.56,195.39c0-2.74,2-5.16,4.31-5.23,2.12-.07,3.8,1.77,3.83,4.23,0,2.79-2,5.19-4.49,5.2C174.11,199.59,172.58,197.83,172.56,195.39Z"/>
          <path class="cls-1" d="M134.11,41.24a8.14,8.14,0,0,1,6.1,2.89,3.71,3.71,0,0,1,.73,2.93,3.33,3.33,0,0,1-2.42,1.5,8.55,8.55,0,0,1-6.61-2.11c-1.11-.9-2.06-2.1-1.43-3.63S132.54,41.28,134.11,41.24Z"/>
          <path class="cls-1" d="M108,148.43a4.61,4.61,0,0,1-4.57-4.51,4.3,4.3,0,0,1,4.28-4.21,4.72,4.72,0,0,1,4.48,4.64A4.12,4.12,0,0,1,108,148.43Z"/>
          <path class="cls-1" d="M222.8,165.92a21.66,21.66,0,0,1-1.24,3.87c-1.12,2.07-3.2,2.11-4.43.13a7.91,7.91,0,0,1-.32-8.15c1.15-2.27,3.54-2.28,4.69,0A24.66,24.66,0,0,1,222.8,165.92Z"/>
          <path class="cls-1" d="M128.88,192a4.47,4.47,0,0,1-4.39-4.35,4.23,4.23,0,0,1,4.13-4.35,4.4,4.4,0,0,1,4.45,4.4A4.26,4.26,0,0,1,128.88,192Z"/>
          <path class="cls-1" d="M108,76.76a32,32,0,0,1-3.81-1.86,3.24,3.24,0,0,1-1.43-3.53,2.91,2.91,0,0,1,2.83-2.47,10.67,10.67,0,0,1,4.45.77,3.59,3.59,0,0,1,2.23,4.3C111.8,75.44,110.13,76.43,108,76.76Z"/>
          <path class="cls-1" d="M121.91,172.35a4.07,4.07,0,0,1-4.08,4.18,4.53,4.53,0,0,1-4.52-4.38,4.22,4.22,0,0,1,4.21-4.27A4.41,4.41,0,0,1,121.91,172.35Z"/>
          <path class="cls-1" d="M182.88,197a5.57,5.57,0,0,1,2.05-4.33,3.3,3.3,0,0,1,5.43,1.45,5.79,5.79,0,0,1-1.39,6,3.35,3.35,0,0,1-3.86.84C183.46,200.18,182.93,198.71,182.88,197Z"/>
          <path class="cls-1" d="M106.42,161.17a4.63,4.63,0,0,1-4.45-4.52,4,4,0,0,1,4-4,4.43,4.43,0,0,1,4.59,4.63A4.12,4.12,0,0,1,106.42,161.17Z"/>
          <path class="cls-1" d="M97,97.94c-2.68,0-4.88-2.08-4.82-4.46a3.92,3.92,0,0,1,4.29-3.56c2.54.07,4.88,2.22,4.79,4.38A4,4,0,0,1,97,97.94Z"/>
          <path class="cls-1" d="M97.34,109.52a4.64,4.64,0,0,1-4.85-4.39,3.82,3.82,0,0,1,3.93-3.75,4.71,4.71,0,0,1,4.93,4.32A3.85,3.85,0,0,1,97.34,109.52Z"/>
          <path class="cls-1" d="M157.74,42.32c-3.6-.48-6.45-1.59-8.43-4.24a2.86,2.86,0,0,1-.51-2.39,2.81,2.81,0,0,1,2.18-1,10.06,10.06,0,0,1,8.15,4.11,2.79,2.79,0,0,1,.41,2.39C159.27,41.78,158.21,42.05,157.74,42.32Z"/>
          <path class="cls-1" d="M211,187c-.14,2.12-.64,3.82-2.1,5.09a2.61,2.61,0,0,1-4.27-.83,7.06,7.06,0,0,1,.78-7.3c1.8-2.05,4.28-1.58,5.16,1A15.27,15.27,0,0,1,211,187Z"/>
          <path class="cls-1" d="M97,121.36A4.48,4.48,0,0,1,92.28,117a3.8,3.8,0,0,1,4-3.79,4.52,4.52,0,0,1,4.63,4.28A3.8,3.8,0,0,1,97,121.36Z"/>
          <path class="cls-1" d="M125.16,48.23A7.69,7.69,0,0,1,119.43,46a3.45,3.45,0,0,1-.86-2.73c.17-.7,1.3-1.42,2.14-1.65a7.65,7.65,0,0,1,6.2,1.24c1.57,1,2.36,2.39,2,3.53S127.26,48.2,125.16,48.23Z"/>
          <path class="cls-1" d="M113.46,49.88c2.52.11,4.39.78,5.79,2.4a2.71,2.71,0,0,1-1.37,4.53,7.57,7.57,0,0,1-7.21-2.18c-1.38-1.66-1-3.42,1-4.29A9.51,9.51,0,0,1,113.46,49.88Z"/>
          <path class="cls-1" d="M145.61,41.26c-2.83-.58-5.24-1.4-7-3.34a3.49,3.49,0,0,1-.87-2.85c.2-.64,1.63-1.21,2.53-1.25a9.91,9.91,0,0,1,6.94,2.68c.93.81,1.83,1.94,1.11,3.09C147.79,40.39,146.53,40.72,145.61,41.26Z"/>
          <path class="cls-1" d="M220.94,177.9a24,24,0,0,1-1.55,4c-1.09,1.85-3.07,1.76-4.26,0a7.74,7.74,0,0,1,.52-8.32c1.42-1.64,3.28-1.46,4.2.53A26,26,0,0,1,220.94,177.9Z"/>
          <path class="cls-1" d="M100.09,130A3.82,3.82,0,0,1,96,133.74a4.35,4.35,0,0,1-4.35-4.49,3.71,3.71,0,0,1,4-3.67A4.43,4.43,0,0,1,100.09,130Z"/>
          <path class="cls-1" d="M96.38,87a20.35,20.35,0,0,1-3.3-1.55,3.36,3.36,0,0,1-1.43-3.7,3.14,3.14,0,0,1,2.86-2.5,8.62,8.62,0,0,1,3.74.5A3.63,3.63,0,0,1,100.59,84C100.17,85.58,98.44,86.74,96.38,87Z"/>
          <path class="cls-1" d="M104.47,59.22a6.24,6.24,0,0,1,4.77,1.92,2.92,2.92,0,0,1-1.6,5A6.83,6.83,0,0,1,102,65a3.09,3.09,0,0,1-1.55-3.3c.34-1.53,1.55-2.11,2.93-2.41A5.59,5.59,0,0,1,104.47,59.22Z"/>
          <path class="cls-1" d="M192.66,198.88a5.92,5.92,0,0,1,2.2-4.77,2.85,2.85,0,0,1,4.62,1.12,6,6,0,0,1-1.65,6.9,3,3,0,0,1-3.22.42A4.29,4.29,0,0,1,192.66,198.88Z"/>
          <path class="cls-1" d="M151.3,208.53a4,4,0,0,1-3.91-3.83,4.49,4.49,0,0,1,4.15-4.58,3.81,3.81,0,0,1,3.9,3.95A4.56,4.56,0,0,1,151.3,208.53Z"/>
          <path class="cls-1" d="M143.41,202.4a4.22,4.22,0,0,1-4.15,4.29,3.89,3.89,0,0,1-4-3.85,4.33,4.33,0,0,1,4.26-4.4A3.85,3.85,0,0,1,143.41,202.4Z"/>
          <path class="cls-1" d="M129.26,33.53a9.32,9.32,0,0,1,6.44,2.63,3.06,3.06,0,0,1,.88,2.41,2.94,2.94,0,0,1-2.06,1.49,8.58,8.58,0,0,1-7.43-2.36A3.36,3.36,0,0,1,126,35.08c.15-.63,1.47-1,2.3-1.44A2.76,2.76,0,0,1,129.26,33.53Z"/>
          <path class="cls-1" d="M170.13,207.78c0-2.48,2.08-4.84,4.29-4.85a3.58,3.58,0,0,1,3.49,3.76c0,2.56-2.12,4.91-4.42,4.92C171.51,211.61,170.13,210.05,170.13,207.78Z"/>
          <path class="cls-1" d="M119.77,185.54a3.88,3.88,0,0,1-3.87,4,4.33,4.33,0,0,1-4.35-4.31,4,4,0,0,1,4-3.86A4.07,4.07,0,0,1,119.77,185.54Z"/>
          <path class="cls-1" d="M159.26,206.21c0-2.42,2.1-4.66,4.3-4.65a3.6,3.6,0,0,1,3.56,3.84,4.56,4.56,0,0,1-4.36,4.7A3.54,3.54,0,0,1,159.26,206.21Z"/>
          <path class="cls-1" d="M98.82,142.18a4,4,0,0,1-3.76,3.95A4.47,4.47,0,0,1,90.62,142a3.66,3.66,0,0,1,3.68-3.95A4.29,4.29,0,0,1,98.82,142.18Z"/>
          <path class="cls-1" d="M104.61,174a4.18,4.18,0,0,1-4.23-4.06,4,4,0,0,1,3.9-4,4.39,4.39,0,0,1,4.31,4.22A3.84,3.84,0,0,1,104.61,174Z"/>
          <path class="cls-1" d="M94.8,76.17a5.07,5.07,0,0,1-4.37-2.68,2.7,2.7,0,0,1,.93-3.68c2.12-1.52,6-.88,7.31,1.4a3.93,3.93,0,0,1,.26,3C98.32,75.75,96.78,76.19,94.8,76.17Z"/>
          <path class="cls-1" d="M222.66,169.08a29.94,29.94,0,0,1,1.72-4.56c.76-1.3,2.08-1.21,3.09-.05,1.8,2.06,1.87,7.28.13,9.37-.87,1-2.2,1.2-2.87.06A39.51,39.51,0,0,1,222.66,169.08Z"/>
          <path class="cls-1" d="M112.83,48.2a7.52,7.52,0,0,1-5.51-2.08c-1.42-1.42-1.1-3,.72-3.84,2.16-1,6.2-.16,7.81,1.63,1.43,1.6.89,3.51-1.18,4.08A11.14,11.14,0,0,1,112.83,48.2Z"/>
          <path class="cls-1" d="M130.64,200.75a4,4,0,1,1-4-4.06A4,4,0,0,1,130.64,200.75Z"/>
          <path class="cls-1" d="M218.45,189.67a20.41,20.41,0,0,1-1.58,3.91,3,3,0,0,1-2.4,1.25,3.49,3.49,0,0,1-2.11-1.92,6.33,6.33,0,0,1,1-6.58,3.22,3.22,0,0,1,2.39-1.3c.8.15,1.57,1.16,2.09,2A9.56,9.56,0,0,1,218.45,189.67Z"/>
          <path class="cls-1" d="M121,40.06a8.31,8.31,0,0,1-6.11-2.6c-1.23-1.38-.81-2.78,1-3.28a8.18,8.18,0,0,1,7.48,1.49,3.57,3.57,0,0,1,1.32,2.55c0,1.22-1.31,1.59-2.42,1.77C121.89,40.05,121.52,40,121,40.06Z"/>
          <path class="cls-1" d="M180.65,209.32c0-2.59,1.9-5,4-5.11,1.83-.07,3.23,1.48,3.26,3.6,0,2.67-2,5.08-4.23,5.06C181.88,212.85,180.67,211.47,180.65,209.32Z"/>
          <path class="cls-1" d="M102.12,50.26a22.38,22.38,0,0,1,4.26,2c1.83,1.31,1.41,3.52-.63,4.46a6.91,6.91,0,0,1-7.37-1.84A2.2,2.2,0,0,1,99,51.31,19.3,19.3,0,0,1,102.12,50.26Z"/>
          <path class="cls-1" d="M152.59,34.22c-3.44-.42-6.1-1.37-8.15-3.5a2.87,2.87,0,0,1-.78-2.4,2.91,2.91,0,0,1,2.35-.94,11.35,11.35,0,0,1,7.47,3.35,3,3,0,0,1,.9,2.39C154.2,33.72,153,34,152.59,34.22Z"/>
          <path class="cls-1" d="M201.47,200.46a5.92,5.92,0,0,1,2.3-4.8,2.48,2.48,0,0,1,3.95,1.12A6.12,6.12,0,0,1,207,203c-.74,1.09-1.92,2-3.16,1.36-.92-.45-1.51-1.63-2.14-2.57C201.42,201.41,201.52,200.84,201.47,200.46Z"/>
          <path class="cls-1" d="M93.52,158.7a4.32,4.32,0,0,1-4.25-4.07A3.82,3.82,0,0,1,93,150.85a4.25,4.25,0,0,1,4.24,4.05A3.81,3.81,0,0,1,93.52,158.7Z"/>
          <path class="cls-1" d="M79.83,92.34a5.9,5.9,0,0,1,1-1.63,4.53,4.53,0,0,1,7.06,1.82,4,4,0,0,1-.2,2.65c-.68,1.52-2.91,2.15-4.77,1.59A4.19,4.19,0,0,1,79.83,92.34Z"/>
          <path class="cls-1" d="M140.59,33.31a13.51,13.51,0,0,1-7.16-3,3,3,0,0,1-1-2.31c.18-.6,1.39-1.18,2.18-1.24a9.82,9.82,0,0,1,7.18,2.33c.74.62,1.63,1.95,1.4,2.59S141.49,32.78,140.59,33.31Z"/>
          <path class="cls-1" d="M84.35,108.2a4.38,4.38,0,0,1-4.44-4.11,3.67,3.67,0,0,1,3.8-3.35c2.32,0,4.49,1.94,4.48,3.93A3.73,3.73,0,0,1,84.35,108.2Z"/>
          <path class="cls-1" d="M93.18,66.81A23.85,23.85,0,0,1,89,64.44c-1.47-1.25-1-3.15.68-4.09a6,6,0,0,1,6.4.77,3.75,3.75,0,0,1,1.17,2.75c-.16.84-1.25,1.59-2.07,2.19a5,5,0,0,1-1.79.41Z"/>
          <path class="cls-1" d="M106.35,183a3.6,3.6,0,0,1-3.78,3.66,4.08,4.08,0,0,1-4-3.93,3.9,3.9,0,0,1,3.92-3.78A4,4,0,0,1,106.35,183Z"/>
          <path class="cls-1" d="M113.53,194.45a3.85,3.85,0,0,1,3.94,3.91A3.63,3.63,0,0,1,113.7,202a3.94,3.94,0,0,1-4-4A3.63,3.63,0,0,1,113.53,194.45Z"/>
          <path class="cls-1" d="M84.11,119.75a4.27,4.27,0,0,1-4.3-4,3.47,3.47,0,0,1,3.62-3.45,4.32,4.32,0,0,1,4.41,4.09A3.61,3.61,0,0,1,84.11,119.75Z"/>
          <path class="cls-1" d="M227.16,180.82A24.09,24.09,0,0,1,225.6,185c-.93,1.59-2.54,1.47-3.42-.16a7.77,7.77,0,0,1,.28-8c1.12-1.87,2.88-1.71,3.76.31A25,25,0,0,1,227.16,180.82Z"/>
          <path class="cls-1" d="M79.16,127.41a3.39,3.39,0,0,1,3.5-3.36,4.23,4.23,0,0,1,4.31,4,3.71,3.71,0,0,1-3.83,3.49A4.1,4.1,0,0,1,79.16,127.41Z"/>
          <path class="cls-1" d="M128.54,32.48a10.46,10.46,0,0,1-6.45-2.24,2.74,2.74,0,0,1-1-2c.13-.56,1.12-1.16,1.83-1.32a9.06,9.06,0,0,1,7.55,1.87,3.1,3.1,0,0,1,1.17,2.41c-.09.54-1.39.92-2.18,1.31A2.35,2.35,0,0,1,128.54,32.48Z"/>
          <path class="cls-1" d="M83.58,86.19c-2.46,0-4.59-1.79-4.6-3.75s1.78-3.23,4-3.2c2.44,0,4.61,1.86,4.51,3.81A3.65,3.65,0,0,1,83.58,86.19Z"/>
          <path class="cls-1" d="M197.1,209.23a5.34,5.34,0,0,1-2.52,4.53,2.74,2.74,0,0,1-4.2-1.59,5.52,5.52,0,0,1,2.4-6.16C194.9,204.82,197.12,206.48,197.1,209.23Z"/>
          <path class="cls-1" d="M149.42,212.86a3.18,3.18,0,0,1,3.34,3.43,4.09,4.09,0,0,1-4.1,4.15,3.43,3.43,0,0,1-3.49-3.4A4.19,4.19,0,0,1,149.42,212.86Z"/>
          <path class="cls-1" d="M156.69,218.49A4.45,4.45,0,0,1,161,214.1a3.19,3.19,0,0,1,3.16,3.49,4.41,4.41,0,0,1-4.12,4.26A3.4,3.4,0,0,1,156.69,218.49Z"/>
          <path class="cls-1" d="M98.39,42.45a28.43,28.43,0,0,1,4.48,1.83A2.84,2.84,0,0,1,104,46.59c-.08.65-1,1.47-1.74,1.72a6.78,6.78,0,0,1-6.83-1.25,2.84,2.84,0,0,1-1-2.19c.13-.67,1-1.29,1.74-1.7a7.61,7.61,0,0,1,2.09-.47Z"/>
          <path class="cls-1" d="M87.62,167.11a3.53,3.53,0,0,1,3.77-3.47,4,4,0,0,1,3.81,4.07,3.42,3.42,0,0,1-3.72,3.46A4.07,4.07,0,0,1,87.62,167.11Z"/>
          <path class="cls-1" d="M137.11,211.31a3.35,3.35,0,0,1,3.48,3.51,4,4,0,0,1-3.93,4,3.56,3.56,0,0,1-3.69-3.55A4.07,4.07,0,0,1,137.11,211.31Z"/>
          <path class="cls-1" d="M167.78,219.76a4.57,4.57,0,0,1,4.2-4.57,3.14,3.14,0,0,1,3.13,3.35,4.53,4.53,0,0,1-4.27,4.49A3.17,3.17,0,0,1,167.78,219.76Z"/>
          <path class="cls-1" d="M108.33,40.69a37,37,0,0,1-4.78-1.93,2.78,2.78,0,0,1-1.13-2.14c0-.52.88-1.3,1.52-1.51a7.73,7.73,0,0,1,7.2,1.08c.65.48,1.39,1.63,1.22,2.22s-1.26,1.3-2.06,1.74a5.12,5.12,0,0,1-1.83.22Z"/>
          <path class="cls-1" d="M78.11,139.75a3.47,3.47,0,0,1,3.49-3.43,4.13,4.13,0,0,1,4.12,4,3.48,3.48,0,0,1-3.51,3.41A4.06,4.06,0,0,1,78.11,139.75Z"/>
          <path class="cls-1" d="M128.08,213a3.83,3.83,0,0,1-3.86,3.82,3.58,3.58,0,0,1-3.66-3.43,3.79,3.79,0,0,1,3.74-3.91A3.69,3.69,0,0,1,128.08,213Z"/>
          <path class="cls-1" d="M90.53,57.81a21,21,0,0,1-4-1.81c-1.73-1.27-1.41-3.14.56-4a5.89,5.89,0,0,1,6,.58A3.28,3.28,0,0,1,94.57,55c-.16.84-1.25,1.58-2.07,2.16a4.41,4.41,0,0,1-1.8.33Z"/>
          <path class="cls-1" d="M81.76,69.32a21.79,21.79,0,0,1,2.89,1,2.8,2.8,0,0,1,1.75,3,2.75,2.75,0,0,1-2.47,2.44,8.37,8.37,0,0,1-3.62-.28A3.27,3.27,0,0,1,78,71.88C78.21,70.48,79.74,69.5,81.76,69.32Z"/>
          <path class="cls-1" d="M216,201.16a23.28,23.28,0,0,1-1.92,4,2.82,2.82,0,0,1-2.37,1,3.07,3.07,0,0,1-1.82-1.84,5.84,5.84,0,0,1,1-5.71,4,4,0,0,1,2.55-1.38c1.22-.07,1.79,1.05,2,2.19.12.55.19,1.11.29,1.67Z"/>
          <path class="cls-1" d="M185.05,219.51c0,2.4-2,4.59-4.13,4.57a3,3,0,0,1-2.94-3.14c0-2.35,2-4.64,4.08-4.66A3,3,0,0,1,185.05,219.51Z"/>
          <path class="cls-1" d="M224.89,192a25.43,25.43,0,0,1-1.69,4.2c-1,1.64-2.61,1.43-3.5-.25a7.55,7.55,0,0,1,.86-7.47c1.28-1.5,2.89-1.29,3.62.54A22.42,22.42,0,0,1,224.89,192Z"/>
          <path class="cls-1" d="M116,32.92A35.5,35.5,0,0,1,111,31.24a2.91,2.91,0,0,1-1.51-2.19c.07-.62,1.26-1.41,2.09-1.6a8.42,8.42,0,0,1,6.77,1.37c.67.46,1.51,1.62,1.33,2.14-.24.69-1.35,1.16-2.16,1.57a4.17,4.17,0,0,1-1.52.15Z"/>
          <path class="cls-1" d="M205.73,210.76a16.05,16.05,0,0,1-2,3.69,2.54,2.54,0,0,1-4.56-1.5,8.75,8.75,0,0,1,.84-4,2.88,2.88,0,0,1,3.36-1.87C204.73,207.43,205.41,208.71,205.73,210.76Z"/>
          <path class="cls-1" d="M80.6,155.88A4,4,0,0,1,76.74,152a3.22,3.22,0,0,1,3.32-3.31,3.85,3.85,0,0,1,4,3.87A3.4,3.4,0,0,1,80.6,155.88Z"/>
          <path class="cls-1" d="M100.34,199.29a3.79,3.79,0,0,1-3.7-4,3.45,3.45,0,0,1,3.58-3.15,3.92,3.92,0,0,1,3.81,3.92A3.45,3.45,0,0,1,100.34,199.29Z"/>
          <path class="cls-1" d="M129.43,20.53a11.56,11.56,0,0,1,6.86,2.21,8,8,0,0,1,1.37,2.09c-.75.37-1.49,1-2.24,1a11.84,11.84,0,0,1-7.32-2.1,7.8,7.8,0,0,1-1.43-2.05c.78-.39,1.56-.79,2.35-1.16A.77.77,0,0,1,129.43,20.53Z"/>
          <path class="cls-1" d="M80.39,66.92a22.4,22.4,0,0,1-3.8-2.07c-1.14-.92-.94-2.23.14-3.22,1.94-1.77,6.07-1.22,7.44,1a2.34,2.34,0,0,1-1,3.39,13.53,13.53,0,0,1-2.5.68Z"/>
          <path class="cls-1" d="M111.38,214.47a3.76,3.76,0,0,1-3.8-3.52,3.61,3.61,0,0,1,3.55-3.4A3.66,3.66,0,0,1,115,211,3.46,3.46,0,0,1,111.38,214.47Z"/>
          <path class="cls-1" d="M89.19,176.74A3.72,3.72,0,0,1,93,180.41a3.43,3.43,0,0,1-3.44,3.44,4,4,0,0,1-3.77-3.8A3.37,3.37,0,0,1,89.19,176.74Z"/>
          <path class="cls-1" d="M194.2,220.54c0,2.42-1.91,4.57-4,4.53a2.74,2.74,0,0,1-2.63-3c0-2.34,2.08-4.78,4-4.77C193.18,217.29,194.21,218.61,194.2,220.54Z"/>
          <path class="cls-1" d="M71.2,100c2.08,0,4.16,1.8,4.15,3.63a3.27,3.27,0,0,1-3.43,3.07,4,4,0,0,1-4.11-3.62A3.19,3.19,0,0,1,71.2,100Z"/>
          <path class="cls-1" d="M122.58,26.06c-1.88-.64-3.82-1.17-5.63-2-.67-.3-1-1.28-1.53-1.95.7-.44,1.37-1.17,2.11-1.28a10.09,10.09,0,0,1,7.38,1.72c.58.42.84,1.29,1.25,2a19,19,0,0,1-2.08,1.13,4,4,0,0,1-1.38,0Z"/>
          <path class="cls-1" d="M94.75,35.64A34.74,34.74,0,0,1,99,37.19a2.29,2.29,0,0,1,1,1.83,2.46,2.46,0,0,1-1.39,1.61,7.47,7.47,0,0,1-7-.78,2.53,2.53,0,0,1-1.14-2c.09-.61,1-1.25,1.66-1.57a9.28,9.28,0,0,1,2.4-.46Z"/>
          <path class="cls-1" d="M75.17,93a3.16,3.16,0,0,1-3.35,3c-2.25,0-4.33-1.73-4.33-3.62,0-1.67,1.54-2.94,3.55-2.9C73.34,89.49,75.2,91.09,75.17,93Z"/>
          <path class="cls-1" d="M86.81,43.72a23.56,23.56,0,0,1,4,1.8c1.28.87,1,2.32-.27,3.18-1.84,1.19-5.89.72-7.42-.86-1.11-1.13-1-2.29.34-3A20,20,0,0,1,86.81,43.72Z"/>
          <path class="cls-1" d="M146,231.89a3.05,3.05,0,0,1-3.25-3,3.92,3.92,0,0,1,3.88-3.85,3,3,0,0,1,3.27,3A4,4,0,0,1,146,231.89Z"/>
          <path class="cls-1" d="M102.14,28.11a41.85,41.85,0,0,1,4.45,1.57,2.35,2.35,0,0,1,1.19,1.76c0,.55-.85,1.3-1.48,1.5a8.69,8.69,0,0,1-7.43-1,2.24,2.24,0,0,1-1-1.72c.07-.52.83-1.14,1.41-1.37a14.22,14.22,0,0,1,2.72-.51Z"/>
          <path class="cls-1" d="M161.39,229.16a4.21,4.21,0,0,1-4.09,3.91,3.1,3.1,0,0,1-3-3.16,4.37,4.37,0,0,1,4.15-3.9A2.94,2.94,0,0,1,161.39,229.16Z"/>
          <path class="cls-1" d="M67.64,114.06a2.89,2.89,0,0,1,3.3-3,3.86,3.86,0,0,1,3.9,3.64,3.16,3.16,0,0,1-3.39,3.06A3.73,3.73,0,0,1,67.64,114.06Z"/>
          <path class="cls-1" d="M71.21,85.64c-1.79,0-3.58-.89-4-2.38a3.46,3.46,0,0,1,.42-2.68c1.11-1.41,2.81-1.36,4.42-.9a3.41,3.41,0,0,1,2.66,3.37C74.55,84.56,73.12,85.61,71.21,85.64Z"/>
          <path class="cls-1" d="M70.18,122.55A3.93,3.93,0,0,1,74,126.24a3.17,3.17,0,0,1-3.21,3.13,4,4,0,0,1-3.93-3.81A3.11,3.11,0,0,1,70.18,122.55Z"/>
          <path class="cls-1" d="M221.89,202.47a6.56,6.56,0,0,1-1.87,5.08c-1.18,1.13-2.42.84-3.12-.64a7.24,7.24,0,0,1,1.22-6.86c1.36-1.4,2.85-1.09,3.45.74A9.4,9.4,0,0,1,221.89,202.47Z"/>
          <path class="cls-1" d="M75.14,164.62a3,3,0,0,1,3.25-3.18A3.67,3.67,0,0,1,82,165.16a3.18,3.18,0,0,1-3.21,3.13A3.62,3.62,0,0,1,75.14,164.62Z"/>
          <path class="cls-1" d="M206.87,214a5.64,5.64,0,0,1,1.87-4.55c1.54-1.34,3.49-.79,3.69,1.22a10.34,10.34,0,0,1-.64,4.31,2.62,2.62,0,0,1-3.12,2C207,216.5,206.91,215.06,206.87,214Z"/>
          <path class="cls-1" d="M172,229.9a4.23,4.23,0,0,1-4.11,4.08,2.76,2.76,0,0,1-2.75-2.79,4.44,4.44,0,0,1,4-4.27A2.79,2.79,0,0,1,172,229.9Z"/>
          <path class="cls-1" d="M134.11,230.4a3.08,3.08,0,0,1-3.3-3.13,3.65,3.65,0,0,1,3.74-3.56,3.16,3.16,0,0,1,3.35,3A3.79,3.79,0,0,1,134.11,230.4Z"/>
          <path class="cls-1" d="M110.47,26.63a42,42,0,0,1-5.44-2c-1.42-.73-1.21-2.06.33-2.58a9.33,9.33,0,0,1,8.3,1.19,2,2,0,0,1,.83,1.51c-.08.44-.77.95-1.29,1.13a15.75,15.75,0,0,1-2.59.45Z"/>
          <path class="cls-1" d="M78.08,58.2a19.11,19.11,0,0,1-3.35-1.27,2,2,0,0,1,.19-3.73,5.79,5.79,0,0,1,5.89.39A2.8,2.8,0,0,1,82,55.7c-.06.69-.85,1.44-1.5,1.89A8,8,0,0,1,78.08,58.2Z"/>
          <path class="cls-1" d="M70,75.88a4.18,4.18,0,0,1-4-2.11,2.65,2.65,0,0,1,.15-2.3c1-1.48,2.68-1.57,4.34-1.27,1.86.33,3.19,1.69,3.08,3.13S72,75.87,70,75.88Z"/>
          <path class="cls-1" d="M69.5,141a3.84,3.84,0,0,1-3.66-3.52A3.12,3.12,0,0,1,69,134.34a3.66,3.66,0,0,1,3.69,3.58A3.05,3.05,0,0,1,69.5,141Z"/>
          <path class="cls-1" d="M195.83,223.19a34,34,0,0,1,2.19-3.77,2.29,2.29,0,0,1,2.93-.75,2.65,2.65,0,0,1,1.44,3,8.74,8.74,0,0,1-1.39,3.21,2.31,2.31,0,0,1-3.11,1C197.05,225.37,196.59,224.23,195.83,223.19Z"/>
          <path class="cls-1" d="M97.82,205a3.56,3.56,0,0,1,3.64,3.47,3.22,3.22,0,0,1-3.26,3.09,3.75,3.75,0,0,1-3.68-3.5A3.27,3.27,0,0,1,97.82,205Z"/>
          <path class="cls-1" d="M87.39,196.1a3.52,3.52,0,0,1-3.56-3.5A3.05,3.05,0,0,1,87,189.53a3.53,3.53,0,0,1,3.57,3.52A3,3,0,0,1,87.39,196.1Z"/>
          <path class="cls-1" d="M118.38,225.46A3.46,3.46,0,0,1,122,222.2a3.19,3.19,0,0,1,3.28,3.19,3.66,3.66,0,0,1-3.67,3.29A3.15,3.15,0,0,1,118.38,225.46Z"/>
          <path class="cls-1" d="M182.09,230.54a4.3,4.3,0,0,1-4,4.15A2.57,2.57,0,0,1,175.5,232a4.42,4.42,0,0,1,4.13-4.23A2.53,2.53,0,0,1,182.09,230.54Z"/>
          <path class="cls-1" d="M83.27,42.4a21.72,21.72,0,0,1-3.45-1.06A2.36,2.36,0,0,1,78.6,39.6c0-.55.81-1.28,1.42-1.55a6.84,6.84,0,0,1,6.15.26,2.75,2.75,0,0,1,1.38,1.94c0,.55-.93,1.28-1.6,1.62A11.1,11.1,0,0,1,83.27,42.4Z"/>
          <path class="cls-1" d="M91,34.69a25.19,25.19,0,0,1-4-1.3c-1.45-.71-1.37-2.18.14-2.8a8.13,8.13,0,0,1,7.6.51c1.4.86,1.27,2.16-.27,2.81A20.65,20.65,0,0,1,91,34.69Z"/>
          <path class="cls-1" d="M76.61,180.54A3.43,3.43,0,0,1,73.25,177a3,3,0,0,1,3-3,3.75,3.75,0,0,1,3.5,3.68A3,3,0,0,1,76.61,180.54Z"/>
          <path class="cls-1" d="M128.5,19.76a13.58,13.58,0,0,1-7-2.14c-.44-.32-1-1-.87-1.43s.86-.89,1.38-.94a12.34,12.34,0,0,1,8.5,2.15,1.72,1.72,0,0,1,.68,1.39c-.1.37-.81.64-1.3.82A5.64,5.64,0,0,1,128.5,19.76Z"/>
          <path class="cls-1" d="M98,27.45c-1.37-.42-3-.84-4.48-1.43a1.71,1.71,0,0,1-.88-1.29,1.79,1.79,0,0,1,1.05-1.16,9.09,9.09,0,0,1,7.92.61c.42.24.94.93.87,1.29a2,2,0,0,1-1.17,1.24A24,24,0,0,1,98,27.45Z"/>
          <path class="cls-1" d="M64.53,149.49a2.87,2.87,0,0,1,2.93-3,3.76,3.76,0,0,1,3.61,3.55A3.06,3.06,0,0,1,67.91,153,3.55,3.55,0,0,1,64.53,149.49Z"/>
          <path class="cls-1" d="M68.21,67.12a17,17,0,0,1-3.27-1.49c-1.42-1-1.19-2.65.35-3.5a4.88,4.88,0,0,1,5,.11,3.24,3.24,0,0,1,1.52,2.36c-.07.74-1.21,1.45-2,2-.37.26-1,.18-1.49.26Z"/>
          <path class="cls-1" d="M185,232.69c0-2.12,1.85-4.21,3.72-4.23a2.48,2.48,0,0,1,2.5,2.74,4.3,4.3,0,0,1-3.86,4.13C185.87,235.34,185,234.33,185,232.69Z"/>
          <path class="cls-1" d="M74.86,50.59a17.91,17.91,0,0,1-3.29-1.1,2.46,2.46,0,0,1-1.14-1.8c0-.52.71-1.27,1.29-1.53a6.31,6.31,0,0,1,6.1.35,2.29,2.29,0,0,1,1,1.7,2.37,2.37,0,0,1-1.21,1.59A13.2,13.2,0,0,1,74.86,50.59Z"/>
          <path class="cls-1" d="M109,226.27a3.18,3.18,0,0,1-3.43-3,3.12,3.12,0,0,1,3.14-3.14,3.35,3.35,0,0,1,3.53,3A3.07,3.07,0,0,1,109,226.27Z"/>
          <path class="cls-1" d="M113.2,15.3c2,.65,4,1.25,5.93,2a1.71,1.71,0,0,1,.87,1.41,1.91,1.91,0,0,1-1.38,1,12.19,12.19,0,0,1-8-1.35,2,2,0,0,1-1-1.38c0-.36.78-.85,1.29-1a11.41,11.41,0,0,1,2.13-.35Z"/>
          <path class="cls-1" d="M219.43,213.71a23.06,23.06,0,0,1-2.22,4.1c-1.09,1.32-2.66.76-3.12-1a5.51,5.51,0,0,1,1.27-5.34,2.75,2.75,0,0,1,2.21-.92c.62.19,1,1.27,1.4,2a2.3,2.3,0,0,1,.08.92Z"/>
          <path class="cls-1" d="M203.72,224.26a23,23,0,0,1,2.29-3.75,2.61,2.61,0,0,1,2.31-.62,2.52,2.52,0,0,1,1.3,2,9.8,9.8,0,0,1-1.08,3.9c-.52,1-1.72,1.84-2.86,1.14C204.85,226.43,204.43,225.28,203.72,224.26Z"/>
          <path class="cls-1" d="M59.57,94.78c-1.91,0-3.75-1.49-3.76-3A2.94,2.94,0,0,1,58.9,89c2,0,3.8,1.58,3.78,3.21A2.88,2.88,0,0,1,59.57,94.78Z"/>
          <path class="cls-1" d="M104.24,20.86c-1.45-.4-3.15-.78-4.79-1.35-.48-.16-.79-.84-1.18-1.28.46-.37.87-.95,1.39-1.09a10.55,10.55,0,0,1,7.94.85,1.81,1.81,0,0,1,.85,1.3c0,.31-.61.82-1,.95C106.49,20.52,105.51,20.62,104.24,20.86Z"/>
          <path class="cls-1" d="M154.7,243.68a2.77,2.77,0,0,1-2.89-2.46,4,4,0,0,1,3.67-3.73,2.54,2.54,0,0,1,2.84,2.42A3.94,3.94,0,0,1,154.7,243.68Z"/>
          <path class="cls-1" d="M59.62,104.92a3.65,3.65,0,0,1-3.68-3.28A2.77,2.77,0,0,1,59,99c1.93,0,3.69,1.63,3.69,3.3C62.69,103.85,61.41,104.93,59.62,104.92Z"/>
          <path class="cls-1" d="M222.22,206.88a30.54,30.54,0,0,1,2.08-4.53c.81-1.23,2-.93,2.6.44a7.55,7.55,0,0,1-1.4,7c-1,.91-1.9.78-2.45-.47a14,14,0,0,1-.56-2.23Z"/>
          <path class="cls-1" d="M147.07,239.26a3.83,3.83,0,0,1-3.71,3.49,2.64,2.64,0,0,1-2.88-2.58,3.67,3.67,0,0,1,3.65-3.49A2.8,2.8,0,0,1,147.07,239.26Z"/>
          <path class="cls-1" d="M58.71,109.77A3.56,3.56,0,0,1,62.3,113a2.76,2.76,0,0,1-3,2.77,3.49,3.49,0,0,1-3.47-3.27A2.65,2.65,0,0,1,58.71,109.77Z"/>
          <path class="cls-1" d="M85.86,28.92a38.66,38.66,0,0,1-3.83-1,1.73,1.73,0,0,1-.89-1.27c0-.34.49-.91.89-1.08a9,9,0,0,1,7.49.06c.48.22,1.12,1,1,1.32a2.24,2.24,0,0,1-1.31,1.28A25.62,25.62,0,0,1,85.86,28.92Z"/>
          <path class="cls-1" d="M131.85,235.62a2.88,2.88,0,0,1,3.08,2.63,3.55,3.55,0,0,1-3.67,3.24,2.75,2.75,0,0,1-2.87-2.64A3.38,3.38,0,0,1,131.85,235.62Z"/>
          <path class="cls-1" d="M66.1,164.94a3.32,3.32,0,0,1-3.26-3.41,2.84,2.84,0,0,1,2.91-2.78A3.45,3.45,0,0,1,69,162.19,2.8,2.8,0,0,1,66.1,164.94Z"/>
          <path class="cls-1" d="M78.88,31.6a26.27,26.27,0,0,1,3.73,1.23c1.2.6,1.1,1.66,0,2.38-1.76,1.12-5.88,1-7.59-.2-1-.74-1.09-1.71.09-2.27A25.48,25.48,0,0,1,78.88,31.6Z"/>
          <path class="cls-1" d="M162.76,241.77c0-1.72,1.89-3.6,3.8-3.68a2.41,2.41,0,0,1,2.6,2.47,4.09,4.09,0,0,1-3.74,3.72A2.68,2.68,0,0,1,162.76,241.77Z"/>
          <path class="cls-1" d="M65.4,53.73A18.09,18.09,0,0,1,68.64,55c1.25.8,1.11,2.22-.13,3.07a6,6,0,0,1-6.16-.41,1.71,1.71,0,0,1,.15-3A15.86,15.86,0,0,1,65.4,53.73Z"/>
          <path class="cls-1" d="M58.3,79.57c2.06,0,3.75,1.34,3.75,2.94,0,1.43-1.37,2.55-3.14,2.52-2,0-3.87-1.49-3.85-3.09C55.09,80.51,56.4,79.54,58.3,79.57Z"/>
          <path class="cls-1" d="M87.92,205.52a2.9,2.9,0,0,1-2.81,2.93,3.44,3.44,0,0,1-3.42-3.16,2.86,2.86,0,0,1,3-2.88A3.17,3.17,0,0,1,87.92,205.52Z"/>
          <path class="cls-1" d="M71,39.17a20.58,20.58,0,0,1,3.43,1.1c1.31.68,1.24,1.88,0,2.66-1.63,1-5.32.94-6.85-.19-1.07-.78-1.13-1.84.06-2.46A20.17,20.17,0,0,1,71,39.17Z"/>
          <path class="cls-1" d="M57.54,75.8a3.6,3.6,0,0,1-3.26-2,2.38,2.38,0,0,1,.26-2.08,3.67,3.67,0,0,1,4-1c1.69.43,2.72,1.56,2.6,2.8S59.6,75.82,57.54,75.8Z"/>
          <path class="cls-1" d="M55.14,123.36a2.54,2.54,0,0,1,2.65-2.64,3.58,3.58,0,0,1,3.6,3.36,2.62,2.62,0,0,1-2.71,2.61A3.4,3.4,0,0,1,55.14,123.36Z"/>
          <path class="cls-1" d="M199.43,232.11a4.48,4.48,0,0,1-2.51,3.63,2.09,2.09,0,0,1-3.09-1.5,4.59,4.59,0,0,1,2.57-4.84C198.08,228.76,199.4,229.78,199.43,232.11Z"/>
          <path class="cls-1" d="M57.31,138.2A3.38,3.38,0,0,1,54,134.81a2.67,2.67,0,0,1,2.88-2.58,3.68,3.68,0,0,1,3.26,3.36A2.66,2.66,0,0,1,57.31,138.2Z"/>
          <path class="cls-1" d="M119,239.78a2.81,2.81,0,0,1-2.93-2.9,3.34,3.34,0,0,1,3.53-2.79,2.9,2.9,0,0,1,2.87,2.86A3.26,3.26,0,0,1,119,239.78Z"/>
          <path class="cls-1" d="M77.31,190a2.94,2.94,0,0,1-2.9,2.85,3.38,3.38,0,0,1-3.22-3.18,2.77,2.77,0,0,1,2.88-2.8A3.36,3.36,0,0,1,77.31,190Z"/>
          <path class="cls-1" d="M95.76,223.58a3.06,3.06,0,0,1-3.22-3,2.81,2.81,0,0,1,2.95-2.74,3.2,3.2,0,0,1,3.33,3A2.85,2.85,0,0,1,95.76,223.58Z"/>
          <path class="cls-1" d="M173,242.2a4,4,0,0,1,3.82-3.6,2.22,2.22,0,0,1,2.23,2.59,3.9,3.9,0,0,1-3.9,3.48A2.11,2.11,0,0,1,173,242.2Z"/>
          <path class="cls-1" d="M92.29,22.28C91,22,89.44,21.65,88,21.19a1.46,1.46,0,0,1-.88-1.08c0-.36.56-.87,1-1a10.24,10.24,0,0,1,7.84.21c.44.19,1,.85.94,1.21a1.83,1.83,0,0,1-1.16,1.07A32.91,32.91,0,0,1,92.29,22.28Z"/>
          <path class="cls-1" d="M124.64,13.57c-.2.23-.29.42-.41.45a12.84,12.84,0,0,1-9.69-1.47c-1-.57-.79-1.34.32-1.56a12.7,12.7,0,0,1,9.08,1.68C124.25,12.85,124.42,13.28,124.64,13.57Z"/>
          <path class="cls-1" d="M109.55,15.07c-1.79-.42-3.6-.78-5.36-1.3-.44-.13-.73-.75-1.1-1.15.42-.31.8-.81,1.27-.92a12.48,12.48,0,0,1,7.72.76c.54.22.91.87,1.36,1.31a7.47,7.47,0,0,1-1.66.9,11.05,11.05,0,0,1-2.16.15Z"/>
          <path class="cls-1" d="M224.56,215.45a38,38,0,0,1-1.83,4,2,2,0,0,1-1.68.71c-.42-.06-.91-.79-1.07-1.31a5.64,5.64,0,0,1,1.1-5.23,2.65,2.65,0,0,1,2-1c.46.06.81,1.12,1.14,1.77a2.44,2.44,0,0,1,.08.91Z"/>
          <path class="cls-1" d="M62.78,51.76a18.36,18.36,0,0,1-3-.94c-1.42-.72-1.42-2.13,0-2.85a6.06,6.06,0,0,1,5.95.12,1.46,1.46,0,0,1,0,2.72A14.67,14.67,0,0,1,62.78,51.76Z"/>
          <path class="cls-1" d="M184.57,245a2.15,2.15,0,0,1-2.15-2.35,4,4,0,0,1,3.75-3.67,2.05,2.05,0,0,1,2,2.42A3.9,3.9,0,0,1,184.57,245Z"/>
          <path class="cls-1" d="M216.29,223.5a6.7,6.7,0,0,1-2.16,4.19c-1.3,1.08-2.88.56-2.91-1.09a8.6,8.6,0,0,1,1-4.06,2.85,2.85,0,0,1,2.43-1.26C215.33,221.43,215.75,222.72,216.29,223.5Z"/>
          <path class="cls-1" d="M55.89,62.54a9.62,9.62,0,0,1,2.49.84,2.49,2.49,0,0,1,1.08,1.82,2.65,2.65,0,0,1-1.32,1.71,4.1,4.1,0,0,1-4.41-.3,2.93,2.93,0,0,1-1.21-2.07c0-.58.94-1.21,1.57-1.65C54.47,62.62,55.08,62.68,55.89,62.54Z"/>
          <path class="cls-1" d="M61,173.92a2.53,2.53,0,0,1,2.64-2.63,3.24,3.24,0,0,1,3.08,3.26A2.63,2.63,0,0,1,64,177.08,3.09,3.09,0,0,1,61,173.92Z"/>
          <path class="cls-1" d="M73.85,30.92c-1.23-.28-2.36-.45-3.42-.81a1.62,1.62,0,0,1-.92-1.06c-.05-.3.4-.84.76-1a8.85,8.85,0,0,1,7.21-.32,1.57,1.57,0,0,1,.89,1.11,1.54,1.54,0,0,1-.86,1.12C76.31,30.37,75.05,30.61,73.85,30.92Z"/>
          <path class="cls-1" d="M52.7,146.6A2.45,2.45,0,0,1,55.14,144a3.23,3.23,0,0,1,3.24,3.08,2.47,2.47,0,0,1-2.46,2.6A3.13,3.13,0,0,1,52.7,146.6Z"/>
          <path class="cls-1" d="M97.05,12.68c1.21.27,2.68.54,4.1,1,.42.13.71.67,1.07,1-.37.3-.7.76-1.12.88a12.44,12.44,0,0,1-7.61-.14c-.51-.17-.89-.75-1.32-1.15.46-.35.87-.89,1.39-1A29.88,29.88,0,0,1,97.05,12.68Z"/>
          <path class="cls-1" d="M201.47,234.12a4.48,4.48,0,0,1,2.21-3.7,1.71,1.71,0,0,1,2.78,1,4.63,4.63,0,0,1-2.08,4.92C202.76,237.16,201.36,236.08,201.47,234.12Z"/>
          <path class="cls-1" d="M106.38,237.79a2.66,2.66,0,1,1,0-5.3,2.79,2.79,0,0,1,3,2.64A2.87,2.87,0,0,1,106.38,237.79Z"/>
          <path class="cls-1" d="M80.5,20.41c1.29.29,2.46.48,3.58.83a1.39,1.39,0,0,1,.82,1,1.38,1.38,0,0,1-.77,1,10.79,10.79,0,0,1-7.57.22c-.38-.12-.91-.64-.87-.92a1.57,1.57,0,0,1,.85-1.1C77.85,21,79.22,20.72,80.5,20.41Z"/>
          <path class="cls-1" d="M66.76,38.05a29.9,29.9,0,0,1-3.15-.75,1.59,1.59,0,0,1-.93-1.07,1.55,1.55,0,0,1,.76-1.18,7.46,7.46,0,0,1,6.7-.24A1.6,1.6,0,0,1,71,35.92,1.49,1.49,0,0,1,70.19,37C69.05,37.48,67.86,37.74,66.76,38.05Z"/>
          <path class="cls-1" d="M166.11,250.69a3.56,3.56,0,0,1-3.37,3.24,2.26,2.26,0,0,1-2.5-2.18c0-1.6,1.83-3.13,3.67-3.1A2,2,0,0,1,166.11,250.69Z"/>
          <path class="cls-1" d="M85.25,217.71a2.53,2.53,0,0,1-2.6,2.53,3.07,3.07,0,0,1-3.14-2.82,2.53,2.53,0,0,1,2.59-2.53A3.07,3.07,0,0,1,85.25,217.71Z"/>
          <path class="cls-1" d="M140.65,253a2.38,2.38,0,0,1-2.59-2.13,3.29,3.29,0,0,1,3.31-3.05,2.37,2.37,0,0,1,2.61,2.27A3.43,3.43,0,0,1,140.65,253Z"/>
          <path class="cls-1" d="M153,248.33a2.2,2.2,0,0,1,2.45,2.22,3.57,3.57,0,0,1-3.59,3,2.2,2.2,0,0,1-2.33-2.34A3.4,3.4,0,0,1,153,248.33Z"/>
          <path class="cls-1" d="M53.61,59.75a15.1,15.1,0,0,1-2.6-1c-1.33-.78-1.24-2.18.16-2.87a4.87,4.87,0,0,1,4.47-.08,2.82,2.82,0,0,1,1.49,1.85c0,.51-.92,1.2-1.56,1.61A6.47,6.47,0,0,1,53.61,59.75Z"/>
          <path class="cls-1" d="M72,204.78a3.26,3.26,0,0,1-3-3,2.47,2.47,0,0,1,2.7-2.39,2.85,2.85,0,0,1,2.9,3A2.43,2.43,0,0,1,72,204.78Z"/>
          <path class="cls-1" d="M47.93,103.24c-1.57,0-3.34-1.5-3.33-2.89a2.43,2.43,0,0,1,2.63-2.28c1.65,0,3.28,1.38,3.25,2.73A2.6,2.6,0,0,1,47.93,103.24Z"/>
          <path class="cls-1" d="M196.34,241.44c0,1.79-1.77,3.83-3.41,3.8a1.85,1.85,0,0,1-1.9-2c-.08-1.74,1.76-3.84,3.36-3.87C195.59,239.33,196.31,240.09,196.34,241.44Z"/>
          <path class="cls-1" d="M85.9,14.57c1.38.24,2.56.37,3.7.68a1.65,1.65,0,0,1,1,1c.06.21-.51.77-.88.9a12.09,12.09,0,0,1-7.9,0c-.29-.1-.75-.55-.7-.68.14-.39.44-.92.78-1C83.23,15.07,84.65,14.83,85.9,14.57Z"/>
          <path class="cls-1" d="M59.26,45.55a21.26,21.26,0,0,1-3.07-.89C55,44.08,55,43.21,56,42.42a6.83,6.83,0,0,1,6.35-.18c.95.66,1,1.67,0,2.23A18.76,18.76,0,0,1,59.26,45.55Z"/>
          <path class="cls-1" d="M50.49,91.29a2.41,2.41,0,0,1-2.64,2.24c-1.55,0-3.26-1.39-3.3-2.7A2.27,2.27,0,0,1,47,88.65C48.87,88.61,50.47,89.85,50.49,91.29Z"/>
          <path class="cls-1" d="M46.85,108.16a3.09,3.09,0,0,1,3.16,3,2.26,2.26,0,0,1-2.31,2.24,3.38,3.38,0,0,1-3.36-3A2.3,2.3,0,0,1,46.85,108.16Z"/>
          <path class="cls-1" d="M129,251.86c-1.63,0-2.71-.79-2.76-2.08-.06-1.45,1.55-2.89,3.24-2.91a2.51,2.51,0,0,1,2.63,2.32A3,3,0,0,1,129,251.86Z"/>
          <path class="cls-1" d="M53.93,161.46a3.07,3.07,0,0,1-2.88-3.08A2.32,2.32,0,0,1,53.42,156a3.14,3.14,0,0,1,3,3A2.39,2.39,0,0,1,53.93,161.46Z"/>
          <path class="cls-1" d="M170.49,251.93a4,4,0,0,1,3.62-3.23,1.94,1.94,0,0,1,2,2.08,3.55,3.55,0,0,1-3.54,3.2A2.06,2.06,0,0,1,170.49,251.93Z"/>
          <path class="cls-1" d="M49.19,121.75a2.29,2.29,0,0,1-2.36,2.34,3.24,3.24,0,0,1-3.11-2.89,2.37,2.37,0,0,1,2.36-2.37A3.28,3.28,0,0,1,49.19,121.75Z"/>
          <path class="cls-1" d="M47.2,84.23c-1.75,0-3.46-1.38-3.45-2.72,0-1.09,1.23-2,2.72-2,1.81,0,3.45,1.29,3.42,2.69C49.88,83.33,48.63,84.26,47.2,84.23Z"/>
          <path class="cls-1" d="M93.43,235a2.87,2.87,0,0,1-3-2.58,2.61,2.61,0,0,1,2.73-2.4A2.77,2.77,0,0,1,96,232.68,2.46,2.46,0,0,1,93.43,235Z"/>
          <path class="cls-1" d="M59,186.14a2.37,2.37,0,0,1,2.23-2.5,3.14,3.14,0,0,1,3,2.92,2.45,2.45,0,0,1-2.38,2.38A2.82,2.82,0,0,1,59,186.14Z"/>
          <path class="cls-1" d="M45.4,71.2c1.79,0,3.5,1.09,3.57,2.35s-1.22,2.08-2.8,2.1c-1.82,0-3.44-1.13-3.46-2.44C42.7,72.09,43.84,71.23,45.4,71.2Z"/>
          <path class="cls-1" d="M63.92,25.31c1.93-2,4-2.09,6-2,1.06.05,3,.82,3,1.16C72.86,26,71.28,26,70.13,26.18a20.13,20.13,0,0,1-4.18,0A8.12,8.12,0,0,1,63.92,25.31Z"/>
          <path class="cls-1" d="M96.38,9.25c1.45-1.83,8-1.56,10,.41C105.07,11.41,98.48,11.15,96.38,9.25Z"/>
          <path class="cls-1" d="M85.4,11.08c1.82-1.92,7.89-2,9.88-.18C93.9,12.72,87.67,12.88,85.4,11.08Z"/>
          <path class="cls-1" d="M61.83,33.19a23,23,0,0,1-3.17-.79c-.81-.32-.83-1-.1-1.54,1.39-1.11,5.62-1.5,7.17-.64.92.5,1,1.42,0,1.87A29.07,29.07,0,0,1,61.83,33.19Z"/>
          <path class="cls-1" d="M119.51,248.06a2.71,2.71,0,0,1-2.82,2.5,2.54,2.54,0,0,1-2.8-2.29,2.82,2.82,0,0,1,3-2.47A2.35,2.35,0,0,1,119.51,248.06Z"/>
          <path class="cls-1" d="M221.6,225a29.5,29.5,0,0,1-1.77,3.69,1.92,1.92,0,0,1-1.68.69,1.87,1.87,0,0,1-1-1.5,10.48,10.48,0,0,1,.95-3.8,2.78,2.78,0,0,1,2.16-1.21C220.71,222.86,221.1,224.11,221.6,225Z"/>
          <path class="cls-1" d="M51.07,53.07a17.47,17.47,0,0,1-3-.91c-1.07-.55-1-1.5-.08-2.21a6.09,6.09,0,0,1,5.66-.12c1,.68,1.11,1.75,0,2.34A14.46,14.46,0,0,1,51.07,53.07Z"/>
          <path class="cls-1" d="M213.37,233.32a20.78,20.78,0,0,1-2.26,3.49c-1.07,1.08-2.48.42-2.66-1.1a4,4,0,0,1,1.37-3.77,2.78,2.78,0,0,1,2.11-.72C212.5,231.4,212.79,232.41,213.37,233.32Z"/>
          <path class="cls-1" d="M69.79,19c.24-.28.4-.58.64-.7a10.67,10.67,0,0,1,7.65-.72,1.61,1.61,0,0,1,.89.75c.08.15-.27.68-.53.8a10.78,10.78,0,0,1-8.1.45C70.13,19.53,70,19.25,69.79,19Z"/>
          <path class="cls-1" d="M198.83,243.42c0-1.78,1.88-3.81,3.36-3.69,1.21.1,1.5,1,1.54,2,.06,1.63-1.78,3.69-3.2,3.68A1.77,1.77,0,0,1,198.83,243.42Z"/>
          <path class="cls-1" d="M181.68,254a1.75,1.75,0,0,1-1.79-1.82,3.68,3.68,0,0,1,3.48-3.35,1.69,1.69,0,0,1,1.78,1.9A3.63,3.63,0,0,1,181.68,254Z"/>
          <path class="cls-1" d="M54.86,40.11c-1.46-.36-3.43,0-3.48-1.61-.05-1.35,1.82-1.58,3.08-1.69a13,13,0,0,1,3.35.19,1.61,1.61,0,0,1,1.07,1.08,1.68,1.68,0,0,1-.94,1.22A25.24,25.24,0,0,1,54.86,40.11Z"/>
          <path class="cls-1" d="M45.61,135a3,3,0,0,1-2.88-2.88,2.18,2.18,0,0,1,2.21-2.29,3.06,3.06,0,0,1,2.91,2.85A2.37,2.37,0,0,1,45.61,135Z"/>
          <path class="cls-1" d="M43.86,63.61c.28,0,.48,0,.69,0,1.66.15,2.87,1.06,2.83,2.12s-1.59,2-3.16,1.9a2.48,2.48,0,0,1-.76-.13c-1.11-.4-2.5-.71-2.29-2.26S42.71,63.68,43.86,63.61Z"/>
          <path class="cls-1" d="M214,254.59c-.19.42-.53.84-.52,1.25.05,1.61-.54,2.42-2.33,2.84-.08-.32-.15-.65-.25-1s-.22-.66-.2-.61c.62-.62,1.27-1,1.48-1.55.51-1.3.67-2.75,1.24-4a23.32,23.32,0,0,1,2.24-3.31l1.25,2.52,0,0-.2.26,0,.06-.15.36Z"/>
          <path class="cls-1" d="M74.71,13.49c1.79-1.87,7.42-2.23,9.27-.67C82.75,14.67,76.76,15.16,74.71,13.49Z"/>
          <path class="cls-1" d="M51.77,173.09a2.75,2.75,0,0,1-2.61-2.72A2.25,2.25,0,0,1,51.32,168,3,3,0,0,1,54,170.89,2.09,2.09,0,0,1,51.77,173.09Z"/>
          <path class="cls-1" d="M101.29,246.24A2.56,2.56,0,0,1,104,244a2.44,2.44,0,0,1,2.61,2.29,2.49,2.49,0,0,1-2.7,2.19A2.41,2.41,0,0,1,101.29,246.24Z"/>
          <path class="cls-1" d="M190.34,253.73a1.57,1.57,0,0,1-1.78-1.69,3.75,3.75,0,0,1,3.15-3.32,1.56,1.56,0,0,1,1.76,1.71A3.55,3.55,0,0,1,190.34,253.73Z"/>
          <path class="cls-1" d="M41.4,143.39a2.09,2.09,0,0,1,2.14-2.14A2.86,2.86,0,0,1,46.17,144,2.14,2.14,0,0,1,44,146.22,3,3,0,0,1,41.4,143.39Z"/>
          <path class="cls-1" d="M69.58,216.63a2.73,2.73,0,0,1-2.73-2.58,2.15,2.15,0,0,1,2.21-2.11,2.6,2.6,0,0,1,2.77,2.49A2.11,2.11,0,0,1,69.58,216.63Z"/>
          <path class="cls-1" d="M47.42,47.3a20.45,20.45,0,0,1-2.69-.7c-1-.43-1.07-1.21-.24-1.9a6.39,6.39,0,0,1,5.77-.37c.94.61,1,1.41.08,1.94A15.9,15.9,0,0,1,47.42,47.3Z"/>
          <path class="cls-1" d="M149.27,262.79a1.8,1.8,0,0,1-2.1-1.77c-.08-1.19,1.8-2.69,3.18-2.66a2.13,2.13,0,0,1,2.19,1.95C152.46,261.64,150.91,262.81,149.27,262.79Z"/>
          <path class="cls-1" d="M42.32,60.51c-.1,0-.2,0-.31,0-1.68-.11-3-.94-3.06-1.85s1.53-1.83,3.22-1.79a1.72,1.72,0,0,1,.46,0c1.13.29,2.48.36,2.64,1.9C45.36,59.71,43.86,60.51,42.32,60.51Z"/>
          <path class="cls-1" d="M55.55,29.42,53,28.32a10.42,10.42,0,0,1,2.56-1.63,14,14,0,0,1,4-.33c.51,0,1,.53,1.53.82-.4.42-.72,1.07-1.2,1.22C58.6,28.83,57.22,29.05,55.55,29.42Z"/>
          <path class="cls-1" d="M67.31,21.08c-1.73,2-6.73,2.57-8.59,1.12C60.1,20.17,65.31,19.44,67.31,21.08Z"/>
          <path class="cls-1" d="M138.14,262.41a2,2,0,0,1-2.23-1.86c.07-1.21,1.73-2.47,3.2-2.39,1.13.07,2,.47,2.07,1.81A2.75,2.75,0,0,1,138.14,262.41Z"/>
          <path class="cls-1" d="M82.49,229.77a2.18,2.18,0,0,1-2.24,2.08,2.54,2.54,0,0,1-2.72-2.53,2.13,2.13,0,0,1,2.26-2A2.85,2.85,0,0,1,82.49,229.77Z"/>
          <path class="cls-1" d="M160.2,262.8c-1.28,0-2.19-.68-2.17-1.69,0-1.21,1.73-2.68,3.16-2.74a1.85,1.85,0,0,1,2.11,1.75A3.11,3.11,0,0,1,160.2,262.8Z"/>
          <path class="cls-1" d="M218.44,234.21a34,34,0,0,1-1.84,3.31,1.67,1.67,0,0,1-1.49.48,2,2,0,0,1-.91-1.26,4.66,4.66,0,0,1,1.8-4.21c.4-.22,1.16-.4,1.4-.19A6.86,6.86,0,0,1,218.44,234.21Z"/>
          <path class="cls-1" d="M59.35,200.88a2.61,2.61,0,0,1-2.58-2.54,2.07,2.07,0,0,1,2.13-2.13,2.7,2.7,0,0,1,2.6,2.55A2,2,0,0,1,59.35,200.88Z"/>
          <path class="cls-1" d="M205.63,244.15c.09-1.9,1.35-3.68,2.57-3.79a1.9,1.9,0,0,1,1.48.71c.63,1-.09,3.16-1.34,4a2.65,2.65,0,0,1-2,.37C205.93,245.25,205.75,244.38,205.63,244.15Z"/>
          <path class="cls-1" d="M49.5,35.91l-2.61-1.22a10.11,10.11,0,0,1,2.61-1.63,11.3,11.3,0,0,1,3.68-.18c.45,0,.87.57,1.3.88-.35.4-.63,1-1.07,1.15C52.25,35.32,51,35.54,49.5,35.91Z"/>
          <path class="cls-1" d="M89.06,6.55C91.14,5,97,5.12,98.8,6.65,97.18,8.05,91.22,8,89.06,6.55Z"/>
          <path class="cls-1" d="M170,262.57c-1-.05-1.81-.46-1.81-1.64,0-1.34,1.72-2.79,3.25-2.75a1.64,1.64,0,0,1,1.82,1.67C173.25,261.2,171.58,262.56,170,262.57Z"/>
          <path class="cls-1" d="M63.62,16.52c1.86-1.84,6.72-2.49,8.9-1.26C71.53,17.15,66,18,63.62,16.52Z"/>
          <path class="cls-1" d="M129.12,259.42a2.59,2.59,0,0,1-2.69,2.29c-1.4.06-2.4-.68-2.43-1.82a2.49,2.49,0,0,1,2.66-2.27C128.09,257.56,129.09,258.29,129.12,259.42Z"/>
          <path class="cls-1" d="M88.1,8.2c-1.9,1.6-7.6,1.84-9.38.48C80.45,7.08,86,6.75,88.1,8.2Z"/>
          <path class="cls-1" d="M33.67,89.35c0-1.1.93-1.54,2-1.62A3.07,3.07,0,0,1,38.63,90a2.11,2.11,0,0,1-2.17,2A2.91,2.91,0,0,1,33.67,89.35Z"/>
          <path class="cls-1" d="M36.23,83.31c-1.82,0-3.26-1.16-3.16-2.36.13-1.39,1.24-1.52,2.27-1.55,1.55,0,2.93,1.07,2.84,2.24S37.12,83.27,36.23,83.31Z"/>
          <path class="cls-1" d="M223.69,241l.3.26-.28,1c0,.1,0,.2.07.29-.4.93-.79,1.86-1.19,2.78L219.33,248a.94.94,0,0,0,0-.16l.39-1.3-.81.31h-.1l1.35-3.11,2.09-2.77Z"/>
          <path class="cls-1" d="M38.75,99.45c-.07,1.16-.87,1.63-2.06,1.64A2.6,2.6,0,0,1,34,98.73,1.79,1.79,0,0,1,36,96.93,2.62,2.62,0,0,1,38.75,99.45Z"/>
          <path class="cls-1" d="M42.34,157.46a2.77,2.77,0,0,1-2.67-2.69,1.88,1.88,0,0,1,2-2,2.69,2.69,0,0,1,2.49,2.69A1.85,1.85,0,0,1,42.34,157.46Z"/>
          <path class="cls-1" d="M36.32,110.87a2.77,2.77,0,0,1-2.67-2.5c0-1.35.86-1.8,2-1.87A2.79,2.79,0,0,1,38.35,109,2,2,0,0,1,36.32,110.87Z"/>
          <path class="cls-1" d="M196.27,251.94c0-1.52,1.62-3.28,3-3.23.95,0,1.37.6,1.39,1.51,0,1.51-1.54,3.33-2.93,3.3A1.34,1.34,0,0,1,196.27,251.94Z"/>
          <path class="cls-1" d="M39.89,50.76c.86.57,2.37,1.07,2.44,1.73.18,1.54-1.44,1.61-2.56,1.72a6.42,6.42,0,0,1-2.55-.39,1.55,1.55,0,0,1-.95-1,1.56,1.56,0,0,1,.83-1.1A17.68,17.68,0,0,1,39.6,51Z"/>
          <path class="cls-1" d="M42.76,42.64l-2.58-1.37a10,10,0,0,1,2.61-1.54,10,10,0,0,1,3.36,0,1.41,1.41,0,0,1,.92.85c.07.22-.33.79-.64.91C45.34,41.92,44.19,42.21,42.76,42.64Z"/>
          <path class="cls-1" d="M35.2,75.2c-1.93,0-3.43-1-3.32-2.06.12-1.34,1.2-1.57,2.27-1.61,1.62-.06,3.09,1,3,2.07C37,75,36,75.14,35.2,75.2Z"/>
          <path class="cls-1" d="M91.05,246.09A2.37,2.37,0,0,1,88.49,244c0-1.38,1-1.86,2.14-2a2.31,2.31,0,0,1,2.57,2.12A2,2,0,0,1,91.05,246.09Z"/>
          <path class="cls-1" d="M49.62,184.9a2.58,2.58,0,0,1-2.51-2.59,1.75,1.75,0,0,1,2-1.85A2.51,2.51,0,0,1,51.46,183,1.84,1.84,0,0,1,49.62,184.9Z"/>
          <path class="cls-1" d="M77.05,10.44c-1.94,1.65-7,2.23-9,1.11C69.46,9.82,74.76,9.12,77.05,10.44Z"/>
          <path class="cls-1" d="M114.19,260.52c-1.37,0-2.38-.81-2.36-1.91a2.39,2.39,0,0,1,2.5-2.06,2.18,2.18,0,0,1,2.37,1.94A2.37,2.37,0,0,1,114.19,260.52Z"/>
          <path class="cls-1" d="M35.68,121a2.65,2.65,0,0,1-2.59-2.39,1.83,1.83,0,0,1,1.9-2,2.56,2.56,0,0,1,2.49,2.49A1.73,1.73,0,0,1,35.68,121Z"/>
          <path class="cls-1" d="M182.38,258.86a3.34,3.34,0,0,1-3.17,3.24c-1,0-1.57-.5-1.57-1.52,0-1.33,1.88-3.05,3.23-2.77C181.51,257.94,182,258.61,182.38,258.86Z"/>
          <path class="cls-1" d="M61.16,18.48c-1.33,1.72-5.7,2.62-8.1,1.74C53.78,18.39,58.66,17.29,61.16,18.48Z"/>
          <path class="cls-1" d="M47.8,25.73c1.16-1.87,5.85-2.78,7.75-1.5C54.5,26,49.65,27,47.8,25.73Z"/>
          <path class="cls-1" d="M32.65,64.21c1.94.4,3.11,1.21,3,2.27s-1.48,1.72-3,1.41c-1.09-.21-2.43-.6-2.2-1.87C30.55,65.3,31.86,64.81,32.65,64.21Z"/>
          <path class="cls-1" d="M31.91,129a1.69,1.69,0,0,1,1.68-1.78,2.61,2.61,0,0,1,2.57,2.4,1.72,1.72,0,0,1-1.75,1.94A2.71,2.71,0,0,1,31.91,129Z"/>
          <path class="cls-1" d="M35.44,49.29c-.71-.38-2.19-.75-2.27-1.31-.17-1.29,1.28-1.36,2.23-1.5a10.25,10.25,0,0,1,2.87.1c.38.06,1,.57,1,.77a1.74,1.74,0,0,1-.84,1.11A22.18,22.18,0,0,1,35.44,49.29Z"/>
          <path class="cls-1" d="M187.09,261.52c-.2-.29-.85-.78-.94-1.36-.19-1.24,1.45-2.73,2.83-2.8,1-.05,1.61.39,1.63,1.42C190.62,260,189,261.48,187.09,261.52Z"/>
          <path class="cls-1" d="M66.1,13.58a14.14,14.14,0,0,1-8.75,1.57C58.65,13.23,63.86,12.25,66.1,13.58Z"/>
          <path class="cls-1" d="M42,31.44c.46-.34.88-.89,1.38-1,1.7-.33,3.43-.52,5.16-.69a1,1,0,0,1,.78.54,1.05,1.05,0,0,1-.49.85,9.15,9.15,0,0,1-6.64.83Z"/>
          <path class="cls-1" d="M37.79,166.36a1.68,1.68,0,0,1,1.78-1.61,2.3,2.3,0,0,1,2.23,2.33,1.68,1.68,0,0,1-1.66,1.86A2.51,2.51,0,0,1,37.79,166.36Z"/>
          <path class="cls-1" d="M216.42,246.61c-.57-1.14-.54-1.75.25-3.25.37-.73.79-1.43,1.07-1.93l1.31.09.62.95.23,1.21-3.36,3.4Z"/>
          <path class="cls-1" d="M211.22,244.11a22.32,22.32,0,0,1,1.86-2.74,1.64,1.64,0,0,1,1.51-.27,1.42,1.42,0,0,1,.53,1.3,11.28,11.28,0,0,1-1.45,3,1.8,1.8,0,0,1-1.64.36C211.68,245.63,211.56,244.85,211.22,244.11Z"/>
          <path class="cls-1" d="M42.72,36.63c-1,1.58-5.13,2.56-6.46,1.55a1.08,1.08,0,0,1,0-1.06C37.39,35.9,41.1,35.61,42.72,36.63Z"/>
          <path class="cls-1" d="M81.46,5c2-1.48,7.69-1.72,9.85-.42A18.62,18.62,0,0,1,81.46,5Z"/>
          <path class="cls-1" d="M157.09,271.06c-.24-.28-1-.76-1.16-1.38-.24-1,1.51-2.28,2.9-2.24.91,0,1.66.35,1.64,1.44S159,271.06,157.09,271.06Z"/>
          <path class="cls-1" d="M30.77,61.61a9.13,9.13,0,0,1-2.5-1.83c-.41-.62,1.16-1.52,2.81-1.42,1.07.07,2.52.12,2.49,1.49S32.1,61.15,30.77,61.61Z"/>
          <path class="cls-1" d="M71.56,7.24a11.24,11.24,0,0,1,8.78-1A12.42,12.42,0,0,1,71.56,7.24Z"/>
          <path class="cls-1" d="M100.15,1.85A7.35,7.35,0,0,0,99,1.45c-2.33-.34-4.67-.72-7-.93C90.27.37,88.55.47,86.84.47A5.83,5.83,0,0,1,84.9.24c5.83-.66,11.59.18,17.34,1l-2.12.65S100.15,1.85,100.15,1.85Z"/>
          <path class="cls-1" d="M203.11,252.39c-.05-1.83,1.5-3.81,2.62-3.61a2,2,0,0,1,1.16,1.4c.18,1.28-1.38,3.16-2.5,3C203.86,253.18,203.38,252.58,203.11,252.39Z"/>
          <path class="cls-1" d="M148.6,267.87c.24.26,1.05.76,1.21,1.41.23,1-1.52,2.2-2.81,2.08-.9-.09-1.79-.34-1.75-1.53C145.28,268.8,146.64,267.84,148.6,267.87Z"/>
          <path class="cls-1" d="M101.52,255.16c1.19.08,2.15.38,2.28,1.69.1,1-.9,1.84-2.19,1.86s-2.29-.79-2.19-1.84C99.55,255.58,100.49,255.25,101.52,255.16Z"/>
          <path class="cls-1" d="M30.61,139.29c.35-.25.92-1,1.61-1.1,1.13-.23,2.24,1,2.22,2.27a1.53,1.53,0,0,1-1.6,1.71C31.67,142.21,30.59,141.08,30.61,139.29Z"/>
          <path class="cls-1" d="M66.92,227.86a2.14,2.14,0,0,1-2.09-2.24,1.6,1.6,0,0,1,1.93-1.54,2.32,2.32,0,0,1,2.14,2.25A1.71,1.71,0,0,1,66.92,227.86Z"/>
          <path class="cls-1" d="M42.23,24c1.32-1.73,6-2.83,7.45-1.76C48.37,23.79,44,24.82,42.23,24Z"/>
          <path class="cls-1" d="M56.75,212.29a2.11,2.11,0,0,1-2.15-2.16,1.58,1.58,0,0,1,1.82-1.65,2.32,2.32,0,0,1,2.19,2.19A1.63,1.63,0,0,1,56.75,212.29Z"/>
          <path class="cls-1" d="M135.23,271.17c-.24-.25-1-.72-1.22-1.37-.28-1,1.26-2.12,2.59-2,.9.07,1.77.32,1.78,1.49S137.23,271.19,135.23,271.17Z"/>
          <path class="cls-1" d="M54.52,16.9c-1.26,1.57-5.9,2.66-7.75,1.83C48.25,17.05,52.67,16,54.52,16.9Z"/>
          <path class="cls-1" d="M44.14,27.76c-1.24,1.71-5.33,2.69-7.17,1.8C38,27.9,41.87,26.89,44.14,27.76Z"/>
          <path class="cls-1" d="M69.63,8.87a12.15,12.15,0,0,1-8.39,1.47A10.62,10.62,0,0,1,69.63,8.87Z"/>
          <path class="cls-1" d="M167.27,270.42c-.23-.24-1-.67-1.1-1.24-.24-1,1.42-2.34,2.78-2.35.85,0,1.55.22,1.54,1.28S169.08,270.36,167.27,270.42Z"/>
          <path class="cls-1" d="M197.92,257.8c-.12,1.66-1.69,3.2-2.86,3a1.8,1.8,0,0,1-1.11-1.27c-.1-1.28,1.7-2.91,2.86-2.63C197.3,257,197.68,257.59,197.92,257.8Z"/>
          <path class="cls-1" d="M77.77,242.77c-1.23,0-2.34-1-2.24-2s.83-1.56,1.93-1.52a2,2,0,0,1,2.14,1.92C79.5,242.34,78.74,242.73,77.77,242.77Z"/>
          <path class="cls-1" d="M28.2,56.18l-2.57-1.76a9.57,9.57,0,0,1,2.44-1.25c1.71-.31,3.31.56,2.89,1.14A10.43,10.43,0,0,1,28.2,56.18Z"/>
          <path class="cls-1" d="M31.48,45l-2.15-1a8.35,8.35,0,0,1,2.17-1.38,10.08,10.08,0,0,1,3.06-.1c.29,0,.82.38.8.55a1.23,1.23,0,0,1-.58.92C33.79,44.38,32.74,44.63,31.48,45Z"/>
          <path class="cls-1" d="M48.66,195.2A5,5,0,0,1,47,196.28c-1,.23-2.09-1-2-2.07a1.52,1.52,0,0,1,1.66-1.65C47.74,192.56,48.67,193.51,48.66,195.2Z"/>
          <path class="cls-1" d="M125,267.56c.28.29,1.07.76,1.31,1.43.3.85-1,1.82-2.22,1.81-1,0-1.9-.24-2-1.46C122.1,268.4,123.22,267.59,125,267.56Z"/>
          <path class="cls-1" d="M176.26,269.54c-.18-.25-.74-.7-.79-1.19-.12-1.14,1.49-2.4,2.84-2.18a1.82,1.82,0,0,1,1.25,1.14C179.74,268.34,178,269.6,176.26,269.54Z"/>
          <path class="cls-1" d="M38,33.81a6.72,6.72,0,0,1-6.72,1.52C32.18,33.73,35.9,32.84,38,33.81Z"/>
          <path class="cls-1" d="M24.67,95.41c1.8,0,2.95.89,2.95,1.92S27,98.79,26,98.82c-1.17,0-2.45-1-2.27-2.06C23.86,96.18,24.47,95.68,24.67,95.41Z"/>
          <path class="cls-1" d="M25.09,86.65c1.58.4,2.57,1.25,2.49,2.25-.11,1.21-1,1.28-1.93,1.25-1.15,0-2.41-1.07-2.12-2C23.73,87.58,24.55,87.16,25.09,86.65Z"/>
          <path class="cls-1" d="M25.8,82.08c-1.83,0-3.05-1-3-1.92.1-1.1.94-1.22,1.8-1.21,1.33,0,2.66,1,2.36,1.85C26.78,81.42,26,81.85,25.8,82.08Z"/>
          <path class="cls-1" d="M24.1,75.31c-.94-.9-2.08-1.49-2.27-2.29-.25-1.09,1-1.24,1.87-1.24,1.28,0,2.62,1,2.31,1.74S25,74.53,24.1,75.31Z"/>
          <path class="cls-1" d="M50.52,13.91a13.88,13.88,0,0,1,8.14-2C57.87,13.47,53.21,14.65,50.52,13.91Z"/>
          <path class="cls-1" d="M228.39,237.79l1-.2L229,239.3c-.3.33-.87.68-.85,1,.16,1.61-.85,2.64-1.66,3.79l-1.8.3.57-1.88,2.77-4.11Z"/>
          <path class="cls-1" d="M26.3,108c-1.59,0-2.86-1-2.68-2A2.26,2.26,0,0,1,25,104.55a2,2,0,0,1,2.22,2C27.11,107.17,26.51,107.69,26.3,108Z"/>
          <path class="cls-1" d="M29,150.54c.28-.22.75-.87,1.35-1a2,2,0,0,1,2.05,2.17A2.3,2.3,0,0,1,31,153.11C29.93,153.35,29,152.24,29,150.54Z"/>
          <path class="cls-1" d="M208.75,252.19c.1-1.68,1.52-3.44,2.44-3.22a1.62,1.62,0,0,1,.92,1.24c0,1.26-1.47,3-2.38,2.82C209.28,252.94,208.94,252.36,208.75,252.19Z"/>
          <path class="cls-1" d="M72.49,5.21a14.06,14.06,0,0,1-8.28,1.33A12.37,12.37,0,0,1,72.49,5.21Z"/>
          <path class="cls-1" d="M22.83,115.07c.29-.21.76-.79,1.32-.89a2,2,0,0,1,2.13,2,1.25,1.25,0,0,1-1.37,1.48A2.3,2.3,0,0,1,22.83,115.07Z"/>
          <path class="cls-1" d="M22.53,68.51l-2.44-2c.69-.42,1.36-1.13,2.07-1.18,1-.07,2.29.16,2.29,1.49C24.44,67.32,23.38,67.8,22.53,68.51Z"/>
          <path class="cls-1" d="M35.59,177.83c.54-.4,1-1,1.64-1.14.93-.22,2.07,1,2,1.93s-.58,1.77-1.56,1.48a7.4,7.4,0,0,1-2.09-1.57Z"/>
          <path class="cls-1" d="M43.4,20.74c-1.06,1.69-5.15,3-7.32,2.26A11.51,11.51,0,0,1,43.4,20.74Z"/>
          <path class="cls-1" d="M184.9,268.45c-.17-.21-.72-.59-.78-1-.15-1,1.43-2.33,2.58-2.2a1.62,1.62,0,0,1,1.16,1C188,267.23,186.55,268.43,184.9,268.45Z"/>
          <path class="cls-1" d="M40.56,18.29a10,10,0,0,1,7.28-2.21C45.74,17.82,43.21,18.26,40.56,18.29Z"/>
          <path class="cls-1" d="M25.28,41.11c1-1.56,4.29-2.25,5.93-1.23C30.25,41.41,27,42.09,25.28,41.11Z"/>
          <path class="cls-1" d="M24.51,51.14l-2-.92a8,8,0,0,1,2-1.3,6.26,6.26,0,0,1,2.44,0c.29,0,.79.43.77.6a1.38,1.38,0,0,1-.61,1A22.3,22.3,0,0,1,24.51,51.14Z"/>
          <path class="cls-1" d="M38.59,26.34a11.51,11.51,0,0,1-7.1,2.16C32.38,26.83,36.09,25.65,38.59,26.34Z"/>
          <path class="cls-1" d="M54.16,9.89a11.47,11.47,0,0,1,7.78-1.75A12.58,12.58,0,0,1,54.16,9.89Z"/>
          <path class="cls-1" d="M88.58,257c-.87-1-1.75-1.51-1.91-2.22a1.3,1.3,0,0,1,1.68-1.47c.76.17,1.37,1,2.05,1.51Z"/>
          <path class="cls-1" d="M200.57,259.29c.15-1.69,1.54-3.08,2.59-2.82a1.48,1.48,0,0,1,.88,1.11c.08,1.1-1.48,2.67-2.48,2.5C201.13,260,200.77,259.46,200.57,259.29Z"/>
          <path class="cls-1" d="M111.33,269.77c-.32-.32-1.22-.8-1.29-1.37-.13-1.24,1-1.7,2-1.57.65.08,1.65.74,1.72,1.26C113.93,269.35,112.8,269.59,111.33,269.77Z"/>
          <path class="cls-1" d="M20.52,62.62l-2.38-1.75c.71-.39,1.43-1.09,2.13-1.07s1.51.7,2.26,1.09Z"/>
          <path class="cls-1" d="M32.83,31.64c-1.58,1.75-5,2.68-6.76,1.86A9.63,9.63,0,0,1,32.83,31.64Z"/>
          <path class="cls-1" d="M209.65,257.75c-.25,1.87-1.69,1.11-2.49,1.55-.09.06-.75-.49-.8-.81-.14-1,1.54-2.87,2.23-2.49S209.39,257.28,209.65,257.75Z"/>
          <path class="cls-1" d="M44.17,14a10.65,10.65,0,0,1,7.73-2.16A15.8,15.8,0,0,1,44.17,14Z"/>
          <path class="cls-1" d="M19,46.83a4.19,4.19,0,0,1,5.15-.93C23.29,47.42,20.69,47.89,19,46.83Z"/>
          <path class="cls-1" d="M191.62,266.69a2.78,2.78,0,0,1,2.53-2.42,1.35,1.35,0,0,1,1,.84c.14,1-1.46,2.4-2.53,2.23C192.19,267.28,191.85,266.85,191.62,266.69Z"/>
          <path class="cls-1" d="M145.05,279.52c-.76-.7-1.59-1.16-1.55-1.5a1.89,1.89,0,0,1,2.26-1.59c.51.05,1,.62,1.47.95Z"/>
          <path class="cls-1" d="M25.68,126.24c-.92.67-1.38,1.27-1.87,1.3A1.68,1.68,0,0,1,22,125.65c0-.43,1-1.28,1.32-1.18A10,10,0,0,1,25.68,126.24Z"/>
          <path class="cls-1" d="M155.36,278.94c-.55-.81-1.17-1.34-1.07-1.66a2.06,2.06,0,0,1,2.51-1.47c.44.07.78.69,1.16,1.05Z"/>
          <path class="cls-1" d="M231.89,232.84l2.37-5.76.32.11.34,1.56L233,233.07Z"/>
          <path class="cls-1" d="M216.55,251.44l.15-.36,0-.06a2.56,2.56,0,0,0,.2-.26l.41-.17,2-1.94,1.86-.62-.89,1.51c-.93.19-1.31.7-.93,1.64l-2.87,2.2C216.51,252.73,217.65,252.1,216.55,251.44Z"/>
          <path class="cls-1" d="M165.62,277.93l-1.37-1.56a18.15,18.15,0,0,1,2.51-1.7c.19-.1.79.61,1.2.95Z"/>
          <path class="cls-1" d="M20.5,38.94a8.41,8.41,0,0,1,6-1.68C25.78,38.81,22.52,39.76,20.5,38.94Z"/>
          <path class="cls-1" d="M34.06,18l6.58-2.4.24.65a16.46,16.46,0,0,1-6.56,2.47Z"/>
          <path class="cls-1" d="M30.37,23A9.86,9.86,0,0,1,37,20.56,10.31,10.31,0,0,1,30.37,23Z"/>
          <path class="cls-1" d="M18,55a1.5,1.5,0,0,1,.61.05c.49.27,1,.61,1.43.92-.47.32-.92.66-1.4,1a.62.62,0,0,1-.45.1c-.86-.27-1.71-.57-2.56-.86l2.13-1.51Z"/>
          <path class="cls-1" d="M26,27.73a9.08,9.08,0,0,1,6.27-2.2A9.46,9.46,0,0,1,26,27.73Z"/>
          <path class="cls-1" d="M174.91,276.71c-.66-.69-1.18-1-1.28-1.4-.17-.75,1.27-1.93,2.31-1.83.44,0,.83.54,1.24.83Z"/>
          <path class="cls-1" d="M30.61,162.64c-.86.68-1.3,1.32-1.77,1.35a1.52,1.52,0,0,1-1.62-1.81c.05-.47,1-1.31,1.16-1.22A11.29,11.29,0,0,1,30.61,162.64Z"/>
          <path class="cls-1" d="M64.54,239.47A11.13,11.13,0,0,1,63,237.13c-.06-.21,1-1.15,1.27-1A4.36,4.36,0,0,1,66,237.67C66.12,237.83,65.29,238.58,64.54,239.47Z"/>
          <path class="cls-1" d="M56.66,6.1,64.1,4.52l.13.58a18.61,18.61,0,0,1-7.46,1.66Z"/>
          <path class="cls-1" d="M47,9.75l7.1-2,.23.83-7.13,2Z"/>
          <path class="cls-1" d="M54.25,224.19a10.11,10.11,0,0,1-1.69-2.2c-.08-.23.81-1.16,1.31-1.21a1.41,1.41,0,0,1,1.63,1.59C55.45,222.87,54.87,223.33,54.25,224.19Z"/>
          <path class="cls-1" d="M46.33,206.37c-1,.67-1.42,1.24-1.92,1.28a1.38,1.38,0,0,1-1.6-1.6c.06-.45.9-1.19,1.27-1.12C44.74,205,45.3,205.67,46.33,206.37Z"/>
          <path class="cls-1" d="M133.61,279.79l-1.42-1.55a8.64,8.64,0,0,1,2.17-1.29c.34-.1.91.64,1.38,1Z"/>
          <path class="cls-1" d="M99,268.79l-1.47-2c.54-.37,1.11-1.08,1.61-1s1.12.76,1.67,1.19Z"/>
          <path class="cls-1" d="M21.23,32.76a7.78,7.78,0,0,1,5.87-1.95A8.67,8.67,0,0,1,21.23,32.76Z"/>
          <path class="cls-1" d="M183.3,275.11l-1.2-1.28a24.1,24.1,0,0,1,2.33-1.72c.14-.09.66.46,1,.71Z"/>
          <path class="cls-1" d="M202.17,264c-1.21.86-2,1.5-2.94,2-.09.06-.68-.41-.74-.69-.16-.86,1.2-2.28,2.17-2.24C201,263.16,201.34,263.53,202.17,264Z"/>
          <path class="cls-1" d="M22.53,137.92c-1.45-.21-2-.89-1.88-1.86.05-.42.72-.77,1.11-1.14a9.78,9.78,0,0,1,1.53,1.84C23.41,137,22.74,137.61,22.53,137.92Z"/>
          <path class="cls-1" d="M13.85,86.33c.46-.26,1.06-.84,1.35-.71a9.11,9.11,0,0,1,1.92,1.46c-.36.35-.8,1.06-1.05,1A11.2,11.2,0,0,1,13.83,87Z"/>
          <path class="cls-1" d="M16.72,80.11c-.49.23-1.11.76-1.44.62a8.63,8.63,0,0,1-1.89-1.46c.44-.32.95-1,1.31-.89a8.08,8.08,0,0,1,2.09,1.06Z"/>
          <path class="cls-1" d="M17,51.9a3.25,3.25,0,0,1-4.44.48A3.33,3.33,0,0,1,17,51.9Z"/>
          <path class="cls-1" d="M44,12.71l-6.69,2.22-.26-.73,6.66-2.34Z"/>
          <path class="cls-1" d="M14.74,44.33A6.64,6.64,0,0,1,20,43C19.07,44.48,17,45,14.74,44.33Z"/>
          <path class="cls-1" d="M16,37.44l5.33-1.79.24.67a10,10,0,0,1-5.36,1.82Z"/>
          <path class="cls-1" d="M121.84,279.47,120.49,278a7,7,0,0,1,1.91-1.19c.34-.09.88.6,1.33.94Z"/>
          <path class="cls-1" d="M16.07,96.76a13.14,13.14,0,0,1-1.61-2.13c-.07-.14.94-1.06,1-1a5.57,5.57,0,0,1,1.62,1.55C17.23,95.34,16.63,96,16.07,96.76Z"/>
          <path class="cls-1" d="M13.62,71.23l1.94,1.83c-.42.29-.94.91-1.24.81a9.59,9.59,0,0,1-2.08-1.22Z"/>
          <path class="cls-1" d="M24,23.31l6-2.59.33.76-6,2.58Z"/>
          <path class="cls-1" d="M20.09,27.76l5.67-2.41.32.76-5.67,2.41Z"/>
          <path class="cls-1" d="M75.49,253.74l-1.53-2c.44-.33,1-1,1.31-.92A2.56,2.56,0,0,1,76.76,252C76.87,252.21,76.14,252.88,75.49,253.74Z"/>
          <path class="cls-1" d="M33.05,190c.9-.61,1.49-1.25,1.76-1.14a2.79,2.79,0,0,1,1.34,1.37c.1.23-.72,1.2-.93,1.14A9.37,9.37,0,0,1,33.05,190Z"/>
          <path class="cls-1" d="M15.65,32.51l5.48-2.33.24.55a13.35,13.35,0,0,1-5.48,2.32Z"/>
          <path class="cls-1" d="M12.53,68.35l-1.84-1.49c.51-.31,1.07-.91,1.53-.85a5.56,5.56,0,0,1,1.85,1Z"/>
          <path class="cls-1" d="M189.85,272.83c.24-1.39,1.34-2.46,2.31-2.23a1.08,1.08,0,0,1,.62.83C192.7,272.37,191.28,273.05,189.85,272.83Z"/>
          <path class="cls-1" d="M15.7,105.36a11.45,11.45,0,0,1-1.54-2c-.08-.2.82-1.06.89-1a5,5,0,0,1,1.56,1.39C16.73,103.88,16.19,104.5,15.7,105.36Z"/>
          <path class="cls-1" d="M39.77,10.87l6.36-2.16.23.65L40,11.62Z"/>
          <path class="cls-1" d="M49,7l6.78-1.84.19.67L49.21,7.66Z"/>
          <path class="cls-1" d="M10.36,63l-1.7-1.25c.54-.27,1.1-.79,1.63-.76s1.16.56,1.74.87Z"/>
          <path class="cls-1" d="M27.49,19.2l6-2.54.3.72-6,2.5Z"/>
          <path class="cls-1" d="M15.69,41.93l-4.76,1.44-.21-.61a8.32,8.32,0,0,1,4.76-1.52Z"/>
          <path class="cls-1" d="M36.67,13.69l-6.1,2.49-.25-.59,6-2.52Z"/>
          <path class="cls-1" d="M13.07,112.25c.74-.42,1.37-.92,1.49-.82a10.79,10.79,0,0,1,1.36,1.63c-.38.26-.91.81-1.11.71A10.4,10.4,0,0,1,13.07,112.25Z"/>
          <path class="cls-1" d="M13.47,49.29l-4.17.78A2.63,2.63,0,0,1,13.47,49.29Z"/>
          <path class="cls-1" d="M11,37.29l5-2,.28.71-5,2Z"/>
          <path class="cls-1" d="M215.63,257.71l-1.31.59c.82-2.74.82-2.74,3.45-2.62Z"/>
          <path class="cls-1" d="M206.56,262.3c.3,1.54-.64,2.13-1.73,2.54-.15.05-.69-.41-.7-.66C204.06,263.28,205.22,262.4,206.56,262.3Z"/>
          <path class="cls-1" d="M21.71,147.18c-.59.57-1.12,1.19-1.2,1.14A4.25,4.25,0,0,1,19.12,147c-.09-.16.71-1.12.82-1.07A9.89,9.89,0,0,1,21.71,147.18Z"/>
          <path class="cls-1" d="M6.14,57.69c1.43-1.08,2.13-1.12,3.48-.26C8.64,58.59,7.74,58.68,6.14,57.69Z"/>
          <path class="cls-1" d="M56.07,4.19l-5.7,1.37-.15-.75L56,3.64Z"/>
          <path class="cls-1" d="M223.08,249.13v-.65l-1.31.69c.36-.51.48-.69.6-.87l1-1.16,2.56-1.93c-.46.72-.88,1.47-1.38,2.15S223.58,248.54,223.08,249.13Z"/>
          <path class="cls-1" d="M162.68,283.21c.86-1.54,1.6-1.79,3-1.07C165,283.57,164.29,283.86,162.68,283.21Z"/>
          <path class="cls-1" d="M195.88,270.83a28.31,28.31,0,0,1,2.37-1.68c.13-.08.55.34.84.52-.62.56-1.22,1.16-1.89,1.66C197.07,271.42,196.65,271.13,195.88,270.83Z"/>
          <path class="cls-1" d="M171.86,281.05a17,17,0,0,1,2.19-1.06c.18-.07.54.39.83.61a16.67,16.67,0,0,1-1.94,1.33c-.21.11-.65-.22-1-.35Z"/>
          <path class="cls-1" d="M24.67,173.8c.66-.52,1.21-1.11,1.35-1a3.31,3.31,0,0,1,1.26,1.31c.09.18-.67,1-.76,1A12.92,12.92,0,0,1,24.67,173.8Z"/>
          <path class="cls-1" d="M32.57,12.67l5.74-2.31.2.5-5.73,2.32Z"/>
          <path class="cls-1" d="M88.16,264.9c-.84.5-1.26,1-1.6.91A5,5,0,0,1,85.1,265c.36-.34.72-.94,1.09-1S87.2,264.45,88.16,264.9Z"/>
          <path class="cls-1" d="M19.71,27l-5,2.53-.29-.55,5-2.57Z"/>
          <path class="cls-1" d="M111.38,1.83l-8.9-1,0-.36,8.9,1Z"/>
          <path class="cls-1" d="M153.88,285.24c-.54-.46-.84-.71-1.13-1a11,11,0,0,1,1.79-1.13c.22-.08.66.4,1,.62Z"/>
          <path class="cls-1" d="M109.79,278.64l-1.3-1.2c.46-.33.89-.82,1.39-.92.31-.06.73.5,1.1.79Z"/>
          <path class="cls-1" d="M21,20.92l5.27-2.61.27.55-5.24,2.58Z"/>
          <path class="cls-1" d="M18.1,24.6l5.29-2.53.26.55-5.29,2.6Z"/>
          <path class="cls-1" d="M144.84,285.25A10,10,0,0,1,143,286c-.26.05-.6-.38-.91-.59a8.37,8.37,0,0,1,1.62-1.09c.26-.11.72.28,1.09.44Z"/>
          <path class="cls-1" d="M47.58,7.06,41.63,9l-.16-.49L47.4,6.58Z"/>
          <path class="cls-1" d="M180.44,279.72c.12-.28.14-.49.24-.54.74-.36,1.49-.68,2.23-1,.05.3.26.73.13.87A1.92,1.92,0,0,1,180.44,279.72Z"/>
          <path class="cls-1" d="M10.33,33.35l4.84-2.41.3.61L10.6,33.9Z"/>
          <path class="cls-1" d="M9.43,47.18l-3.88,1-.2-.74,3.89-1.06Z"/>
          <path class="cls-1" d="M215.63,257.71l2.14-2c.93.44.77,1.28.2,1.62A6.68,6.68,0,0,1,215.63,257.71Z"/>
          <path class="cls-1" d="M10.65,41.11l-4.29,1.6-.24-.62,4.3-1.68Z"/>
          <path class="cls-1" d="M220.06,250.9l1-.75v2.29l-1.54.91-.4-.2Z"/>
          <path class="cls-1" d="M15,122.42c-.66.4-1.18.85-1.32.75a3.58,3.58,0,0,1-1.05-1.26c0-.08.67-.78.82-.71A8.89,8.89,0,0,1,15,122.42Z"/>
          <path class="cls-1" d="M10.65,36.32,6.27,38.38,6,37.82l4.4-2Z"/>
          <path class="cls-1" d="M6.58,54.52,3.47,55l-.12-.71a3.46,3.46,0,0,1,3.14-.34Z"/>
          <path class="cls-1" d="M211.1,261.74l-1.89,2.09-.4-.36a2.17,2.17,0,0,1,1.75-2.21Z"/>
          <path class="cls-1" d="M23.79,17.47l4.75-2.24.23.49L23.91,18Z"/>
          <path class="cls-1" d="M188.18,277.55c.43-1,1.12-1.6,2.61-.92l-2.21,1.47Z"/>
          <path class="cls-1" d="M8.35,30.92l4.49-2.6.26.46L8.58,31.32Z"/>
          <path class="cls-1" d="M1.19,46.64l3.54-1.3L5,46,1.39,47.19Z"/>
          <path class="cls-1" d="M6.47,79.14l-1.71-.93a5,5,0,0,1,.44-.76c.59.22,1.16.52,1.74.8Z"/>
          <path class="cls-1" d="M204.84,267.63l-2.46,2.31C202.3,268.2,202.88,267.64,204.84,267.63Z"/>
          <path class="cls-1" d="M3.66,71.53A17.35,17.35,0,0,1,5.58,72a4,4,0,0,1-.11.9l-2-.46Z"/>
          <path class="cls-1" d="M1.49,42.37,5.4,40.55l.23.5-3.86,1.8Z"/>
          <path class="cls-1" d="M4.23,67.16c-.86.79-1.59.55-2.18-.78l2.22.19Z"/>
          <path class="cls-1" d="M133.21,285.9a5.91,5.91,0,0,1-1.46.51c-.26,0-.55-.41-.84-.63a6.11,6.11,0,0,1,1.38-.77c.26-.07.62.29.94.45Z"/>
          <path class="cls-1" d="M9.24,33.07,5,35.42,4.81,35l4.13-2.4Z"/>
          <path class="cls-1" d="M25.24,15.06,30,12.86l.19.38-4.67,2.23Z"/>
          <path class="cls-1" d="M52,234.54l-1.51-1.26a6.05,6.05,0,0,1,.72-.73,19.09,19.09,0,0,1,1.44,1.26Z"/>
          <path class="cls-1" d="M6.65,86.12l-1.2-1.33c.24-.21.59-.64.68-.59a4.65,4.65,0,0,1,1.2,1A6.72,6.72,0,0,1,6.65,86.12Z"/>
          <path class="cls-1" d="M12.17,26.58l4.13-2.27.23.41L12.42,27Z"/>
          <path class="cls-1" d="M41.87,218.77l-1.19-1.23,1.68-1v1.89Z"/>
          <path class="cls-1" d="M0,52l3.08-.61.13.65-3.08.63Z"/>
          <path class="cls-1" d="M33.87,10.63l4.76-1.85.15.39L34,11Z"/>
          <path class="cls-1" d="M14.79,23.17l4-2.31.24.43-4,2.3Z"/>
          <path class="cls-1" d="M216.42,246.61l.12.47-.14.27Z"/>
          <path class="cls-1" d="M217.35,250.59l-.41.17,0,0,.58-.75,0,0Z"/>
          <path class="cls-1" d="M218.13,248.67l.31-.88,0,0c0,.22,0,.43,0,.65l-.36.32Z"/>
          <path class="cls-1" d="M218.17,249.36c0-.23,0-.46,0-.69l0,.05.36-.05-.35.64Z"/>
          <path class="cls-1" d="M218.44,247.79c.1-.21.21-.41.31-.62l0,0-.31.63Z"/>
          <path class="cls-1" d="M217.49,250l.35-.3-.05-.06-.32.31Z"/>
          <path class="cls-1" d="M217.84,249.68l.33-.32-.07-.05-.31.31Z"/>
          <path class="cls-1" d="M218.85,246.82h.1l-.24.31,0,0C218.79,247.05,218.82,246.94,218.85,246.82Z"/>
          <path class="cls-1" d="M221.45,237.44c1.11-1.23,2.23-2.46,3.34-3.7l1.16.79-1.28,4.22L223,241.46h-1.82c.07-.72.16-1.43.21-2.15,0-.53,0-1.07,0-1.61Z"/>
          <path class="cls-1" d="M224.72,244.36l-1.32,2.78-1,1.16-2.05,1.24.89-1.51,1.38-2.79c.4-.92.79-1.85,1.19-2.78l1.51,0Z"/>
          <path class="cls-1" d="M216.74,251l0,.06Z"/>
          <path class="cls-1" d="M219,248.09l.34-.29a.94.94,0,0,1,0,.16.43.43,0,0,0,.06.22Z"/>
          <path class="cls-1" d="M219.07,248.05l-.36.36Z"/>
          <path class="cls-1" d="M167.84,44.49c-.81-.36-1.63-.72-2.44-1.1-2.16-1-4.19-2.16-5.35-4.31a2.73,2.73,0,0,1-.22-2.27,2.7,2.7,0,0,1,2.17-.72,34.94,34.94,0,0,0,4,.66,14.34,14.34,0,0,0-2.44-.83,13.9,13.9,0,0,1-8.5-4.14c-1.55-1.65-1.34-2.47.43-3.31l-7.8-4.77a.22.22,0,0,0,0,.17c.29.72.59,1.43.89,2.15a8.5,8.5,0,0,1-2.43.64,12.64,12.64,0,0,1-7.53-3c-.52-.43-.69-1.28-1-1.93a6.56,6.56,0,0,1,2-.82c1.07-.06,2.15.18,3.33,0a6.26,6.26,0,0,0-1.92-.63,14.83,14.83,0,0,1-7.84-2.15,8.85,8.85,0,0,1-1.85-2.07L133.72,15c-3.26-.76-6.9-.78-9.41-3.43l.06-.64,3.68-.34a4.55,4.55,0,0,0-4.1-.06,4.63,4.63,0,0,1-3.1.17,14.21,14.21,0,0,0-5.68-.88c-2.15.22-4.4-.36-6.59-.71a7.12,7.12,0,0,1-1.86-.91l0-.44a4.67,4.67,0,0,1,1.44-.53,29.52,29.52,0,0,1,4.8.17,15.48,15.48,0,0,0,4.8-.23c2.16-.32,4.47.37,6.73.57a8.41,8.41,0,0,0,2.65-.19c-2.26-.48-4.51-1.08-6.79-1.4a17,17,0,0,0-3.67.27,5.49,5.49,0,0,1-.76.17c-4.91-.19-9.83-.36-14.75-.64a6.25,6.25,0,0,1-2-1l.14-.37a1.15,1.15,0,0,1,.39-.11c5.87.47,11.77-1.5,17.62.2,2.85-.87,5.63-.2,8.41.41.75.16,1.5.35,2.26.53l.1-.69c-3-.36-6-.73-9.06-1.08a21.9,21.9,0,0,1-3.55-.36c-3.57-1-7.17.5-10.73-.27-1.26-.28-2.55-.41-3.81-.69-.3-.07-.52-.48-.78-.73l0,0c2.42.07,4.84.15,7.27.19,1.06,0,2.12-.14,3.18-.11a31.61,31.61,0,0,1,4,.36c4.88.82,9.77,1.57,14.61,2.6,2.67.57,5.19,1.82,7.85,2.45,7.8,1.82,15.05,5.1,22.21,8.53a162,162,0,0,1,64.09,56,150.81,150.81,0,0,1,12.93,23.71,159.58,159.58,0,0,1,10,30.79c.75,3.6,1.28,7.24,1.74,10.89.69,5.38,1.48,10.78,1.75,16.19A141.52,141.52,0,0,1,247.3,190c-1.69,8.09-4,16.07-6.32,24-1.31,4.41-3.32,8.61-5,12.89a16.86,16.86,0,0,1-1,1.87l-.34-1.56-.32-.11-2.37,5.76c-.34,1.37-.62,2.76-1,4.1a12.84,12.84,0,0,1-1.13,2.33c-.06.11-.45,0-.69,0l.31-1.71-1,.2,1.28-3.64a3.78,3.78,0,0,0-1.46,1.83c-.14.76-1.43,1.54-.15,2.39l-2.77,4.11-1.51,0c0-.09,0-.19-.07-.29l.28-1-.3-.26,1.27-2.53c2.43-3,3-4.3,3-6l-2,2.06-.9-.74c.55-2.36.81-4.73,2-7s1.35-5.22,2.08-7.83,1.67-5.38,2.51-8.07q1.36-3.12,2.74-6.23l-.4-.2-.88.39v-2.55c-1.74,1-2.16,2.43-1.62,4.44a13.21,13.21,0,0,1,.22,2.82,12.53,12.53,0,0,1,0,1.37l-2,4.56-.36-.12.3-2.47-1.47-.29.05,0a7.29,7.29,0,0,1,1.36-7.93,3.47,3.47,0,0,0,.65-4l-1,3-.36-.08.68-5.38c-.25.07-.38.06-.42.12-.57.82-1.21,2-2.26,1.41a4,4,0,0,1-1.49-2.47,7,7,0,0,1,1-5.65,2.46,2.46,0,0,1,1.8-1.12c.56.07,1.17.92,1.44,1.56a10.11,10.11,0,0,1,.38,2.43,6.55,6.55,0,0,0,.53,1.85c.19-2,3.44-2.68,2.24-5.5l-1,2.14-.59,0-.36-3.9c-.59,0-1.43.16-1.87-.16A3.6,3.6,0,0,1,227.7,187a8.71,8.71,0,0,1,.72-6.63c.32-.56,1.1-1.3,1.58-1.24a2.76,2.76,0,0,1,1.61,1.42,9.79,9.79,0,0,1,.54,2.24,4.67,4.67,0,0,0,.8,1.59c0-1.58,3.47-1.14,1.94-3.57l-1.36,1.07-.68-3.83c-2,.12-2.62-.33-3.22-2.43a11.06,11.06,0,0,1,1-8.39,1.3,1.3,0,0,1,1.15-.17c.77,1.12,1.46,2.31,2.12,3.51a18.21,18.21,0,0,1,.8,1.92l2.72-.93c-.67-1.59-3.67-2.09-2.42-4.74-2.13.46-2.83.1-3.56-1.57-1.44-3.25-.9-6.5,0-9.72.14-.46.67-.8,1.13-1.32-1.66-3.78-1.3-7.78.14-12.38l-1.17-4.16c-.69,1.24-1.55,2.32-1.08,4.07a21.31,21.31,0,0,1,.64,5.85,13.31,13.31,0,0,1-1.09,3.46,3.71,3.71,0,0,0-.23,1.22c.11,2.27.27,4.55.39,6.82a3.26,3.26,0,0,1-.14.92c-.33,1.34-.71,2.87-2.3,3s-2.25-1.37-2.7-2.65a10.28,10.28,0,0,1-.49-5.94c.69-2.9,1.94-3.49,4.47-2-1-1.23-2.29-2.33-2.91-3.72a22.86,22.86,0,0,1-1-5,5.52,5.52,0,0,1,1.49-4.1A1.82,1.82,0,0,0,227,138c-.57-1.75-1.31-3.45-2-5.24-.26,1.66-.84,3.07-2.59,2.89.69,1.49,1.51,3,2.07,4.54a21.09,21.09,0,0,1,.66,3.49c-.27.63-.54,1.27-.8,1.9-.89,2.14-2.75,2.55-4.24.78a9.24,9.24,0,0,1-1.91-8.87,2.87,2.87,0,0,1,2.42-2.29,52.32,52.32,0,0,1-2.5-6.51c-.74-3,0-4.36,2.38-5.62l-3.08-5.65-2.35,2.65c.68,2.1,1.45,4.45,2.17,6.82a7.78,7.78,0,0,1,.3,2c.09,2.53-1.23,3.5-3.56,2.43-2.83-1.29-3.87-3.87-4.27-6.77a8.88,8.88,0,0,1,0-1.71c.13-2.28.8-3.12,2.75-3.71-1.22-2.11-2.46-4.27-3.71-6.42.17-.11.07-.09.05,0-.51,1.38-1,3-2.74,3-2.23,0-3.73-1.49-4.81-3.23a28.94,28.94,0,0,1-1.82-4.29c-.09.47-.17,1-.29,1.56a3.1,3.1,0,0,1-4.35,2.42,8.8,8.8,0,0,1-5.31-8.38c.31-3.09,2.82-4.36,5.5-2.8,2,1.18,3.08,2.66,4.36,6.09,1-2.66,1-2.66,3-3.72l-4.3-6.3c.08-.11-.06,0-.09.13-.84,3.45-3.51,3.77-5.88,1.76a14.36,14.36,0,0,1-3.42-4.11c-1.75-3.33-1.06-5,2.11-6.65l-5.06-5.91c-.85,3-2.77,3.92-5.91,2.23a9.1,9.1,0,0,1-4.9-6.12c-.66-3,1.06-4.7,4-4.09a8.6,8.6,0,0,1,5.45,4.08c.39.59.7,1.23,1.12,2,.54-2.88.84-3.21,3.2-3.62a30.85,30.85,0,0,1-3.23-2.61A30.83,30.83,0,0,1,183,70.8a1.15,1.15,0,0,0-.21.27c-.88,2.94-2.06,3.52-4.91,2.33a9.15,9.15,0,0,1-5.71-5.77,4.87,4.87,0,0,1,.42-3.34,2.12,2.12,0,0,1,2.87-.69c3.31.27,5,2.8,7,5.36.21-1.77.79-3,2.26-3.18l-5.2-5a2.85,2.85,0,0,1-3.19,2.53,2.78,2.78,0,0,0-.89.25c-.34-.3-.68-.61-1-.9-1.6-1.29-3.26-2.51-4.78-3.89a4.5,4.5,0,0,1-1.07-2c-.58-2,.15-2.93,2.32-3.37-1.55-1.15-3.29-2.34-4.91-3.68a5.84,5.84,0,0,1-1.38-2c-1-2.06-.13-3.33,2.16-3.31.36,0,.72.06,1.09.09a14.79,14.79,0,0,1,1.44.56c2.37,1.19,4.67,2.46,5.62,5.19.61.85.78,1.84,0,2.51a8,8,0,0,1-2.36.94l.21-.38,6.06,4.79,1.9-2.31c-1.67-1.69-3.44-3.46-5.21-5.23a2.62,2.62,0,0,0-.57-.32c.17-1.42-.73-3.3,1.68-3.57l-5.87-4.57c.28,1.57-.66,2.09-2,2.23C168.43,44.33,168.14,44.43,167.84,44.49ZM240.1,168.91c.25-1,.48-2,.75-3s.52-1.79.79-2.68c-1,1.75-2.36,3.47-1.54,5.64-.15.12-.4.21-.42.35-.44,2.48-.85,5-1.28,7.45-.75,4.31-1.48,8.63-2.27,12.93-.15.79-.65,1.52-.87,2.31-.42,1.5-.76,3-1.12,4.55,0,.09.16.23.24.34l1-1.25.26,1.89c1.42.24,1.51-.37,1.27-1.57a22.19,22.19,0,0,1-.47-4.73c.08-4.36,2.51-8.31,2.31-12.73a3.3,3.3,0,0,1,.27-.88c.58-2.08,1.32-4.12,1-6.36A10,10,0,0,1,240.1,168.91ZM196.52,86.38l-2.69,2.38,4.28,5.53a2.83,2.83,0,0,1,2.72-2.75Zm14.75,20.36-3.34-5-2.74,2.34,3.55,5.34Zm-17.77-32a2.55,2.55,0,0,1-2.5,2.38l4.65,5.2,2.06-2.59Zm-3.13-10.17-2.29,2.21.36-.59,4.86,4.64-.68.45L194.56,69Zm18.84,30.24-3.12-4.38-2.57,1.86,3.84,5.11Zm9.89,15.91-2.63-4.64-2.22,2.05,2.94,5.07ZM236,205.68c-1.23.92-2.16,1.86-1,3.45.09.13,0,.4,0,.6-.61,2.84-1.7,5.55-2,8.49-.16,1.47-1.11,2.86-1.7,4.29l.52.2c.76-1.93,1.59-3.83,2.23-5.79.44-1.36.55-2.82.94-4.2C235.56,210.44,237.28,208.35,236,205.68Zm4-55.15c-1.09-1.92-2.36-4.13-3.6-6.3-1.68.16-1.15,1.48-.93,2.7.15.81.27,1.62.41,2.49l1.1-1.17C238.14,149.11,239.19,149.9,240,150.53Zm-6.33,5a43.48,43.48,0,0,0,1.71,4.13c.24.45,1,.7,1.56.89a10.45,10.45,0,0,0,1.76.3l-3.14-5.24ZM238,199.31a22.7,22.7,0,0,0,1.25-2.76c.44-1.37.7-2.79,1.07-4.19.32-1.23.69-2.45,1-3.68l-.26,0-.91,1.32c-.59-1.56.53-3.38-1.81-4.33C240.8,190.42,239,194.8,238,199.31ZM201.5,81.15l3.74,4.77c1.58-2.56-1.6-3.7-1.58-6Zm30.08,53.49c.4-2.57,1.74-5.15-.3-7.66-.27.61-.81,1.24-.74,1.79C230.77,130.74,231.22,132.68,231.58,134.64Zm3.75-.7,1.14,2.9,2.16.72-1.78-4.78Zm-10.41-12-.56,0,1.37,6.49.48.09a6.88,6.88,0,0,0,.38-2.58A25.9,25.9,0,0,0,224.92,121.93Zm17.31,54.21c-.27.14-.92.36-.9.48.23,1.62.57,3.23.87,4.82,1.14.24,1.32-.36,1.12-1.19C243,178.9,242.62,177.57,242.23,176.14Zm-11.61-59.82c-.67.83-.19,4.73.68,5.85A5.86,5.86,0,0,0,230.62,116.32Zm11.08,81.4c2.31-1.81.39-4.56,1-6.9a4.46,4.46,0,0,0-1,2.16C241.62,194.61,241.7,196.26,241.7,197.72ZM236.39,122c-1.34,1.33-1.34,1.33-.06,4.21l1.24-.79ZM188.94,60.84l.43-.28L185.61,56l-1.4.53ZM242.81,169.6c2.45-1.43,1.1-3.56,1.48-5.4l-.38-.07Zm-19.17-58.54,1.58,5.36C226.33,115.22,225.92,113.58,223.64,111.06Zm7,113c-2.43.66-2.61,1-1.82,3.72Zm5.94-9.53c.52-1.46,2.12-2.77.78-4.77C235.79,211.26,237.35,213.11,236.56,214.54ZM230.94,225c-.4,1.46-1.87,2.52-1.75,4.4C231.34,228.31,230.87,226.54,230.94,225ZM235,111.87c-1.31,1.42.16,2.41.32,3.84C236.88,114.06,235.3,113.06,235,111.87Zm-5.71-5.94-.42.11,1.25,4.7C231.14,108.73,230.08,107.35,229.28,105.93Zm17.64,55.4c-1,1-.53,4.3.52,5.57Zm-2.69,34.43-.49-.09-1,6.5.5.1Zm-12.43,19c-1.69,1.64-.5,2.78-.07,4l.44,0Zm13.29-59.89h-.31l-.48,7.25h.33Zm-3.9-32.8-1.47-3.91C238.86,119.25,239.52,121.07,241.19,122.07Zm6.43,55.2h-.45v6.44h.1Zm-23.73-72.48c.72-1-.12-3.25-1.56-4.27ZM236,218.11l-.71-.29-1.71,4.69.36.13Q235,220.38,236,218.11Zm-5.58,11.45.4.25,2.73-5.05-.35-.19Zm10.88-96.67.52-.29-1.4-4-.59.23Zm-8.65,95.72-.66-.18-1.08,3.22.46.17Zm9-84.36.44-.16-1.51-4.6-.38.14Q240.91,141.94,241.63,144.25Z"/>
        </g>
      </g>
    </g>
  </g>
</svg>
