<?xml version="1.0" encoding="utf-8"?>
<!-- Generator: Adobe Illustrator 23.1.1, SVG Export Plug-In . SVG Version: 6.00 Build 0)  -->
<svg version="1.1" id="Capa_1" xmlns="http://www.w3.org/2000/svg" xmlns:xlink="http://www.w3.org/1999/xlink" x="0px" y="0px"
	 viewBox="0 0 141.6 33.2" style="enable-background:new 0 0 141.6 33.2;" xml:space="preserve">
<style type="text/css">
	<!-- .st0{fill:#9446EF;} -->
	.st0{fill:#FFF;}
	.st1{fill:#FFFFFF;}
</style>
<g>
	<g>
		<circle class="st0" cx="15.9" cy="16.6" r="3.7"/>
		<path class="st0" d="M28.6,25.7c-0.2,0-0.3,0-0.5,0c-0.8,0-1.5-0.2-2.1-0.8l0,0c-0.8-0.8-1-2.1-0.5-3.2c0.5-1,0.9-2.1,1.1-3.3H23
			c-0.8,3.3-3.9,5.7-7.6,5.5c-3.6-0.2-6.6-3.1-6.8-6.8c-0.3-4.3,3.1-7.8,7.3-7.8c3.4,0,6.3,2.3,7.1,5.5h3.7
			c-0.2-1.2-0.6-2.3-1.1-3.3C25,10.4,25.2,9.1,26,8.3l0,0c0.5-0.5,1.3-0.8,2-0.8c0.2,0,0.5,0,0.7,0c1.4-0.2,2.5-1.4,2.7-2.8
			c0.2-2.1-1.5-3.8-3.6-3.6c-1.4,0.2-2.6,1.3-2.8,2.7c0,0.2,0,0.5,0,0.7c0,0.8-0.2,1.5-0.8,2l0,0c-0.8,0.8-2.1,1-3.2,0.5
			c-1.5-0.8-3.3-1.3-5.2-1.3S12.2,6.2,10.6,7c-1,0.6-2.3,0.4-3.2-0.5l0,0C7,5.9,6.7,5.2,6.8,4.4c0-0.2,0-0.4,0-0.7
			C6.5,2.3,5.3,1.2,3.9,1c-2-0.2-3.8,1.5-3.5,3.6C0.5,6,1.6,7.2,3,7.4c0.2,0,0.5,0.1,0.7,0c0.8,0,1.5,0.2,2,0.8l0,0
			c0.8,0.8,1,2.1,0.5,3.2c-0.8,1.5-1.3,3.3-1.3,5.2s0.5,3.6,1.3,5.2c0.6,1,0.4,2.3-0.5,3.2l0,0c-0.5,0.5-1.3,0.8-2,0.8
			c-0.2,0-0.4,0-0.7,0c-1.4,0.2-2.5,1.4-2.7,2.8c-0.2,2.1,1.5,3.8,3.6,3.6c1.4-0.2,2.6-1.3,2.8-2.7c0-0.2,0-0.5,0-0.7
			c0-0.8,0.2-1.5,0.8-2l0,0c0.8-0.8,2.1-1,3.2-0.5c1.5,0.8,3.3,1.3,5.2,1.3s3.6-0.5,5.2-1.3c1-0.6,2.3-0.4,3.2,0.5l0,0
			c0.5,0.5,0.8,1.3,0.8,2c0,0.2,0,0.5,0,0.7c0.2,1.4,1.4,2.5,2.8,2.6c2,0.2,3.7-1.4,3.6-3.4C31.4,27.2,30.1,25.9,28.6,25.7z"/>
	</g>
	<g>
		<g>
			<path class="st1" d="M64.9,29.4h-1v1.1h-0.6v-2.7h1.9v0.5H64V29h1v0.4H64.9z"/>
			<path class="st1" d="M68.8,30.3c-0.2-0.1-0.4-0.3-0.5-0.5s-0.2-0.5-0.2-0.7c0-0.3,0.1-0.5,0.2-0.7s0.3-0.4,0.5-0.5
				s0.5-0.2,0.8-0.2s0.6,0.1,0.8,0.2c0.2,0.1,0.4,0.3,0.5,0.5s0.2,0.5,0.2,0.7c0,0.3-0.1,0.5-0.2,0.7s-0.3,0.4-0.5,0.5
				s-0.5,0.2-0.8,0.2S69,30.4,68.8,30.3z M70,29.9c0.1-0.1,0.2-0.2,0.3-0.3c0.1-0.1,0.1-0.3,0.1-0.5s0-0.3-0.1-0.5
				c-0.1-0.1-0.2-0.2-0.3-0.3c-0.1-0.1-0.3-0.1-0.5-0.1s-0.3,0-0.5,0.1c-0.1,0.1-0.2,0.2-0.3,0.3c-0.1,0.1-0.1,0.3-0.1,0.5
				s0,0.3,0.1,0.5c0.1,0.1,0.2,0.2,0.3,0.3c0.1,0.1,0.3,0.1,0.5,0.1S69.9,29.9,70,29.9z"/>
			<path class="st1" d="M76.6,30c-0.1,0.2-0.3,0.3-0.4,0.4c-0.2,0.1-0.4,0.1-0.7,0.1c-0.2,0-0.5,0-0.7-0.1s-0.3-0.2-0.4-0.4
				c-0.1-0.2-0.2-0.4-0.2-0.6v-1.7h0.6v1.7c0,0.2,0.1,0.3,0.2,0.5c0.1,0.1,0.3,0.2,0.5,0.2s0.3-0.1,0.5-0.2c0.1-0.1,0.2-0.3,0.2-0.5
				v-1.7h0.6v1.7C76.8,29.6,76.7,29.8,76.6,30z"/>
			<path class="st1" d="M80.7,28.7v1.7h-0.6v-2.7h0.4l1.7,1.7v-1.7h0.6v2.7h-0.4L80.7,28.7z"/>
			<path class="st1" d="M88.1,27.9c0.2,0.1,0.4,0.3,0.5,0.5s0.2,0.4,0.2,0.7c0,0.3-0.1,0.5-0.2,0.7s-0.3,0.4-0.5,0.5
				s-0.5,0.2-0.7,0.2h-1.2v-2.7h1.2C87.6,27.7,87.9,27.8,88.1,27.9z M87.7,29.8c0.1-0.1,0.2-0.2,0.3-0.3c0.1-0.1,0.1-0.3,0.1-0.5
				s0-0.3-0.1-0.5c-0.1-0.1-0.2-0.2-0.3-0.3c-0.1-0.1-0.2-0.1-0.4-0.1h-0.6v1.8h0.6C87.5,29.9,87.6,29.9,87.7,29.8z"/>
			<path class="st1" d="M91.5,30.4l1.2-2.7h0.6l1.2,2.7h-0.7l-0.2-0.5h-1.2l-0.2,0.5H91.5z M93.5,29.5l-0.4-1l-0.4,1H93.5z"/>
			<path class="st1" d="M97.8,30.4v-2.3H97v-0.5h2.3v0.5h-0.9v2.3H97.8z"/>
			<path class="st1" d="M103,27.7v2.7h-0.6v-2.7H103z"/>
			<path class="st1" d="M106.9,30.3c-0.2-0.1-0.4-0.3-0.5-0.5s-0.2-0.5-0.2-0.7c0-0.3,0.1-0.5,0.2-0.7s0.3-0.4,0.5-0.5
				s0.5-0.2,0.8-0.2s0.6,0.1,0.8,0.2c0.2,0.1,0.4,0.3,0.5,0.5s0.2,0.5,0.2,0.7c0,0.3-0.1,0.5-0.2,0.7s-0.3,0.4-0.5,0.5
				s-0.5,0.2-0.8,0.2S107.1,30.4,106.9,30.3z M108.2,29.9c0.1-0.1,0.2-0.2,0.3-0.3c0.1-0.1,0.1-0.3,0.1-0.5s0-0.3-0.1-0.5
				c-0.1-0.1-0.2-0.2-0.3-0.3c-0.1-0.1-0.3-0.1-0.5-0.1s-0.3,0-0.5,0.1s-0.2,0.2-0.3,0.3c-0.1,0.1-0.1,0.3-0.1,0.5s0,0.3,0.1,0.5
				c0.1,0.1,0.2,0.2,0.3,0.3s0.3,0.1,0.5,0.1S108,29.9,108.2,29.9z"/>
			<path class="st1" d="M113,28.7v1.7h-0.6v-2.7h0.4l1.7,1.7v-1.7h0.6v2.7h-0.4L113,28.7z"/>
		</g>
		<g>
			<path class="st1" d="M43.8,13.6c-0.5-0.2-1-0.3-1.5-0.3c-0.6,0-1.2,0.1-1.7,0.4c-0.5,0.3-0.8,0.7-1.1,1.2s-0.4,1.1-0.4,1.8
				c0,0.7,0.1,1.2,0.4,1.8c0.3,0.5,0.6,0.9,1.1,1.2c0.5,0.3,1,0.4,1.6,0.4s1.2-0.1,1.6-0.4c0.5-0.3,0.8-0.6,1.2-1.2l1.4,1.3
				c-0.5,0.7-1.1,1.2-1.8,1.5s-1.6,0.5-2.5,0.5c-1,0-2-0.2-2.8-0.7c-0.8-0.4-1.4-1.1-1.9-1.9c-0.4-0.8-0.7-1.7-0.7-2.7
				s0.2-1.9,0.7-2.7c0.4-0.8,1.1-1.4,1.9-1.8c0.8-0.4,1.7-0.7,2.8-0.7c1.7,0,3,0.5,4,1.6l-1.3,1.4C44.6,14.1,44.3,13.8,43.8,13.6z"
				/>
			<path class="st1" d="M51.1,14.1c0.5-0.2,1-0.3,1.6-0.3l-0.2,2.1c-0.8,0-1.4,0.2-1.9,0.5s-0.7,0.8-0.7,1.3v4.1h-2.2V14h1.6
				l0.6,1.1C50.2,14.6,50.6,14.3,51.1,14.1z"/>
			<path class="st1" d="M69.8,14.3c0.6,0.3,1,0.8,1.3,1.4s0.5,1.3,0.5,2.1s-0.2,1.5-0.5,2.1s-0.8,1.1-1.3,1.5
				c-0.6,0.3-1.2,0.5-1.9,0.5c-1.1,0-1.9-0.4-2.4-1.3v4.3h-2.2v-11h1.6l0.6,1.2c0.5-0.9,1.4-1.3,2.5-1.3
				C68.6,13.8,69.3,14,69.8,14.3z M68.8,19.4c0.4-0.4,0.5-0.9,0.5-1.6c0-0.6-0.2-1.1-0.5-1.5c-0.4-0.4-0.8-0.6-1.4-0.6
				s-1.1,0.2-1.4,0.6c-0.4,0.4-0.5,0.9-0.5,1.6c0,0.6,0.2,1.1,0.5,1.5c0.4,0.4,0.8,0.6,1.4,0.6S68.5,19.8,68.8,19.4z"/>
			<path class="st1" d="M78.1,19.7v1.8c-0.6,0.2-1.2,0.4-2,0.4c-0.7,0-1.3-0.2-1.8-0.7s-0.7-1.1-0.7-1.8v-3.6h-1.3V14h1.3l1.7-2.5
				h0.6V14H78v1.8h-2.1v3.1c0,0.3,0.1,0.6,0.3,0.8c0.2,0.2,0.4,0.3,0.7,0.3C77.3,20,77.7,19.9,78.1,19.7z"/>
			<path class="st1" d="M81,21.4c-0.6-0.3-1.1-0.8-1.5-1.4S79,18.7,79,17.9c0-0.8,0.2-1.5,0.5-2.1c0.4-0.6,0.8-1.1,1.5-1.4
				c0.6-0.3,1.4-0.5,2.2-0.5c0.8,0,1.6,0.2,2.2,0.5s1.1,0.8,1.5,1.4c0.4,0.6,0.5,1.3,0.5,2.1c0,0.8-0.2,1.5-0.5,2.1
				c-0.4,0.6-0.9,1.1-1.5,1.4s-1.4,0.5-2.2,0.5S81.6,21.7,81,21.4z M84.6,19.4c0.4-0.4,0.5-0.9,0.5-1.5s-0.2-1.2-0.5-1.6
				c-0.4-0.4-0.8-0.6-1.4-0.6s-1,0.2-1.4,0.6c-0.4,0.4-0.5,0.9-0.5,1.6c0,0.6,0.2,1.1,0.5,1.5s0.8,0.6,1.4,0.6
				C83.8,20,84.2,19.8,84.6,19.4z"/>
			<path class="st1" d="M99.4,14.2c0.5,0.3,0.9,0.6,1.1,1.1c0.3,0.5,0.4,1,0.4,1.6v4.9h-2.2v-4.6c0-0.5-0.1-0.8-0.4-1.1
				c-0.3-0.3-0.6-0.4-1-0.4s-0.8,0.1-1,0.4c-0.3,0.3-0.4,0.6-0.4,1.1v4.6h-2.2v-4.6c0-0.4-0.1-0.8-0.4-1.1c-0.3-0.3-0.6-0.4-1-0.4
				s-0.8,0.1-1,0.4c-0.3,0.3-0.4,0.6-0.4,1.1v4.6h-2.2V14h1.6l0.6,1c0.3-0.4,0.6-0.6,1-0.8s0.8-0.3,1.3-0.3s0.9,0.1,1.3,0.3
				s0.7,0.5,0.9,0.9c0.3-0.4,0.6-0.7,1.1-0.9c0.4-0.2,0.9-0.3,1.4-0.3C98.4,13.8,98.9,13.9,99.4,14.2z"/>
			<path class="st1" d="M117.9,21.7l-2.5-3.1l0.1-0.2l-1.2,1.3v2h-2.2V11.5h2.2v5.4l2.8-2.9h2.8l-3.2,3.2l3.9,4.6h-2.7V21.7z"/>
			<path class="st1" d="M126.8,14.3c0.6,0.4,1.1,0.9,1.4,1.5c0.3,0.6,0.4,1.2,0.4,1.9l-0.1,0.9H123c0,0.2,0.1,0.4,0.2,0.7
				c0.1,0.2,0.3,0.4,0.6,0.6s0.6,0.3,1,0.3s0.7-0.1,1-0.3c0.3-0.2,0.5-0.4,0.6-0.5l1.7,0.9c-0.4,0.5-0.9,1-1.5,1.3s-1.2,0.4-1.9,0.4
				c-0.8,0-1.6-0.2-2.2-0.5s-1.1-0.8-1.5-1.4c-0.3-0.6-0.5-1.3-0.5-2.1c0-0.8,0.2-1.5,0.5-2.2s0.8-1.1,1.4-1.5
				c0.6-0.3,1.3-0.5,2-0.5C125.4,13.8,126.2,14,126.8,14.3z M125.8,16c-0.3-0.3-0.7-0.5-1.2-0.5s-0.9,0.2-1.2,0.5
				c-0.3,0.3-0.4,0.7-0.4,1.1h3.2C126.2,16.7,126.1,16.3,125.8,16z"/>
			<path class="st1" d="M133,14.1c0.5-0.2,1-0.3,1.6-0.3l-0.2,2.1c-0.8,0-1.4,0.2-1.9,0.5s-0.7,0.8-0.7,1.3v4.1h-2.2V14h1.6l0.6,1.1
				C132.1,14.6,132.5,14.3,133,14.1z"/>
			<path class="st1" d="M136.3,21.6c-0.5-0.2-0.9-0.4-1.1-0.6l0.8-1.4c0.5,0.3,1.2,0.5,1.9,0.5c0.3,0,0.5,0,0.7-0.2
				c0.1-0.1,0.2-0.3,0.2-0.4s0-0.3-0.1-0.4s-0.2-0.2-0.4-0.3l-0.9-0.3c-0.5-0.2-0.9-0.3-1.2-0.5c-0.3-0.1-0.5-0.4-0.7-0.6
				c-0.2-0.3-0.3-0.6-0.3-1.1c0-0.4,0.1-0.9,0.3-1.3c0.2-0.4,0.5-0.7,1-1c0.4-0.3,1-0.4,1.7-0.4c1.1,0,2,0.3,2.8,0.8l-0.9,1.5
				c-0.6-0.3-1.1-0.5-1.7-0.5c-0.3,0-0.5,0.1-0.7,0.2s-0.2,0.2-0.2,0.4s0.1,0.3,0.2,0.4c0.1,0.1,0.3,0.2,0.6,0.3l0.8,0.3
				c0.7,0.2,1.2,0.5,1.6,0.9c0.3,0.4,0.5,0.9,0.5,1.5c0,0.5-0.1,0.9-0.4,1.3c-0.3,0.4-0.6,0.7-1.1,0.8c-0.5,0.2-1,0.3-1.6,0.3
				C137.3,21.9,136.8,21.8,136.3,21.6z"/>
			<path class="st1" d="M108.7,13.9v0.3c0,0-0.1,0-0.1-0.1c-0.6-0.3-1.4-0.5-2.2-0.5c-0.8,0-1.6,0.2-2.2,0.5s-1.1,0.8-1.5,1.4
				s-0.5,1.3-0.5,2.2c0,0.8,0.2,1.5,0.5,2.2c0.4,0.6,0.9,1.1,1.5,1.4s1.4,0.5,2.2,0.5c0.8,0,1.6-0.2,2.2-0.5c0,0,0.1,0,0.1-0.1v0.4
				h2v-7.8h-2V13.9z M107.8,19.4c-0.4,0.4-0.8,0.6-1.4,0.6s-1-0.2-1.4-0.6s-0.5-0.9-0.5-1.6s0.2-1.2,0.5-1.6
				c0.4-0.4,0.8-0.6,1.4-0.6s1,0.2,1.4,0.6c0.4,0.4,0.5,0.9,0.5,1.6C108.4,18.4,108.2,19,107.8,19.4z"/>
			<g>
				<path class="st1" d="M57.3,24.7c-0.4,0.4-1.1,0.6-1.8,0.6c-0.5,0-0.9-0.1-1.3-0.2l0.2-1.9c0.2,0.1,0.4,0.1,0.6,0.1
					c0.3,0,0.5-0.1,0.7-0.2s0.4-0.4,0.5-0.8l0.3-0.6l-3.4-7.8h2.5l2,5.3l1.9-5.3H62l-3.6,8.7C58.2,23.6,57.8,24.3,57.3,24.7z"/>
			</g>
		</g>
	</g>
</g>
</svg>
