<?xml version="1.0" encoding="utf-8"?>
<!-- Generator: Adobe Illustrator 23.1.1, SVG Export Plug-In . SVG Version: 6.00 Build 0)  -->
<svg version="1.1" id="Capa_1" xmlns="http://www.w3.org/2000/svg" xmlns:xlink="http://www.w3.org/1999/xlink" x="0px" y="0px"
	 viewBox="0 0 200 200" style="enable-background:new 0 0 200 200;" xml:space="preserve">
<style type="text/css">
	.st0{fill:#9446EF;}
</style>
<g>
	<circle class="st0" cx="99.815" cy="100.045" r="23.457"/>
	<path class="st0" d="M181.185,158.631c-1.01-0.112-2.02-0.112-3.03-0.112c-4.938,0.224-9.764-1.571-13.244-5.051l0,0
		c-5.387-5.387-6.51-13.693-2.918-20.427c3.479-6.622,6.061-13.805,7.295-21.325H145.27c-5.499,21.212-25.365,36.588-48.485,35.129
		c-23.232-1.459-42.088-20.202-43.771-43.435c-1.908-27.497,19.753-50.393,46.802-50.393c21.886,0,40.292,14.927,45.455,35.242
		h24.018c-1.235-7.52-3.704-14.703-7.183-21.212c-3.591-6.734-2.469-15.039,2.918-20.427l0.224-0.224
		c3.479-3.479,8.193-5.275,13.019-5.051c1.459,0.112,2.918,0,4.377-0.224c8.979-1.571,16.197-9.073,17.207-18.164
		c1.459-13.244-9.868-24.28-23.112-22.821c-9.091,1.01-16.43,8.325-17.889,17.304c-0.224,1.459-0.337,2.918-0.224,4.265
		c0.224,4.938-1.571,9.652-5.051,13.131l-0.112,0.112c-5.387,5.387-13.58,6.622-20.314,3.03c-9.877-5.275-21.212-8.305-33.221-8.305
		s-23.233,3.03-33.221,8.305c-6.734,3.591-14.927,2.357-20.314-3.03l-0.112-0.112c-3.479-3.479-5.275-8.193-5.051-13.131
		c0.112-1.459,0-2.806-0.224-4.377C39.545,8.349,32.138,1.166,23.047,0.156C9.803-1.303-1.308,9.696,0.151,22.94
		c1.01,9.091,8.081,16.498,17.06,18.07c1.459,0.224,2.918,0.337,4.377,0.224c4.826-0.224,9.652,1.571,13.019,5.051l0.112,0.112
		c5.387,5.387,6.622,13.58,3.03,20.314c-5.275,9.877-8.305,21.212-8.305,33.221s3.03,23.345,8.305,33.221
		c3.591,6.734,2.357,14.927-3.03,20.314l-0.112,0.112c-3.479,3.479-8.193,5.275-13.019,5.051c-1.459-0.112-2.918,0-4.377,0.224
		c-8.979,1.571-16.05,8.979-17.06,18.07c-1.459,13.244,9.669,24.474,22.913,22.902c9.091-1.01,16.482-8.2,17.941-17.291
		c0.224-1.459,0.337-2.918,0.224-4.265c-0.224-4.938,1.571-9.652,5.051-13.131l0,0c5.387-5.387,13.58-6.622,20.314-3.03
		c9.877,5.275,21.212,8.305,33.221,8.305s23.345-3.03,33.221-8.305c6.734-3.592,14.927-2.357,20.314,3.03l0.224,0.224
		c3.367,3.367,5.163,8.081,5.051,12.907c-0.112,1.459,0,2.918,0.337,4.377c1.571,8.979,9.101,16.322,18.192,17.22
		c12.795,1.347,23.559-9.364,22.773-22.046C199.255,167.946,191.174,159.641,181.185,158.631z"/>
</g>
</svg>
