<svg xmlns="http://www.w3.org/2000/svg" width="33" height="33" viewBox="0 0 33 33">
  <defs>
    <style>
      .cls-1 {
        fill: #4900a9;
      }
    </style>
  </defs>
  <g id="Layer_2" data-name="Layer 2">
    <g id="Layer_1-2" data-name="Layer 1">
      <g id="Icon_feather-copy" data-name="Icon feather-copy">
        <g id="Path_7" data-name="Path 7">
          <path class="cls-1" d="M28.5,33H15a4.51,4.51,0,0,1-4.5-4.5V15A4.51,4.51,0,0,1,15,10.5H28.5A4.51,4.51,0,0,1,33,15V28.5A4.51,4.51,0,0,1,28.5,33ZM15,13.5A1.5,1.5,0,0,0,13.5,15V28.5A1.5,1.5,0,0,0,15,30H28.5A1.5,1.5,0,0,0,30,28.5V15a1.5,1.5,0,0,0-1.5-1.5Z"/>
        </g>
        <g id="Path_8" data-name="Path 8">
          <path class="cls-1" d="M6,22.5H4.5A4.51,4.51,0,0,1,0,18V4.5A4.51,4.51,0,0,1,4.5,0H18a4.51,4.51,0,0,1,4.5,4.5V6a1.5,1.5,0,0,1-3,0V4.5A1.5,1.5,0,0,0,18,3H4.5A1.5,1.5,0,0,0,3,4.5V18a1.5,1.5,0,0,0,1.5,1.5H6a1.5,1.5,0,0,1,0,3Z"/>
        </g>
      </g>
    </g>
  </g>
</svg>
