<?xml version="1.0" encoding="utf-8"?>
<!-- Generator: Adobe Illustrator 23.1.1, SVG Export Plug-In . SVG Version: 6.00 Build 0)  -->
<svg version="1.1" id="Layer_1" xmlns="http://www.w3.org/2000/svg" xmlns:xlink="http://www.w3.org/1999/xlink" x="0px" y="0px"
	 viewBox="0 0 50 50" style="enable-background:new 0 0 50 50;" xml:space="preserve">
<style type="text/css">
	.st0{fill:#E8E8E8;}
</style>
<g>
	<g>
		<path class="st0" d="M8.839,12.804c0.525-0.655,1.271-0.955,2.241-0.955h27.838c0.82,0,1.529,0.267,2.127,0.86
			c0.598,0.592,0.896,1.29,0.896,2.122l0.003-0.004c0,0.997-0.309,1.945-0.927,2.851c-0.616,0.907-1.384,1.681-2.306,2.325
			c-4.741,3.292-7.691,5.339-8.851,6.146c-0.127,0.088-0.393,0.279-0.805,0.576c-0.408,0.296-0.748,0.536-1.021,0.719
			c-0.269,0.183-0.598,0.387-0.984,0.614c-0.383,0.225-0.746,0.502-1.087,0.616c-0.341,0.113-0.655,0.277-0.947,0.277H24.98
			c-0.289,0-0.603-0.164-0.944-0.277c-0.34-0.114-0.703-0.338-1.088-0.563c-0.386-0.227-0.715-0.458-0.984-0.641
			c-0.27-0.183-0.61-0.436-1.022-0.733c-0.408-0.297-0.677-0.495-0.802-0.583c-1.149-0.807-2.802-1.961-4.957-3.454
			c-2.156-1.495-3.449-2.394-3.877-2.697c-0.78-0.53-1.518-1.258-2.212-2.186c-0.695-0.927-1.041-1.775-1.041-2.569
			C8.054,14.265,8.316,13.459,8.839,12.804z"/>
	</g>
	<g>
		<path class="st0" d="M42.253,35.396c0,0.832-0.45,1.561-1.043,2.153c-0.592,0.592-1.459,0.904-2.292,0.904H11.083
			c-0.833,0-1.55-0.312-2.141-0.904c-0.594-0.592-0.893-1.321-0.893-2.153V20.38c0.95,0.618,1.195,1.167,1.913,1.646
			c4.565,3.101,7.697,5.276,9.403,6.524c0.716,0.529,1.302,0.943,1.75,1.239c0.448,0.296,1.045,0.445,1.787,0.752
			c0.745,0.309,1.438,0.31,2.082,0.31h0.037c0.643,0,1.335-0.001,2.081-0.31c0.743-0.309,1.339-0.533,1.786-0.83
			c0.448-0.295,1.032-0.67,1.75-1.201c2.143-1.549,5.437-3.705,9.572-6.504c0.716-0.491,1.093-1.02,2.043-1.624V20.4h-0.306
			c0,0,0.306-0.018,0.306-0.017V35.396z"/>
	</g>
</g>
</svg>
