<?xml version="1.0" encoding="utf-8"?>
<!-- Generator: Adobe Illustrator 23.1.1, SVG Export Plug-In . SVG Version: 6.00 Build 0)  -->
<svg version="1.1" id="Layer_1" xmlns="http://www.w3.org/2000/svg" xmlns:xlink="http://www.w3.org/1999/xlink" x="0px" y="0px"
	 viewBox="0 0 60 60" style="enable-background:new 0 0 60 60;" xml:space="preserve">
<style type="text/css">
	.st0{fill:#E4E5EA;}
	.st1{fill:#787F93;}
</style>
<path class="st0" d="M58.2,60H1.8c-1,0-1.8-0.8-1.8-1.8V1.8C0,0.8,0.8,0,1.8,0h56.4c1,0,1.8,0.8,1.8,1.8v56.4
	C60,59.2,59.2,60,58.2,60z"/>
<g id="dsHRg8_1_">
	<g>
		<path class="st1" d="M17.5,38.7c-0.3,0-0.7,0-1,0c-1.9,0-3.3-1.4-3.3-3.3c0-5,0-10.1,0-15.1c0-1.8,1.4-3.3,3.3-3.3
			c7.9,0,15.8,0,23.7,0c1.9,0,3.3,1.4,3.3,3.3c0,0.3,0,0.7,0,1c0.1,0,0.2,0,0.3,0c0.5,0,1.1,0,1.6,0.1c1.4,0.3,2.4,1.6,2.4,3.1
			c0,2.5,0,4.9,0,7.4c0,2.6,0,5.2,0,7.8c0,1.7-1.1,3-2.7,3.3C44.8,43,44.3,43,43.9,43c-7.7,0-15.4,0-23.1,0c-1.6,0-3-1.1-3.3-2.7
			c-0.1-0.4,0-0.9-0.1-1.4C17.5,38.9,17.5,38.8,17.5,38.7z M32.7,40.8c3.9,0,7.9,0,11.8,0c0.8,0,1.2-0.4,1.2-1.2c0-5,0-10,0-14.9
			c0-0.8-0.4-1.2-1.2-1.2c-7.8,0-15.7,0-23.5,0c-0.8,0-1.2,0.4-1.2,1.2c0,5,0,9.9,0,14.9c0,0.8,0.4,1.2,1.2,1.2
			C24.8,40.8,28.8,40.8,32.7,40.8z M17.5,36.5c0-0.1,0-0.2,0-0.3c0-3.8,0-7.7,0-11.5c0-0.2,0-0.5,0.1-0.7c0.3-1.6,1.6-2.7,3.2-2.7
			c6.7,0,13.5,0,20.2,0c0.1,0,0.2,0,0.3,0c0-0.3,0-0.6,0-0.9c0-0.8-0.4-1.2-1.2-1.2c-7.9,0-15.7,0-23.6,0c-0.8,0-1.2,0.4-1.2,1.2
			c0,2.2,0,4.4,0,6.6c0,2.8,0,5.6,0,8.4c0,0.6,0.4,1.1,0.9,1.1C16.7,36.5,17.1,36.5,17.5,36.5z"/>
		<path class="st1" d="M30.6,35.5c0.1-0.2,0.2-0.4,0.3-0.6c1.1-1.9,2.2-3.8,3.2-5.6c0.1-0.1,0.1-0.2,0.2-0.3c0.3-0.3,0.7-0.3,1,0
			c0.1,0.1,0.2,0.2,0.2,0.4c1.5,2.5,2.9,5.1,4.4,7.6c0,0.1,0.1,0.1,0.1,0.2c0.2,0.5,0,0.9-0.6,1c-0.1,0-0.2,0-0.2,0
			c-4.4,0-8.7,0-13.1,0c-0.2,0-0.4,0-0.6-0.1c-0.4-0.1-0.5-0.4-0.4-0.8c0-0.1,0.1-0.2,0.2-0.3c0.8-1.4,1.6-2.7,2.4-4.1
			c0.1-0.1,0.1-0.2,0.2-0.3c0.3-0.3,0.7-0.3,1,0c0.1,0.1,0.2,0.2,0.2,0.3c0.5,0.8,0.9,1.6,1.4,2.4C30.5,35.4,30.5,35.4,30.6,35.5z"
			/>
		<path class="st1" d="M30.8,28c0,1-0.8,1.8-1.8,1.8c-1,0-1.8-0.8-1.8-1.8c0-1,0.8-1.8,1.8-1.8C30,26.2,30.8,27,30.8,28z"/>
	</g>
</g>
</svg>
