<?xml version="1.0" encoding="utf-8"?>
<!-- Generator: Adobe Illustrator 23.1.1, SVG Export Plug-In . SVG Version: 6.00 Build 0)  -->
<svg version="1.1" id="Layer_1" xmlns="http://www.w3.org/2000/svg" xmlns:xlink="http://www.w3.org/1999/xlink" x="0px" y="0px"
	 viewBox="0 0 50 50" style="enable-background:new 0 0 50 50;" xml:space="preserve">
<style type="text/css">
	.st0{fill:#E8E8E8;}
</style>
<path class="st0" d="M46.968,24.666c0-11.685-9.467-21.198-21.134-21.279c-0.051-0.008-0.096-0.03-0.149-0.03
	c-0.053,0-0.099,0.022-0.149,0.03C13.869,3.468,4.403,12.981,4.403,24.666c0,11.686,9.467,21.198,21.133,21.279
	c0.051,0.008,0.097,0.03,0.15,0.03c0.053,0,0.099-0.022,0.15-0.03C37.501,45.864,46.968,36.352,46.968,24.666z M6.381,25.631h7.786
	c0.067,2.921,0.44,5.671,1.061,8.149H8.621C7.308,31.331,6.527,28.564,6.381,25.631z M8.621,15.552h6.607
	c-0.621,2.478-0.994,5.228-1.061,8.149H6.381C6.527,20.768,7.308,18.001,8.621,15.552z M44.99,23.701h-7.786
	c-0.067-2.921-0.44-5.671-1.061-8.149h6.607C44.063,18.001,44.844,20.768,44.99,23.701z M35.262,23.701H26.65v-8.149h7.464
	C34.785,18.014,35.186,20.787,35.262,23.701z M26.65,13.623V5.415c2.798,0.593,5.278,3.735,6.856,8.208H26.65z M24.72,5.415v8.208
	h-6.855C19.443,9.15,21.923,6.008,24.72,5.415z M24.72,15.552v8.149h-8.611c0.075-2.914,0.477-5.687,1.148-8.149H24.72z
	 M16.109,25.631h8.611v8.149h-7.463C16.585,31.318,16.184,28.545,16.109,25.631z M24.72,35.709v8.208
	c-2.797-0.593-5.277-3.735-6.855-8.208H24.72z M26.65,43.918v-8.208h6.856C31.927,40.183,29.447,43.325,26.65,43.918z M26.65,33.78
	v-8.149h8.612c-0.075,2.914-0.477,5.687-1.148,8.149H26.65z M37.203,25.631h7.786c-0.146,2.933-0.927,5.7-2.241,8.149h-6.607
	C36.763,31.302,37.136,28.552,37.203,25.631z M41.556,13.623h-5.964c-0.994-3.078-2.4-5.626-4.086-7.412
	C35.62,7.512,39.137,10.156,41.556,13.623z M19.865,6.211c-1.686,1.786-3.092,4.334-4.086,7.412H9.814
	C12.234,10.156,15.75,7.511,19.865,6.211z M9.814,35.709h5.965c0.994,3.079,2.4,5.626,4.086,7.412
	C15.75,41.821,12.233,39.176,9.814,35.709z M31.506,43.121c1.686-1.786,3.092-4.334,4.086-7.412h5.964
	C39.137,39.176,35.62,41.821,31.506,43.121z"/>
</svg>
