<?xml version="1.0" encoding="utf-8"?>
<!-- Generator: Adobe Illustrator 23.1.1, SVG Export Plug-In . SVG Version: 6.00 Build 0)  -->
<svg version="1.1" id="Layer_1" xmlns="http://www.w3.org/2000/svg" xmlns:xlink="http://www.w3.org/1999/xlink" x="0px" y="0px"
	 viewBox="0 0 50 50" style="enable-background:new 0 0 50 50;" xml:space="preserve">
<style type="text/css">
	.st0{fill:#E8E8E8;}
</style>
<g>
	<path class="st0" d="M41.965,34.243c-0.082,1.308-0.321,2.379-0.802,3.386c-0.11,0.231-0.262,0.452-0.435,0.642
		c-1.162,1.276-2.604,2.101-4.265,2.522c-1.641,0.416-3.275,0.372-4.867-0.261c-1.787-0.71-3.601-1.36-5.353-2.148
		c-2.902-1.305-5.322-3.292-7.504-5.581c-1.707-1.792-3.192-3.754-4.529-5.836c-0.93-1.449-1.854-2.896-2.455-4.522
		c-0.475-1.285-0.823-2.602-0.807-3.979c0.031-2.764,1.124-5.047,3.217-6.849c0.759-0.654,1.654-0.731,2.599-0.602
		c0.31,0.042,0.626,0.066,0.938,0.057c0.525-0.014,0.909,0.209,1.131,0.665c0.231,0.475,0.432,0.966,0.619,1.46
		c0.657,1.739,1.298,3.483,1.955,5.222c0.173,0.457,0.128,0.867-0.093,1.304c-0.499,0.986-1.279,1.738-2.031,2.512
		c-0.635,0.655-0.707,0.976-0.265,1.778c2.254,4.087,5.39,7.252,9.659,9.231c0.265,0.123,0.522,0.263,0.789,0.38
		c0.598,0.262,1,0.202,1.432-0.279c0.881-0.982,1.749-1.976,2.603-2.982c0.415-0.489,0.732-0.644,1.33-0.42
		c0.584,0.22,1.151,0.495,1.705,0.786c1.579,0.83,3.144,1.686,4.722,2.518C41.751,33.508,42.044,33.852,41.965,34.243z"/>
</g>
</svg>
